<svg id="_2UvWI9g_Layer_1" data-name="  2UvWI9g  Layer 1" xmlns="http://www.w3.org/2000/svg" viewBox="0 0 80.94 40.78"><defs><style>.cls-1{fill:#333;}.cls-2,.cls-3{fill:none;stroke:#000;}.cls-2{stroke-linecap:round;stroke-linejoin:round;stroke-width:2px;}.cls-3{stroke-miterlimit:10;stroke-width:0.5px;}</style></defs><path class="cls-1" d="M1.82,43.58,2.35,43a2.85,2.85,0,0,0,2,.87c1,0,1.54-.45,1.54-1.14s-.54-.92-1.24-1.23l-1-.43a2,2,0,0,1-1.5-1.79A2,2,0,0,1,4.42,37.4a3.06,3.06,0,0,1,2.13.85l-.47.57a2.41,2.41,0,0,0-1.66-.65c-.84,0-1.37.39-1.37,1s.64.91,1.23,1.16l1,.43c.84.36,1.53.82,1.53,1.85s-.93,2-2.45,2A3.49,3.49,0,0,1,1.82,43.58Z" transform="translate(-1.82 -3.83)"/><path class="cls-1" d="M8.14,41c0-2.24,1.28-3.61,3.09-3.61a2.54,2.54,0,0,1,1.88.84l-.49.56a1.86,1.86,0,0,0-1.39-.63C9.9,38.17,9,39.26,9,41s.86,2.86,2.19,2.86a2,2,0,0,0,1.55-.77l.5.54a2.68,2.68,0,0,1-2.11,1C9.43,44.61,8.14,43.27,8.14,41Z" transform="translate(-1.82 -3.83)"/><path class="cls-1" d="M14.82,37.53H17c1.4,0,2.42.5,2.42,1.95a1.9,1.9,0,0,1-1.55,2l1.76,3h-1l-1.67-3H15.7v3h-.88Zm2,3.3c1.07,0,1.66-.45,1.66-1.35s-.59-1.25-1.66-1.25H15.7v2.6Z" transform="translate(-1.82 -3.83)"/><path class="cls-1" d="M20.6,41c0-2.22,1.09-3.57,2.66-3.57s2.65,1.36,2.65,3.57-1.09,3.64-2.65,3.64S20.6,43.21,20.6,41ZM25,41c0-1.72-.7-2.8-1.75-2.8s-1.75,1.08-1.75,2.8.69,2.87,1.75,2.87S25,42.71,25,41Z" transform="translate(-1.82 -3.83)"/><path class="cls-1" d="M27.83,37.53h.86v6.21h3.43v.75H27.83Z" transform="translate(-1.82 -3.83)"/><path class="cls-1" d="M34.16,37.53H35v6.21h3.43v.75H34.16Z" transform="translate(-1.82 -3.83)"/><path class="cls-1" d="M48.11,38.27H45.84v-.74h5.44v.74H49v6.22h-.89Z" transform="translate(-1.82 -3.83)"/><path class="cls-1" d="M52.22,41c0-2.22,1.1-3.57,2.66-3.57s2.66,1.36,2.66,3.57-1.1,3.64-2.66,3.64S52.22,43.21,52.22,41Zm4.41,0c0-1.72-.69-2.8-1.75-2.8s-1.75,1.08-1.75,2.8.7,2.87,1.75,2.87S56.63,42.71,56.63,41Z" transform="translate(-1.82 -3.83)"/><path class="cls-1" d="M67.09,38.27H64.81v-.74h5.44v.74H68v6.22h-.88Z" transform="translate(-1.82 -3.83)"/><path class="cls-1" d="M71.2,41c0-2.22,1.1-3.57,2.66-3.57s2.65,1.36,2.65,3.57-1.09,3.64-2.65,3.64S71.2,43.21,71.2,41Zm4.41,0c0-1.72-.7-2.8-1.75-2.8s-1.75,1.08-1.75,2.8.69,2.87,1.75,2.87S75.61,42.71,75.61,41Z" transform="translate(-1.82 -3.83)"/><path class="cls-1" d="M78.09,37.53h2.12c1.53,0,2.55.51,2.55,2s-1,2.15-2.55,2.15H79v2.77h-.88Zm2,3.48c1.21,0,1.79-.45,1.79-1.44s-.59-1.34-1.79-1.34H79V41Z" transform="translate(-1.82 -3.83)"/><polyline class="cls-2" points="32.98 16.16 40.24 8.91 47.49 16.16"/><circle class="cls-3" cx="40.43" cy="13.71" r="13.46"/></svg>