<svg id="Layer_1" data-name="Layer 1" xmlns="http://www.w3.org/2000/svg" viewBox="0 0 90 86.5"><defs><style>.cls-1{fill:#527777;}</style></defs><path class="cls-1" d="M7.5,11.25A1.25,1.25,0,1,1,6.25,10,1.25,1.25,0,0,1,7.5,11.25Z" transform="translate(-5 -6.5)"/><path class="cls-1" d="M7.5,14.75A1.25,1.25,0,1,1,6.25,13.5,1.25,1.25,0,0,1,7.5,14.75Z" transform="translate(-5 -6.5)"/><path class="cls-1" d="M11,7.75A1.25,1.25,0,1,1,9.75,6.5,1.25,1.25,0,0,1,11,7.75Z" transform="translate(-5 -6.5)"/><path class="cls-1" d="M11,11.25A1.25,1.25,0,1,1,9.75,10,1.25,1.25,0,0,1,11,11.25Z" transform="translate(-5 -6.5)"/><path class="cls-1" d="M11,14.75A1.25,1.25,0,1,1,9.75,13.5,1.25,1.25,0,0,1,11,14.75Z" transform="translate(-5 -6.5)"/><path class="cls-1" d="M11,18.25A1.25,1.25,0,1,1,9.75,17,1.25,1.25,0,0,1,11,18.25Z" transform="translate(-5 -6.5)"/><path class="cls-1" d="M14.5,7.75A1.25,1.25,0,1,1,13.25,6.5,1.25,1.25,0,0,1,14.5,7.75Z" transform="translate(-5 -6.5)"/><path class="cls-1" d="M14.5,11.25A1.25,1.25,0,1,1,13.25,10,1.25,1.25,0,0,1,14.5,11.25Z" transform="translate(-5 -6.5)"/><path class="cls-1" d="M14.5,14.75a1.25,1.25,0,1,1-1.25-1.25A1.25,1.25,0,0,1,14.5,14.75Z" transform="translate(-5 -6.5)"/><path class="cls-1" d="M14.5,18.25A1.25,1.25,0,1,1,13.25,17,1.25,1.25,0,0,1,14.5,18.25Z" transform="translate(-5 -6.5)"/><path class="cls-1" d="M14.5,21.75a1.25,1.25,0,1,1-1.25-1.25A1.25,1.25,0,0,1,14.5,21.75Z" transform="translate(-5 -6.5)"/><path class="cls-1" d="M14.5,25.25A1.25,1.25,0,1,1,13.25,24,1.25,1.25,0,0,1,14.5,25.25Z" transform="translate(-5 -6.5)"/><path class="cls-1" d="M18,7.75A1.25,1.25,0,1,1,16.75,6.5,1.25,1.25,0,0,1,18,7.75Z" transform="translate(-5 -6.5)"/><path class="cls-1" d="M18,11.25A1.25,1.25,0,1,1,16.75,10,1.25,1.25,0,0,1,18,11.25Z" transform="translate(-5 -6.5)"/><path class="cls-1" d="M18,14.75a1.25,1.25,0,1,1-1.25-1.25A1.25,1.25,0,0,1,18,14.75Z" transform="translate(-5 -6.5)"/><path class="cls-1" d="M18,18.25A1.25,1.25,0,1,1,16.75,17,1.25,1.25,0,0,1,18,18.25Z" transform="translate(-5 -6.5)"/><path class="cls-1" d="M18,21.75a1.25,1.25,0,1,1-1.25-1.25A1.25,1.25,0,0,1,18,21.75Z" transform="translate(-5 -6.5)"/><path class="cls-1" d="M18,25.25A1.25,1.25,0,1,1,16.75,24,1.25,1.25,0,0,1,18,25.25Z" transform="translate(-5 -6.5)"/><path class="cls-1" d="M18,28.75a1.25,1.25,0,1,1-1.25-1.25A1.25,1.25,0,0,1,18,28.75Z" transform="translate(-5 -6.5)"/><path class="cls-1" d="M18,32.25A1.25,1.25,0,1,1,16.75,31,1.25,1.25,0,0,1,18,32.25Z" transform="translate(-5 -6.5)"/><path class="cls-1" d="M21.5,7.75A1.25,1.25,0,1,1,20.25,6.5,1.25,1.25,0,0,1,21.5,7.75Z" transform="translate(-5 -6.5)"/><path class="cls-1" d="M21.5,11.25A1.25,1.25,0,1,1,20.25,10,1.25,1.25,0,0,1,21.5,11.25Z" transform="translate(-5 -6.5)"/><path class="cls-1" d="M21.5,14.75a1.25,1.25,0,1,1-1.25-1.25A1.25,1.25,0,0,1,21.5,14.75Z" transform="translate(-5 -6.5)"/><path class="cls-1" d="M21.5,18.25A1.25,1.25,0,1,1,20.25,17,1.25,1.25,0,0,1,21.5,18.25Z" transform="translate(-5 -6.5)"/><path class="cls-1" d="M21.5,21.75a1.25,1.25,0,1,1-1.25-1.25A1.25,1.25,0,0,1,21.5,21.75Z" transform="translate(-5 -6.5)"/><path class="cls-1" d="M21.5,25.25A1.25,1.25,0,1,1,20.25,24,1.25,1.25,0,0,1,21.5,25.25Z" transform="translate(-5 -6.5)"/><path class="cls-1" d="M21.5,28.75a1.25,1.25,0,1,1-1.25-1.25A1.25,1.25,0,0,1,21.5,28.75Z" transform="translate(-5 -6.5)"/><path class="cls-1" d="M21.5,32.25A1.25,1.25,0,1,1,20.25,31,1.25,1.25,0,0,1,21.5,32.25Z" transform="translate(-5 -6.5)"/><path class="cls-1" d="M21.5,35.75a1.25,1.25,0,1,1-1.25-1.25A1.25,1.25,0,0,1,21.5,35.75Z" transform="translate(-5 -6.5)"/><path class="cls-1" d="M21.5,39.25A1.25,1.25,0,1,1,20.25,38,1.25,1.25,0,0,1,21.5,39.25Z" transform="translate(-5 -6.5)"/><path class="cls-1" d="M25,11.25A1.25,1.25,0,1,1,23.75,10,1.25,1.25,0,0,1,25,11.25Z" transform="translate(-5 -6.5)"/><path class="cls-1" d="M25,14.75a1.25,1.25,0,1,1-1.25-1.25A1.25,1.25,0,0,1,25,14.75Z" transform="translate(-5 -6.5)"/><path class="cls-1" d="M25,18.25A1.25,1.25,0,1,1,23.75,17,1.25,1.25,0,0,1,25,18.25Z" transform="translate(-5 -6.5)"/><path class="cls-1" d="M25,21.75a1.25,1.25,0,1,1-1.25-1.25A1.25,1.25,0,0,1,25,21.75Z" transform="translate(-5 -6.5)"/><path class="cls-1" d="M25,25.25A1.25,1.25,0,1,1,23.75,24,1.25,1.25,0,0,1,25,25.25Z" transform="translate(-5 -6.5)"/><path class="cls-1" d="M25,28.75a1.25,1.25,0,1,1-1.25-1.25A1.25,1.25,0,0,1,25,28.75Z" transform="translate(-5 -6.5)"/><path class="cls-1" d="M25,32.25A1.25,1.25,0,1,1,23.75,31,1.25,1.25,0,0,1,25,32.25Z" transform="translate(-5 -6.5)"/><path class="cls-1" d="M25,35.75a1.25,1.25,0,1,1-1.25-1.25A1.25,1.25,0,0,1,25,35.75Z" transform="translate(-5 -6.5)"/><path class="cls-1" d="M25,39.25A1.25,1.25,0,1,1,23.75,38,1.25,1.25,0,0,1,25,39.25Z" transform="translate(-5 -6.5)"/><path class="cls-1" d="M25,42.75a1.25,1.25,0,1,1-1.25-1.25A1.25,1.25,0,0,1,25,42.75Z" transform="translate(-5 -6.5)"/><path class="cls-1" d="M28.5,11.25A1.25,1.25,0,1,1,27.25,10,1.25,1.25,0,0,1,28.5,11.25Z" transform="translate(-5 -6.5)"/><path class="cls-1" d="M28.5,14.75a1.25,1.25,0,1,1-1.25-1.25A1.25,1.25,0,0,1,28.5,14.75Z" transform="translate(-5 -6.5)"/><path class="cls-1" d="M28.5,18.25A1.25,1.25,0,1,1,27.25,17,1.25,1.25,0,0,1,28.5,18.25Z" transform="translate(-5 -6.5)"/><path class="cls-1" d="M28.5,21.75a1.25,1.25,0,1,1-1.25-1.25A1.25,1.25,0,0,1,28.5,21.75Z" transform="translate(-5 -6.5)"/><path class="cls-1" d="M28.5,25.25A1.25,1.25,0,1,1,27.25,24,1.25,1.25,0,0,1,28.5,25.25Z" transform="translate(-5 -6.5)"/><path class="cls-1" d="M28.5,28.75a1.25,1.25,0,1,1-1.25-1.25A1.25,1.25,0,0,1,28.5,28.75Z" transform="translate(-5 -6.5)"/><path class="cls-1" d="M28.5,32.25A1.25,1.25,0,1,1,27.25,31,1.25,1.25,0,0,1,28.5,32.25Z" transform="translate(-5 -6.5)"/><path class="cls-1" d="M28.5,35.75a1.25,1.25,0,1,1-1.25-1.25A1.25,1.25,0,0,1,28.5,35.75Z" transform="translate(-5 -6.5)"/><path class="cls-1" d="M28.5,39.25A1.25,1.25,0,1,1,27.25,38,1.25,1.25,0,0,1,28.5,39.25Z" transform="translate(-5 -6.5)"/><path class="cls-1" d="M28.5,42.75a1.25,1.25,0,1,1-1.25-1.25A1.25,1.25,0,0,1,28.5,42.75Z" transform="translate(-5 -6.5)"/><path class="cls-1" d="M28.5,46.25A1.25,1.25,0,1,1,27.25,45,1.25,1.25,0,0,1,28.5,46.25Z" transform="translate(-5 -6.5)"/><path class="cls-1" d="M28.5,49.75a1.25,1.25,0,1,1-1.25-1.25A1.25,1.25,0,0,1,28.5,49.75Z" transform="translate(-5 -6.5)"/><path class="cls-1" d="M28.5,53.25A1.25,1.25,0,1,1,27.25,52,1.25,1.25,0,0,1,28.5,53.25Z" transform="translate(-5 -6.5)"/><path class="cls-1" d="M28.5,56.75A1.25,1.25,0,0,1,27.25,58h0A1.25,1.25,0,0,1,26,56.75h0a1.25,1.25,0,0,1,1.25-1.25h0a1.25,1.25,0,0,1,1.25,1.25Z" transform="translate(-5 -6.5)"/><path class="cls-1" d="M28.5,60.25A1.25,1.25,0,1,1,27.25,59h0a1.25,1.25,0,0,1,1.25,1.25Z" transform="translate(-5 -6.5)"/><path class="cls-1" d="M28.5,63.75a1.25,1.25,0,1,1-1.25-1.25A1.25,1.25,0,0,1,28.5,63.75Z" transform="translate(-5 -6.5)"/><path class="cls-1" d="M28.5,67.25A1.25,1.25,0,1,1,27.25,66,1.25,1.25,0,0,1,28.5,67.25Z" transform="translate(-5 -6.5)"/><path class="cls-1" d="M28.5,70.75a1.25,1.25,0,1,1-1.25-1.25h0a1.25,1.25,0,0,1,1.25,1.25Z" transform="translate(-5 -6.5)"/><path class="cls-1" d="M32,11.25A1.25,1.25,0,1,1,30.75,10,1.25,1.25,0,0,1,32,11.25Z" transform="translate(-5 -6.5)"/><path class="cls-1" d="M32,14.75a1.25,1.25,0,1,1-1.25-1.25A1.25,1.25,0,0,1,32,14.75Z" transform="translate(-5 -6.5)"/><path class="cls-1" d="M32,18.25A1.25,1.25,0,1,1,30.75,17,1.25,1.25,0,0,1,32,18.25Z" transform="translate(-5 -6.5)"/><path class="cls-1" d="M32,21.75a1.25,1.25,0,1,1-1.25-1.25A1.25,1.25,0,0,1,32,21.75Z" transform="translate(-5 -6.5)"/><path class="cls-1" d="M32,25.25A1.25,1.25,0,1,1,30.75,24,1.25,1.25,0,0,1,32,25.25Z" transform="translate(-5 -6.5)"/><path class="cls-1" d="M32,28.75a1.25,1.25,0,1,1-1.25-1.25A1.25,1.25,0,0,1,32,28.75Z" transform="translate(-5 -6.5)"/><path class="cls-1" d="M32,32.25A1.25,1.25,0,1,1,30.75,31,1.25,1.25,0,0,1,32,32.25Z" transform="translate(-5 -6.5)"/><path class="cls-1" d="M32,35.75a1.25,1.25,0,1,1-1.25-1.25A1.25,1.25,0,0,1,32,35.75Z" transform="translate(-5 -6.5)"/><path class="cls-1" d="M32,39.25A1.25,1.25,0,1,1,30.75,38,1.25,1.25,0,0,1,32,39.25Z" transform="translate(-5 -6.5)"/><path class="cls-1" d="M32,42.75a1.25,1.25,0,1,1-1.25-1.25A1.25,1.25,0,0,1,32,42.75Z" transform="translate(-5 -6.5)"/><path class="cls-1" d="M32,46.25A1.25,1.25,0,1,1,30.75,45,1.25,1.25,0,0,1,32,46.25Z" transform="translate(-5 -6.5)"/><path class="cls-1" d="M32,49.75a1.25,1.25,0,1,1-1.25-1.25A1.25,1.25,0,0,1,32,49.75Z" transform="translate(-5 -6.5)"/><path class="cls-1" d="M32,53.25A1.25,1.25,0,1,1,30.75,52,1.25,1.25,0,0,1,32,53.25Z" transform="translate(-5 -6.5)"/><path class="cls-1" d="M32,56.75A1.25,1.25,0,0,1,30.75,58h0a1.25,1.25,0,0,1-1.25-1.25h0a1.25,1.25,0,0,1,1.25-1.25h0A1.25,1.25,0,0,1,32,56.75Z" transform="translate(-5 -6.5)"/><path class="cls-1" d="M32,60.25A1.25,1.25,0,1,1,30.75,59h0A1.25,1.25,0,0,1,32,60.25Z" transform="translate(-5 -6.5)"/><path class="cls-1" d="M32,63.75a1.25,1.25,0,1,1-1.25-1.25A1.25,1.25,0,0,1,32,63.75Z" transform="translate(-5 -6.5)"/><path class="cls-1" d="M32,67.25A1.25,1.25,0,1,1,30.75,66,1.25,1.25,0,0,1,32,67.25Z" transform="translate(-5 -6.5)"/><path class="cls-1" d="M32,70.75a1.25,1.25,0,1,1-1.25-1.25h0A1.25,1.25,0,0,1,32,70.75Z" transform="translate(-5 -6.5)"/><path class="cls-1" d="M32,74.25A1.25,1.25,0,1,1,30.75,73,1.25,1.25,0,0,1,32,74.25Z" transform="translate(-5 -6.5)"/><path class="cls-1" d="M32,77.75a1.25,1.25,0,1,1-1.25-1.25A1.25,1.25,0,0,1,32,77.75Z" transform="translate(-5 -6.5)"/><path class="cls-1" d="M32,81.25A1.25,1.25,0,1,1,30.75,80,1.25,1.25,0,0,1,32,81.25Z" transform="translate(-5 -6.5)"/><path class="cls-1" d="M35.5,11.25A1.25,1.25,0,1,1,34.25,10,1.25,1.25,0,0,1,35.5,11.25Z" transform="translate(-5 -6.5)"/><path class="cls-1" d="M35.5,14.75a1.25,1.25,0,1,1-1.25-1.25A1.25,1.25,0,0,1,35.5,14.75Z" transform="translate(-5 -6.5)"/><path class="cls-1" d="M35.5,18.25A1.25,1.25,0,1,1,34.25,17,1.25,1.25,0,0,1,35.5,18.25Z" transform="translate(-5 -6.5)"/><path class="cls-1" d="M35.5,21.75a1.25,1.25,0,1,1-1.25-1.25A1.25,1.25,0,0,1,35.5,21.75Z" transform="translate(-5 -6.5)"/><path class="cls-1" d="M35.5,25.25A1.25,1.25,0,1,1,34.25,24,1.25,1.25,0,0,1,35.5,25.25Z" transform="translate(-5 -6.5)"/><path class="cls-1" d="M35.5,28.75a1.25,1.25,0,1,1-1.25-1.25A1.25,1.25,0,0,1,35.5,28.75Z" transform="translate(-5 -6.5)"/><path class="cls-1" d="M35.5,32.25A1.25,1.25,0,1,1,34.25,31,1.25,1.25,0,0,1,35.5,32.25Z" transform="translate(-5 -6.5)"/><path class="cls-1" d="M35.5,35.75a1.25,1.25,0,1,1-1.25-1.25A1.25,1.25,0,0,1,35.5,35.75Z" transform="translate(-5 -6.5)"/><path class="cls-1" d="M35.5,39.25A1.25,1.25,0,1,1,34.25,38,1.25,1.25,0,0,1,35.5,39.25Z" transform="translate(-5 -6.5)"/><path class="cls-1" d="M35.5,42.75a1.25,1.25,0,1,1-1.25-1.25A1.25,1.25,0,0,1,35.5,42.75Z" transform="translate(-5 -6.5)"/><path class="cls-1" d="M35.5,46.25A1.25,1.25,0,1,1,34.25,45,1.25,1.25,0,0,1,35.5,46.25Z" transform="translate(-5 -6.5)"/><path class="cls-1" d="M35.5,49.75a1.25,1.25,0,1,1-1.25-1.25A1.25,1.25,0,0,1,35.5,49.75Z" transform="translate(-5 -6.5)"/><path class="cls-1" d="M35.5,53.25A1.25,1.25,0,1,1,34.25,52,1.25,1.25,0,0,1,35.5,53.25Z" transform="translate(-5 -6.5)"/><path class="cls-1" d="M35.5,56.75A1.25,1.25,0,0,1,34.25,58h0A1.25,1.25,0,0,1,33,56.75h0a1.25,1.25,0,0,1,1.25-1.25h0a1.25,1.25,0,0,1,1.25,1.25Z" transform="translate(-5 -6.5)"/><path class="cls-1" d="M35.5,60.25A1.25,1.25,0,1,1,34.25,59h0a1.25,1.25,0,0,1,1.25,1.25Z" transform="translate(-5 -6.5)"/><path class="cls-1" d="M35.5,63.75a1.25,1.25,0,1,1-1.25-1.25A1.25,1.25,0,0,1,35.5,63.75Z" transform="translate(-5 -6.5)"/><path class="cls-1" d="M35.5,67.25A1.25,1.25,0,1,1,34.25,66,1.25,1.25,0,0,1,35.5,67.25Z" transform="translate(-5 -6.5)"/><path class="cls-1" d="M35.5,70.75a1.25,1.25,0,1,1-1.25-1.25h0a1.25,1.25,0,0,1,1.25,1.25Z" transform="translate(-5 -6.5)"/><path class="cls-1" d="M35.5,74.25A1.25,1.25,0,1,1,34.25,73,1.25,1.25,0,0,1,35.5,74.25Z" transform="translate(-5 -6.5)"/><path class="cls-1" d="M35.5,77.75a1.25,1.25,0,1,1-1.25-1.25A1.25,1.25,0,0,1,35.5,77.75Z" transform="translate(-5 -6.5)"/><path class="cls-1" d="M35.5,81.25A1.25,1.25,0,1,1,34.25,80,1.25,1.25,0,0,1,35.5,81.25Z" transform="translate(-5 -6.5)"/><path class="cls-1" d="M35.5,84.75a1.25,1.25,0,1,1-1.25-1.25A1.25,1.25,0,0,1,35.5,84.75Z" transform="translate(-5 -6.5)"/><path class="cls-1" d="M39,11.25A1.25,1.25,0,1,1,37.75,10,1.25,1.25,0,0,1,39,11.25Z" transform="translate(-5 -6.5)"/><path class="cls-1" d="M39,14.75a1.25,1.25,0,1,1-1.25-1.25A1.25,1.25,0,0,1,39,14.75Z" transform="translate(-5 -6.5)"/><path class="cls-1" d="M39,18.25A1.25,1.25,0,1,1,37.75,17,1.25,1.25,0,0,1,39,18.25Z" transform="translate(-5 -6.5)"/><path class="cls-1" d="M39,21.75a1.25,1.25,0,1,1-1.25-1.25A1.25,1.25,0,0,1,39,21.75Z" transform="translate(-5 -6.5)"/><path class="cls-1" d="M39,25.25A1.25,1.25,0,1,1,37.75,24,1.25,1.25,0,0,1,39,25.25Z" transform="translate(-5 -6.5)"/><path class="cls-1" d="M39,28.75a1.25,1.25,0,1,1-1.25-1.25A1.25,1.25,0,0,1,39,28.75Z" transform="translate(-5 -6.5)"/><path class="cls-1" d="M39,32.25A1.25,1.25,0,1,1,37.75,31,1.25,1.25,0,0,1,39,32.25Z" transform="translate(-5 -6.5)"/><path class="cls-1" d="M39,35.75a1.25,1.25,0,1,1-1.25-1.25A1.25,1.25,0,0,1,39,35.75Z" transform="translate(-5 -6.5)"/><path class="cls-1" d="M39,39.25A1.25,1.25,0,1,1,37.75,38,1.25,1.25,0,0,1,39,39.25Z" transform="translate(-5 -6.5)"/><path class="cls-1" d="M39,42.75a1.25,1.25,0,1,1-1.25-1.25A1.25,1.25,0,0,1,39,42.75Z" transform="translate(-5 -6.5)"/><path class="cls-1" d="M39,46.25A1.25,1.25,0,1,1,37.75,45,1.25,1.25,0,0,1,39,46.25Z" transform="translate(-5 -6.5)"/><path class="cls-1" d="M39,49.75a1.25,1.25,0,1,1-1.25-1.25A1.25,1.25,0,0,1,39,49.75Z" transform="translate(-5 -6.5)"/><path class="cls-1" d="M39,53.25A1.25,1.25,0,1,1,37.75,52,1.25,1.25,0,0,1,39,53.25Z" transform="translate(-5 -6.5)"/><path class="cls-1" d="M39,56.75A1.25,1.25,0,0,1,37.75,58h0a1.25,1.25,0,0,1-1.25-1.25h0a1.25,1.25,0,0,1,1.25-1.25h0A1.25,1.25,0,0,1,39,56.75Z" transform="translate(-5 -6.5)"/><path class="cls-1" d="M39,60.25A1.25,1.25,0,1,1,37.75,59h0A1.25,1.25,0,0,1,39,60.25Z" transform="translate(-5 -6.5)"/><path class="cls-1" d="M39,63.75a1.25,1.25,0,1,1-1.25-1.25A1.25,1.25,0,0,1,39,63.75Z" transform="translate(-5 -6.5)"/><path class="cls-1" d="M39,67.25A1.25,1.25,0,1,1,37.75,66,1.25,1.25,0,0,1,39,67.25Z" transform="translate(-5 -6.5)"/><path class="cls-1" d="M39,70.75a1.25,1.25,0,1,1-1.25-1.25h0A1.25,1.25,0,0,1,39,70.75Z" transform="translate(-5 -6.5)"/><path class="cls-1" d="M39,74.25A1.25,1.25,0,1,1,37.75,73,1.25,1.25,0,0,1,39,74.25Z" transform="translate(-5 -6.5)"/><path class="cls-1" d="M39,77.75a1.25,1.25,0,1,1-1.25-1.25A1.25,1.25,0,0,1,39,77.75Z" transform="translate(-5 -6.5)"/><path class="cls-1" d="M39,81.25A1.25,1.25,0,1,1,37.75,80,1.25,1.25,0,0,1,39,81.25Z" transform="translate(-5 -6.5)"/><path class="cls-1" d="M39,84.75a1.25,1.25,0,1,1-1.25-1.25A1.25,1.25,0,0,1,39,84.75Z" transform="translate(-5 -6.5)"/><path class="cls-1" d="M39,88.25A1.25,1.25,0,1,1,37.75,87,1.25,1.25,0,0,1,39,88.25Z" transform="translate(-5 -6.5)"/><path class="cls-1" d="M42.5,11.25A1.25,1.25,0,1,1,41.25,10,1.25,1.25,0,0,1,42.5,11.25Z" transform="translate(-5 -6.5)"/><path class="cls-1" d="M42.5,14.75a1.25,1.25,0,1,1-1.25-1.25A1.25,1.25,0,0,1,42.5,14.75Z" transform="translate(-5 -6.5)"/><path class="cls-1" d="M42.5,18.25A1.25,1.25,0,1,1,41.25,17,1.25,1.25,0,0,1,42.5,18.25Z" transform="translate(-5 -6.5)"/><path class="cls-1" d="M42.5,21.75a1.25,1.25,0,1,1-1.25-1.25A1.25,1.25,0,0,1,42.5,21.75Z" transform="translate(-5 -6.5)"/><path class="cls-1" d="M42.5,25.25A1.25,1.25,0,1,1,41.25,24,1.25,1.25,0,0,1,42.5,25.25Z" transform="translate(-5 -6.5)"/><path class="cls-1" d="M42.5,28.75a1.25,1.25,0,1,1-1.25-1.25A1.25,1.25,0,0,1,42.5,28.75Z" transform="translate(-5 -6.5)"/><path class="cls-1" d="M42.5,32.25A1.25,1.25,0,1,1,41.25,31,1.25,1.25,0,0,1,42.5,32.25Z" transform="translate(-5 -6.5)"/><path class="cls-1" d="M42.5,35.75a1.25,1.25,0,1,1-1.25-1.25A1.25,1.25,0,0,1,42.5,35.75Z" transform="translate(-5 -6.5)"/><path class="cls-1" d="M42.5,39.25A1.25,1.25,0,1,1,41.25,38,1.25,1.25,0,0,1,42.5,39.25Z" transform="translate(-5 -6.5)"/><path class="cls-1" d="M42.5,42.75a1.25,1.25,0,1,1-1.25-1.25A1.25,1.25,0,0,1,42.5,42.75Z" transform="translate(-5 -6.5)"/><path class="cls-1" d="M42.5,46.25A1.25,1.25,0,1,1,41.25,45,1.25,1.25,0,0,1,42.5,46.25Z" transform="translate(-5 -6.5)"/><path class="cls-1" d="M42.5,49.75a1.25,1.25,0,1,1-1.25-1.25A1.25,1.25,0,0,1,42.5,49.75Z" transform="translate(-5 -6.5)"/><path class="cls-1" d="M42.5,53.25A1.25,1.25,0,1,1,41.25,52,1.25,1.25,0,0,1,42.5,53.25Z" transform="translate(-5 -6.5)"/><path class="cls-1" d="M42.5,56.75A1.25,1.25,0,0,1,41.25,58h0A1.25,1.25,0,0,1,40,56.75h0a1.25,1.25,0,0,1,1.25-1.25h0a1.25,1.25,0,0,1,1.25,1.25Z" transform="translate(-5 -6.5)"/><path class="cls-1" d="M42.5,60.25A1.25,1.25,0,1,1,41.25,59h0a1.25,1.25,0,0,1,1.25,1.25Z" transform="translate(-5 -6.5)"/><path class="cls-1" d="M42.5,63.75a1.25,1.25,0,1,1-1.25-1.25A1.25,1.25,0,0,1,42.5,63.75Z" transform="translate(-5 -6.5)"/><path class="cls-1" d="M42.5,67.25A1.25,1.25,0,1,1,41.25,66,1.25,1.25,0,0,1,42.5,67.25Z" transform="translate(-5 -6.5)"/><path class="cls-1" d="M42.5,70.75a1.25,1.25,0,1,1-1.25-1.25h0a1.25,1.25,0,0,1,1.25,1.25Z" transform="translate(-5 -6.5)"/><path class="cls-1" d="M42.5,74.25A1.25,1.25,0,1,1,41.25,73,1.25,1.25,0,0,1,42.5,74.25Z" transform="translate(-5 -6.5)"/><path class="cls-1" d="M42.5,77.75a1.25,1.25,0,1,1-1.25-1.25A1.25,1.25,0,0,1,42.5,77.75Z" transform="translate(-5 -6.5)"/><path class="cls-1" d="M42.5,81.25A1.25,1.25,0,1,1,41.25,80,1.25,1.25,0,0,1,42.5,81.25Z" transform="translate(-5 -6.5)"/><path class="cls-1" d="M42.5,84.75a1.25,1.25,0,1,1-1.25-1.25A1.25,1.25,0,0,1,42.5,84.75Z" transform="translate(-5 -6.5)"/><path class="cls-1" d="M42.5,88.25A1.25,1.25,0,1,1,41.25,87,1.25,1.25,0,0,1,42.5,88.25Z" transform="translate(-5 -6.5)"/><path class="cls-1" d="M46,11.25A1.25,1.25,0,1,1,44.75,10,1.25,1.25,0,0,1,46,11.25Z" transform="translate(-5 -6.5)"/><path class="cls-1" d="M46,14.75a1.25,1.25,0,1,1-1.25-1.25A1.25,1.25,0,0,1,46,14.75Z" transform="translate(-5 -6.5)"/><path class="cls-1" d="M46,18.25A1.25,1.25,0,1,1,44.75,17,1.25,1.25,0,0,1,46,18.25Z" transform="translate(-5 -6.5)"/><path class="cls-1" d="M46,21.75a1.25,1.25,0,1,1-1.25-1.25A1.25,1.25,0,0,1,46,21.75Z" transform="translate(-5 -6.5)"/><path class="cls-1" d="M46,25.25A1.25,1.25,0,1,1,44.75,24,1.25,1.25,0,0,1,46,25.25Z" transform="translate(-5 -6.5)"/><path class="cls-1" d="M46,28.75a1.25,1.25,0,1,1-1.25-1.25A1.25,1.25,0,0,1,46,28.75Z" transform="translate(-5 -6.5)"/><path class="cls-1" d="M46,32.25A1.25,1.25,0,1,1,44.75,31,1.25,1.25,0,0,1,46,32.25Z" transform="translate(-5 -6.5)"/><path class="cls-1" d="M46,35.75a1.25,1.25,0,1,1-1.25-1.25A1.25,1.25,0,0,1,46,35.75Z" transform="translate(-5 -6.5)"/><path class="cls-1" d="M46,39.25A1.25,1.25,0,1,1,44.75,38,1.25,1.25,0,0,1,46,39.25Z" transform="translate(-5 -6.5)"/><path class="cls-1" d="M46,42.75a1.25,1.25,0,1,1-1.25-1.25A1.25,1.25,0,0,1,46,42.75Z" transform="translate(-5 -6.5)"/><path class="cls-1" d="M46,46.25A1.25,1.25,0,1,1,44.75,45,1.25,1.25,0,0,1,46,46.25Z" transform="translate(-5 -6.5)"/><path class="cls-1" d="M46,49.75a1.25,1.25,0,1,1-1.25-1.25A1.25,1.25,0,0,1,46,49.75Z" transform="translate(-5 -6.5)"/><path class="cls-1" d="M46,53.25A1.25,1.25,0,1,1,44.75,52,1.25,1.25,0,0,1,46,53.25Z" transform="translate(-5 -6.5)"/><path class="cls-1" d="M46,56.75A1.25,1.25,0,0,1,44.75,58h0a1.25,1.25,0,0,1-1.25-1.25h0a1.25,1.25,0,0,1,1.25-1.25h0A1.25,1.25,0,0,1,46,56.75Z" transform="translate(-5 -6.5)"/><path class="cls-1" d="M46,60.25A1.25,1.25,0,1,1,44.75,59h0A1.25,1.25,0,0,1,46,60.25Z" transform="translate(-5 -6.5)"/><path class="cls-1" d="M46,63.75a1.25,1.25,0,1,1-1.25-1.25A1.25,1.25,0,0,1,46,63.75Z" transform="translate(-5 -6.5)"/><path class="cls-1" d="M46,67.25A1.25,1.25,0,1,1,44.75,66,1.25,1.25,0,0,1,46,67.25Z" transform="translate(-5 -6.5)"/><path class="cls-1" d="M46,70.75a1.25,1.25,0,1,1-1.25-1.25h0A1.25,1.25,0,0,1,46,70.75Z" transform="translate(-5 -6.5)"/><path class="cls-1" d="M46,74.25A1.25,1.25,0,1,1,44.75,73,1.25,1.25,0,0,1,46,74.25Z" transform="translate(-5 -6.5)"/><path class="cls-1" d="M46,77.75a1.25,1.25,0,1,1-1.25-1.25A1.25,1.25,0,0,1,46,77.75Z" transform="translate(-5 -6.5)"/><path class="cls-1" d="M46,81.25A1.25,1.25,0,1,1,44.75,80,1.25,1.25,0,0,1,46,81.25Z" transform="translate(-5 -6.5)"/><path class="cls-1" d="M46,84.75a1.25,1.25,0,1,1-1.25-1.25A1.25,1.25,0,0,1,46,84.75Z" transform="translate(-5 -6.5)"/><path class="cls-1" d="M46,88.25A1.25,1.25,0,1,1,44.75,87,1.25,1.25,0,0,1,46,88.25Z" transform="translate(-5 -6.5)"/><path class="cls-1" d="M49.5,11.25A1.25,1.25,0,1,1,48.25,10,1.25,1.25,0,0,1,49.5,11.25Z" transform="translate(-5 -6.5)"/><path class="cls-1" d="M49.5,14.75a1.25,1.25,0,1,1-1.25-1.25A1.25,1.25,0,0,1,49.5,14.75Z" transform="translate(-5 -6.5)"/><path class="cls-1" d="M49.5,18.25A1.25,1.25,0,1,1,48.25,17,1.25,1.25,0,0,1,49.5,18.25Z" transform="translate(-5 -6.5)"/><path class="cls-1" d="M49.5,21.75a1.25,1.25,0,1,1-1.25-1.25A1.25,1.25,0,0,1,49.5,21.75Z" transform="translate(-5 -6.5)"/><path class="cls-1" d="M49.5,25.25A1.25,1.25,0,1,1,48.25,24,1.25,1.25,0,0,1,49.5,25.25Z" transform="translate(-5 -6.5)"/><path class="cls-1" d="M49.5,28.75a1.25,1.25,0,1,1-1.25-1.25A1.25,1.25,0,0,1,49.5,28.75Z" transform="translate(-5 -6.5)"/><path class="cls-1" d="M49.5,32.25A1.25,1.25,0,1,1,48.25,31,1.25,1.25,0,0,1,49.5,32.25Z" transform="translate(-5 -6.5)"/><path class="cls-1" d="M49.5,35.75a1.25,1.25,0,1,1-1.25-1.25A1.25,1.25,0,0,1,49.5,35.75Z" transform="translate(-5 -6.5)"/><path class="cls-1" d="M49.5,39.25A1.25,1.25,0,1,1,48.25,38,1.25,1.25,0,0,1,49.5,39.25Z" transform="translate(-5 -6.5)"/><path class="cls-1" d="M49.5,42.75a1.25,1.25,0,1,1-1.25-1.25A1.25,1.25,0,0,1,49.5,42.75Z" transform="translate(-5 -6.5)"/><path class="cls-1" d="M49.5,46.25A1.25,1.25,0,1,1,48.25,45,1.25,1.25,0,0,1,49.5,46.25Z" transform="translate(-5 -6.5)"/><path class="cls-1" d="M49.5,49.75a1.25,1.25,0,1,1-1.25-1.25A1.25,1.25,0,0,1,49.5,49.75Z" transform="translate(-5 -6.5)"/><path class="cls-1" d="M49.5,53.25A1.25,1.25,0,1,1,48.25,52,1.25,1.25,0,0,1,49.5,53.25Z" transform="translate(-5 -6.5)"/><path class="cls-1" d="M49.5,56.75A1.25,1.25,0,0,1,48.25,58h0A1.25,1.25,0,0,1,47,56.75h0a1.25,1.25,0,0,1,1.25-1.25h0a1.25,1.25,0,0,1,1.25,1.25Z" transform="translate(-5 -6.5)"/><path class="cls-1" d="M49.5,60.25A1.25,1.25,0,1,1,48.25,59h0a1.25,1.25,0,0,1,1.25,1.25Z" transform="translate(-5 -6.5)"/><path class="cls-1" d="M49.5,63.75a1.25,1.25,0,1,1-1.25-1.25A1.25,1.25,0,0,1,49.5,63.75Z" transform="translate(-5 -6.5)"/><path class="cls-1" d="M49.5,67.25A1.25,1.25,0,1,1,48.25,66,1.25,1.25,0,0,1,49.5,67.25Z" transform="translate(-5 -6.5)"/><path class="cls-1" d="M49.5,70.75a1.25,1.25,0,1,1-1.25-1.25h0a1.25,1.25,0,0,1,1.25,1.25Z" transform="translate(-5 -6.5)"/><path class="cls-1" d="M49.5,74.25A1.25,1.25,0,1,1,48.25,73,1.25,1.25,0,0,1,49.5,74.25Z" transform="translate(-5 -6.5)"/><path class="cls-1" d="M49.5,77.75a1.25,1.25,0,1,1-1.25-1.25A1.25,1.25,0,0,1,49.5,77.75Z" transform="translate(-5 -6.5)"/><path class="cls-1" d="M49.5,81.25A1.25,1.25,0,1,1,48.25,80,1.25,1.25,0,0,1,49.5,81.25Z" transform="translate(-5 -6.5)"/><path class="cls-1" d="M49.5,84.75a1.25,1.25,0,1,1-1.25-1.25A1.25,1.25,0,0,1,49.5,84.75Z" transform="translate(-5 -6.5)"/><path class="cls-1" d="M49.5,88.25A1.25,1.25,0,1,1,48.25,87,1.25,1.25,0,0,1,49.5,88.25Z" transform="translate(-5 -6.5)"/><path class="cls-1" d="M49.5,91.75a1.25,1.25,0,1,1-1.25-1.25A1.25,1.25,0,0,1,49.5,91.75Z" transform="translate(-5 -6.5)"/><path class="cls-1" d="M53,11.25A1.25,1.25,0,1,1,51.75,10,1.25,1.25,0,0,1,53,11.25Z" transform="translate(-5 -6.5)"/><path class="cls-1" d="M53,14.75a1.25,1.25,0,1,1-1.25-1.25A1.25,1.25,0,0,1,53,14.75Z" transform="translate(-5 -6.5)"/><path class="cls-1" d="M53,18.25A1.25,1.25,0,1,1,51.75,17,1.25,1.25,0,0,1,53,18.25Z" transform="translate(-5 -6.5)"/><path class="cls-1" d="M53,21.75a1.25,1.25,0,1,1-1.25-1.25A1.25,1.25,0,0,1,53,21.75Z" transform="translate(-5 -6.5)"/><path class="cls-1" d="M53,25.25A1.25,1.25,0,1,1,51.75,24,1.25,1.25,0,0,1,53,25.25Z" transform="translate(-5 -6.5)"/><path class="cls-1" d="M53,28.75a1.25,1.25,0,1,1-1.25-1.25A1.25,1.25,0,0,1,53,28.75Z" transform="translate(-5 -6.5)"/><path class="cls-1" d="M53,32.25A1.25,1.25,0,1,1,51.75,31,1.25,1.25,0,0,1,53,32.25Z" transform="translate(-5 -6.5)"/><path class="cls-1" d="M53,35.75a1.25,1.25,0,1,1-1.25-1.25A1.25,1.25,0,0,1,53,35.75Z" transform="translate(-5 -6.5)"/><path class="cls-1" d="M53,39.25A1.25,1.25,0,1,1,51.75,38,1.25,1.25,0,0,1,53,39.25Z" transform="translate(-5 -6.5)"/><path class="cls-1" d="M53,42.75a1.25,1.25,0,1,1-1.25-1.25A1.25,1.25,0,0,1,53,42.75Z" transform="translate(-5 -6.5)"/><path class="cls-1" d="M53,46.25A1.25,1.25,0,1,1,51.75,45,1.25,1.25,0,0,1,53,46.25Z" transform="translate(-5 -6.5)"/><path class="cls-1" d="M53,49.75a1.25,1.25,0,1,1-1.25-1.25A1.25,1.25,0,0,1,53,49.75Z" transform="translate(-5 -6.5)"/><path class="cls-1" d="M53,53.25A1.25,1.25,0,1,1,51.75,52,1.25,1.25,0,0,1,53,53.25Z" transform="translate(-5 -6.5)"/><path class="cls-1" d="M53,56.75A1.25,1.25,0,0,1,51.75,58h0a1.25,1.25,0,0,1-1.25-1.25h0a1.25,1.25,0,0,1,1.25-1.25h0A1.25,1.25,0,0,1,53,56.75Z" transform="translate(-5 -6.5)"/><path class="cls-1" d="M53,60.25A1.25,1.25,0,1,1,51.75,59h0A1.25,1.25,0,0,1,53,60.25Z" transform="translate(-5 -6.5)"/><path class="cls-1" d="M53,63.75a1.25,1.25,0,1,1-1.25-1.25A1.25,1.25,0,0,1,53,63.75Z" transform="translate(-5 -6.5)"/><path class="cls-1" d="M53,67.25A1.25,1.25,0,1,1,51.75,66,1.25,1.25,0,0,1,53,67.25Z" transform="translate(-5 -6.5)"/><path class="cls-1" d="M53,70.75a1.25,1.25,0,1,1-1.25-1.25h0A1.25,1.25,0,0,1,53,70.75Z" transform="translate(-5 -6.5)"/><path class="cls-1" d="M53,74.25A1.25,1.25,0,1,1,51.75,73,1.25,1.25,0,0,1,53,74.25Z" transform="translate(-5 -6.5)"/><path class="cls-1" d="M53,77.75a1.25,1.25,0,1,1-1.25-1.25A1.25,1.25,0,0,1,53,77.75Z" transform="translate(-5 -6.5)"/><path class="cls-1" d="M53,81.25A1.25,1.25,0,1,1,51.75,80,1.25,1.25,0,0,1,53,81.25Z" transform="translate(-5 -6.5)"/><path class="cls-1" d="M53,84.75a1.25,1.25,0,1,1-1.25-1.25A1.25,1.25,0,0,1,53,84.75Z" transform="translate(-5 -6.5)"/><path class="cls-1" d="M53,88.25A1.25,1.25,0,1,1,51.75,87,1.25,1.25,0,0,1,53,88.25Z" transform="translate(-5 -6.5)"/><path class="cls-1" d="M53,91.75a1.25,1.25,0,1,1-1.25-1.25A1.25,1.25,0,0,1,53,91.75Z" transform="translate(-5 -6.5)"/><path class="cls-1" d="M56.5,14.75a1.25,1.25,0,1,1-1.25-1.25A1.25,1.25,0,0,1,56.5,14.75Z" transform="translate(-5 -6.5)"/><path class="cls-1" d="M56.5,18.25A1.25,1.25,0,1,1,55.25,17,1.25,1.25,0,0,1,56.5,18.25Z" transform="translate(-5 -6.5)"/><path class="cls-1" d="M56.5,21.75a1.25,1.25,0,1,1-1.25-1.25A1.25,1.25,0,0,1,56.5,21.75Z" transform="translate(-5 -6.5)"/><path class="cls-1" d="M56.5,25.25A1.25,1.25,0,1,1,55.25,24,1.25,1.25,0,0,1,56.5,25.25Z" transform="translate(-5 -6.5)"/><path class="cls-1" d="M56.5,28.75a1.25,1.25,0,1,1-1.25-1.25A1.25,1.25,0,0,1,56.5,28.75Z" transform="translate(-5 -6.5)"/><path class="cls-1" d="M56.5,32.25A1.25,1.25,0,1,1,55.25,31,1.25,1.25,0,0,1,56.5,32.25Z" transform="translate(-5 -6.5)"/><path class="cls-1" d="M56.5,35.75a1.25,1.25,0,1,1-1.25-1.25A1.25,1.25,0,0,1,56.5,35.75Z" transform="translate(-5 -6.5)"/><path class="cls-1" d="M56.5,39.25A1.25,1.25,0,1,1,55.25,38,1.25,1.25,0,0,1,56.5,39.25Z" transform="translate(-5 -6.5)"/><path class="cls-1" d="M56.5,42.75a1.25,1.25,0,1,1-1.25-1.25A1.25,1.25,0,0,1,56.5,42.75Z" transform="translate(-5 -6.5)"/><path class="cls-1" d="M56.5,46.25A1.25,1.25,0,1,1,55.25,45,1.25,1.25,0,0,1,56.5,46.25Z" transform="translate(-5 -6.5)"/><path class="cls-1" d="M56.5,49.75a1.25,1.25,0,1,1-1.25-1.25A1.25,1.25,0,0,1,56.5,49.75Z" transform="translate(-5 -6.5)"/><path class="cls-1" d="M56.5,53.25A1.25,1.25,0,1,1,55.25,52,1.25,1.25,0,0,1,56.5,53.25Z" transform="translate(-5 -6.5)"/><path class="cls-1" d="M56.5,56.75A1.25,1.25,0,0,1,55.25,58h0A1.25,1.25,0,0,1,54,56.75h0a1.25,1.25,0,0,1,1.25-1.25h0a1.25,1.25,0,0,1,1.25,1.25Z" transform="translate(-5 -6.5)"/><path class="cls-1" d="M56.5,60.25A1.25,1.25,0,1,1,55.25,59h0a1.25,1.25,0,0,1,1.25,1.25Z" transform="translate(-5 -6.5)"/><path class="cls-1" d="M56.5,63.75a1.25,1.25,0,1,1-1.25-1.25A1.25,1.25,0,0,1,56.5,63.75Z" transform="translate(-5 -6.5)"/><path class="cls-1" d="M56.5,67.25A1.25,1.25,0,1,1,55.25,66,1.25,1.25,0,0,1,56.5,67.25Z" transform="translate(-5 -6.5)"/><path class="cls-1" d="M56.5,70.75a1.25,1.25,0,1,1-1.25-1.25h0a1.25,1.25,0,0,1,1.25,1.25Z" transform="translate(-5 -6.5)"/><path class="cls-1" d="M56.5,74.25A1.25,1.25,0,1,1,55.25,73,1.25,1.25,0,0,1,56.5,74.25Z" transform="translate(-5 -6.5)"/><path class="cls-1" d="M56.5,77.75a1.25,1.25,0,1,1-1.25-1.25A1.25,1.25,0,0,1,56.5,77.75Z" transform="translate(-5 -6.5)"/><path class="cls-1" d="M56.5,81.25A1.25,1.25,0,1,1,55.25,80,1.25,1.25,0,0,1,56.5,81.25Z" transform="translate(-5 -6.5)"/><path class="cls-1" d="M56.5,84.75a1.25,1.25,0,1,1-1.25-1.25A1.25,1.25,0,0,1,56.5,84.75Z" transform="translate(-5 -6.5)"/><path class="cls-1" d="M56.5,88.25A1.25,1.25,0,1,1,55.25,87,1.25,1.25,0,0,1,56.5,88.25Z" transform="translate(-5 -6.5)"/><path class="cls-1" d="M56.5,91.75a1.25,1.25,0,1,1-1.25-1.25A1.25,1.25,0,0,1,56.5,91.75Z" transform="translate(-5 -6.5)"/><path class="cls-1" d="M60,14.75a1.25,1.25,0,1,1-1.25-1.25A1.25,1.25,0,0,1,60,14.75Z" transform="translate(-5 -6.5)"/><path class="cls-1" d="M60,18.25A1.25,1.25,0,1,1,58.75,17,1.25,1.25,0,0,1,60,18.25Z" transform="translate(-5 -6.5)"/><path class="cls-1" d="M60,21.75a1.25,1.25,0,1,1-1.25-1.25A1.25,1.25,0,0,1,60,21.75Z" transform="translate(-5 -6.5)"/><path class="cls-1" d="M60,25.25A1.25,1.25,0,1,1,58.75,24,1.25,1.25,0,0,1,60,25.25Z" transform="translate(-5 -6.5)"/><path class="cls-1" d="M60,28.75a1.25,1.25,0,1,1-1.25-1.25A1.25,1.25,0,0,1,60,28.75Z" transform="translate(-5 -6.5)"/><path class="cls-1" d="M60,32.25A1.25,1.25,0,1,1,58.75,31,1.25,1.25,0,0,1,60,32.25Z" transform="translate(-5 -6.5)"/><path class="cls-1" d="M60,35.75a1.25,1.25,0,1,1-1.25-1.25A1.25,1.25,0,0,1,60,35.75Z" transform="translate(-5 -6.5)"/><path class="cls-1" d="M60,39.25A1.25,1.25,0,1,1,58.75,38,1.25,1.25,0,0,1,60,39.25Z" transform="translate(-5 -6.5)"/><path class="cls-1" d="M60,42.75a1.25,1.25,0,1,1-1.25-1.25A1.25,1.25,0,0,1,60,42.75Z" transform="translate(-5 -6.5)"/><path class="cls-1" d="M60,46.25A1.25,1.25,0,1,1,58.75,45,1.25,1.25,0,0,1,60,46.25Z" transform="translate(-5 -6.5)"/><path class="cls-1" d="M60,49.75a1.25,1.25,0,1,1-1.25-1.25A1.25,1.25,0,0,1,60,49.75Z" transform="translate(-5 -6.5)"/><path class="cls-1" d="M60,53.25A1.25,1.25,0,1,1,58.75,52,1.25,1.25,0,0,1,60,53.25Z" transform="translate(-5 -6.5)"/><path class="cls-1" d="M60,56.75A1.25,1.25,0,0,1,58.75,58h0a1.25,1.25,0,0,1-1.25-1.25h0a1.25,1.25,0,0,1,1.25-1.25h0A1.25,1.25,0,0,1,60,56.75Z" transform="translate(-5 -6.5)"/><path class="cls-1" d="M60,60.25A1.25,1.25,0,1,1,58.75,59h0A1.25,1.25,0,0,1,60,60.25Z" transform="translate(-5 -6.5)"/><path class="cls-1" d="M60,63.75a1.25,1.25,0,1,1-1.25-1.25A1.25,1.25,0,0,1,60,63.75Z" transform="translate(-5 -6.5)"/><path class="cls-1" d="M60,67.25A1.25,1.25,0,1,1,58.75,66,1.25,1.25,0,0,1,60,67.25Z" transform="translate(-5 -6.5)"/><path class="cls-1" d="M60,70.75a1.25,1.25,0,1,1-1.25-1.25h0A1.25,1.25,0,0,1,60,70.75Z" transform="translate(-5 -6.5)"/><path class="cls-1" d="M60,74.25A1.25,1.25,0,1,1,58.75,73,1.25,1.25,0,0,1,60,74.25Z" transform="translate(-5 -6.5)"/><path class="cls-1" d="M60,77.75a1.25,1.25,0,1,1-1.25-1.25A1.25,1.25,0,0,1,60,77.75Z" transform="translate(-5 -6.5)"/><path class="cls-1" d="M60,81.25A1.25,1.25,0,1,1,58.75,80,1.25,1.25,0,0,1,60,81.25Z" transform="translate(-5 -6.5)"/><path class="cls-1" d="M60,84.75a1.25,1.25,0,1,1-1.25-1.25A1.25,1.25,0,0,1,60,84.75Z" transform="translate(-5 -6.5)"/><path class="cls-1" d="M60,88.25A1.25,1.25,0,1,1,58.75,87,1.25,1.25,0,0,1,60,88.25Z" transform="translate(-5 -6.5)"/><path class="cls-1" d="M63.5,14.75a1.25,1.25,0,1,1-1.25-1.25A1.25,1.25,0,0,1,63.5,14.75Z" transform="translate(-5 -6.5)"/><path class="cls-1" d="M63.5,18.25A1.25,1.25,0,1,1,62.25,17,1.25,1.25,0,0,1,63.5,18.25Z" transform="translate(-5 -6.5)"/><path class="cls-1" d="M63.5,21.75a1.25,1.25,0,1,1-1.25-1.25A1.25,1.25,0,0,1,63.5,21.75Z" transform="translate(-5 -6.5)"/><path class="cls-1" d="M63.5,25.25A1.25,1.25,0,1,1,62.25,24,1.25,1.25,0,0,1,63.5,25.25Z" transform="translate(-5 -6.5)"/><path class="cls-1" d="M63.5,28.75a1.25,1.25,0,1,1-1.25-1.25A1.25,1.25,0,0,1,63.5,28.75Z" transform="translate(-5 -6.5)"/><path class="cls-1" d="M63.5,32.25A1.25,1.25,0,1,1,62.25,31,1.25,1.25,0,0,1,63.5,32.25Z" transform="translate(-5 -6.5)"/><path class="cls-1" d="M63.5,35.75a1.25,1.25,0,1,1-1.25-1.25A1.25,1.25,0,0,1,63.5,35.75Z" transform="translate(-5 -6.5)"/><path class="cls-1" d="M63.5,39.25A1.25,1.25,0,1,1,62.25,38,1.25,1.25,0,0,1,63.5,39.25Z" transform="translate(-5 -6.5)"/><path class="cls-1" d="M63.5,42.75a1.25,1.25,0,1,1-1.25-1.25A1.25,1.25,0,0,1,63.5,42.75Z" transform="translate(-5 -6.5)"/><path class="cls-1" d="M63.5,46.25A1.25,1.25,0,1,1,62.25,45,1.25,1.25,0,0,1,63.5,46.25Z" transform="translate(-5 -6.5)"/><path class="cls-1" d="M63.5,49.75a1.25,1.25,0,1,1-1.25-1.25A1.25,1.25,0,0,1,63.5,49.75Z" transform="translate(-5 -6.5)"/><path class="cls-1" d="M63.5,53.25A1.25,1.25,0,1,1,62.25,52,1.25,1.25,0,0,1,63.5,53.25Z" transform="translate(-5 -6.5)"/><path class="cls-1" d="M63.5,56.75A1.25,1.25,0,0,1,62.25,58h0A1.25,1.25,0,0,1,61,56.75h0a1.25,1.25,0,0,1,1.25-1.25h0a1.25,1.25,0,0,1,1.25,1.25Z" transform="translate(-5 -6.5)"/><path class="cls-1" d="M63.5,60.25A1.25,1.25,0,1,1,62.25,59h0a1.25,1.25,0,0,1,1.25,1.25Z" transform="translate(-5 -6.5)"/><path class="cls-1" d="M63.5,63.75a1.25,1.25,0,1,1-1.25-1.25A1.25,1.25,0,0,1,63.5,63.75Z" transform="translate(-5 -6.5)"/><path class="cls-1" d="M63.5,67.25A1.25,1.25,0,1,1,62.25,66,1.25,1.25,0,0,1,63.5,67.25Z" transform="translate(-5 -6.5)"/><path class="cls-1" d="M63.5,70.75a1.25,1.25,0,1,1-1.25-1.25h0a1.25,1.25,0,0,1,1.25,1.25Z" transform="translate(-5 -6.5)"/><path class="cls-1" d="M63.5,74.25A1.25,1.25,0,1,1,62.25,73,1.25,1.25,0,0,1,63.5,74.25Z" transform="translate(-5 -6.5)"/><path class="cls-1" d="M63.5,77.75a1.25,1.25,0,1,1-1.25-1.25A1.25,1.25,0,0,1,63.5,77.75Z" transform="translate(-5 -6.5)"/><path class="cls-1" d="M63.5,81.25A1.25,1.25,0,1,1,62.25,80,1.25,1.25,0,0,1,63.5,81.25Z" transform="translate(-5 -6.5)"/><path class="cls-1" d="M63.5,84.75a1.25,1.25,0,1,1-1.25-1.25A1.25,1.25,0,0,1,63.5,84.75Z" transform="translate(-5 -6.5)"/><path class="cls-1" d="M63.5,88.25A1.25,1.25,0,1,1,62.25,87,1.25,1.25,0,0,1,63.5,88.25Z" transform="translate(-5 -6.5)"/><path class="cls-1" d="M67,14.75a1.25,1.25,0,1,1-1.25-1.25A1.25,1.25,0,0,1,67,14.75Z" transform="translate(-5 -6.5)"/><path class="cls-1" d="M67,18.25A1.25,1.25,0,1,1,65.75,17,1.25,1.25,0,0,1,67,18.25Z" transform="translate(-5 -6.5)"/><path class="cls-1" d="M67,21.75a1.25,1.25,0,1,1-1.25-1.25A1.25,1.25,0,0,1,67,21.75Z" transform="translate(-5 -6.5)"/><path class="cls-1" d="M67,25.25A1.25,1.25,0,1,1,65.75,24,1.25,1.25,0,0,1,67,25.25Z" transform="translate(-5 -6.5)"/><path class="cls-1" d="M67,28.75a1.25,1.25,0,1,1-1.25-1.25A1.25,1.25,0,0,1,67,28.75Z" transform="translate(-5 -6.5)"/><path class="cls-1" d="M67,32.25A1.25,1.25,0,1,1,65.75,31,1.25,1.25,0,0,1,67,32.25Z" transform="translate(-5 -6.5)"/><path class="cls-1" d="M67,35.75a1.25,1.25,0,1,1-1.25-1.25A1.25,1.25,0,0,1,67,35.75Z" transform="translate(-5 -6.5)"/><path class="cls-1" d="M67,39.25A1.25,1.25,0,1,1,65.75,38,1.25,1.25,0,0,1,67,39.25Z" transform="translate(-5 -6.5)"/><path class="cls-1" d="M67,42.75a1.25,1.25,0,1,1-1.25-1.25A1.25,1.25,0,0,1,67,42.75Z" transform="translate(-5 -6.5)"/><path class="cls-1" d="M70.5,14.75a1.25,1.25,0,1,1-1.25-1.25A1.25,1.25,0,0,1,70.5,14.75Z" transform="translate(-5 -6.5)"/><path class="cls-1" d="M74,14.75a1.25,1.25,0,1,1-1.25-1.25A1.25,1.25,0,0,1,74,14.75Z" transform="translate(-5 -6.5)"/><path class="cls-1" d="M77.5,14.75a1.25,1.25,0,1,1-1.25-1.25A1.25,1.25,0,0,1,77.5,14.75Z" transform="translate(-5 -6.5)"/><path class="cls-1" d="M81,11.25A1.25,1.25,0,1,1,79.75,10,1.25,1.25,0,0,1,81,11.25Z" transform="translate(-5 -6.5)"/><path class="cls-1" d="M81,14.75a1.25,1.25,0,1,1-1.25-1.25A1.25,1.25,0,0,1,81,14.75Z" transform="translate(-5 -6.5)"/><path class="cls-1" d="M84.5,11.25A1.25,1.25,0,1,1,83.25,10,1.25,1.25,0,0,1,84.5,11.25Z" transform="translate(-5 -6.5)"/><path class="cls-1" d="M84.5,14.75a1.25,1.25,0,1,1-1.25-1.25A1.25,1.25,0,0,1,84.5,14.75Z" transform="translate(-5 -6.5)"/><path class="cls-1" d="M84.5,18.25A1.25,1.25,0,1,1,83.25,17,1.25,1.25,0,0,1,84.5,18.25Z" transform="translate(-5 -6.5)"/><path class="cls-1" d="M88,11.25A1.25,1.25,0,1,1,86.75,10,1.25,1.25,0,0,1,88,11.25Z" transform="translate(-5 -6.5)"/><path class="cls-1" d="M88,14.75a1.25,1.25,0,1,1-1.25-1.25A1.25,1.25,0,0,1,88,14.75Z" transform="translate(-5 -6.5)"/><path class="cls-1" d="M88,18.25A1.25,1.25,0,1,1,86.75,17,1.25,1.25,0,0,1,88,18.25Z" transform="translate(-5 -6.5)"/><path class="cls-1" d="M91.5,11.25A1.25,1.25,0,1,1,90.25,10,1.25,1.25,0,0,1,91.5,11.25Z" transform="translate(-5 -6.5)"/><path class="cls-1" d="M91.5,14.75a1.25,1.25,0,1,1-1.25-1.25A1.25,1.25,0,0,1,91.5,14.75Z" transform="translate(-5 -6.5)"/><path class="cls-1" d="M95,11.25A1.25,1.25,0,1,1,93.75,10,1.25,1.25,0,0,1,95,11.25Z" transform="translate(-5 -6.5)"/><path class="cls-1" d="M95,14.75a1.25,1.25,0,1,1-1.25-1.25A1.25,1.25,0,0,1,95,14.75Z" transform="translate(-5 -6.5)"/></svg>