<svg id="Layer_1" data-name="Layer 1" xmlns="http://www.w3.org/2000/svg" viewBox="0 0 95.58 93.33">
    <style>
    path {
      fill: black;
    }
    @media (prefers-color-scheme: dark) {
      path {
        fill: #fff;
      }
    }
  </style>
  <path d="M47.78,48.27c-4.3,0-7.5-2.6-7.9-6.2a6,6,0,0,1,1.4-4.6c3-3.8,9.7-3.8,12.6,0a5.83,5.83,0,0,1,.9,6.3,7.19,7.19,0,0,1-6,4.3A2.4,2.4,0,0,1,47.78,48.27Z" transform="translate(-0.08 -0.97)"/><path d="M61.08,68.57c-3.9,0-6.4-1.7-7.2-4.4a6.09,6.09,0,0,1,2.9-7,8.09,8.09,0,0,1,5.9-1.2,5.86,5.86,0,0,1,3.5,9.7A7.35,7.35,0,0,1,61.08,68.57Z" transform="translate(-0.08 -0.97)"/><path d="M34,55.87c4.2.1,7.6,3.2,7.6,6.9a6.12,6.12,0,0,1-6.5,5.9,7.35,7.35,0,0,1-7.3-7C27.68,58.27,30.38,55.77,34,55.87Z" transform="translate(-0.08 -0.97)"/><path d="M79.28,41.77c0,3-1.4,5.2-3.6,6.1a6.19,6.19,0,0,1-6.7-1.7,7.64,7.64,0,0,1-2.1-6.6,5.56,5.56,0,0,1,4.1-4.7,5.89,5.89,0,0,1,6.2,1.9A7.41,7.41,0,0,1,79.28,41.77Z" transform="translate(-0.08 -0.97)"/><path d="M21.48,48.17a5.17,5.17,0,0,1-4.8-3,7.38,7.38,0,0,1,2.5-9.4,5.6,5.6,0,0,1,8.9,4.1C28.78,44.17,25.58,48.17,21.48,48.17Z" transform="translate(-0.08 -0.97)"/><path d="M60.08,28A7.58,7.58,0,0,1,54,25a4.68,4.68,0,0,1-.6-5.4,4.92,4.92,0,0,1,4.9-2.6,7.2,7.2,0,0,1,5.7,3.1,4.91,4.91,0,0,1,.8,5.3C64,27.27,62.18,27.77,60.08,28Z" transform="translate(-0.08 -0.97)"/><path d="M36.88,16.87a5.31,5.31,0,0,1,5,2.9c1.1,2.1.4,4-1.1,5.6a7.28,7.28,0,0,1-7.2,2.4,4.33,4.33,0,0,1-3.3-6C31.18,19.07,34.38,16.77,36.88,16.87Z" transform="translate(-0.08 -0.97)"/><path d="M86.78,61.07a9.1,9.1,0,0,1-3.4,6.4,3.69,3.69,0,0,1-6.4-2.9,8.29,8.29,0,0,1,3.1-7.3c1.4-1.2,3-1.9,4.8-1S86.88,58.67,86.78,61.07Z" transform="translate(-0.08 -0.97)"/><path d="M18.38,64.27c-.1.5-.2,1.3-.4,2a3.13,3.13,0,0,1-4.7,1.9c-3.1-1.4-5.3-6.4-4.4-9.7.7-2.6,2.9-3.5,5.2-2.1C17,58.17,18.18,60.87,18.38,64.27Z" transform="translate(-0.08 -0.97)"/><path d="M47.78,74.87h.4c3.5.3,5.7,2.5,5.3,5.2-.4,2.9-3.6,5-6.7,4.5s-5.3-3.1-5-5.6S44.48,74.87,47.78,74.87Z" transform="translate(-0.08 -0.97)"/><path d="M62,81.57c.2-3.5,4.1-7,7.6-6.7,2.2.2,3.2,1.6,2.7,3.8a9.45,9.45,0,0,1-7,6A2.74,2.74,0,0,1,62,81.57Z" transform="translate(-0.08 -0.97)"/><path d="M82.88,25.37a2.36,2.36,0,0,1-3,2.5c-3.5-.7-6.9-5-6.7-8.5.1-1.8,1.1-2.6,2.9-2.3C79.08,17.57,82.88,22.17,82.88,25.37Z" transform="translate(-0.08 -0.97)"/><path d="M26.08,74.87a8.2,8.2,0,0,1,7.2,6.1c.5,2.5-1.1,4.2-3.6,3.6a8.87,8.87,0,0,1-6.5-5.8A2.76,2.76,0,0,1,26.08,74.87Z" transform="translate(-0.08 -0.97)"/><path d="M22.38,19.47c0,3.4-3.3,7.5-6.5,8.3-2.1.5-3.6-.8-3.1-2.9a10.28,10.28,0,0,1,6.4-7.7C21.18,16.37,22.38,17.37,22.38,19.47Z" transform="translate(-0.08 -0.97)"/><path d="M89.08,37.17c.5-1.6,1.4-2.2,2.1-2.3a3.11,3.11,0,0,1,2.5,1.4,11.32,11.32,0,0,1,1.9,8,9.3,9.3,0,0,1-.5,2.4c-.8,1.9-2.4,2.1-3.7.6a11.64,11.64,0,0,1-2.3-5.9A19.56,19.56,0,0,1,89.08,37.17Z" transform="translate(-0.08 -0.97)"/><path d="M6.48,39.77a12.27,12.27,0,0,1-2.1,7,3.07,3.07,0,0,1-2.3,1.3c-.6,0-1.4-1.2-1.6-2a13.09,13.09,0,0,1,1.2-9.5c.5-1,1.2-2,2.6-1.8s1.7,1.4,1.9,2.5A19,19,0,0,1,6.48,39.77Z" transform="translate(-0.08 -0.97)"/><path d="M47.68,11.77c-2.5,0-4.3-1.3-4.3-3.2s2.1-3.9,4.4-3.9A4.1,4.1,0,0,1,52,8.47C52.08,10.47,50.28,11.77,47.68,11.77Z" transform="translate(-0.08 -0.97)"/><path d="M64.68,11.77c-2.7,0-6.1-2.6-6.9-5.1-.4-1.3.2-2.2,1.4-1.9a10.56,10.56,0,0,1,7,4.4C67.18,10.67,66.48,11.77,64.68,11.77Z" transform="translate(-0.08 -0.97)"/><path d="M30.78,11.77c-1.7,0-2.4-1-1.4-2.5a10.47,10.47,0,0,1,7-4.6c1.3-.2,1.8.5,1.5,1.8C37.08,9.07,33.48,11.87,30.78,11.77Z" transform="translate(-0.08 -0.97)"/><path d="M85,75.67a6.69,6.69,0,0,1-.7,1.7,16.17,16.17,0,0,1-6.8,6.9c-2.3,1.4-1.7-.9-1.5-1.4a16.79,16.79,0,0,1,6-7.2C84.08,74.17,85.38,74.37,85,75.67Z" transform="translate(-0.08 -0.97)"/><path d="M13.78,75.77a17.63,17.63,0,0,1,5.8,6.9c.8,1.4.3,2.6-1.5,1.5a18.75,18.75,0,0,1-6.8-6.9C9.48,73.27,12.18,74.47,13.78,75.77Z" transform="translate(-0.08 -0.97)"/><path d="M55.28,88.67c1-.1,1.7.3,1.8,1.2a3.39,3.39,0,0,1-.6,2.1,5.55,5.55,0,0,1-4,2.3c-1.6.2-2.5-.6-2-2.2C50.88,90.27,52.88,89,55.28,88.67Z" transform="translate(-0.08 -0.97)"/><path d="M40.48,88.67c2.4.3,4.5,1.9,4.8,3.7.2,1.4-.3,2-1.6,1.9a6.51,6.51,0,0,1-4.9-2.9,1.87,1.87,0,0,1-.2-1.6A2.1,2.1,0,0,1,40.48,88.67Z" transform="translate(-0.08 -0.97)"/><path d="M94.88,55.87c.9,2-1.8,11.1-3.8,12.6C90,66.07,92.68,57.17,94.88,55.87Z" transform="translate(-0.08 -0.97)"/><path d="M1,56c2,1.3,4.9,10.3,4,12.5C3.18,67.17.38,58.37,1,56Z" transform="translate(-0.08 -0.97)"/><path d="M76.58,11.57c-1.8.4-8.9-4.3-10.2-6.7C68.78,4.67,75.88,9.27,76.58,11.57Z" transform="translate(-0.08 -0.97)"/><path d="M29.48,4.87c-3,3-6,5.8-10.2,6.8C21.68,8,25.38,6.07,29.48,4.87Z" transform="translate(-0.08 -0.97)"/><path d="M90.88,27.87a29.7,29.7,0,0,1-7.2-10.8C85.78,17.57,90.78,25.07,90.88,27.87Z" transform="translate(-0.08 -0.97)"/><path d="M67.68,89.17c-.5,2-6.7,5.3-9.6,5C59.88,91.57,65.68,88.57,67.68,89.17Z" transform="translate(-0.08 -0.97)"/><path d="M28.08,88.77c.6-1.3,11.7,5,10,5.3C35.08,94.57,27.58,90.47,28.08,88.77Z" transform="translate(-0.08 -0.97)"/><path d="M12,17.07a26.25,26.25,0,0,1-7,10.6A26.25,26.25,0,0,1,12,17.07Z" transform="translate(-0.08 -0.97)"/><ellipse cx="48.2" cy="0.5" rx="4.1" ry="0.5"/></svg>