<svg version="1.1" id="Calque_1" xmlns="http://www.w3.org/2000/svg" xmlns:xlink="http://www.w3.org/1999/xlink" x="0px" y="0px" viewBox="0 0 238.4 167" style="enable-background:new 0 0 238.4 167" xml:space="preserve"><path d="M0,105.9h4.3l3.1,11.6l0,0l3.3-11.6H15l3.3,11.6l0,0l3.1-11.6h4.3l-5,15.9h-4.5l-3.3-11.3l0,0l-3.4,11.3H5L0,105.9z"></path><path d="M30.1,105.9h4.3v15.9h-4.3C30.1,121.8,30.1,105.9,30.1,105.9z"></path><path d="M40.8,105.9h10.7c4.5,0,5.6,2.7,5.6,4.8c0,3.4-1.8,5.4-5.3,5.4h-6.7v5.7h-4.3V105.9z M45.1,113.3h4.6c1.3,0,2.9,0,2.9-2.2	s-1.3-2.3-2.5-2.3h-5V113.3z"></path><path d="M71.5,105.5c8.6,0,9.9,5.1,9.9,8.4s-1.3,8.4-9.9,8.4s-9.9-5.1-9.9-8.4S63,105.5,71.5,105.5z M71.5,119.3	c3.9,0,5.3-2.9,5.3-5.4s-1.4-5.4-5.3-5.4s-5.3,2.9-5.3,5.4S67.6,119.3,71.5,119.3z"></path><path d="M79.2,20.1c1.3-1.4,2-3.3,2.1-5.2c-0.1-6-8.2-10.9-21-14.8L59.9,0v2.1l0.3,0.1c6.3,1.6,11.3,3.4,14.7,5.4s5.2,4.1,5.2,6.2	c0,1.5-0.8,3.1-2.5,4.5c-3.6-3.1-9.5-5.7-17.1-8L60,10.2v2.1l0.3,0.1c6.3,1.6,11.3,3.4,14.7,5.4c0.6,0.4,1.3,0.8,1.9,1.2	c-2.6,1.8-5.4,3.3-8.3,4.4c-2.4-1-5.1-1.9-8-2.8l-0.5-0.1v2.1l0.3,0.1c2.1,0.5,4,1.1,5.8,1.6c-8.8,3-21.2,5.5-35.9,7.2v5.3	c15.1-2,27.9-5,36.9-8.8c1.5-0.6,2.9-1.2,4.1-1.9c1.3,0.5,2.6,1.2,3.8,1.9c0.6,0.4,1.3,0.8,1.9,1.2c-2.6,1.8-5.4,3.3-8.3,4.4	c-2.4-1-5.1-1.9-8-2.8l-0.5-0.1v2.2l0.3,0.1c2.1,0.5,4,1.1,5.8,1.6c-8.8,3-21.2,5.5-35.9,7.2V47c15.1-2,27.9-5,36.9-8.8	c1.5-0.6,2.9-1.2,4.1-1.9c1.3,0.5,2.5,1.2,3.7,1.9c0.6,0.4,1.3,0.8,1.9,1.2c-2.6,1.8-5.4,3.3-8.3,4.4c-2.4-1-5.1-1.9-8-2.8l-0.5-0.1	V43l0.3,0.1c2.1,0.5,4,1.1,5.8,1.6c-8.8,3-21.2,5.5-35.9,7.2v5.3c15.1-2,27.9-5,36.9-8.8c1.5-0.6,2.9-1.2,4.1-1.9	c1.3,0.5,2.6,1.2,3.8,1.9c0.6,0.4,1.3,0.8,1.9,1.2c-2.6,1.8-5.4,3.3-8.3,4.4c-2.6-1.1-5.3-2-8-2.8L59.9,51v2.1l0.3,0.1	c2.1,0.5,4,1.1,5.8,1.6c-8.8,3-21.2,5.5-35.9,7.2v5.3c15.1-2,27.9-5,36.9-8.8c1.5-0.6,2.9-1.2,4.1-1.9c1.3,0.5,2.6,1.2,3.8,1.9	c0.6,0.4,1.3,0.8,1.9,1.2c-2.6,1.8-5.4,3.3-8.3,4.4c-2.6-1.1-5.3-2-8-2.8L60,61.2v2.1l0.3,0.1c2.1,0.5,4,1.1,5.8,1.6	c-8.8,3-21.2,5.5-35.9,7.2v5.3c15.1-2,27.9-5,36.9-8.8c1.5-0.6,2.9-1.2,4.2-1.9c1.3,0.5,2.6,1.2,3.8,1.9c0.6,0.4,1.3,0.8,1.9,1.2	c-2.3,1.8-5.9,3.6-10.5,5.2c-8.8,3.1-21.3,5.6-36.2,7.3v5.3c15.1-2,27.9-5,36.9-8.8c5.3-2.2,9.3-4.6,11.8-7.2c0.8,0.9,1.3,2,1.3,3.3	c0.1,3.6-4.9,7.3-13.8,10.4S45.2,91,30.3,92.7V98c15.1-2,27.9-5,36.9-8.8c9-3.7,14.4-8.1,14.4-13.1c-0.1-1.9-0.8-3.7-2.1-5.1	c1.3-1.4,2-3.3,2.1-5.2c-0.1-1.9-0.8-3.7-2.1-5c1.3-1.4,2-3.3,2.1-5.2c-0.1-1.9-0.8-3.7-2.1-5.1c1.2-1.5,1.9-3.3,2-5.2	c-0.1-1.9-0.8-3.7-2.1-5c1.3-1.4,2-3.3,2.1-5.2c-0.1-1.9-0.8-3.7-2.1-5c1.3-1.4,2-3.3,2.1-5.2C81.2,23.3,80.5,21.5,79.2,20.1z	 M72.5,25.3c2.3-1.2,4.3-2.7,6.1-4.5c0.8,0.9,1.3,2,1.3,3.3c0,1.5-0.8,3.1-2.5,4.5C75.9,27.3,74.3,26.2,72.5,25.3z M80,64.8	c0,1.5-0.8,3.1-2.5,4.5C76,68,74.3,66.9,72.6,66c2.3-1.2,4.3-2.7,6.1-4.5C79.5,62.5,80,63.6,80,64.8L80,64.8z M80,54.6	c0,1.5-0.8,3.1-2.5,4.5c-1.5-1.3-3.2-2.4-4.9-3.3c2.3-1.2,4.3-2.7,6.1-4.5C79.5,52.3,80,53.4,80,54.6L80,54.6z M80,44.4	c0,1.5-0.8,3.1-2.5,4.5c-1.5-1.3-3.2-2.4-4.9-3.3c2.3-1.2,4.3-2.7,6.1-4.5C79.5,42.1,80,43.2,80,44.4L80,44.4z M80,34.2	c0,1.5-0.8,3.1-2.5,4.5c-1.5-1.3-3.2-2.4-4.9-3.3c2.3-1.2,4.3-2.7,6.1-4.5C79.5,31.9,80,33,80,34.2L80,34.2z"></path><path d="M29.1,130.7h1.8l1.7,6l0,0l1.9-6h1.7l1.9,6l0,0l1.8-6h1.7l-2.6,7.8h-1.7l-1.9-6l0,0l-1.9,6h-1.8L29.1,130.7z"></path><path d="M43.3,134.6c0-2.2,1.3-4.1,4.6-4.1s4.6,1.9,4.6,4.1s-1.3,4.1-4.6,4.1C44.6,138.6,43.3,136.7,43.3,134.6z M50.7,134.6	c0-1.6-1.3-2.9-2.9-2.9c-1.6,0-2.9,1.3-2.9,2.9c0,1.6,1.3,2.9,2.9,2.9c1.5,0.1,2.8-1,2.9-2.5C50.7,134.8,50.7,134.7,50.7,134.6z"></path><path d="M54.8,130.7h4.9c2,0,2.6,0.9,2.6,2.1c0.1,0.8-0.5,1.6-1.3,1.9l0,0c0.9,0.2,1.1,1,1.1,2.1c0,0.6,0.1,1.1,0.3,1.6h-1.8	c-0.2-0.4-0.2-0.8-0.2-1.2c0-1.1-0.2-1.9-1.3-1.9h-2.8v3.1h-1.6L54.8,130.7z M59.2,134.1c0.9,0,1.4-0.3,1.4-1.1	c0-0.9-0.5-1.1-1.4-1.1h-2.8v2.3L59.2,134.1L59.2,134.1z"></path><path d="M64.9,130.7h1.6v6.5h4.7v1.3h-6.3C64.9,138.5,64.9,130.7,64.9,130.7z"></path><path d="M73.4,130.7h4.2c3,0,3.8,1.7,3.8,4c0,1.7-0.8,3.8-3.4,3.8h-4.6V130.7z M75,137.2h2.3c1.2,0,2.4-0.4,2.4-2.7	c0-2.5-1.6-2.7-2.5-2.7H75V137.2z"></path><path d="M30,144.8h2.6v7.8H30V144.8z"></path><path d="M35.4,144.8h3l3.6,4.9l0,0v-4.9h2.5v7.8h-2.9l-3.7-4.9l0,0v4.9h-2.6v-7.8H35.4z"></path><path d="M46.5,144.8h8.3v1.7H52v6h-2.6v-6h-2.8v-1.7H46.5z"></path><path d="M56.8,144.8h7.8v1.7h-5.2v1.4h4.9v1.6h-4.9v1.4h5.2v1.7h-7.8C56.8,152.6,56.8,144.8,56.8,144.8z"></path><path d="M66.9,144.8h2.6v5.9h4.7v1.8h-7.3L66.9,144.8z"></path><path d="M76.4,144.8H79v5.9h4.8v1.8h-7.3L76.4,144.8L76.4,144.8z"></path><path d="M85.9,144.8h7.8v1.7h-5.2v1.4h4.9v1.6h-4.9v1.4h5.2v1.7h-7.8V144.8z"></path><path d="M105.4,149.6c-0.3,1.7-1.2,3.3-4.9,3.3c-3.3,0-4.9-1.4-4.9-4.1c0-2.6,1.5-4.1,4.9-4.1c2.4,0,4.3,0.5,4.9,3.3h-2.9	c-0.2-0.9-1-1.6-2-1.5c-1.6,0-2.2,1.1-2.2,2.4c0,1.3,0.5,2.4,2.2,2.4c1,0.1,1.9-0.5,2-1.5L105.4,149.6z"></path><path d="M106.9,144.8h8.3v1.7h-2.9v6h-2.6v-6h-2.8V144.8z"></path><path d="M117.1,144.8h2.6v4.6c0,1.3,0.6,1.6,1.8,1.6c1.2,0,1.8-0.4,1.8-1.6v-4.6h2.6v5c0,2.1-1.6,3-4.4,3s-4.4-0.8-4.4-3V144.8z"></path><path d="M130.8,144.8h3.2l3.3,7.8h-2.8l-0.5-1.3h-3.4l-0.5,1.3h-2.8L130.8,144.8z M132.3,146.8L132.3,146.8l-1.1,2.9h2.2	L132.3,146.8z"></path><path d="M139,144.8h2.6v5.9h4.7v1.8H139V144.8z"></path><path d="M153.9,144.8h5.7c2.1,0,2.9,1.1,2.9,2.6c0,1.3-0.7,2.6-2.7,2.6h-3.3v2.6h-2.6L153.9,144.8L153.9,144.8z M156.5,148.4h2.3	c0.7,0,1-0.3,1-1s-0.3-1-1-1h-2.3V148.4z"></path><path d="M164.8,144.8h6.3c1.9,0,2.6,0.9,2.6,2.2c0.1,0.8-0.4,1.6-1.2,1.8l0,0c0.6,0.2,1,0.8,0.9,1.4c0.1,1.5,0.2,2,0.5,2.4H171	c-0.1-0.4-0.2-0.8-0.1-1.2c0-1.2-0.4-1.4-1.1-1.4h-2.4v2.6h-2.6L164.8,144.8z M167.4,148.3h2.4c0.6,0,1-0.3,1-0.9	c0-0.5-0.3-0.8-1-0.8h-2.4V148.3z"></path><path d="M180.8,144.6c2.7,0,5.1,0.9,5.1,4.1c0,3.2-2.3,4.1-5.1,4.1c-2.7,0-5.1-0.9-5.1-4.1S178,144.6,180.8,144.6z M180.8,151.1	c1.3,0,2.4-1,2.5-2.3c0-1.3-1-2.4-2.3-2.5c-1.3,0-2.4,1-2.5,2.3c0,0,0,0,0,0.1c-0.1,1.2,0.7,2.2,1.9,2.4	C180.5,151.1,180.6,151.1,180.8,151.1L180.8,151.1z"></path><path d="M188.2,144.8h5.7c2.1,0,2.9,1.1,2.9,2.6c0,1.3-0.7,2.6-2.7,2.6h-3.3v2.6h-2.6L188.2,144.8L188.2,144.8z M190.8,148.4h2.3	c0.7,0,1-0.3,1-1s-0.3-1-1-1h-2.3V148.4z"></path><path d="M199.1,144.8h7.8v1.7h-5.2v1.4h4.9v1.6h-4.9v1.4h5.2v1.7h-7.8V144.8z"></path><path d="M209.2,144.8h6.2c1.9,0,2.6,0.9,2.6,2.2c0.1,0.8-0.4,1.6-1.2,1.8l0,0c0.6,0.2,1,0.8,0.9,1.4c0.1,1.5,0.2,2,0.5,2.4h-2.8	c-0.1-0.4-0.2-0.8-0.2-1.2c0-1.2-0.4-1.4-1.1-1.4h-2.4v2.6h-2.6v-7.8H209.2z M211.8,148.3h2.5c0.6,0,1-0.3,1-0.9	c0-0.5-0.3-0.8-1-0.8h-2.5V148.3z"></path><path d="M219.7,144.8h8.3v1.7h-2.8v6h-2.6v-6h-2.8L219.7,144.8L219.7,144.8z"></path><path d="M232.3,150.2l-3.5-5.3h3l1.7,3.3l1.7-3.3h3l-3.5,5.3v2.4h-2.6L232.3,150.2z"></path><path d="M29.1,162.9c0-2.2,1.3-4.1,4.6-4.1s4.6,1.9,4.6,4.1S37,167,33.7,167S29.1,165.1,29.1,162.9z M36.6,162.9	c0-1.6-1.3-2.9-2.9-2.9c-1.6,0-2.9,1.3-2.9,2.9c0,1.6,1.3,2.9,2.9,2.9c1.5,0.1,2.8-1,2.9-2.5C36.6,163.2,36.6,163,36.6,162.9z"></path><path d="M40.7,159h4.9c2,0,2.6,0.9,2.6,2.1c0.1,0.9-0.4,1.6-1.3,1.9l0,0c0.9,0.2,1.1,1,1.1,2.1c0,0.6,0.1,1.1,0.3,1.6h-1.8	c-0.2-0.4-0.2-0.8-0.2-1.2c0-1.1-0.2-1.9-1.3-1.9h-2.8v3.1h-1.6L40.7,159L40.7,159z M45.1,162.5c0.9,0,1.4-0.3,1.4-1.1	c0-0.9-0.5-1.1-1.4-1.1h-2.8v2.3L45.1,162.5z"></path><path d="M59,166.8h-1l-0.2-1c-0.8,0.8-1.8,1.3-3,1.2c-3.3,0-4.6-1.9-4.6-4.1c0-2.2,1.4-4.1,4.5-4.1c2.4,0,3.9,1.2,4.1,2.7H57	c-0.3-1-1.3-1.6-2.3-1.5c-2,0-2.8,1.2-2.8,2.9c-0.2,1.4,0.8,2.7,2.2,2.8c0.2,0,0.3,0,0.5,0c1.6,0,2.4-0.8,2.7-2H55v-1.2h4V166.8z"></path><path d="M64.4,159h1.9l3.5,7.8H68l-0.8-1.9h-3.6l-0.8,1.9H61L64.4,159z M66.7,163.6l-1.3-3.3l-1.3,3.3H66.7z"></path><path d="M71.7,159h1.9l4.6,5.8l0,0V159h1.6v7.8H78l-4.7-5.8l0,0v5.8h-1.6V159z"></path><path d="M82.6,159h1.6v7.8h-1.6V159z"></path><path d="M86.4,165.6l5.3-5.4h-5V159h7.1v1.2l-5.3,5.3H94v1.3h-7.5L86.4,165.6z"></path><path d="M98.7,159h1.9l3.5,7.8h-1.8l-0.8-1.9h-3.6l-0.8,1.9h-1.8L98.7,159z M101,163.6l-1.3-3.3l-1.3,3.3H101z"></path><path d="M107.5,160.2h-2.9V159h7.5v1.2h-2.9v6.5h-1.6L107.5,160.2L107.5,160.2z"></path><path d="M114.1,159h1.6v7.8h-1.6V159z"></path><path d="M118.1,162.9c0-2.2,1.3-4.1,4.6-4.1s4.6,1.9,4.6,4.1s-1.3,4.1-4.6,4.1S118.1,165.1,118.1,162.9z M125.6,162.9	c0-1.6-1.3-2.9-2.9-2.9s-2.9,1.3-2.9,2.9c0,1.6,1.3,2.9,2.9,2.9c1.5,0.1,2.8-1,2.9-2.5C125.6,163.2,125.6,163,125.6,162.9	L125.6,162.9z"></path><path d="M129.6,159h1.9l4.6,5.8l0,0V159h1.6v7.8h-1.8l-4.7-5.8l0,0v5.8h-1.6V159z"></path></svg>