<?xml version="1.0" encoding="UTF-8" standalone="no"?>
<!DOCTYPE svg PUBLIC "-//W3C//DTD SVG 1.1//EN" "http://www.w3.org/Graphics/SVG/1.1/DTD/svg11.dtd">
<svg xmlns="http://www.w3.org/2000/svg" version="1.1" viewBox="0.00 0.00 756.00 155.00">
<path fill="#000000" d="
  M 734.69 24.32
  Q 749.83 39.70 753.00 62.01
  C 759.93 110.88 735.24 145.11 686.03 151.15
  C 636.57 157.23 574.23 147.01 570.93 84.06
  C 570.37 73.44 570.64 62.32 573.47 52.50
  C 581.30 25.34 603.23 10.05 629.83 4.49
  C 645.42 1.23 660.72 -0.30 676.61 1.51
  C 697.41 3.88 719.46 8.85 734.69 24.32
  Z
  M 624.69 45.69
  C 609.12 64.89 611.40 97.98 630.50 113.93
  C 646.01 126.87 674.75 127.26 691.29 116.28
  C 708.34 104.96 713.33 82.14 708.59 63.05
  C 704.64 47.20 694.67 36.21 678.75 32.08
  C 660.19 27.26 637.48 29.93 624.69 45.69
  Z"
/>
<path fill="#000000" d="
  M 72.84 106.56
  Q 73.11 105.96 73.00 105.29
  Q 72.91 104.77 73.06 104.26
  L 101.19 7.16
  A 2.96 2.94 7.8 0 1 104.02 5.03
  L 140.40 4.98
  A 2.95 2.95 0.0 0 1 143.23 7.10
  L 171.70 105.40
  A 0.64 0.63 44.7 0 0 172.92 105.40
  Q 185.68 58.55 198.55 11.32
  Q 199.53 7.71 200.72 5.51
  A 0.98 0.98 0.0 0 1 201.58 5.00
  L 238.70 5.01
  A 2.26 2.26 0.0 0 1 240.85 7.98
  L 195.55 146.38
  A 3.86 3.85 9.1 0 1 191.87 149.04
  L 154.85 148.91
  A 2.85 2.84 -8.3 0 1 152.14 146.90
  L 123.09 51.74
  A 0.82 0.82 0.0 0 0 121.59 51.57
  Q 120.84 52.91 120.34 54.57
  Q 106.26 101.24 92.16 147.41
  A 2.10 2.09 8.3 0 1 90.17 148.89
  L 51.07 149.05
  A 1.00 1.00 0.0 0 1 50.27 148.65
  Q 49.06 146.99 48.18 144.31
  Q 26.10 77.11 3.82 8.66
  Q 2.62 5.00 6.48 5.00
  L 42.49 5.00
  A 0.88 0.86 72.8 0 1 43.21 5.39
  Q 44.73 7.67 45.44 10.27
  Q 58.60 58.40 71.94 106.49
  A 0.48 0.48 0.0 0 0 72.84 106.56
  Z"
/>
<rect fill="#000000" x="280.00" y="5.00" width="41.00" height="144.00" rx="0.57"/>
<path fill="#000000" d="
  M 419.00 98.51
  L 419.00 147.50
  A 0.50 0.50 0.0 0 1 418.50 148.00
  L 379.50 148.00
  A 0.50 0.50 0.0 0 1 379.00 147.50
  L 379.00 6.51
  A 0.51 0.51 0.0 0 1 379.51 6.00
  Q 429.45 6.00 479.58 6.00
  Q 490.32 6.00 495.82 7.15
  C 512.81 10.71 525.59 21.73 529.01 39.50
  Q 532.18 55.96 526.09 71.34
  C 516.50 95.60 494.26 98.32 471.32 98.13
  Q 445.39 97.91 419.48 98.02
  A 0.49 0.48 -90.0 0 0 419.00 98.51
  Z
  M 418.99 32.62
  L 418.99 70.34
  A 0.60 0.60 0.0 0 0 419.59 70.94
  L 469.67 70.94
  A 18.06 16.37 -0.0 0 0 487.73 54.57
  L 487.73 48.39
  A 18.06 16.37 0.0 0 0 469.67 32.02
  L 419.59 32.02
  A 0.60 0.60 0.0 0 0 418.99 32.62
  Z"
/>
</svg>
