<?xml version="1.0" encoding="UTF-8" standalone="no"?>
<svg width="175.419mm" height="117.475mm"
 xmlns="http://www.w3.org/2000/svg" xmlns:xlink="http://www.w3.org/1999/xlink"  version="1.2" baseProfile="tiny">
<title>4a_antwerp_treemap_5km(larger_labels)</title>
<desc>Rendered by Tableau</desc>
<defs>
</defs>
<g fill="none" stroke="black" stroke-width="1" fill-rule="evenodd" stroke-linecap="square" stroke-linejoin="bevel" >

<g >
<g fill="#ffffff" fill-opacity="1" stroke="none" transform="matrix(1,0,0,1,0,0)"
font-family="Benton Sans Book" font-size="16" font-weight="400" font-style="normal" 
>
<rect x="0" y="0" width="663" height="444"/>
</g>
</g>

<g >
<g fill="#ffffff" fill-opacity="1" stroke="none" transform="matrix(1,0,0,1,0,0)"
font-family="Benton Sans Book" font-size="16" font-weight="400" font-style="normal" 
>
<rect x="0" y="0" width="663" height="444"/>
</g>
</g>

<clipPath id ="clip1" >
<rect x="0" y="0" height="445" width="664" transform="matrix(1,0,0,1,0,0)" />
</clipPath>
<g  clip-path="url(#clip1)" 
>
<g fill="none" stroke="#000000" stroke-opacity="1" stroke-width="1" stroke-linecap="square" stroke-linejoin="bevel" transform="matrix(1,0,0,1,0,0)"
font-family="Benton Sans Book" font-size="16" font-weight="400" font-style="normal" 
>
</g>
</g>

<clipPath id ="clip2" >
<rect x="0" y="0" height="445" width="664" transform="matrix(1,0,0,1,0,0)" />
</clipPath>
<g  clip-path="url(#clip2)" 
>
<g fill="none" stroke="#000000" stroke-opacity="1" stroke-width="1" stroke-linecap="square" stroke-linejoin="bevel" transform="matrix(1,0,0,1,0,0)"
font-family="Benton Sans Book" font-size="16" font-weight="400" font-style="normal" 
>
</g>
</g>

<g  clip-path="url(#clip2)" 
>
<g fill="#ffffff" fill-opacity="1" stroke="none" transform="matrix(1,0,0,1,0,0)"
font-family="Benton Sans Book" font-size="16" font-weight="400" font-style="normal" 
>
<rect x="0" y="0" width="664" height="445"/>
</g>
</g>

<g  clip-path="url(#clip2)" 
>
<g fill="#ffffff" fill-opacity="1" stroke="none" transform="matrix(1,0,0,1,0,0)"
font-family="Benton Sans Book" font-size="16" font-weight="400" font-style="normal" 
>
<rect x="0" y="0" width="664" height="445"/>
</g>
</g>

<clipPath id ="clip3" >
<rect x="0" y="0" height="444" width="663" transform="matrix(1,0,0,1,0,0)" />
</clipPath>
<g  clip-path="url(#clip3)" 
>
<g fill="none" stroke="#000000" stroke-opacity="1" stroke-width="1" stroke-linecap="square" stroke-linejoin="bevel" transform="matrix(1,0,0,1,0,0)"
font-family="Benton Sans Book" font-size="16" font-weight="400" font-style="normal" 
>
</g>
</g>

<g  clip-path="url(#clip3)" 
>
<g fill="#ffffff" fill-opacity="1" stroke="none" transform="matrix(1,0,0,1,0,0)"
font-family="Benton Sans Book" font-size="16" font-weight="400" font-style="normal" 
>
<rect x="0" y="0" width="664" height="445"/>
</g>
</g>

<clipPath id ="clip4" >
<rect x="0" y="0" height="445" width="664" transform="matrix(1,0,0,1,0,0)" />
</clipPath>
<g  clip-path="url(#clip4)" 
>
<g fill="none" stroke="#000000" stroke-opacity="1" stroke-width="1" stroke-linecap="square" stroke-linejoin="bevel" transform="matrix(1,0,0,1,0,0)"
font-family="Benton Sans Book" font-size="16" font-weight="400" font-style="normal" 
>
</g>
</g>

<clipPath id ="clip5" >
<rect x="0" y="0" height="445" width="664" transform="matrix(1,0,0,1,0,0)" />
</clipPath>
<g  clip-path="url(#clip5)" 
>
<g fill="none" stroke="#000000" stroke-opacity="1" stroke-width="1" stroke-linecap="square" stroke-linejoin="bevel" transform="matrix(1,0,0,1,0,0)"
font-family="Benton Sans Book" font-size="16" font-weight="400" font-style="normal" 
>
</g>
</g>

<clipPath id ="clip6" >
<rect x="0" y="0" height="445" width="664" transform="matrix(1,0,0,1,0,0)" />
</clipPath>
<g  clip-path="url(#clip6)" 
>
<g fill="none" stroke="#000000" stroke-opacity="1" stroke-width="1" stroke-linecap="square" stroke-linejoin="bevel" transform="matrix(1,0,0,1,0,0)"
font-family="Benton Sans Book" font-size="16" font-weight="400" font-style="normal" 
>
</g>
</g>

<clipPath id ="clip7" >
<rect x="0" y="0" height="445" width="664" transform="matrix(1,0,0,1,0,0)" />
</clipPath>
<g  clip-path="url(#clip7)" 
>
<g fill="none" stroke="#000000" stroke-opacity="1" stroke-width="1" stroke-linecap="square" stroke-linejoin="bevel" transform="matrix(1,0,0,1,0,0)"
font-family="Benton Sans Book" font-size="16" font-weight="400" font-style="normal" 
>
</g>
</g>

<g  clip-path="url(#clip7)" 
>
<g fill="#ffffff" fill-opacity="1" stroke="none" transform="matrix(1,0,0,1,0,0)"
font-family="Benton Sans Book" font-size="16" font-weight="400" font-style="normal" 
>
<rect x="0" y="0" width="664" height="445"/>
</g>
</g>

<clipPath id ="clip8" >
<rect x="0" y="0" height="445" width="664" transform="matrix(1,0,0,1,0,0)" />
</clipPath>
<g  clip-path="url(#clip8)" 
>
<g fill="none" stroke="#000000" stroke-opacity="1" stroke-width="1" stroke-linecap="square" stroke-linejoin="bevel" transform="matrix(1,0,0,1,0,0)"
font-family="Benton Sans Book" font-size="16" font-weight="400" font-style="normal" 
>
</g>
</g>

<clipPath id ="clip9" >
<rect x="0" y="0" height="444" width="663" transform="matrix(1,0,0,1,0,0)" />
</clipPath>
<g  clip-path="url(#clip9)" 
>
<g fill="none" stroke="#000000" stroke-opacity="1" stroke-width="1" stroke-linecap="square" stroke-linejoin="bevel" transform="matrix(1,0,0,1,0,0)"
font-family="Benton Sans Book" font-size="16" font-weight="400" font-style="normal" 
>
</g>
</g>

<clipPath id ="clip10" >
<rect x="0" y="0" height="445" width="664" transform="matrix(1,0,0,1,0,0)" />
</clipPath>
<g  clip-path="url(#clip10)" 
>
<g fill="none" stroke="#000000" stroke-opacity="1" stroke-width="1" stroke-linecap="square" stroke-linejoin="bevel" transform="matrix(1,0,0,1,0,0)"
font-family="Benton Sans Book" font-size="16" font-weight="400" font-style="normal" 
>
</g>
</g>

<clipPath id ="clip11" >
<rect x="0" y="0" height="444" width="663" transform="matrix(1,0,0,1,0,0)" />
</clipPath>
<g  clip-path="url(#clip11)" 
>
<g fill="none" stroke="#000000" stroke-opacity="1" stroke-width="1" stroke-linecap="square" stroke-linejoin="bevel" transform="matrix(1,0,0,1,0,0)"
font-family="Benton Sans Book" font-size="16" font-weight="400" font-style="normal" 
>
</g>
</g>

<clipPath id ="clip12" >
<rect x="0" y="0" height="445" width="664" transform="matrix(1,0,0,1,0,0)" />
</clipPath>
<g  clip-path="url(#clip12)" 
>
<g fill="none" stroke="#000000" stroke-opacity="1" stroke-width="1" stroke-linecap="square" stroke-linejoin="bevel" transform="matrix(1,0,0,1,0,0)"
font-family="Benton Sans Book" font-size="16" font-weight="400" font-style="normal" 
>
</g>
</g>

<clipPath id ="clip13" >
<rect x="0" y="0" height="445" width="664" transform="matrix(1,0,0,1,0,0)" />
</clipPath>
<g  clip-path="url(#clip13)" 
>
<g fill="none" stroke="#000000" stroke-opacity="1" stroke-width="1" stroke-linecap="square" stroke-linejoin="bevel" transform="matrix(1,0,0,1,0,0)"
font-family="Benton Sans Book" font-size="16" font-weight="400" font-style="normal" 
>
</g>
</g>

<clipPath id ="clip14" >
<rect x="0" y="0" height="444" width="663" transform="matrix(1,0,0,1,0,0)" />
</clipPath>
<g  clip-path="url(#clip14)" 
>
<g fill="none" stroke="#000000" stroke-opacity="1" stroke-width="1" stroke-linecap="square" stroke-linejoin="bevel" transform="matrix(1,0,0,1,0,0)"
font-family="Benton Sans Book" font-size="16" font-weight="400" font-style="normal" 
>
</g>
</g>

<g  clip-path="url(#clip14)" 
>
<g fill="#ff9d9a" fill-opacity="1" stroke="none" transform="matrix(1,0,0,1,0,0)"
font-family="Benton Sans Book" font-size="16" font-weight="400" font-style="normal" 
>
<rect x="220" y="4" width="199" height="131"/>
</g>
</g>

<g  clip-path="url(#clip14)" 
>
<g fill="none" stroke="#ffffff" stroke-opacity="1" stroke-width="1" stroke-linecap="butt" stroke-linejoin="miter" stroke-miterlimit="2" transform="matrix(1,0,0,1,0,0)"
font-family="Benton Sans Book" font-size="16" font-weight="400" font-style="normal" 
>
<rect x="220" y="4" width="199" height="131"/>
</g>
</g>

<g  clip-path="url(#clip14)" 
>
<g fill="#d7b5a6" fill-opacity="1" stroke="none" transform="matrix(1,0,0,1,0,0)"
font-family="Benton Sans Book" font-size="16" font-weight="400" font-style="normal" 
>
<rect x="643" y="423" width="11" height="17"/>
</g>
</g>

<g  clip-path="url(#clip14)" 
>
<g fill="none" stroke="#ffffff" stroke-opacity="1" stroke-width="1" stroke-linecap="butt" stroke-linejoin="miter" stroke-miterlimit="2" transform="matrix(1,0,0,1,0,0)"
font-family="Benton Sans Book" font-size="16" font-weight="400" font-style="normal" 
>
<rect x="643" y="423" width="11" height="17"/>
</g>
</g>

<g  clip-path="url(#clip14)" 
>
<g fill="#9d7660" fill-opacity="1" stroke="none" transform="matrix(1,0,0,1,0,0)"
font-family="Benton Sans Book" font-size="16" font-weight="400" font-style="normal" 
>
<rect x="4" y="4" width="216" height="242"/>
</g>
</g>

<g  clip-path="url(#clip14)" 
>
<g fill="none" stroke="#ffffff" stroke-opacity="1" stroke-width="1" stroke-linecap="butt" stroke-linejoin="miter" stroke-miterlimit="2" transform="matrix(1,0,0,1,0,0)"
font-family="Benton Sans Book" font-size="16" font-weight="400" font-style="normal" 
>
<rect x="4" y="4" width="216" height="242"/>
</g>
</g>

<g  clip-path="url(#clip14)" 
>
<g fill="#d4a6c8" fill-opacity="1" stroke="none" transform="matrix(1,0,0,1,0,0)"
font-family="Benton Sans Book" font-size="16" font-weight="400" font-style="normal" 
>
<rect x="541" y="4" width="118" height="145"/>
</g>
</g>

<g  clip-path="url(#clip14)" 
>
<g fill="none" stroke="#ffffff" stroke-opacity="1" stroke-width="1" stroke-linecap="butt" stroke-linejoin="miter" stroke-miterlimit="2" transform="matrix(1,0,0,1,0,0)"
font-family="Benton Sans Book" font-size="16" font-weight="400" font-style="normal" 
>
<rect x="541" y="4" width="118" height="145"/>
</g>
</g>

<g  clip-path="url(#clip14)" 
>
<g fill="#b07aa1" fill-opacity="1" stroke="none" transform="matrix(1,0,0,1,0,0)"
font-family="Benton Sans Book" font-size="16" font-weight="400" font-style="normal" 
>
<rect x="419" y="149" width="122" height="121"/>
</g>
</g>

<g  clip-path="url(#clip14)" 
>
<g fill="none" stroke="#ffffff" stroke-opacity="1" stroke-width="1" stroke-linecap="butt" stroke-linejoin="miter" stroke-miterlimit="2" transform="matrix(1,0,0,1,0,0)"
font-family="Benton Sans Book" font-size="16" font-weight="400" font-style="normal" 
>
<rect x="419" y="149" width="122" height="121"/>
</g>
</g>

<g  clip-path="url(#clip14)" 
>
<g fill="#79706e" fill-opacity="1" stroke="none" transform="matrix(1,0,0,1,0,0)"
font-family="Benton Sans Book" font-size="16" font-weight="400" font-style="normal" 
>
<rect x="537" y="406" width="79" height="34"/>
</g>
</g>

<g  clip-path="url(#clip14)" 
>
<g fill="none" stroke="#ffffff" stroke-opacity="1" stroke-width="1" stroke-linecap="butt" stroke-linejoin="miter" stroke-miterlimit="2" transform="matrix(1,0,0,1,0,0)"
font-family="Benton Sans Book" font-size="16" font-weight="400" font-style="normal" 
>
<rect x="537" y="406" width="79" height="34"/>
</g>
</g>

<g  clip-path="url(#clip14)" 
>
<g fill="#d37295" fill-opacity="1" stroke="none" transform="matrix(1,0,0,1,0,0)"
font-family="Benton Sans Book" font-size="16" font-weight="400" font-style="normal" 
>
<rect x="4" y="246" width="216" height="194"/>
</g>
</g>

<g  clip-path="url(#clip14)" 
>
<g fill="none" stroke="#ffffff" stroke-opacity="1" stroke-width="1" stroke-linecap="butt" stroke-linejoin="miter" stroke-miterlimit="2" transform="matrix(1,0,0,1,0,0)"
font-family="Benton Sans Book" font-size="16" font-weight="400" font-style="normal" 
>
<rect x="4" y="246" width="216" height="194"/>
</g>
</g>

<g  clip-path="url(#clip14)" 
>
<g fill="#bab0ac" fill-opacity="1" stroke="none" transform="matrix(1,0,0,1,0,0)"
font-family="Benton Sans Book" font-size="16" font-weight="400" font-style="normal" 
>
<rect x="220" y="135" width="199" height="117"/>
</g>
</g>

<g  clip-path="url(#clip14)" 
>
<g fill="none" stroke="#ffffff" stroke-opacity="1" stroke-width="1" stroke-linecap="butt" stroke-linejoin="miter" stroke-miterlimit="2" transform="matrix(1,0,0,1,0,0)"
font-family="Benton Sans Book" font-size="16" font-weight="400" font-style="normal" 
>
<rect x="220" y="135" width="199" height="117"/>
</g>
</g>

<g  clip-path="url(#clip14)" 
>
<g fill="#ff9d9a" fill-opacity="1" stroke="none" transform="matrix(1,0,0,1,0,0)"
font-family="Benton Sans Book" font-size="16" font-weight="400" font-style="normal" 
>
<rect x="654" y="423" width="5" height="17"/>
</g>
</g>

<g  clip-path="url(#clip14)" 
>
<g fill="none" stroke="#ffffff" stroke-opacity="1" stroke-width="1" stroke-linecap="butt" stroke-linejoin="miter" stroke-miterlimit="2" transform="matrix(1,0,0,1,0,0)"
font-family="Benton Sans Book" font-size="16" font-weight="400" font-style="normal" 
>
<rect x="654" y="423" width="5" height="17"/>
</g>
</g>

<g  clip-path="url(#clip14)" 
>
<g fill="#e15759" fill-opacity="1" stroke="none" transform="matrix(1,0,0,1,0,0)"
font-family="Benton Sans Book" font-size="16" font-weight="400" font-style="normal" 
>
<rect x="419" y="270" width="118" height="86"/>
</g>
</g>

<g  clip-path="url(#clip14)" 
>
<g fill="none" stroke="#ffffff" stroke-opacity="1" stroke-width="1" stroke-linecap="butt" stroke-linejoin="miter" stroke-miterlimit="2" transform="matrix(1,0,0,1,0,0)"
font-family="Benton Sans Book" font-size="16" font-weight="400" font-style="normal" 
>
<rect x="419" y="270" width="118" height="86"/>
</g>
</g>

<g  clip-path="url(#clip14)" 
>
<g fill="#86bcb6" fill-opacity="1" stroke="none" transform="matrix(1,0,0,1,0,0)"
font-family="Benton Sans Book" font-size="16" font-weight="400" font-style="normal" 
>
<rect x="616" y="363" width="43" height="60"/>
</g>
</g>

<g  clip-path="url(#clip14)" 
>
<g fill="none" stroke="#ffffff" stroke-opacity="1" stroke-width="1" stroke-linecap="butt" stroke-linejoin="miter" stroke-miterlimit="2" transform="matrix(1,0,0,1,0,0)"
font-family="Benton Sans Book" font-size="16" font-weight="400" font-style="normal" 
>
<rect x="616" y="363" width="43" height="60"/>
</g>
</g>

<g  clip-path="url(#clip14)" 
>
<g fill="#499894" fill-opacity="1" stroke="none" transform="matrix(1,0,0,1,0,0)"
font-family="Benton Sans Book" font-size="16" font-weight="400" font-style="normal" 
>
<rect x="537" y="363" width="79" height="43"/>
</g>
</g>

<g  clip-path="url(#clip14)" 
>
<g fill="none" stroke="#ffffff" stroke-opacity="1" stroke-width="1" stroke-linecap="butt" stroke-linejoin="miter" stroke-miterlimit="2" transform="matrix(1,0,0,1,0,0)"
font-family="Benton Sans Book" font-size="16" font-weight="400" font-style="normal" 
>
<rect x="537" y="363" width="79" height="43"/>
</g>
</g>

<g  clip-path="url(#clip14)" 
>
<g fill="#f1ce63" fill-opacity="1" stroke="none" transform="matrix(1,0,0,1,0,0)"
font-family="Benton Sans Book" font-size="16" font-weight="400" font-style="normal" 
>
<rect x="220" y="348" width="199" height="92"/>
</g>
</g>

<g  clip-path="url(#clip14)" 
>
<g fill="none" stroke="#ffffff" stroke-opacity="1" stroke-width="1" stroke-linecap="butt" stroke-linejoin="miter" stroke-miterlimit="2" transform="matrix(1,0,0,1,0,0)"
font-family="Benton Sans Book" font-size="16" font-weight="400" font-style="normal" 
>
<rect x="220" y="348" width="199" height="92"/>
</g>
</g>

<g  clip-path="url(#clip14)" 
>
<g fill="#b6992d" fill-opacity="1" stroke="none" transform="matrix(1,0,0,1,0,0)"
font-family="Benton Sans Book" font-size="16" font-weight="400" font-style="normal" 
>
<rect x="537" y="270" width="75" height="93"/>
</g>
</g>

<g  clip-path="url(#clip14)" 
>
<g fill="none" stroke="#ffffff" stroke-opacity="1" stroke-width="1" stroke-linecap="butt" stroke-linejoin="miter" stroke-miterlimit="2" transform="matrix(1,0,0,1,0,0)"
font-family="Benton Sans Book" font-size="16" font-weight="400" font-style="normal" 
>
<rect x="537" y="270" width="75" height="93"/>
</g>
</g>

<g  clip-path="url(#clip14)" 
>
<g fill="#8cd17d" fill-opacity="1" stroke="none" transform="matrix(1,0,0,1,0,0)"
font-family="Benton Sans Book" font-size="16" font-weight="400" font-style="normal" 
>
<rect x="612" y="270" width="47" height="93"/>
</g>
</g>

<g  clip-path="url(#clip14)" 
>
<g fill="none" stroke="#ffffff" stroke-opacity="1" stroke-width="1" stroke-linecap="butt" stroke-linejoin="miter" stroke-miterlimit="2" transform="matrix(1,0,0,1,0,0)"
font-family="Benton Sans Book" font-size="16" font-weight="400" font-style="normal" 
>
<rect x="612" y="270" width="47" height="93"/>
</g>
</g>

<g  clip-path="url(#clip14)" 
>
<g fill="#59a14f" fill-opacity="1" stroke="none" transform="matrix(1,0,0,1,0,0)"
font-family="Benton Sans Book" font-size="16" font-weight="400" font-style="normal" 
>
<rect x="541" y="149" width="118" height="121"/>
</g>
</g>

<g  clip-path="url(#clip14)" 
>
<g fill="none" stroke="#ffffff" stroke-opacity="1" stroke-width="1" stroke-linecap="butt" stroke-linejoin="miter" stroke-miterlimit="2" transform="matrix(1,0,0,1,0,0)"
font-family="Benton Sans Book" font-size="16" font-weight="400" font-style="normal" 
>
<rect x="541" y="149" width="118" height="121"/>
</g>
</g>

<g  clip-path="url(#clip14)" 
>
<g fill="#ffbe7d" fill-opacity="1" stroke="none" transform="matrix(1,0,0,1,0,0)"
font-family="Benton Sans Book" font-size="16" font-weight="400" font-style="normal" 
>
<rect x="419" y="356" width="118" height="84"/>
</g>
</g>

<g  clip-path="url(#clip14)" 
>
<g fill="none" stroke="#ffffff" stroke-opacity="1" stroke-width="1" stroke-linecap="butt" stroke-linejoin="miter" stroke-miterlimit="2" transform="matrix(1,0,0,1,0,0)"
font-family="Benton Sans Book" font-size="16" font-weight="400" font-style="normal" 
>
<rect x="419" y="356" width="118" height="84"/>
</g>
</g>

<g  clip-path="url(#clip14)" 
>
<g fill="#f28e2b" fill-opacity="1" stroke="none" transform="matrix(1,0,0,1,0,0)"
font-family="Benton Sans Book" font-size="16" font-weight="400" font-style="normal" 
>
<rect x="616" y="423" width="27" height="17"/>
</g>
</g>

<g  clip-path="url(#clip14)" 
>
<g fill="none" stroke="#ffffff" stroke-opacity="1" stroke-width="1" stroke-linecap="butt" stroke-linejoin="miter" stroke-miterlimit="2" transform="matrix(1,0,0,1,0,0)"
font-family="Benton Sans Book" font-size="16" font-weight="400" font-style="normal" 
>
<rect x="616" y="423" width="27" height="17"/>
</g>
</g>

<g  clip-path="url(#clip14)" 
>
<g fill="#a0cbe8" fill-opacity="1" stroke="none" transform="matrix(1,0,0,1,0,0)"
font-family="Benton Sans Book" font-size="16" font-weight="400" font-style="normal" 
>
<rect x="220" y="252" width="199" height="96"/>
</g>
</g>

<g  clip-path="url(#clip14)" 
>
<g fill="none" stroke="#ffffff" stroke-opacity="1" stroke-width="1" stroke-linecap="butt" stroke-linejoin="miter" stroke-miterlimit="2" transform="matrix(1,0,0,1,0,0)"
font-family="Benton Sans Book" font-size="16" font-weight="400" font-style="normal" 
>
<rect x="220" y="252" width="199" height="96"/>
</g>
</g>

<g  clip-path="url(#clip14)" 
>
<g fill="#4e79a7" fill-opacity="1" stroke="none" transform="matrix(1,0,0,1,0,0)"
font-family="Benton Sans Book" font-size="16" font-weight="400" font-style="normal" 
>
<rect x="419" y="4" width="122" height="145"/>
</g>
</g>

<g  clip-path="url(#clip14)" 
>
<g fill="none" stroke="#ffffff" stroke-opacity="1" stroke-width="1" stroke-linecap="butt" stroke-linejoin="miter" stroke-miterlimit="2" transform="matrix(1,0,0,1,0,0)"
font-family="Benton Sans Book" font-size="16" font-weight="400" font-style="normal" 
>
<rect x="419" y="4" width="122" height="145"/>
</g>
</g>

<clipPath id ="clip15" >
<rect x="0" y="0" height="445" width="664" transform="matrix(1,0,0,1,0,0)" />
</clipPath>
<g  clip-path="url(#clip15)" 
>
<g fill="none" stroke="#ffffff" stroke-opacity="1" stroke-width="1" stroke-linecap="butt" stroke-linejoin="miter" stroke-miterlimit="2" transform="matrix(1,0,0,1,0,0)"
font-family="Benton Sans Book" font-size="16" font-weight="400" font-style="normal" 
>
</g>
</g>

<clipPath id ="clip16" >
<rect x="0" y="0" height="444" width="663" transform="matrix(1,0,0,1,0,0)" />
</clipPath>
<g  clip-path="url(#clip16)" 
>
<g fill="none" stroke="#ffffff" stroke-opacity="1" stroke-width="1" stroke-linecap="butt" stroke-linejoin="miter" stroke-miterlimit="2" transform="matrix(1,0,0,1,0,0)"
font-family="Benton Sans Book" font-size="16" font-weight="400" font-style="normal" 
>
</g>
</g>

<g  clip-path="url(#clip16)" 
>
<g fill="none" stroke="#000000" stroke-opacity="1" stroke-width="1" stroke-linecap="square" stroke-linejoin="bevel" transform="matrix(1,0,0,1,0,0)"
font-family="Arial" font-size="13" font-weight="400" font-style="normal" 
>
<text fill="#000000" fill-opacity="1" stroke="none" xml:space="preserve" x="228" y="23" font-family="Arial" font-size="13" font-weight="400" font-style="normal" 
 >Wholesale Trade</text>
</g>
</g>

<g  clip-path="url(#clip16)" 
>
<g fill="none" stroke="#000000" stroke-opacity="1" stroke-width="1" stroke-linecap="square" stroke-linejoin="bevel" transform="matrix(1,0,0,1,0,0)"
font-family="Arial" font-size="12" font-weight="400" font-style="normal" 
>
<text fill="#000000" fill-opacity="1" stroke="none" xml:space="preserve" x="228" y="37" font-family="Arial" font-size="12" font-weight="400" font-style="normal" 
 >9.13%</text>
</g>
</g>

<g  clip-path="url(#clip16)" 
>
<g fill="none" stroke="#ffffff" stroke-opacity="1" stroke-width="1" stroke-linecap="square" stroke-linejoin="bevel" transform="matrix(1,0,0,1,0,0)"
font-family="Arial" font-size="13" font-weight="400" font-style="normal" 
>
<text fill="#ffffff" fill-opacity="1" stroke="none" xml:space="preserve" x="12" y="23" font-family="Arial" font-size="13" font-weight="400" font-style="normal" 
 >Transportation and Warehousing</text>
</g>
</g>

<g  clip-path="url(#clip16)" 
>
<g fill="none" stroke="#ffffff" stroke-opacity="1" stroke-width="1" stroke-linecap="square" stroke-linejoin="bevel" transform="matrix(1,0,0,1,0,0)"
font-family="Arial" font-size="12" font-weight="400" font-style="normal" 
>
<text fill="#ffffff" fill-opacity="1" stroke="none" xml:space="preserve" x="12" y="37" font-family="Arial" font-size="12" font-weight="400" font-style="normal" 
 >18.31%</text>
</g>
</g>

<g  clip-path="url(#clip16)" 
>
<g fill="none" stroke="#000000" stroke-opacity="1" stroke-width="1" stroke-linecap="square" stroke-linejoin="bevel" transform="matrix(1,0,0,1,0,0)"
font-family="Arial" font-size="13" font-weight="400" font-style="normal" 
>
<text fill="#000000" fill-opacity="1" stroke="none" xml:space="preserve" x="549" y="23" font-family="Arial" font-size="13" font-weight="400" font-style="normal" 
 >Retail Trade</text>
</g>
</g>

<g  clip-path="url(#clip16)" 
>
<g fill="none" stroke="#000000" stroke-opacity="1" stroke-width="1" stroke-linecap="square" stroke-linejoin="bevel" transform="matrix(1,0,0,1,0,0)"
font-family="Arial" font-size="12" font-weight="400" font-style="normal" 
>
<text fill="#000000" fill-opacity="1" stroke="none" xml:space="preserve" x="549" y="37" font-family="Arial" font-size="12" font-weight="400" font-style="normal" 
 >5.95%</text>
</g>
</g>

<g  clip-path="url(#clip16)" 
>
<g fill="none" stroke="#ffffff" stroke-opacity="1" stroke-width="1" stroke-linecap="square" stroke-linejoin="bevel" transform="matrix(1,0,0,1,0,0)"
font-family="Arial" font-size="13" font-weight="400" font-style="normal" 
>
<text fill="#ffffff" fill-opacity="1" stroke="none" xml:space="preserve" x="427" y="168" font-family="Arial" font-size="13" font-weight="400" font-style="normal" 
 >Real Estate and</text>
</g>
</g>

<g  clip-path="url(#clip16)" 
>
<g fill="none" stroke="#ffffff" stroke-opacity="1" stroke-width="1" stroke-linecap="square" stroke-linejoin="bevel" transform="matrix(1,0,0,1,0,0)"
font-family="Arial" font-size="13" font-weight="400" font-style="normal" 
>
<text fill="#ffffff" fill-opacity="1" stroke="none" xml:space="preserve" x="427" y="183" font-family="Arial" font-size="13" font-weight="400" font-style="normal" 
 >Rental and</text>
</g>
</g>

<g  clip-path="url(#clip16)" 
>
<g fill="none" stroke="#ffffff" stroke-opacity="1" stroke-width="1" stroke-linecap="square" stroke-linejoin="bevel" transform="matrix(1,0,0,1,0,0)"
font-family="Arial" font-size="13" font-weight="400" font-style="normal" 
>
<text fill="#ffffff" fill-opacity="1" stroke="none" xml:space="preserve" x="427" y="198" font-family="Arial" font-size="13" font-weight="400" font-style="normal" 
 >Leasing</text>
</g>
</g>

<g  clip-path="url(#clip16)" 
>
<g fill="none" stroke="#ffffff" stroke-opacity="1" stroke-width="1" stroke-linecap="square" stroke-linejoin="bevel" transform="matrix(1,0,0,1,0,0)"
font-family="Arial" font-size="12" font-weight="400" font-style="normal" 
>
<text fill="#ffffff" fill-opacity="1" stroke="none" xml:space="preserve" x="427" y="212" font-family="Arial" font-size="12" font-weight="400" font-style="normal" 
 >5.22%</text>
</g>
</g>

<g  clip-path="url(#clip16)" 
>
<g fill="none" stroke="#ffffff" stroke-opacity="1" stroke-width="1" stroke-linecap="square" stroke-linejoin="bevel" transform="matrix(1,0,0,1,0,0)"
font-family="Arial" font-size="13" font-weight="400" font-style="normal" 
>
<text fill="#ffffff" fill-opacity="1" stroke="none" xml:space="preserve" x="12" y="265" font-family="Arial" font-size="13" font-weight="400" font-style="normal" 
 >Professional, Scientific, and</text>
</g>
</g>

<g  clip-path="url(#clip16)" 
>
<g fill="none" stroke="#ffffff" stroke-opacity="1" stroke-width="1" stroke-linecap="square" stroke-linejoin="bevel" transform="matrix(1,0,0,1,0,0)"
font-family="Arial" font-size="13" font-weight="400" font-style="normal" 
>
<text fill="#ffffff" fill-opacity="1" stroke="none" xml:space="preserve" x="12" y="280" font-family="Arial" font-size="13" font-weight="400" font-style="normal" 
 >Technical Services</text>
</g>
</g>

<g  clip-path="url(#clip16)" 
>
<g fill="none" stroke="#ffffff" stroke-opacity="1" stroke-width="1" stroke-linecap="square" stroke-linejoin="bevel" transform="matrix(1,0,0,1,0,0)"
font-family="Arial" font-size="12" font-weight="400" font-style="normal" 
>
<text fill="#ffffff" fill-opacity="1" stroke="none" xml:space="preserve" x="12" y="294" font-family="Arial" font-size="12" font-weight="400" font-style="normal" 
 >14.74%</text>
</g>
</g>

<g  clip-path="url(#clip16)" 
>
<g fill="none" stroke="#000000" stroke-opacity="1" stroke-width="1" stroke-linecap="square" stroke-linejoin="bevel" transform="matrix(1,0,0,1,0,0)"
font-family="Arial" font-size="13" font-weight="400" font-style="normal" 
>
<text fill="#000000" fill-opacity="1" stroke="none" xml:space="preserve" x="228" y="154" font-family="Arial" font-size="13" font-weight="400" font-style="normal" 
 >Other Services (except Public</text>
</g>
</g>

<g  clip-path="url(#clip16)" 
>
<g fill="none" stroke="#000000" stroke-opacity="1" stroke-width="1" stroke-linecap="square" stroke-linejoin="bevel" transform="matrix(1,0,0,1,0,0)"
font-family="Arial" font-size="13" font-weight="400" font-style="normal" 
>
<text fill="#000000" fill-opacity="1" stroke="none" xml:space="preserve" x="228" y="169" font-family="Arial" font-size="13" font-weight="400" font-style="normal" 
 >Administration)</text>
</g>
</g>

<g  clip-path="url(#clip16)" 
>
<g fill="none" stroke="#000000" stroke-opacity="1" stroke-width="1" stroke-linecap="square" stroke-linejoin="bevel" transform="matrix(1,0,0,1,0,0)"
font-family="Arial" font-size="12" font-weight="400" font-style="normal" 
>
<text fill="#000000" fill-opacity="1" stroke="none" xml:space="preserve" x="228" y="183" font-family="Arial" font-size="12" font-weight="400" font-style="normal" 
 >8.08%</text>
</g>
</g>

<g  clip-path="url(#clip16)" 
>
<g fill="none" stroke="#ffffff" stroke-opacity="1" stroke-width="1" stroke-linecap="square" stroke-linejoin="bevel" transform="matrix(1,0,0,1,0,0)"
font-family="Arial" font-size="13" font-weight="400" font-style="normal" 
>
<text fill="#ffffff" fill-opacity="1" stroke="none" xml:space="preserve" x="427" y="289" font-family="Arial" font-size="13" font-weight="400" font-style="normal" 
 >Manufacturing</text>
</g>
</g>

<g  clip-path="url(#clip16)" 
>
<g fill="none" stroke="#ffffff" stroke-opacity="1" stroke-width="1" stroke-linecap="square" stroke-linejoin="bevel" transform="matrix(1,0,0,1,0,0)"
font-family="Arial" font-size="12" font-weight="400" font-style="normal" 
>
<text fill="#ffffff" fill-opacity="1" stroke="none" xml:space="preserve" x="427" y="303" font-family="Arial" font-size="12" font-weight="400" font-style="normal" 
 >3.56%</text>
</g>
</g>

<g  clip-path="url(#clip16)" 
>
<g fill="none" stroke="#000000" stroke-opacity="1" stroke-width="1" stroke-linecap="square" stroke-linejoin="bevel" transform="matrix(1,0,0,1,0,0)"
font-family="Arial" font-size="13" font-weight="400" font-style="normal" 
>
<text fill="#000000" fill-opacity="1" stroke="none" xml:space="preserve" x="228" y="367" font-family="Arial" font-size="13" font-weight="400" font-style="normal" 
 >Health Care and Social</text>
</g>
</g>

<g  clip-path="url(#clip16)" 
>
<g fill="none" stroke="#000000" stroke-opacity="1" stroke-width="1" stroke-linecap="square" stroke-linejoin="bevel" transform="matrix(1,0,0,1,0,0)"
font-family="Arial" font-size="13" font-weight="400" font-style="normal" 
>
<text fill="#000000" fill-opacity="1" stroke="none" xml:space="preserve" x="228" y="382" font-family="Arial" font-size="13" font-weight="400" font-style="normal" 
 >Assistance</text>
</g>
</g>

<g  clip-path="url(#clip16)" 
>
<g fill="none" stroke="#000000" stroke-opacity="1" stroke-width="1" stroke-linecap="square" stroke-linejoin="bevel" transform="matrix(1,0,0,1,0,0)"
font-family="Arial" font-size="12" font-weight="400" font-style="normal" 
>
<text fill="#000000" fill-opacity="1" stroke="none" xml:space="preserve" x="228" y="396" font-family="Arial" font-size="12" font-weight="400" font-style="normal" 
 >6.36%</text>
</g>
</g>

<g  clip-path="url(#clip16)" 
>
<g fill="none" stroke="#000000" stroke-opacity="1" stroke-width="1" stroke-linecap="square" stroke-linejoin="bevel" transform="matrix(1,0,0,1,0,0)"
font-family="Arial" font-size="13" font-weight="400" font-style="normal" 
>
<text fill="#000000" fill-opacity="1" stroke="none" xml:space="preserve" x="545" y="289" font-family="Arial" font-size="13" font-weight="400" font-style="normal" 
 >Finance</text>
</g>
</g>

<g  clip-path="url(#clip16)" 
>
<g fill="none" stroke="#000000" stroke-opacity="1" stroke-width="1" stroke-linecap="square" stroke-linejoin="bevel" transform="matrix(1,0,0,1,0,0)"
font-family="Arial" font-size="13" font-weight="400" font-style="normal" 
>
<text fill="#000000" fill-opacity="1" stroke="none" xml:space="preserve" x="545" y="304" font-family="Arial" font-size="13" font-weight="400" font-style="normal" 
 >and</text>
</g>
</g>

<g  clip-path="url(#clip16)" 
>
<g fill="none" stroke="#000000" stroke-opacity="1" stroke-width="1" stroke-linecap="square" stroke-linejoin="bevel" transform="matrix(1,0,0,1,0,0)"
font-family="Arial" font-size="13" font-weight="400" font-style="normal" 
>
<text fill="#000000" fill-opacity="1" stroke="none" xml:space="preserve" x="545" y="319" font-family="Arial" font-size="13" font-weight="400" font-style="normal" 
 >Insurance</text>
</g>
</g>

<g  clip-path="url(#clip16)" 
>
<g fill="none" stroke="#000000" stroke-opacity="1" stroke-width="1" stroke-linecap="square" stroke-linejoin="bevel" transform="matrix(1,0,0,1,0,0)"
font-family="Arial" font-size="12" font-weight="400" font-style="normal" 
>
<text fill="#000000" fill-opacity="1" stroke="none" xml:space="preserve" x="545" y="333" font-family="Arial" font-size="12" font-weight="400" font-style="normal" 
 >2.44%</text>
</g>
</g>

<g  clip-path="url(#clip16)" 
>
<g fill="none" stroke="#ffffff" stroke-opacity="1" stroke-width="1" stroke-linecap="square" stroke-linejoin="bevel" transform="matrix(1,0,0,1,0,0)"
font-family="Arial" font-size="13" font-weight="400" font-style="normal" 
>
<text fill="#ffffff" fill-opacity="1" stroke="none" xml:space="preserve" x="549" y="168" font-family="Arial" font-size="13" font-weight="400" font-style="normal" 
 >Construction</text>
</g>
</g>

<g  clip-path="url(#clip16)" 
>
<g fill="none" stroke="#ffffff" stroke-opacity="1" stroke-width="1" stroke-linecap="square" stroke-linejoin="bevel" transform="matrix(1,0,0,1,0,0)"
font-family="Arial" font-size="12" font-weight="400" font-style="normal" 
>
<text fill="#ffffff" fill-opacity="1" stroke="none" xml:space="preserve" x="549" y="182" font-family="Arial" font-size="12" font-weight="400" font-style="normal" 
 >5.02%</text>
</g>
</g>

<g  clip-path="url(#clip16)" 
>
<g fill="none" stroke="#000000" stroke-opacity="1" stroke-width="1" stroke-linecap="square" stroke-linejoin="bevel" transform="matrix(1,0,0,1,0,0)"
font-family="Arial" font-size="13" font-weight="400" font-style="normal" 
>
<text fill="#000000" fill-opacity="1" stroke="none" xml:space="preserve" x="427" y="375" font-family="Arial" font-size="13" font-weight="400" font-style="normal" 
 >Arts,</text>
</g>
</g>

<g  clip-path="url(#clip16)" 
>
<g fill="none" stroke="#000000" stroke-opacity="1" stroke-width="1" stroke-linecap="square" stroke-linejoin="bevel" transform="matrix(1,0,0,1,0,0)"
font-family="Arial" font-size="13" font-weight="400" font-style="normal" 
>
<text fill="#000000" fill-opacity="1" stroke="none" xml:space="preserve" x="427" y="390" font-family="Arial" font-size="13" font-weight="400" font-style="normal" 
 >Entertainment,</text>
</g>
</g>

<g  clip-path="url(#clip16)" 
>
<g fill="none" stroke="#000000" stroke-opacity="1" stroke-width="1" stroke-linecap="square" stroke-linejoin="bevel" transform="matrix(1,0,0,1,0,0)"
font-family="Arial" font-size="13" font-weight="400" font-style="normal" 
>
<text fill="#000000" fill-opacity="1" stroke="none" xml:space="preserve" x="427" y="405" font-family="Arial" font-size="13" font-weight="400" font-style="normal" 
 >and Recreation</text>
</g>
</g>

<g  clip-path="url(#clip16)" 
>
<g fill="none" stroke="#000000" stroke-opacity="1" stroke-width="1" stroke-linecap="square" stroke-linejoin="bevel" transform="matrix(1,0,0,1,0,0)"
font-family="Arial" font-size="12" font-weight="400" font-style="normal" 
>
<text fill="#000000" fill-opacity="1" stroke="none" xml:space="preserve" x="427" y="419" font-family="Arial" font-size="12" font-weight="400" font-style="normal" 
 >3.46%</text>
</g>
</g>

<g  clip-path="url(#clip16)" 
>
<g fill="none" stroke="#000000" stroke-opacity="1" stroke-width="1" stroke-linecap="square" stroke-linejoin="bevel" transform="matrix(1,0,0,1,0,0)"
font-family="Arial" font-size="13" font-weight="400" font-style="normal" 
>
<text fill="#000000" fill-opacity="1" stroke="none" xml:space="preserve" x="228" y="271" font-family="Arial" font-size="13" font-weight="400" font-style="normal" 
 >Administrative and Support and</text>
</g>
</g>

<g  clip-path="url(#clip16)" 
>
<g fill="none" stroke="#000000" stroke-opacity="1" stroke-width="1" stroke-linecap="square" stroke-linejoin="bevel" transform="matrix(1,0,0,1,0,0)"
font-family="Arial" font-size="13" font-weight="400" font-style="normal" 
>
<text fill="#000000" fill-opacity="1" stroke="none" xml:space="preserve" x="228" y="286" font-family="Arial" font-size="13" font-weight="400" font-style="normal" 
 >Waste Management and</text>
</g>
</g>

<g  clip-path="url(#clip16)" 
>
<g fill="none" stroke="#000000" stroke-opacity="1" stroke-width="1" stroke-linecap="square" stroke-linejoin="bevel" transform="matrix(1,0,0,1,0,0)"
font-family="Arial" font-size="13" font-weight="400" font-style="normal" 
>
<text fill="#000000" fill-opacity="1" stroke="none" xml:space="preserve" x="228" y="301" font-family="Arial" font-size="13" font-weight="400" font-style="normal" 
 >Remediation Services</text>
</g>
</g>

<g  clip-path="url(#clip16)" 
>
<g fill="none" stroke="#000000" stroke-opacity="1" stroke-width="1" stroke-linecap="square" stroke-linejoin="bevel" transform="matrix(1,0,0,1,0,0)"
font-family="Arial" font-size="12" font-weight="400" font-style="normal" 
>
<text fill="#000000" fill-opacity="1" stroke="none" xml:space="preserve" x="228" y="315" font-family="Arial" font-size="12" font-weight="400" font-style="normal" 
 >6.71%</text>
</g>
</g>

<g  clip-path="url(#clip16)" 
>
<g fill="none" stroke="#ffffff" stroke-opacity="1" stroke-width="1" stroke-linecap="square" stroke-linejoin="bevel" transform="matrix(1,0,0,1,0,0)"
font-family="Arial" font-size="13" font-weight="400" font-style="normal" 
>
<text fill="#ffffff" fill-opacity="1" stroke="none" xml:space="preserve" x="427" y="23" font-family="Arial" font-size="13" font-weight="400" font-style="normal" 
 >Accommodation</text>
</g>
</g>

<g  clip-path="url(#clip16)" 
>
<g fill="none" stroke="#ffffff" stroke-opacity="1" stroke-width="1" stroke-linecap="square" stroke-linejoin="bevel" transform="matrix(1,0,0,1,0,0)"
font-family="Arial" font-size="13" font-weight="400" font-style="normal" 
>
<text fill="#ffffff" fill-opacity="1" stroke="none" xml:space="preserve" x="427" y="38" font-family="Arial" font-size="13" font-weight="400" font-style="normal" 
 >and Food</text>
</g>
</g>

<g  clip-path="url(#clip16)" 
>
<g fill="none" stroke="#ffffff" stroke-opacity="1" stroke-width="1" stroke-linecap="square" stroke-linejoin="bevel" transform="matrix(1,0,0,1,0,0)"
font-family="Arial" font-size="13" font-weight="400" font-style="normal" 
>
<text fill="#ffffff" fill-opacity="1" stroke="none" xml:space="preserve" x="427" y="53" font-family="Arial" font-size="13" font-weight="400" font-style="normal" 
 >Services</text>
</g>
</g>

<g  clip-path="url(#clip16)" 
>
<g fill="none" stroke="#ffffff" stroke-opacity="1" stroke-width="1" stroke-linecap="square" stroke-linejoin="bevel" transform="matrix(1,0,0,1,0,0)"
font-family="Arial" font-size="12" font-weight="400" font-style="normal" 
>
<text fill="#ffffff" fill-opacity="1" stroke="none" xml:space="preserve" x="427" y="67" font-family="Arial" font-size="12" font-weight="400" font-style="normal" 
 >6.21%</text>
</g>
</g>

<clipPath id ="clip17" >
<rect x="0" y="0" height="445" width="664" transform="matrix(1,0,0,1,0,0)" />
</clipPath>
<g  clip-path="url(#clip17)" 
>
<g fill="none" stroke="#ffffff" stroke-opacity="1" stroke-width="1" stroke-linecap="square" stroke-linejoin="bevel" transform="matrix(1,0,0,1,0,0)"
font-family="Arial" font-size="12" font-weight="400" font-style="normal" 
>
</g>
</g>

<clipPath id ="clip18" >
<rect x="0" y="0" height="445" width="664" transform="matrix(1,0,0,1,0,0)" />
</clipPath>
<g  clip-path="url(#clip18)" 
>
<g fill="none" stroke="#ffffff" stroke-opacity="1" stroke-width="1" stroke-linecap="square" stroke-linejoin="bevel" transform="matrix(1,0,0,1,0,0)"
font-family="Arial" font-size="12" font-weight="400" font-style="normal" 
>
</g>
</g>

<clipPath id ="clip19" >
<rect x="0" y="0" height="444" width="663" transform="matrix(1,0,0,1,0,0)" />
</clipPath>
<g  clip-path="url(#clip19)" 
>
<g fill="none" stroke="#ffffff" stroke-opacity="1" stroke-width="1" stroke-linecap="square" stroke-linejoin="bevel" transform="matrix(1,0,0,1,0,0)"
font-family="Arial" font-size="12" font-weight="400" font-style="normal" 
>
</g>
</g>

<clipPath id ="clip20" >
<rect x="0" y="0" height="445" width="664" transform="matrix(1,0,0,1,0,0)" />
</clipPath>
<g  clip-path="url(#clip20)" 
>
<g fill="none" stroke="#ffffff" stroke-opacity="1" stroke-width="1" stroke-linecap="square" stroke-linejoin="bevel" transform="matrix(1,0,0,1,0,0)"
font-family="Arial" font-size="12" font-weight="400" font-style="normal" 
>
</g>
</g>

<clipPath id ="clip21" >
<rect x="0" y="0" height="444" width="663" transform="matrix(1,0,0,1,0,0)" />
</clipPath>
<g  clip-path="url(#clip21)" 
>
<g fill="none" stroke="#ffffff" stroke-opacity="1" stroke-width="1" stroke-linecap="square" stroke-linejoin="bevel" transform="matrix(1,0,0,1,0,0)"
font-family="Arial" font-size="12" font-weight="400" font-style="normal" 
>
</g>
</g>

<clipPath id ="clip22" >
<rect x="0" y="0" height="445" width="664" transform="matrix(1,0,0,1,0,0)" />
</clipPath>
<g  clip-path="url(#clip22)" 
>
<g fill="none" stroke="#ffffff" stroke-opacity="1" stroke-width="1" stroke-linecap="square" stroke-linejoin="bevel" transform="matrix(1,0,0,1,0,0)"
font-family="Arial" font-size="12" font-weight="400" font-style="normal" 
>
</g>
</g>

<clipPath id ="clip23" >
<rect x="0" y="0" height="445" width="664" transform="matrix(1,0,0,1,0,0)" />
</clipPath>
<g  clip-path="url(#clip23)" 
>
<g fill="none" stroke="#ffffff" stroke-opacity="1" stroke-width="1" stroke-linecap="square" stroke-linejoin="bevel" transform="matrix(1,0,0,1,0,0)"
font-family="Arial" font-size="12" font-weight="400" font-style="normal" 
>
</g>
</g>

<clipPath id ="clip24" >
<rect x="0" y="0" height="444" width="663" transform="matrix(1,0,0,1,0,0)" />
</clipPath>
<g  clip-path="url(#clip24)" 
>
<g fill="none" stroke="#ffffff" stroke-opacity="1" stroke-width="1" stroke-linecap="square" stroke-linejoin="bevel" transform="matrix(1,0,0,1,0,0)"
font-family="Arial" font-size="12" font-weight="400" font-style="normal" 
>
</g>
</g>

<clipPath id ="clip25" >
<rect x="0" y="0" height="445" width="664" transform="matrix(1,0,0,1,0,0)" />
</clipPath>
<g  clip-path="url(#clip25)" 
>
<g fill="none" stroke="#ffffff" stroke-opacity="1" stroke-width="1" stroke-linecap="square" stroke-linejoin="bevel" transform="matrix(1,0,0,1,0,0)"
font-family="Arial" font-size="12" font-weight="400" font-style="normal" 
>
</g>
</g>

<clipPath id ="clip26" >
<rect x="0" y="0" height="444" width="663" transform="matrix(1,0,0,1,0,0)" />
</clipPath>
<g  clip-path="url(#clip26)" 
>
<g fill="none" stroke="#ffffff" stroke-opacity="1" stroke-width="1" stroke-linecap="square" stroke-linejoin="bevel" transform="matrix(1,0,0,1,0,0)"
font-family="Arial" font-size="12" font-weight="400" font-style="normal" 
>
</g>
</g>

<clipPath id ="clip27" >
<rect x="0" y="0" height="445" width="664" transform="matrix(1,0,0,1,0,0)" />
</clipPath>
<g  clip-path="url(#clip27)" 
>
<g fill="none" stroke="#ffffff" stroke-opacity="1" stroke-width="1" stroke-linecap="square" stroke-linejoin="bevel" transform="matrix(1,0,0,1,0,0)"
font-family="Arial" font-size="12" font-weight="400" font-style="normal" 
>
</g>
</g>

<clipPath id ="clip28" >
<rect x="0" y="0" height="445" width="664" transform="matrix(1,0,0,1,0,0)" />
</clipPath>
<g  clip-path="url(#clip28)" 
>
<g fill="none" stroke="#ffffff" stroke-opacity="1" stroke-width="1" stroke-linecap="square" stroke-linejoin="bevel" transform="matrix(1,0,0,1,0,0)"
font-family="Arial" font-size="12" font-weight="400" font-style="normal" 
>
</g>
</g>

<clipPath id ="clip29" >
<rect x="0" y="0" height="444" width="663" transform="matrix(1,0,0,1,0,0)" />
</clipPath>
<g  clip-path="url(#clip29)" 
>
<g fill="none" stroke="#ffffff" stroke-opacity="1" stroke-width="1" stroke-linecap="square" stroke-linejoin="bevel" transform="matrix(1,0,0,1,0,0)"
font-family="Arial" font-size="12" font-weight="400" font-style="normal" 
>
</g>
</g>

<clipPath id ="clip30" >
<rect x="0" y="0" height="445" width="664" transform="matrix(1,0,0,1,0,0)" />
</clipPath>
<g  clip-path="url(#clip30)" 
>
<g fill="none" stroke="#ffffff" stroke-opacity="1" stroke-width="1" stroke-linecap="square" stroke-linejoin="bevel" transform="matrix(1,0,0,1,0,0)"
font-family="Arial" font-size="12" font-weight="400" font-style="normal" 
>
</g>
</g>

<clipPath id ="clip31" >
<rect x="0" y="0" height="444" width="663" transform="matrix(1,0,0,1,0,0)" />
</clipPath>
<g  clip-path="url(#clip31)" 
>
<g fill="none" stroke="#ffffff" stroke-opacity="1" stroke-width="1" stroke-linecap="square" stroke-linejoin="bevel" transform="matrix(1,0,0,1,0,0)"
font-family="Arial" font-size="12" font-weight="400" font-style="normal" 
>
</g>
</g>

<clipPath id ="clip32" >
<rect x="0" y="0" height="445" width="664" transform="matrix(1,0,0,1,0,0)" />
</clipPath>
<g  clip-path="url(#clip32)" 
>
<g fill="none" stroke="#ffffff" stroke-opacity="1" stroke-width="1" stroke-linecap="square" stroke-linejoin="bevel" transform="matrix(1,0,0,1,0,0)"
font-family="Arial" font-size="12" font-weight="400" font-style="normal" 
>
</g>
</g>

<clipPath id ="clip33" >
<rect x="0" y="0" height="445" width="664" transform="matrix(1,0,0,1,0,0)" />
</clipPath>
<g  clip-path="url(#clip33)" 
>
<g fill="none" stroke="#ffffff" stroke-opacity="1" stroke-width="1" stroke-linecap="square" stroke-linejoin="bevel" transform="matrix(1,0,0,1,0,0)"
font-family="Arial" font-size="12" font-weight="400" font-style="normal" 
>
</g>
</g>

<clipPath id ="clip34" >
<rect x="0" y="0" height="444" width="663" transform="matrix(1,0,0,1,0,0)" />
</clipPath>
<g  clip-path="url(#clip34)" 
>
<g fill="none" stroke="#ffffff" stroke-opacity="1" stroke-width="1" stroke-linecap="square" stroke-linejoin="bevel" transform="matrix(1,0,0,1,0,0)"
font-family="Arial" font-size="12" font-weight="400" font-style="normal" 
>
</g>
</g>

<clipPath id ="clip35" >
<rect x="0" y="0" height="445" width="664" transform="matrix(1,0,0,1,0,0)" />
</clipPath>
<g  clip-path="url(#clip35)" 
>
<g fill="none" stroke="#ffffff" stroke-opacity="1" stroke-width="1" stroke-linecap="square" stroke-linejoin="bevel" transform="matrix(1,0,0,1,0,0)"
font-family="Arial" font-size="12" font-weight="400" font-style="normal" 
>
</g>
</g>

<clipPath id ="clip36" >
<rect x="0" y="0" height="444" width="663" transform="matrix(1,0,0,1,0,0)" />
</clipPath>
<g  clip-path="url(#clip36)" 
>
<g fill="none" stroke="#ffffff" stroke-opacity="1" stroke-width="1" stroke-linecap="square" stroke-linejoin="bevel" transform="matrix(1,0,0,1,0,0)"
font-family="Arial" font-size="12" font-weight="400" font-style="normal" 
>
</g>
</g>

<clipPath id ="clip37" >
<rect x="0" y="0" height="445" width="664" transform="matrix(1,0,0,1,0,0)" />
</clipPath>
<g  clip-path="url(#clip37)" 
>
<g fill="none" stroke="#ffffff" stroke-opacity="1" stroke-width="1" stroke-linecap="square" stroke-linejoin="bevel" transform="matrix(1,0,0,1,0,0)"
font-family="Arial" font-size="12" font-weight="400" font-style="normal" 
>
</g>
</g>

<g >
<g fill="none" stroke="#ffffff" stroke-opacity="1" stroke-width="1" stroke-linecap="square" stroke-linejoin="bevel" transform="matrix(1,0,0,1,0,0)"
font-family="Arial" font-size="12" font-weight="400" font-style="normal" 
>
</g>
</g>
</g>
</svg>
