<?xml version="1.0" encoding="UTF-8" standalone="no"?>
<svg width="272.521mm" height="184.415mm"
 xmlns="http://www.w3.org/2000/svg" xmlns:xlink="http://www.w3.org/1999/xlink"  version="1.2" baseProfile="tiny">
<title>antwerp_treemap_10km</title>
<desc>Rendered by Tableau</desc>
<defs>
</defs>
<g fill="none" stroke="black" stroke-width="1" fill-rule="evenodd" stroke-linecap="square" stroke-linejoin="bevel" >

<g >
<g fill="#ffffff" fill-opacity="1" stroke="none" transform="matrix(1,0,0,1,0,0)"
font-family="Benton Sans Book" font-size="13.3333" font-weight="400" font-style="normal" 
>
<rect x="0" y="0" width="1030" height="697"/>
</g>
</g>

<g >
<g fill="#ffffff" fill-opacity="1" stroke="none" transform="matrix(1,0,0,1,0,0)"
font-family="Benton Sans Book" font-size="13.3333" font-weight="400" font-style="normal" 
>
<rect x="0" y="0" width="1030" height="697"/>
</g>
</g>

<clipPath id ="clip1" >
<rect x="0" y="0" height="698" width="1031" transform="matrix(1,0,0,1,0,0)" />
</clipPath>
<g  clip-path="url(#clip1)" 
>
<g fill="none" stroke="#000000" stroke-opacity="1" stroke-width="1" stroke-linecap="square" stroke-linejoin="bevel" transform="matrix(1,0,0,1,0,0)"
font-family="Benton Sans Book" font-size="13.3333" font-weight="400" font-style="normal" 
>
</g>
</g>

<clipPath id ="clip2" >
<rect x="0" y="0" height="698" width="1031" transform="matrix(1,0,0,1,0,0)" />
</clipPath>
<g  clip-path="url(#clip2)" 
>
<g fill="none" stroke="#000000" stroke-opacity="1" stroke-width="1" stroke-linecap="square" stroke-linejoin="bevel" transform="matrix(1,0,0,1,0,0)"
font-family="Benton Sans Book" font-size="13.3333" font-weight="400" font-style="normal" 
>
</g>
</g>

<g  clip-path="url(#clip2)" 
>
<g fill="#ffffff" fill-opacity="1" stroke="none" transform="matrix(1,0,0,1,0,0)"
font-family="Benton Sans Book" font-size="13.3333" font-weight="400" font-style="normal" 
>
<rect x="0" y="0" width="1031" height="698"/>
</g>
</g>

<g  clip-path="url(#clip2)" 
>
<g fill="#ffffff" fill-opacity="1" stroke="none" transform="matrix(1,0,0,1,0,0)"
font-family="Benton Sans Book" font-size="13.3333" font-weight="400" font-style="normal" 
>
<rect x="0" y="0" width="1031" height="698"/>
</g>
</g>

<clipPath id ="clip3" >
<rect x="0" y="0" height="697" width="1030" transform="matrix(1,0,0,1,0,0)" />
</clipPath>
<g  clip-path="url(#clip3)" 
>
<g fill="none" stroke="#000000" stroke-opacity="1" stroke-width="1" stroke-linecap="square" stroke-linejoin="bevel" transform="matrix(1,0,0,1,0,0)"
font-family="Benton Sans Book" font-size="13.3333" font-weight="400" font-style="normal" 
>
</g>
</g>

<g  clip-path="url(#clip3)" 
>
<g fill="#ffffff" fill-opacity="1" stroke="none" transform="matrix(1,0,0,1,0,0)"
font-family="Benton Sans Book" font-size="13.3333" font-weight="400" font-style="normal" 
>
<rect x="0" y="0" width="1031" height="698"/>
</g>
</g>

<clipPath id ="clip4" >
<rect x="0" y="0" height="698" width="1031" transform="matrix(1,0,0,1,0,0)" />
</clipPath>
<g  clip-path="url(#clip4)" 
>
<g fill="none" stroke="#000000" stroke-opacity="1" stroke-width="1" stroke-linecap="square" stroke-linejoin="bevel" transform="matrix(1,0,0,1,0,0)"
font-family="Benton Sans Book" font-size="13.3333" font-weight="400" font-style="normal" 
>
</g>
</g>

<clipPath id ="clip5" >
<rect x="0" y="0" height="698" width="1031" transform="matrix(1,0,0,1,0,0)" />
</clipPath>
<g  clip-path="url(#clip5)" 
>
<g fill="none" stroke="#000000" stroke-opacity="1" stroke-width="1" stroke-linecap="square" stroke-linejoin="bevel" transform="matrix(1,0,0,1,0,0)"
font-family="Benton Sans Book" font-size="13.3333" font-weight="400" font-style="normal" 
>
</g>
</g>

<clipPath id ="clip6" >
<rect x="0" y="0" height="698" width="1031" transform="matrix(1,0,0,1,0,0)" />
</clipPath>
<g  clip-path="url(#clip6)" 
>
<g fill="none" stroke="#000000" stroke-opacity="1" stroke-width="1" stroke-linecap="square" stroke-linejoin="bevel" transform="matrix(1,0,0,1,0,0)"
font-family="Benton Sans Book" font-size="13.3333" font-weight="400" font-style="normal" 
>
</g>
</g>

<clipPath id ="clip7" >
<rect x="0" y="0" height="698" width="1031" transform="matrix(1,0,0,1,0,0)" />
</clipPath>
<g  clip-path="url(#clip7)" 
>
<g fill="none" stroke="#000000" stroke-opacity="1" stroke-width="1" stroke-linecap="square" stroke-linejoin="bevel" transform="matrix(1,0,0,1,0,0)"
font-family="Benton Sans Book" font-size="13.3333" font-weight="400" font-style="normal" 
>
</g>
</g>

<g  clip-path="url(#clip7)" 
>
<g fill="#ffffff" fill-opacity="1" stroke="none" transform="matrix(1,0,0,1,0,0)"
font-family="Benton Sans Book" font-size="13.3333" font-weight="400" font-style="normal" 
>
<rect x="0" y="0" width="1031" height="698"/>
</g>
</g>

<clipPath id ="clip8" >
<rect x="0" y="0" height="698" width="1031" transform="matrix(1,0,0,1,0,0)" />
</clipPath>
<g  clip-path="url(#clip8)" 
>
<g fill="none" stroke="#000000" stroke-opacity="1" stroke-width="1" stroke-linecap="square" stroke-linejoin="bevel" transform="matrix(1,0,0,1,0,0)"
font-family="Benton Sans Book" font-size="13.3333" font-weight="400" font-style="normal" 
>
</g>
</g>

<clipPath id ="clip9" >
<rect x="0" y="0" height="697" width="1030" transform="matrix(1,0,0,1,0,0)" />
</clipPath>
<g  clip-path="url(#clip9)" 
>
<g fill="none" stroke="#000000" stroke-opacity="1" stroke-width="1" stroke-linecap="square" stroke-linejoin="bevel" transform="matrix(1,0,0,1,0,0)"
font-family="Benton Sans Book" font-size="13.3333" font-weight="400" font-style="normal" 
>
</g>
</g>

<clipPath id ="clip10" >
<rect x="0" y="0" height="698" width="1031" transform="matrix(1,0,0,1,0,0)" />
</clipPath>
<g  clip-path="url(#clip10)" 
>
<g fill="none" stroke="#000000" stroke-opacity="1" stroke-width="1" stroke-linecap="square" stroke-linejoin="bevel" transform="matrix(1,0,0,1,0,0)"
font-family="Benton Sans Book" font-size="13.3333" font-weight="400" font-style="normal" 
>
</g>
</g>

<clipPath id ="clip11" >
<rect x="0" y="0" height="697" width="1030" transform="matrix(1,0,0,1,0,0)" />
</clipPath>
<g  clip-path="url(#clip11)" 
>
<g fill="none" stroke="#000000" stroke-opacity="1" stroke-width="1" stroke-linecap="square" stroke-linejoin="bevel" transform="matrix(1,0,0,1,0,0)"
font-family="Benton Sans Book" font-size="13.3333" font-weight="400" font-style="normal" 
>
</g>
</g>

<clipPath id ="clip12" >
<rect x="0" y="0" height="698" width="1031" transform="matrix(1,0,0,1,0,0)" />
</clipPath>
<g  clip-path="url(#clip12)" 
>
<g fill="none" stroke="#000000" stroke-opacity="1" stroke-width="1" stroke-linecap="square" stroke-linejoin="bevel" transform="matrix(1,0,0,1,0,0)"
font-family="Benton Sans Book" font-size="13.3333" font-weight="400" font-style="normal" 
>
</g>
</g>

<clipPath id ="clip13" >
<rect x="0" y="0" height="698" width="1031" transform="matrix(1,0,0,1,0,0)" />
</clipPath>
<g  clip-path="url(#clip13)" 
>
<g fill="none" stroke="#000000" stroke-opacity="1" stroke-width="1" stroke-linecap="square" stroke-linejoin="bevel" transform="matrix(1,0,0,1,0,0)"
font-family="Benton Sans Book" font-size="13.3333" font-weight="400" font-style="normal" 
>
</g>
</g>

<clipPath id ="clip14" >
<rect x="0" y="0" height="697" width="1030" transform="matrix(1,0,0,1,0,0)" />
</clipPath>
<g  clip-path="url(#clip14)" 
>
<g fill="none" stroke="#000000" stroke-opacity="1" stroke-width="1" stroke-linecap="square" stroke-linejoin="bevel" transform="matrix(1,0,0,1,0,0)"
font-family="Benton Sans Book" font-size="13.3333" font-weight="400" font-style="normal" 
>
</g>
</g>

<g  clip-path="url(#clip14)" 
>
<g fill="#ff9d9a" fill-opacity="1" stroke="none" transform="matrix(1,0,0,1,0,0)"
font-family="Benton Sans Book" font-size="13.3333" font-weight="400" font-style="normal" 
>
<rect x="378" y="4" width="178" height="326"/>
</g>
</g>

<g  clip-path="url(#clip14)" 
>
<g fill="none" stroke="#ffffff" stroke-opacity="1" stroke-width="1" stroke-linecap="butt" stroke-linejoin="miter" stroke-miterlimit="2" transform="matrix(1,0,0,1,0,0)"
font-family="Benton Sans Book" font-size="13.3333" font-weight="400" font-style="normal" 
>
<rect x="378" y="4" width="178" height="326"/>
</g>
</g>

<g  clip-path="url(#clip14)" 
>
<g fill="#d7b5a6" fill-opacity="1" stroke="none" transform="matrix(1,0,0,1,0,0)"
font-family="Benton Sans Book" font-size="13.3333" font-weight="400" font-style="normal" 
>
<rect x="1010" y="602" width="16" height="83"/>
</g>
</g>

<g  clip-path="url(#clip14)" 
>
<g fill="none" stroke="#ffffff" stroke-opacity="1" stroke-width="1" stroke-linecap="butt" stroke-linejoin="miter" stroke-miterlimit="2" transform="matrix(1,0,0,1,0,0)"
font-family="Benton Sans Book" font-size="13.3333" font-weight="400" font-style="normal" 
>
<rect x="1010" y="602" width="16" height="83"/>
</g>
</g>

<g  clip-path="url(#clip14)" 
>
<g fill="#9d7660" fill-opacity="1" stroke="none" transform="matrix(1,0,0,1,0,0)"
font-family="Benton Sans Book" font-size="13.3333" font-weight="400" font-style="normal" 
>
<rect x="4" y="315" width="374" height="223"/>
</g>
</g>

<g  clip-path="url(#clip14)" 
>
<g fill="none" stroke="#ffffff" stroke-opacity="1" stroke-width="1" stroke-linecap="butt" stroke-linejoin="miter" stroke-miterlimit="2" transform="matrix(1,0,0,1,0,0)"
font-family="Benton Sans Book" font-size="13.3333" font-weight="400" font-style="normal" 
>
<rect x="4" y="315" width="374" height="223"/>
</g>
</g>

<g  clip-path="url(#clip14)" 
>
<g fill="#d4a6c8" fill-opacity="1" stroke="none" transform="matrix(1,0,0,1,0,0)"
font-family="Benton Sans Book" font-size="13.3333" font-weight="400" font-style="normal" 
>
<rect x="378" y="330" width="236" height="186"/>
</g>
</g>

<g  clip-path="url(#clip14)" 
>
<g fill="none" stroke="#ffffff" stroke-opacity="1" stroke-width="1" stroke-linecap="butt" stroke-linejoin="miter" stroke-miterlimit="2" transform="matrix(1,0,0,1,0,0)"
font-family="Benton Sans Book" font-size="13.3333" font-weight="400" font-style="normal" 
>
<rect x="378" y="330" width="236" height="186"/>
</g>
</g>

<g  clip-path="url(#clip14)" 
>
<g fill="#b07aa1" fill-opacity="1" stroke="none" transform="matrix(1,0,0,1,0,0)"
font-family="Benton Sans Book" font-size="13.3333" font-weight="400" font-style="normal" 
>
<rect x="614" y="330" width="205" height="187"/>
</g>
</g>

<g  clip-path="url(#clip14)" 
>
<g fill="none" stroke="#ffffff" stroke-opacity="1" stroke-width="1" stroke-linecap="butt" stroke-linejoin="miter" stroke-miterlimit="2" transform="matrix(1,0,0,1,0,0)"
font-family="Benton Sans Book" font-size="13.3333" font-weight="400" font-style="normal" 
>
<rect x="614" y="330" width="205" height="187"/>
</g>
</g>

<g  clip-path="url(#clip14)" 
>
<g fill="#79706e" fill-opacity="1" stroke="none" transform="matrix(1,0,0,1,0,0)"
font-family="Benton Sans Book" font-size="13.3333" font-weight="400" font-style="normal" 
>
<rect x="926" y="602" width="84" height="60"/>
</g>
</g>

<g  clip-path="url(#clip14)" 
>
<g fill="none" stroke="#ffffff" stroke-opacity="1" stroke-width="1" stroke-linecap="butt" stroke-linejoin="miter" stroke-miterlimit="2" transform="matrix(1,0,0,1,0,0)"
font-family="Benton Sans Book" font-size="13.3333" font-weight="400" font-style="normal" 
>
<rect x="926" y="602" width="84" height="60"/>
</g>
</g>

<g  clip-path="url(#clip14)" 
>
<g fill="#d37295" fill-opacity="1" stroke="none" transform="matrix(1,0,0,1,0,0)"
font-family="Benton Sans Book" font-size="13.3333" font-weight="400" font-style="normal" 
>
<rect x="4" y="4" width="374" height="311"/>
</g>
</g>

<g  clip-path="url(#clip14)" 
>
<g fill="none" stroke="#ffffff" stroke-opacity="1" stroke-width="1" stroke-linecap="butt" stroke-linejoin="miter" stroke-miterlimit="2" transform="matrix(1,0,0,1,0,0)"
font-family="Benton Sans Book" font-size="13.3333" font-weight="400" font-style="normal" 
>
<rect x="4" y="4" width="374" height="311"/>
</g>
</g>

<g  clip-path="url(#clip14)" 
>
<g fill="#bab0ac" fill-opacity="1" stroke="none" transform="matrix(1,0,0,1,0,0)"
font-family="Benton Sans Book" font-size="13.3333" font-weight="400" font-style="normal" 
>
<rect x="556" y="4" width="171" height="326"/>
</g>
</g>

<g  clip-path="url(#clip14)" 
>
<g fill="none" stroke="#ffffff" stroke-opacity="1" stroke-width="1" stroke-linecap="butt" stroke-linejoin="miter" stroke-miterlimit="2" transform="matrix(1,0,0,1,0,0)"
font-family="Benton Sans Book" font-size="13.3333" font-weight="400" font-style="normal" 
>
<rect x="556" y="4" width="171" height="326"/>
</g>
</g>

<g  clip-path="url(#clip14)" 
>
<g fill="#ff9d9a" fill-opacity="1" stroke="none" transform="matrix(1,0,0,1,0,0)"
font-family="Benton Sans Book" font-size="13.3333" font-weight="400" font-style="normal" 
>
<rect x="1010" y="685" width="16" height="8"/>
</g>
</g>

<g  clip-path="url(#clip14)" 
>
<g fill="none" stroke="#ffffff" stroke-opacity="1" stroke-width="1" stroke-linecap="butt" stroke-linejoin="miter" stroke-miterlimit="2" transform="matrix(1,0,0,1,0,0)"
font-family="Benton Sans Book" font-size="13.3333" font-weight="400" font-style="normal" 
>
<rect x="1010" y="685" width="16" height="8"/>
</g>
</g>

<g  clip-path="url(#clip14)" 
>
<g fill="#e15759" fill-opacity="1" stroke="none" transform="matrix(1,0,0,1,0,0)"
font-family="Benton Sans Book" font-size="13.3333" font-weight="400" font-style="normal" 
>
<rect x="727" y="4" width="154" height="326"/>
</g>
</g>

<g  clip-path="url(#clip14)" 
>
<g fill="none" stroke="#ffffff" stroke-opacity="1" stroke-width="1" stroke-linecap="butt" stroke-linejoin="miter" stroke-miterlimit="2" transform="matrix(1,0,0,1,0,0)"
font-family="Benton Sans Book" font-size="13.3333" font-weight="400" font-style="normal" 
>
<rect x="727" y="4" width="154" height="326"/>
</g>
</g>

<g  clip-path="url(#clip14)" 
>
<g fill="#86bcb6" fill-opacity="1" stroke="none" transform="matrix(1,0,0,1,0,0)"
font-family="Benton Sans Book" font-size="13.3333" font-weight="400" font-style="normal" 
>
<rect x="926" y="516" width="100" height="86"/>
</g>
</g>

<g  clip-path="url(#clip14)" 
>
<g fill="none" stroke="#ffffff" stroke-opacity="1" stroke-width="1" stroke-linecap="butt" stroke-linejoin="miter" stroke-miterlimit="2" transform="matrix(1,0,0,1,0,0)"
font-family="Benton Sans Book" font-size="13.3333" font-weight="400" font-style="normal" 
>
<rect x="926" y="516" width="100" height="86"/>
</g>
</g>

<g  clip-path="url(#clip14)" 
>
<g fill="#499894" fill-opacity="1" stroke="none" transform="matrix(1,0,0,1,0,0)"
font-family="Benton Sans Book" font-size="13.3333" font-weight="400" font-style="normal" 
>
<rect x="819" y="607" width="107" height="86"/>
</g>
</g>

<g  clip-path="url(#clip14)" 
>
<g fill="none" stroke="#ffffff" stroke-opacity="1" stroke-width="1" stroke-linecap="butt" stroke-linejoin="miter" stroke-miterlimit="2" transform="matrix(1,0,0,1,0,0)"
font-family="Benton Sans Book" font-size="13.3333" font-weight="400" font-style="normal" 
>
<rect x="819" y="607" width="107" height="86"/>
</g>
</g>

<g  clip-path="url(#clip14)" 
>
<g fill="#f1ce63" fill-opacity="1" stroke="none" transform="matrix(1,0,0,1,0,0)"
font-family="Benton Sans Book" font-size="13.3333" font-weight="400" font-style="normal" 
>
<rect x="4" y="538" width="374" height="155"/>
</g>
</g>

<g  clip-path="url(#clip14)" 
>
<g fill="none" stroke="#ffffff" stroke-opacity="1" stroke-width="1" stroke-linecap="butt" stroke-linejoin="miter" stroke-miterlimit="2" transform="matrix(1,0,0,1,0,0)"
font-family="Benton Sans Book" font-size="13.3333" font-weight="400" font-style="normal" 
>
<rect x="4" y="538" width="374" height="155"/>
</g>
</g>

<g  clip-path="url(#clip14)" 
>
<g fill="#b6992d" fill-opacity="1" stroke="none" transform="matrix(1,0,0,1,0,0)"
font-family="Benton Sans Book" font-size="13.3333" font-weight="400" font-style="normal" 
>
<rect x="926" y="330" width="100" height="186"/>
</g>
</g>

<g  clip-path="url(#clip14)" 
>
<g fill="none" stroke="#ffffff" stroke-opacity="1" stroke-width="1" stroke-linecap="butt" stroke-linejoin="miter" stroke-miterlimit="2" transform="matrix(1,0,0,1,0,0)"
font-family="Benton Sans Book" font-size="13.3333" font-weight="400" font-style="normal" 
>
<rect x="926" y="330" width="100" height="186"/>
</g>
</g>

<g  clip-path="url(#clip14)" 
>
<g fill="#8cd17d" fill-opacity="1" stroke="none" transform="matrix(1,0,0,1,0,0)"
font-family="Benton Sans Book" font-size="13.3333" font-weight="400" font-style="normal" 
>
<rect x="819" y="516" width="107" height="91"/>
</g>
</g>

<g  clip-path="url(#clip14)" 
>
<g fill="none" stroke="#ffffff" stroke-opacity="1" stroke-width="1" stroke-linecap="butt" stroke-linejoin="miter" stroke-miterlimit="2" transform="matrix(1,0,0,1,0,0)"
font-family="Benton Sans Book" font-size="13.3333" font-weight="400" font-style="normal" 
>
<rect x="819" y="516" width="107" height="91"/>
</g>
</g>

<g  clip-path="url(#clip14)" 
>
<g fill="#59a14f" fill-opacity="1" stroke="none" transform="matrix(1,0,0,1,0,0)"
font-family="Benton Sans Book" font-size="13.3333" font-weight="400" font-style="normal" 
>
<rect x="881" y="4" width="145" height="326"/>
</g>
</g>

<g  clip-path="url(#clip14)" 
>
<g fill="none" stroke="#ffffff" stroke-opacity="1" stroke-width="1" stroke-linecap="butt" stroke-linejoin="miter" stroke-miterlimit="2" transform="matrix(1,0,0,1,0,0)"
font-family="Benton Sans Book" font-size="13.3333" font-weight="400" font-style="normal" 
>
<rect x="881" y="4" width="145" height="326"/>
</g>
</g>

<g  clip-path="url(#clip14)" 
>
<g fill="#ffbe7d" fill-opacity="1" stroke="none" transform="matrix(1,0,0,1,0,0)"
font-family="Benton Sans Book" font-size="13.3333" font-weight="400" font-style="normal" 
>
<rect x="819" y="330" width="107" height="186"/>
</g>
</g>

<g  clip-path="url(#clip14)" 
>
<g fill="none" stroke="#ffffff" stroke-opacity="1" stroke-width="1" stroke-linecap="butt" stroke-linejoin="miter" stroke-miterlimit="2" transform="matrix(1,0,0,1,0,0)"
font-family="Benton Sans Book" font-size="13.3333" font-weight="400" font-style="normal" 
>
<rect x="819" y="330" width="107" height="186"/>
</g>
</g>

<g  clip-path="url(#clip14)" 
>
<g fill="#f28e2b" fill-opacity="1" stroke="none" transform="matrix(1,0,0,1,0,0)"
font-family="Benton Sans Book" font-size="13.3333" font-weight="400" font-style="normal" 
>
<rect x="926" y="662" width="84" height="31"/>
</g>
</g>

<g  clip-path="url(#clip14)" 
>
<g fill="none" stroke="#ffffff" stroke-opacity="1" stroke-width="1" stroke-linecap="butt" stroke-linejoin="miter" stroke-miterlimit="2" transform="matrix(1,0,0,1,0,0)"
font-family="Benton Sans Book" font-size="13.3333" font-weight="400" font-style="normal" 
>
<rect x="926" y="662" width="84" height="31"/>
</g>
</g>

<g  clip-path="url(#clip14)" 
>
<g fill="#a0cbe8" fill-opacity="1" stroke="none" transform="matrix(1,0,0,1,0,0)"
font-family="Benton Sans Book" font-size="13.3333" font-weight="400" font-style="normal" 
>
<rect x="378" y="516" width="236" height="177"/>
</g>
</g>

<g  clip-path="url(#clip14)" 
>
<g fill="none" stroke="#ffffff" stroke-opacity="1" stroke-width="1" stroke-linecap="butt" stroke-linejoin="miter" stroke-miterlimit="2" transform="matrix(1,0,0,1,0,0)"
font-family="Benton Sans Book" font-size="13.3333" font-weight="400" font-style="normal" 
>
<rect x="378" y="516" width="236" height="177"/>
</g>
</g>

<g  clip-path="url(#clip14)" 
>
<g fill="#4e79a7" fill-opacity="1" stroke="none" transform="matrix(1,0,0,1,0,0)"
font-family="Benton Sans Book" font-size="13.3333" font-weight="400" font-style="normal" 
>
<rect x="614" y="517" width="205" height="176"/>
</g>
</g>

<g  clip-path="url(#clip14)" 
>
<g fill="none" stroke="#ffffff" stroke-opacity="1" stroke-width="1" stroke-linecap="butt" stroke-linejoin="miter" stroke-miterlimit="2" transform="matrix(1,0,0,1,0,0)"
font-family="Benton Sans Book" font-size="13.3333" font-weight="400" font-style="normal" 
>
<rect x="614" y="517" width="205" height="176"/>
</g>
</g>

<clipPath id ="clip15" >
<rect x="0" y="0" height="698" width="1031" transform="matrix(1,0,0,1,0,0)" />
</clipPath>
<g  clip-path="url(#clip15)" 
>
<g fill="none" stroke="#ffffff" stroke-opacity="1" stroke-width="1" stroke-linecap="butt" stroke-linejoin="miter" stroke-miterlimit="2" transform="matrix(1,0,0,1,0,0)"
font-family="Benton Sans Book" font-size="13.3333" font-weight="400" font-style="normal" 
>
</g>
</g>

<clipPath id ="clip16" >
<rect x="0" y="0" height="697" width="1030" transform="matrix(1,0,0,1,0,0)" />
</clipPath>
<g  clip-path="url(#clip16)" 
>
<g fill="none" stroke="#ffffff" stroke-opacity="1" stroke-width="1" stroke-linecap="butt" stroke-linejoin="miter" stroke-miterlimit="2" transform="matrix(1,0,0,1,0,0)"
font-family="Benton Sans Book" font-size="13.3333" font-weight="400" font-style="normal" 
>
</g>
</g>

<g  clip-path="url(#clip16)" 
>
<g fill="none" stroke="#000000" stroke-opacity="1" stroke-width="1" stroke-linecap="square" stroke-linejoin="bevel" transform="matrix(1,0,0,1,0,0)"
font-family="Arial" font-size="18" font-weight="400" font-style="normal" 
>
<text fill="#000000" fill-opacity="1" stroke="none" xml:space="preserve" x="386" y="28" font-family="Arial" font-size="18" font-weight="400" font-style="normal" 
 >Wholesale Trade</text>
</g>
</g>

<g  clip-path="url(#clip16)" 
>
<g fill="none" stroke="#000000" stroke-opacity="1" stroke-width="1" stroke-linecap="square" stroke-linejoin="bevel" transform="matrix(1,0,0,1,0,0)"
font-family="Arial" font-size="18" font-weight="400" font-style="normal" 
>
<text fill="#000000" fill-opacity="1" stroke="none" xml:space="preserve" x="386" y="48" font-family="Arial" font-size="18" font-weight="400" font-style="normal" 
 >8.23%</text>
</g>
</g>

<g  clip-path="url(#clip16)" 
>
<g fill="none" stroke="#ffffff" stroke-opacity="1" stroke-width="1" stroke-linecap="square" stroke-linejoin="bevel" transform="matrix(1,0,0,1,0,0)"
font-family="Arial" font-size="18" font-weight="400" font-style="normal" 
>
<text fill="#ffffff" fill-opacity="1" stroke="none" xml:space="preserve" x="12" y="339" font-family="Arial" font-size="18" font-weight="400" font-style="normal" 
 >Transportation and Warehousing</text>
</g>
</g>

<g  clip-path="url(#clip16)" 
>
<g fill="none" stroke="#ffffff" stroke-opacity="1" stroke-width="1" stroke-linecap="square" stroke-linejoin="bevel" transform="matrix(1,0,0,1,0,0)"
font-family="Arial" font-size="18" font-weight="400" font-style="normal" 
>
<text fill="#ffffff" fill-opacity="1" stroke="none" xml:space="preserve" x="12" y="359" font-family="Arial" font-size="18" font-weight="400" font-style="normal" 
 >11.86%</text>
</g>
</g>

<g  clip-path="url(#clip16)" 
>
<g fill="none" stroke="#000000" stroke-opacity="1" stroke-width="1" stroke-linecap="square" stroke-linejoin="bevel" transform="matrix(1,0,0,1,0,0)"
font-family="Arial" font-size="18" font-weight="400" font-style="normal" 
>
<text fill="#000000" fill-opacity="1" stroke="none" xml:space="preserve" x="386" y="354" font-family="Arial" font-size="18" font-weight="400" font-style="normal" 
 >Retail Trade</text>
</g>
</g>

<g  clip-path="url(#clip16)" 
>
<g fill="none" stroke="#000000" stroke-opacity="1" stroke-width="1" stroke-linecap="square" stroke-linejoin="bevel" transform="matrix(1,0,0,1,0,0)"
font-family="Arial" font-size="18" font-weight="400" font-style="normal" 
>
<text fill="#000000" fill-opacity="1" stroke="none" xml:space="preserve" x="386" y="374" font-family="Arial" font-size="18" font-weight="400" font-style="normal" 
 >6.23%</text>
</g>
</g>

<g  clip-path="url(#clip16)" 
>
<g fill="none" stroke="#ffffff" stroke-opacity="1" stroke-width="1" stroke-linecap="square" stroke-linejoin="bevel" transform="matrix(1,0,0,1,0,0)"
font-family="Arial" font-size="18" font-weight="400" font-style="normal" 
>
<text fill="#ffffff" fill-opacity="1" stroke="none" xml:space="preserve" x="622" y="354" font-family="Arial" font-size="18" font-weight="400" font-style="normal" 
 >Real Estate and Rental</text>
</g>
</g>

<g  clip-path="url(#clip16)" 
>
<g fill="none" stroke="#ffffff" stroke-opacity="1" stroke-width="1" stroke-linecap="square" stroke-linejoin="bevel" transform="matrix(1,0,0,1,0,0)"
font-family="Arial" font-size="18" font-weight="400" font-style="normal" 
>
<text fill="#ffffff" fill-opacity="1" stroke="none" xml:space="preserve" x="622" y="374" font-family="Arial" font-size="18" font-weight="400" font-style="normal" 
 >and Leasing</text>
</g>
</g>

<g  clip-path="url(#clip16)" 
>
<g fill="none" stroke="#ffffff" stroke-opacity="1" stroke-width="1" stroke-linecap="square" stroke-linejoin="bevel" transform="matrix(1,0,0,1,0,0)"
font-family="Arial" font-size="18" font-weight="400" font-style="normal" 
>
<text fill="#ffffff" fill-opacity="1" stroke="none" xml:space="preserve" x="622" y="395" font-family="Arial" font-size="18" font-weight="400" font-style="normal" 
 >5.47%</text>
</g>
</g>

<g  clip-path="url(#clip16)" 
>
<g fill="none" stroke="#ffffff" stroke-opacity="1" stroke-width="1" stroke-linecap="square" stroke-linejoin="bevel" transform="matrix(1,0,0,1,0,0)"
font-family="Arial" font-size="18" font-weight="400" font-style="normal" 
>
<text fill="#ffffff" fill-opacity="1" stroke="none" xml:space="preserve" x="934" y="626" font-family="Arial" font-size="18" font-weight="400" font-style="normal" 
 >Public</text>
</g>
</g>

<g  clip-path="url(#clip16)" 
>
<g fill="none" stroke="#ffffff" stroke-opacity="1" stroke-width="1" stroke-linecap="square" stroke-linejoin="bevel" transform="matrix(1,0,0,1,0,0)"
font-family="Arial" font-size="18" font-weight="400" font-style="normal" 
>
<text fill="#ffffff" fill-opacity="1" stroke="none" xml:space="preserve" x="12" y="28" font-family="Arial" font-size="18" font-weight="400" font-style="normal" 
 >Professional, Scientific, and Technical</text>
</g>
</g>

<g  clip-path="url(#clip16)" 
>
<g fill="none" stroke="#ffffff" stroke-opacity="1" stroke-width="1" stroke-linecap="square" stroke-linejoin="bevel" transform="matrix(1,0,0,1,0,0)"
font-family="Arial" font-size="18" font-weight="400" font-style="normal" 
>
<text fill="#ffffff" fill-opacity="1" stroke="none" xml:space="preserve" x="12" y="48" font-family="Arial" font-size="18" font-weight="400" font-style="normal" 
 >Services</text>
</g>
</g>

<g  clip-path="url(#clip16)" 
>
<g fill="none" stroke="#ffffff" stroke-opacity="1" stroke-width="1" stroke-linecap="square" stroke-linejoin="bevel" transform="matrix(1,0,0,1,0,0)"
font-family="Arial" font-size="18" font-weight="400" font-style="normal" 
>
<text fill="#ffffff" fill-opacity="1" stroke="none" xml:space="preserve" x="12" y="69" font-family="Arial" font-size="18" font-weight="400" font-style="normal" 
 >16.53%</text>
</g>
</g>

<g  clip-path="url(#clip16)" 
>
<g fill="none" stroke="#000000" stroke-opacity="1" stroke-width="1" stroke-linecap="square" stroke-linejoin="bevel" transform="matrix(1,0,0,1,0,0)"
font-family="Arial" font-size="18" font-weight="400" font-style="normal" 
>
<text fill="#000000" fill-opacity="1" stroke="none" xml:space="preserve" x="564" y="28" font-family="Arial" font-size="18" font-weight="400" font-style="normal" 
 >Other Services</text>
</g>
</g>

<g  clip-path="url(#clip16)" 
>
<g fill="none" stroke="#000000" stroke-opacity="1" stroke-width="1" stroke-linecap="square" stroke-linejoin="bevel" transform="matrix(1,0,0,1,0,0)"
font-family="Arial" font-size="18" font-weight="400" font-style="normal" 
>
<text fill="#000000" fill-opacity="1" stroke="none" xml:space="preserve" x="564" y="48" font-family="Arial" font-size="18" font-weight="400" font-style="normal" 
 >(except Public</text>
</g>
</g>

<g  clip-path="url(#clip16)" 
>
<g fill="none" stroke="#000000" stroke-opacity="1" stroke-width="1" stroke-linecap="square" stroke-linejoin="bevel" transform="matrix(1,0,0,1,0,0)"
font-family="Arial" font-size="18" font-weight="400" font-style="normal" 
>
<text fill="#000000" fill-opacity="1" stroke="none" xml:space="preserve" x="564" y="69" font-family="Arial" font-size="18" font-weight="400" font-style="normal" 
 >Administration)</text>
</g>
</g>

<g  clip-path="url(#clip16)" 
>
<g fill="none" stroke="#000000" stroke-opacity="1" stroke-width="1" stroke-linecap="square" stroke-linejoin="bevel" transform="matrix(1,0,0,1,0,0)"
font-family="Arial" font-size="18" font-weight="400" font-style="normal" 
>
<text fill="#000000" fill-opacity="1" stroke="none" xml:space="preserve" x="564" y="90" font-family="Arial" font-size="18" font-weight="400" font-style="normal" 
 >7.90%</text>
</g>
</g>

<g  clip-path="url(#clip16)" 
>
<g fill="none" stroke="#ffffff" stroke-opacity="1" stroke-width="1" stroke-linecap="square" stroke-linejoin="bevel" transform="matrix(1,0,0,1,0,0)"
font-family="Arial" font-size="18" font-weight="400" font-style="normal" 
>
<text fill="#ffffff" fill-opacity="1" stroke="none" xml:space="preserve" x="735" y="28" font-family="Arial" font-size="18" font-weight="400" font-style="normal" 
 >Manufacturing</text>
</g>
</g>

<g  clip-path="url(#clip16)" 
>
<g fill="none" stroke="#ffffff" stroke-opacity="1" stroke-width="1" stroke-linecap="square" stroke-linejoin="bevel" transform="matrix(1,0,0,1,0,0)"
font-family="Arial" font-size="18" font-weight="400" font-style="normal" 
>
<text fill="#ffffff" fill-opacity="1" stroke="none" xml:space="preserve" x="735" y="48" font-family="Arial" font-size="18" font-weight="400" font-style="normal" 
 >7.08%</text>
</g>
</g>

<g  clip-path="url(#clip16)" 
>
<g fill="none" stroke="#ffffff" stroke-opacity="1" stroke-width="1" stroke-linecap="square" stroke-linejoin="bevel" transform="matrix(1,0,0,1,0,0)"
font-family="Arial" font-size="18" font-weight="400" font-style="normal" 
>
<text fill="#ffffff" fill-opacity="1" stroke="none" xml:space="preserve" x="827" y="631" font-family="Arial" font-size="18" font-weight="400" font-style="normal" 
 >Information</text>
</g>
</g>

<g  clip-path="url(#clip16)" 
>
<g fill="none" stroke="#ffffff" stroke-opacity="1" stroke-width="1" stroke-linecap="square" stroke-linejoin="bevel" transform="matrix(1,0,0,1,0,0)"
font-family="Arial" font-size="18" font-weight="400" font-style="normal" 
>
<text fill="#ffffff" fill-opacity="1" stroke="none" xml:space="preserve" x="827" y="651" font-family="Arial" font-size="18" font-weight="400" font-style="normal" 
 >1.31%</text>
</g>
</g>

<g  clip-path="url(#clip16)" 
>
<g fill="none" stroke="#000000" stroke-opacity="1" stroke-width="1" stroke-linecap="square" stroke-linejoin="bevel" transform="matrix(1,0,0,1,0,0)"
font-family="Arial" font-size="18" font-weight="400" font-style="normal" 
>
<text fill="#000000" fill-opacity="1" stroke="none" xml:space="preserve" x="12" y="562" font-family="Arial" font-size="18" font-weight="400" font-style="normal" 
 >Health Care and Social Assistance</text>
</g>
</g>

<g  clip-path="url(#clip16)" 
>
<g fill="none" stroke="#000000" stroke-opacity="1" stroke-width="1" stroke-linecap="square" stroke-linejoin="bevel" transform="matrix(1,0,0,1,0,0)"
font-family="Arial" font-size="18" font-weight="400" font-style="normal" 
>
<text fill="#000000" fill-opacity="1" stroke="none" xml:space="preserve" x="12" y="582" font-family="Arial" font-size="18" font-weight="400" font-style="normal" 
 >8.23%</text>
</g>
</g>

<g  clip-path="url(#clip16)" 
>
<g fill="none" stroke="#000000" stroke-opacity="1" stroke-width="1" stroke-linecap="square" stroke-linejoin="bevel" transform="matrix(1,0,0,1,0,0)"
font-family="Arial" font-size="18" font-weight="400" font-style="normal" 
>
<text fill="#000000" fill-opacity="1" stroke="none" xml:space="preserve" x="934" y="354" font-family="Arial" font-size="18" font-weight="400" font-style="normal" 
 >Finance</text>
</g>
</g>

<g  clip-path="url(#clip16)" 
>
<g fill="none" stroke="#000000" stroke-opacity="1" stroke-width="1" stroke-linecap="square" stroke-linejoin="bevel" transform="matrix(1,0,0,1,0,0)"
font-family="Arial" font-size="18" font-weight="400" font-style="normal" 
>
<text fill="#000000" fill-opacity="1" stroke="none" xml:space="preserve" x="934" y="374" font-family="Arial" font-size="18" font-weight="400" font-style="normal" 
 >and</text>
</g>
</g>

<g  clip-path="url(#clip16)" 
>
<g fill="none" stroke="#000000" stroke-opacity="1" stroke-width="1" stroke-linecap="square" stroke-linejoin="bevel" transform="matrix(1,0,0,1,0,0)"
font-family="Arial" font-size="18" font-weight="400" font-style="normal" 
>
<text fill="#000000" fill-opacity="1" stroke="none" xml:space="preserve" x="934" y="395" font-family="Arial" font-size="18" font-weight="400" font-style="normal" 
 >Insurance</text>
</g>
</g>

<g  clip-path="url(#clip16)" 
>
<g fill="none" stroke="#000000" stroke-opacity="1" stroke-width="1" stroke-linecap="square" stroke-linejoin="bevel" transform="matrix(1,0,0,1,0,0)"
font-family="Arial" font-size="18" font-weight="400" font-style="normal" 
>
<text fill="#000000" fill-opacity="1" stroke="none" xml:space="preserve" x="934" y="416" font-family="Arial" font-size="18" font-weight="400" font-style="normal" 
 >2.64%</text>
</g>
</g>

<g  clip-path="url(#clip16)" 
>
<g fill="none" stroke="#ffffff" stroke-opacity="1" stroke-width="1" stroke-linecap="square" stroke-linejoin="bevel" transform="matrix(1,0,0,1,0,0)"
font-family="Arial" font-size="18" font-weight="400" font-style="normal" 
>
<text fill="#ffffff" fill-opacity="1" stroke="none" xml:space="preserve" x="889" y="28" font-family="Arial" font-size="18" font-weight="400" font-style="normal" 
 >Construction</text>
</g>
</g>

<g  clip-path="url(#clip16)" 
>
<g fill="none" stroke="#ffffff" stroke-opacity="1" stroke-width="1" stroke-linecap="square" stroke-linejoin="bevel" transform="matrix(1,0,0,1,0,0)"
font-family="Arial" font-size="18" font-weight="400" font-style="normal" 
>
<text fill="#ffffff" fill-opacity="1" stroke="none" xml:space="preserve" x="889" y="48" font-family="Arial" font-size="18" font-weight="400" font-style="normal" 
 >6.73%</text>
</g>
</g>

<g  clip-path="url(#clip16)" 
>
<g fill="none" stroke="#000000" stroke-opacity="1" stroke-width="1" stroke-linecap="square" stroke-linejoin="bevel" transform="matrix(1,0,0,1,0,0)"
font-family="Arial" font-size="18" font-weight="400" font-style="normal" 
>
<text fill="#000000" fill-opacity="1" stroke="none" xml:space="preserve" x="827" y="354" font-family="Arial" font-size="18" font-weight="400" font-style="normal" 
 >Arts,</text>
</g>
</g>

<g  clip-path="url(#clip16)" 
>
<g fill="none" stroke="#000000" stroke-opacity="1" stroke-width="1" stroke-linecap="square" stroke-linejoin="bevel" transform="matrix(1,0,0,1,0,0)"
font-family="Arial" font-size="18" font-weight="400" font-style="normal" 
>
<text fill="#000000" fill-opacity="1" stroke="none" xml:space="preserve" x="386" y="540" font-family="Arial" font-size="18" font-weight="400" font-style="normal" 
 >Administrative and Support</text>
</g>
</g>

<g  clip-path="url(#clip16)" 
>
<g fill="none" stroke="#000000" stroke-opacity="1" stroke-width="1" stroke-linecap="square" stroke-linejoin="bevel" transform="matrix(1,0,0,1,0,0)"
font-family="Arial" font-size="18" font-weight="400" font-style="normal" 
>
<text fill="#000000" fill-opacity="1" stroke="none" xml:space="preserve" x="386" y="560" font-family="Arial" font-size="18" font-weight="400" font-style="normal" 
 >and Waste Management</text>
</g>
</g>

<g  clip-path="url(#clip16)" 
>
<g fill="none" stroke="#000000" stroke-opacity="1" stroke-width="1" stroke-linecap="square" stroke-linejoin="bevel" transform="matrix(1,0,0,1,0,0)"
font-family="Arial" font-size="18" font-weight="400" font-style="normal" 
>
<text fill="#000000" fill-opacity="1" stroke="none" xml:space="preserve" x="386" y="581" font-family="Arial" font-size="18" font-weight="400" font-style="normal" 
 >and Remediation Services</text>
</g>
</g>

<g  clip-path="url(#clip16)" 
>
<g fill="none" stroke="#000000" stroke-opacity="1" stroke-width="1" stroke-linecap="square" stroke-linejoin="bevel" transform="matrix(1,0,0,1,0,0)"
font-family="Arial" font-size="18" font-weight="400" font-style="normal" 
>
<text fill="#000000" fill-opacity="1" stroke="none" xml:space="preserve" x="386" y="602" font-family="Arial" font-size="18" font-weight="400" font-style="normal" 
 >5.91%</text>
</g>
</g>

<g  clip-path="url(#clip16)" 
>
<g fill="none" stroke="#ffffff" stroke-opacity="1" stroke-width="1" stroke-linecap="square" stroke-linejoin="bevel" transform="matrix(1,0,0,1,0,0)"
font-family="Arial" font-size="18" font-weight="400" font-style="normal" 
>
<text fill="#ffffff" fill-opacity="1" stroke="none" xml:space="preserve" x="622" y="541" font-family="Arial" font-size="18" font-weight="400" font-style="normal" 
 >Accommodation and</text>
</g>
</g>

<g  clip-path="url(#clip16)" 
>
<g fill="none" stroke="#ffffff" stroke-opacity="1" stroke-width="1" stroke-linecap="square" stroke-linejoin="bevel" transform="matrix(1,0,0,1,0,0)"
font-family="Arial" font-size="18" font-weight="400" font-style="normal" 
>
<text fill="#ffffff" fill-opacity="1" stroke="none" xml:space="preserve" x="622" y="561" font-family="Arial" font-size="18" font-weight="400" font-style="normal" 
 >Food Services</text>
</g>
</g>

<g  clip-path="url(#clip16)" 
>
<g fill="none" stroke="#ffffff" stroke-opacity="1" stroke-width="1" stroke-linecap="square" stroke-linejoin="bevel" transform="matrix(1,0,0,1,0,0)"
font-family="Arial" font-size="18" font-weight="400" font-style="normal" 
>
<text fill="#ffffff" fill-opacity="1" stroke="none" xml:space="preserve" x="622" y="582" font-family="Arial" font-size="18" font-weight="400" font-style="normal" 
 >5.13%</text>
</g>
</g>

<clipPath id ="clip17" >
<rect x="0" y="0" height="698" width="1031" transform="matrix(1,0,0,1,0,0)" />
</clipPath>
<g  clip-path="url(#clip17)" 
>
<g fill="none" stroke="#ffffff" stroke-opacity="1" stroke-width="1" stroke-linecap="square" stroke-linejoin="bevel" transform="matrix(1,0,0,1,0,0)"
font-family="Arial" font-size="18" font-weight="400" font-style="normal" 
>
</g>
</g>

<clipPath id ="clip18" >
<rect x="0" y="0" height="698" width="1031" transform="matrix(1,0,0,1,0,0)" />
</clipPath>
<g  clip-path="url(#clip18)" 
>
<g fill="none" stroke="#ffffff" stroke-opacity="1" stroke-width="1" stroke-linecap="square" stroke-linejoin="bevel" transform="matrix(1,0,0,1,0,0)"
font-family="Arial" font-size="18" font-weight="400" font-style="normal" 
>
</g>
</g>

<clipPath id ="clip19" >
<rect x="0" y="0" height="697" width="1030" transform="matrix(1,0,0,1,0,0)" />
</clipPath>
<g  clip-path="url(#clip19)" 
>
<g fill="none" stroke="#ffffff" stroke-opacity="1" stroke-width="1" stroke-linecap="square" stroke-linejoin="bevel" transform="matrix(1,0,0,1,0,0)"
font-family="Arial" font-size="18" font-weight="400" font-style="normal" 
>
</g>
</g>

<clipPath id ="clip20" >
<rect x="0" y="0" height="698" width="1031" transform="matrix(1,0,0,1,0,0)" />
</clipPath>
<g  clip-path="url(#clip20)" 
>
<g fill="none" stroke="#ffffff" stroke-opacity="1" stroke-width="1" stroke-linecap="square" stroke-linejoin="bevel" transform="matrix(1,0,0,1,0,0)"
font-family="Arial" font-size="18" font-weight="400" font-style="normal" 
>
</g>
</g>

<clipPath id ="clip21" >
<rect x="0" y="0" height="697" width="1030" transform="matrix(1,0,0,1,0,0)" />
</clipPath>
<g  clip-path="url(#clip21)" 
>
<g fill="none" stroke="#ffffff" stroke-opacity="1" stroke-width="1" stroke-linecap="square" stroke-linejoin="bevel" transform="matrix(1,0,0,1,0,0)"
font-family="Arial" font-size="18" font-weight="400" font-style="normal" 
>
</g>
</g>

<clipPath id ="clip22" >
<rect x="0" y="0" height="698" width="1031" transform="matrix(1,0,0,1,0,0)" />
</clipPath>
<g  clip-path="url(#clip22)" 
>
<g fill="none" stroke="#ffffff" stroke-opacity="1" stroke-width="1" stroke-linecap="square" stroke-linejoin="bevel" transform="matrix(1,0,0,1,0,0)"
font-family="Arial" font-size="18" font-weight="400" font-style="normal" 
>
</g>
</g>

<clipPath id ="clip23" >
<rect x="0" y="0" height="698" width="1031" transform="matrix(1,0,0,1,0,0)" />
</clipPath>
<g  clip-path="url(#clip23)" 
>
<g fill="none" stroke="#ffffff" stroke-opacity="1" stroke-width="1" stroke-linecap="square" stroke-linejoin="bevel" transform="matrix(1,0,0,1,0,0)"
font-family="Arial" font-size="18" font-weight="400" font-style="normal" 
>
</g>
</g>

<clipPath id ="clip24" >
<rect x="0" y="0" height="697" width="1030" transform="matrix(1,0,0,1,0,0)" />
</clipPath>
<g  clip-path="url(#clip24)" 
>
<g fill="none" stroke="#ffffff" stroke-opacity="1" stroke-width="1" stroke-linecap="square" stroke-linejoin="bevel" transform="matrix(1,0,0,1,0,0)"
font-family="Arial" font-size="18" font-weight="400" font-style="normal" 
>
</g>
</g>

<clipPath id ="clip25" >
<rect x="0" y="0" height="698" width="1031" transform="matrix(1,0,0,1,0,0)" />
</clipPath>
<g  clip-path="url(#clip25)" 
>
<g fill="none" stroke="#ffffff" stroke-opacity="1" stroke-width="1" stroke-linecap="square" stroke-linejoin="bevel" transform="matrix(1,0,0,1,0,0)"
font-family="Arial" font-size="18" font-weight="400" font-style="normal" 
>
</g>
</g>

<clipPath id ="clip26" >
<rect x="0" y="0" height="697" width="1030" transform="matrix(1,0,0,1,0,0)" />
</clipPath>
<g  clip-path="url(#clip26)" 
>
<g fill="none" stroke="#ffffff" stroke-opacity="1" stroke-width="1" stroke-linecap="square" stroke-linejoin="bevel" transform="matrix(1,0,0,1,0,0)"
font-family="Arial" font-size="18" font-weight="400" font-style="normal" 
>
</g>
</g>

<clipPath id ="clip27" >
<rect x="0" y="0" height="698" width="1031" transform="matrix(1,0,0,1,0,0)" />
</clipPath>
<g  clip-path="url(#clip27)" 
>
<g fill="none" stroke="#ffffff" stroke-opacity="1" stroke-width="1" stroke-linecap="square" stroke-linejoin="bevel" transform="matrix(1,0,0,1,0,0)"
font-family="Arial" font-size="18" font-weight="400" font-style="normal" 
>
</g>
</g>

<clipPath id ="clip28" >
<rect x="0" y="0" height="698" width="1031" transform="matrix(1,0,0,1,0,0)" />
</clipPath>
<g  clip-path="url(#clip28)" 
>
<g fill="none" stroke="#ffffff" stroke-opacity="1" stroke-width="1" stroke-linecap="square" stroke-linejoin="bevel" transform="matrix(1,0,0,1,0,0)"
font-family="Arial" font-size="18" font-weight="400" font-style="normal" 
>
</g>
</g>

<clipPath id ="clip29" >
<rect x="0" y="0" height="697" width="1030" transform="matrix(1,0,0,1,0,0)" />
</clipPath>
<g  clip-path="url(#clip29)" 
>
<g fill="none" stroke="#ffffff" stroke-opacity="1" stroke-width="1" stroke-linecap="square" stroke-linejoin="bevel" transform="matrix(1,0,0,1,0,0)"
font-family="Arial" font-size="18" font-weight="400" font-style="normal" 
>
</g>
</g>

<clipPath id ="clip30" >
<rect x="0" y="0" height="698" width="1031" transform="matrix(1,0,0,1,0,0)" />
</clipPath>
<g  clip-path="url(#clip30)" 
>
<g fill="none" stroke="#ffffff" stroke-opacity="1" stroke-width="1" stroke-linecap="square" stroke-linejoin="bevel" transform="matrix(1,0,0,1,0,0)"
font-family="Arial" font-size="18" font-weight="400" font-style="normal" 
>
</g>
</g>

<clipPath id ="clip31" >
<rect x="0" y="0" height="697" width="1030" transform="matrix(1,0,0,1,0,0)" />
</clipPath>
<g  clip-path="url(#clip31)" 
>
<g fill="none" stroke="#ffffff" stroke-opacity="1" stroke-width="1" stroke-linecap="square" stroke-linejoin="bevel" transform="matrix(1,0,0,1,0,0)"
font-family="Arial" font-size="18" font-weight="400" font-style="normal" 
>
</g>
</g>

<clipPath id ="clip32" >
<rect x="0" y="0" height="698" width="1031" transform="matrix(1,0,0,1,0,0)" />
</clipPath>
<g  clip-path="url(#clip32)" 
>
<g fill="none" stroke="#ffffff" stroke-opacity="1" stroke-width="1" stroke-linecap="square" stroke-linejoin="bevel" transform="matrix(1,0,0,1,0,0)"
font-family="Arial" font-size="18" font-weight="400" font-style="normal" 
>
</g>
</g>

<clipPath id ="clip33" >
<rect x="0" y="0" height="698" width="1031" transform="matrix(1,0,0,1,0,0)" />
</clipPath>
<g  clip-path="url(#clip33)" 
>
<g fill="none" stroke="#ffffff" stroke-opacity="1" stroke-width="1" stroke-linecap="square" stroke-linejoin="bevel" transform="matrix(1,0,0,1,0,0)"
font-family="Arial" font-size="18" font-weight="400" font-style="normal" 
>
</g>
</g>

<clipPath id ="clip34" >
<rect x="0" y="0" height="697" width="1030" transform="matrix(1,0,0,1,0,0)" />
</clipPath>
<g  clip-path="url(#clip34)" 
>
<g fill="none" stroke="#ffffff" stroke-opacity="1" stroke-width="1" stroke-linecap="square" stroke-linejoin="bevel" transform="matrix(1,0,0,1,0,0)"
font-family="Arial" font-size="18" font-weight="400" font-style="normal" 
>
</g>
</g>

<clipPath id ="clip35" >
<rect x="0" y="0" height="698" width="1031" transform="matrix(1,0,0,1,0,0)" />
</clipPath>
<g  clip-path="url(#clip35)" 
>
<g fill="none" stroke="#ffffff" stroke-opacity="1" stroke-width="1" stroke-linecap="square" stroke-linejoin="bevel" transform="matrix(1,0,0,1,0,0)"
font-family="Arial" font-size="18" font-weight="400" font-style="normal" 
>
</g>
</g>

<clipPath id ="clip36" >
<rect x="0" y="0" height="697" width="1030" transform="matrix(1,0,0,1,0,0)" />
</clipPath>
<g  clip-path="url(#clip36)" 
>
<g fill="none" stroke="#ffffff" stroke-opacity="1" stroke-width="1" stroke-linecap="square" stroke-linejoin="bevel" transform="matrix(1,0,0,1,0,0)"
font-family="Arial" font-size="18" font-weight="400" font-style="normal" 
>
</g>
</g>

<clipPath id ="clip37" >
<rect x="0" y="0" height="698" width="1031" transform="matrix(1,0,0,1,0,0)" />
</clipPath>
<g  clip-path="url(#clip37)" 
>
<g fill="none" stroke="#ffffff" stroke-opacity="1" stroke-width="1" stroke-linecap="square" stroke-linejoin="bevel" transform="matrix(1,0,0,1,0,0)"
font-family="Arial" font-size="18" font-weight="400" font-style="normal" 
>
</g>
</g>

<g >
<g fill="none" stroke="#ffffff" stroke-opacity="1" stroke-width="1" stroke-linecap="square" stroke-linejoin="bevel" transform="matrix(1,0,0,1,0,0)"
font-family="Arial" font-size="18" font-weight="400" font-style="normal" 
>
</g>
</g>
</g>
</svg>
