<?xml version="1.0" encoding="utf-8"?>
<!-- Generator: Adobe Illustrator 26.5.0, SVG Export Plug-In . SVG Version: 6.00 Build 0)  -->
<svg version="1.1" id="Layer_1" xmlns="http://www.w3.org/2000/svg" xmlns:xlink="http://www.w3.org/1999/xlink" x="0px" y="0px"
	 viewBox="0 0 1000 700" style="enable-background:new 0 0 1000 700;" xml:space="preserve">
<style type="text/css">
	.st0{stroke:#E8E8E8;}
	.st1{fill:#C90036;stroke:#FFFFFF;stroke-width:0.5;}
	.st2{fill:#D25E88;stroke:#FFFFFF;stroke-width:0.5;}
	.st3{fill:#007935;stroke:#FFFFFF;stroke-width:0.5;}
	.st4{fill:#E8CD4B;stroke:#FFFFFF;stroke-width:0.5;}
	.st5{fill:#88BB47;stroke:#FFFFFF;stroke-width:0.5;}
	.st6{fill:#276495;stroke:#FFFFFF;stroke-width:0.5;}
	.st7{fill:#0287AA;stroke:#FFFFFF;stroke-width:0.5;}
	.st8{fill:#F05300;stroke:#FFFFFF;stroke-width:0.5;}
	.st9{fill:#FF9D8B;stroke:#FFFFFF;stroke-width:0.5;}
	.st10{fill:#F2BFE1;stroke:#FFFFFF;stroke-width:0.5;}
	.st11{fill:#84D97D;stroke:#FFFFFF;stroke-width:0.5;}
	.st12{fill:#FADF8D;stroke:#FFFFFF;stroke-width:0.5;}
	.st13{fill:#A6E3A0;stroke:#FFFFFF;stroke-width:0.5;}
	.st14{fill:#A5D8EF;stroke:#FFFFFF;stroke-width:0.5;}
	.st15{fill:#75CACD;stroke:#FFFFFF;stroke-width:0.5;}
	.st16{fill:#FFBC71;stroke:#FFFFFF;stroke-width:0.5;}
	.st17{fill:none;stroke:#242424;}
	.st18{stroke:#444444;}
	.st19{fill:#242424;}
	.st20{font-family:'OpenSans-Regular';}
	.st21{font-size:14px;}
	.st22{fill:#494949;}
	.st23{fill:#A8A8A8;}
</style>
<g>
	<g>
		<g>
			<g>
				<path class="st0" d="M80,411.9h840"/>
				<path class="st0" d="M80,334.7h840"/>
				<path class="st0" d="M80,257.6h840"/>
				<path class="st0" d="M80,180.4h840"/>
				<path class="st0" d="M80,103.3h840"/>
			</g>
		</g>
		<g>
			<g>
				<g transform="translate(80,100)">
					<g>
						<g>
							<g>
								<g>
									<path class="st1" d="M21,389V19.5h31.5V389H21z"/>
								</g>
								<g>
									<path class="st2" d="M126,389V266.5h31.5V389H126z"/>
								</g>
								<g>
									<path class="st3" d="M231,389v-93.5h31.5V389H231z"/>
								</g>
								<g>
									<path class="st4" d="M336,389v-78.5h31.5V389H336z"/>
								</g>
								<g>
									<path class="st5" d="M441,389v-64.6h31.5V389H441z"/>
								</g>
								<g>
									<path class="st6" d="M546,389v-56.9h31.5V389H546z"/>
								</g>
								<g>
									<path class="st7" d="M651,389v-39.7h31.5V389H651z"/>
								</g>
								<g>
									<path class="st8" d="M756,389v-30.6h31.5V389H756z"/>
								</g>
							</g>
						</g>
						<g>
							<g>
								<g>
									<path class="st9" d="M52.5,389V171.8H84V389H52.5z"/>
								</g>
								<g>
									<path class="st10" d="M157.5,389V257.5H189V389H157.5z"/>
								</g>
								<g>
									<path class="st11" d="M262.5,389V271.9H294V389H262.5z"/>
								</g>
								<g>
									<path class="st12" d="M367.5,389V275.8H399V389H367.5z"/>
								</g>
								<g>
									<path class="st13" d="M472.5,389v-65.1H504V389H472.5z"/>
								</g>
								<g>
									<path class="st14" d="M577.5,389v-79.4H609V389H577.5z"/>
								</g>
								<g>
									<path class="st15" d="M682.5,389v-31.5H714V389H682.5z"/>
								</g>
								<g>
									<path class="st16" d="M787.5,389v-13.3H819V389H787.5z"/>
								</g>
							</g>
						</g>
					</g>
				</g>
			</g>
		</g>
		<path class="st17" d="M79,489.5h841"/>
		<path class="st17" d="M79.5,100v389"/>
		<g>
			<path class="st18" d="M132.5,490v5"/>
			<path class="st18" d="M237.5,490v5"/>
			<path class="st18" d="M342.5,490v5"/>
			<path class="st18" d="M447.5,490v5"/>
			<path class="st18" d="M552.5,490v5"/>
			<path class="st18" d="M657.5,490v5"/>
			<path class="st18" d="M762.5,490v5"/>
			<path class="st18" d="M867.5,490v5"/>
			<g>
				<text transform="matrix(6.123234e-17 -1 1 6.123234e-17 137.05 596.3574)" class="st19 st20 st21">Manufacturing</text>
			</g>
			<g>
				<text transform="matrix(6.123234e-17 -1 1 6.123234e-17 232.95 649.6572)" class="st19 st20 st21">Professional, Scientific,</text>
				<text transform="matrix(6.123234e-17 -1 1 6.123234e-17 251.15 646.834)" class="st19 st20 st21">and Technical Services</text>
			</g>
			<g>
				<text transform="matrix(6.123234e-17 -1 1 6.123234e-17 347.05 584.6338)" class="st19 st20 st21">Construction</text>
			</g>
			<g>
				<text transform="matrix(6.123234e-17 -1 1 6.123234e-17 442.95 577.4902)" class="st19 st20 st21">Health Care</text>
				<text transform="matrix(6.123234e-17 -1 1 6.123234e-17 461.15 638.7812)" class="st19 st20 st21">and Social Assistance</text>
			</g>
			<g>
				<text transform="matrix(6.123234e-17 -1 1 6.123234e-17 557.05 565.5479)" class="st19 st20 st21">Education</text>
			</g>
			<g>
				<text transform="matrix(6.123234e-17 -1 1 6.123234e-17 652.95 636.0742)" class="st19 st20 st21">Accommodation and</text>
				<text transform="matrix(6.123234e-17 -1 1 6.123234e-17 671.15 589.8975)" class="st19 st20 st21">Food Services</text>
			</g>
			<g>
				<text transform="matrix(6.123234e-17 -1 1 6.123234e-17 767.05 578.2217)" class="st19 st20 st21">Information</text>
			</g>
			<g>
				<text transform="matrix(6.123234e-17 -1 1 6.123234e-17 862.95 636.8057)" class="st19 st20 st21">Agriculture, Forestry,</text>
				<text transform="matrix(6.123234e-17 -1 1 6.123234e-17 881.15 574.9062)" class="st19 st20 st21">and Fishing</text>
			</g>
		</g>
		<g>
			<path class="st18" d="M79,489h-5"/>
			<path class="st18" d="M79,411.9h-5"/>
			<path class="st18" d="M79,334.7h-5"/>
			<path class="st18" d="M79,257.6h-5"/>
			<path class="st18" d="M79,180.4h-5"/>
			<path class="st18" d="M79,103.3h-5"/>
			<g>
				<text transform="matrix(1 0 0 1 63.1951 493.9)" class="st19 st20 st21">0</text>
			</g>
			<g>
				<text transform="matrix(1 0 0 1 63.1951 416.75)" class="st19 st20 st21">5</text>
			</g>
			<g>
				<text transform="matrix(1 0 0 1 55.1902 339.61)" class="st19 st20 st21">10</text>
			</g>
			<g>
				<text transform="matrix(1 0 0 1 55.1902 262.46)" class="st19 st20 st21">15</text>
			</g>
			<g>
				<text transform="matrix(1 0 0 1 55.1902 185.32)" class="st19 st20 st21">20</text>
			</g>
			<g>
				<text transform="matrix(1 0 0 1 55.1902 108.17)" class="st19 st20 st21">25</text>
			</g>
		</g>
	</g>
</g>
<g>
	<g>
		<text transform="matrix(6.123234e-17 -1 1 6.123234e-17 28.5906 368.2021)" class="st19 st20 st21">Employment Share (%)</text>
	</g>
</g>
<g>
	<rect x="819.2" y="45.1" class="st22" width="17.7" height="17.7"/>
	<rect x="819.2" y="76.2" class="st23" width="17.7" height="17.7"/>
	<text transform="matrix(1 0 0 1 844.9979 59.186)" class="st20 st21">World</text>
	<text transform="matrix(1 0 0 1 845.2026 90.0042)" class="st20 st21">Port Zones</text>
</g>
</svg>
