<?xml version="1.0" encoding="utf-8"?>
<!-- Generator: Adobe Illustrator 26.5.0, SVG Export Plug-In . SVG Version: 6.00 Build 0)  -->
<svg version="1.1" id="Layer_1" xmlns="http://www.w3.org/2000/svg" xmlns:xlink="http://www.w3.org/1999/xlink" x="0px" y="0px"
	 viewBox="0 0 1000 700" style="enable-background:new 0 0 1000 700;" xml:space="preserve">
<style type="text/css">
	.st0{stroke:#E8E8E8;}
	.st1{fill:#D25E88;stroke:#FFFFFF;stroke-width:0.5;}
	.st2{fill:#F2BFE1;stroke:#FFFFFF;stroke-width:0.5;}
	.st3{fill:none;stroke:#242424;}
	.st4{stroke:#444444;}
	.st5{fill:#242424;}
	.st6{font-family:'OpenSans-Regular';}
	.st7{font-size:14px;}
	.st8{font-family:'Verdana';}
</style>
<g>
	<g>
		<g>
			<g>
				<path class="st0" d="M80,388.6h840"/>
				<path class="st0" d="M80,333.2h840"/>
				<path class="st0" d="M80,277.8h840"/>
				<path class="st0" d="M80,222.4h840"/>
				<path class="st0" d="M80,167h840"/>
				<path class="st0" d="M80,111.6h840"/>
			</g>
		</g>
		<g>
			<g>
				<g transform="translate(80,60)">
					<g>
						<g>
							<g>
								<g>
									<path class="st1" d="M18.7,384V19.2h28V384H18.7z"/>
								</g>
								<g>
									<path class="st1" d="M112,384V192.2h28V384H112z"/>
								</g>
								<g>
									<path class="st1" d="M205.3,384V202.9h28V384H205.3z"/>
								</g>
								<g>
									<path class="st1" d="M298.7,384v-91.1h28V384H298.7z"/>
								</g>
								<g>
									<path class="st1" d="M392,384v-75.2h28V384H392z"/>
								</g>
								<g>
									<path class="st1" d="M485.3,384v-70.8h28V384H485.3z"/>
								</g>
								<g>
									<path class="st1" d="M578.7,384v-62.4h28V384H578.7z"/>
								</g>
								<g>
									<path class="st1" d="M672,384v-56.6h28V384H672z"/>
								</g>
								<g>
									<path class="st1" d="M765.3,384v-14.3h28V384H765.3z"/>
								</g>
							</g>
						</g>
						<g>
							<g>
								<g>
									<path class="st2" d="M140,384V113h28v271H140z"/>
								</g>
								<g>
									<path class="st2" d="M233.3,384V182.1h28V384H233.3z"/>
								</g>
								<g>
									<path class="st2" d="M46.7,384V209.6h28V384H46.7z"/>
								</g>
								<g>
									<path class="st2" d="M326.7,384V236.7h28V384H326.7z"/>
								</g>
								<g>
									<path class="st2" d="M700,384V279.8h28V384H700z"/>
								</g>
								<g>
									<path class="st2" d="M606.7,384v-82.9h28V384H606.7z"/>
								</g>
								<g>
									<path class="st2" d="M513.3,384v-68h28v68H513.3z"/>
								</g>
								<g>
									<path class="st2" d="M420,384v-43.9h28V384H420z"/>
								</g>
								<g>
									<path class="st2" d="M793.3,384v-14.6h28V384H793.3z"/>
								</g>
							</g>
						</g>
					</g>
				</g>
			</g>
		</g>
		<path class="st3" d="M79,444.5h841"/>
		<path class="st3" d="M79.5,60v384"/>
		<g>
			<path class="st4" d="M126.7,445v5"/>
			<path class="st4" d="M220,445v5"/>
			<path class="st4" d="M313.3,445v5"/>
			<path class="st4" d="M406.7,445v5"/>
			<path class="st4" d="M500,445v5"/>
			<path class="st4" d="M593.3,445v5"/>
			<path class="st4" d="M686.7,445v5"/>
			<path class="st4" d="M780,445v5"/>
			<path class="st4" d="M873.3,445v5"/>
			<g>
				<text transform="matrix(6.123234e-17 -1 1 6.123234e-17 122.12 642.3027)" class="st5 st6 st7">Computer Systems Design</text>
				<text transform="matrix(6.123234e-17 -1 1 6.123234e-17 140.32 602.9346)" class="st5 st6 st7">and Related Services</text>
			</g>
			<g>
				<text transform="matrix(6.123234e-17 -1 1 6.123234e-17 215.45 642.9658)" class="st5 st6 st7">Architectural, Engineering,</text>
				<text transform="matrix(6.123234e-17 -1 1 6.123234e-17 233.65 602.9346)" class="st5 st6 st7">and Related Services</text>
			</g>
			<g>
				<text transform="matrix(6.123234e-17 -1 1 6.123234e-17 308.78 624.8984)" class="st5 st6 st7">Management, Scientific,</text>
				<text transform="matrix(6.123234e-17 -1 1 6.123234e-17 326.98 629.3623)" class="st5 st6 st7">and Technical Consulting</text>
			</g>
			<g>
				<text transform="matrix(6.123234e-17 -1 1 6.123234e-17 402.12 662.8721)" class="st5 st6 st7">Other Professional, Scientific,</text>
				<text transform="matrix(6.123234e-17 -1 1 6.123234e-17 420.32 614.2344)" class="st5 st6 st7">and Technical Services</text>
			</g>
			<g>
				<text transform="matrix(6.123234e-17 -1 1 6.123234e-17 495.45 587.7451)" class="st5 st6 st7">Scientific Research</text>
				<text transform="matrix(6.123234e-17 -1 1 6.123234e-17 513.65 579.5352)" class="st5 st6 st7">and Development</text>
			</g>
			<g>
				<text transform="matrix(6.123234e-17 -1 1 6.123234e-17 588.78 565.3574)" class="st5 st6 st7">Advertising and</text>
				<text transform="matrix(6.123234e-17 -1 1 6.123234e-17 606.98 565.5146)" class="st5 st6 st7">Public Relations</text>
			</g>
			<g>
				<text transform="matrix(6.123234e-17 -1 1 6.123234e-17 673.02 566.6084)" class="st5 st6 st7">Accounting, Tax</text>
				<text transform="matrix(6.123234e-17 -1 1 6.123234e-17 691.22 636.2979)" class="st5 st6 st7">Preparation, Bookkeeping,</text>
				<text transform="matrix(6.123234e-17 -1 1 6.123234e-17 709.42 592.2129)" class="st5 st6 st7">and Payroll Services</text>
			</g>
			<g>
				<text transform="matrix(6.123234e-17 -1 1 6.123234e-17 784.55 556.5664)" class="st5 st6 st7">Legal Services</text>
			</g>
			<g>
				<text transform="matrix(6.123234e-17 -1 1 6.123234e-17 868.78 586.5625)" class="st5 st6 st7">Specialized Design</text>
				<text transform="matrix(6.123234e-17 -1 1 6.123234e-17 886.98 514.5391)" class="st5 st6 st7">Services</text>
			</g>
		</g>
		<g>
			<path class="st4" d="M79,444h-5"/>
			<path class="st4" d="M79,388.6h-5"/>
			<path class="st4" d="M79,333.2h-5"/>
			<path class="st4" d="M79,277.8h-5"/>
			<path class="st4" d="M79,222.4h-5"/>
			<path class="st4" d="M79,167h-5"/>
			<path class="st4" d="M79,111.6h-5"/>
			<g>
				<text transform="matrix(1 0 0 1 62.2996 448.9)" class="st5 st8 st7">0</text>
			</g>
			<g>
				<text transform="matrix(1 0 0 1 62.2996 393.5)" class="st5 st8 st7">5</text>
			</g>
			<g>
				<text transform="matrix(1 0 0 1 53.3992 338.09)" class="st5 st8 st7">10</text>
			</g>
			<g>
				<text transform="matrix(1 0 0 1 53.3992 282.69)" class="st5 st8 st7">15</text>
			</g>
			<g>
				<text transform="matrix(1 0 0 1 53.3992 227.28)" class="st5 st8 st7">20</text>
			</g>
			<g>
				<text transform="matrix(1 0 0 1 53.3992 171.88)" class="st5 st8 st7">25</text>
			</g>
			<g>
				<text transform="matrix(1 0 0 1 53.3992 116.47)" class="st5 st8 st7">30</text>
			</g>
		</g>
	</g>
</g>
<g>
	<g>
		<text transform="matrix(6.123234e-17 -1 1 6.123234e-17 28.5906 335.4121)" class="st5 st6 st7">Employment Share (%)</text>
	</g>
</g>
<g>
	<rect x="819.2" y="45.1" class="st1" width="17.7" height="17.7"/>
	<rect x="819.2" y="76.2" class="st2" width="17.7" height="17.7"/>
	<text transform="matrix(1 0 0 1 844.9979 59.186)" class="st6 st7">World</text>
	<text transform="matrix(1 0 0 1 845.2026 90.0042)" class="st6 st7">Port Zones</text>
</g>
</svg>
