<svg xmlns="http://www.w3.org/2000/svg" viewBox="0 0 350 203"><path fill="#252F6B" d="M0 0h350v203H0z"/><circle fill="#FAD704" cx="175" cy="101.5" r="70"/><path fill="#252F6B" d="M175 33.5c-37.555 0-68 30.445-68 68 0 37.557 30.445 68 68 68 37.557 0 68-30.443 68-68 0-37.555-30.443-68-68-68zm0 123.334c-30.56 0-55.334-24.773-55.334-55.334 0-30.56 24.774-55.334 55.334-55.334 30.561 0 55.334 24.774 55.334 55.334 0 30.561-24.773 55.334-55.334 55.334z"/><circle fill="#FFF" cx="175" cy="101.5" r="53"/><path fill="#FAD704" d="M175 159.199l.777 2.397h2.521l-2.038 1.48.778 2.397-2.038-1.482-2.039 1.482.779-2.397-2.038-1.48h2.52zm26.906-5.901l1.819 1.744 2.22-1.19-1.095 2.267 1.817 1.744-2.496-.342-1.097 2.269-.446-2.479-2.496-.342 2.222-1.192zm-52.013 0l-1.819 1.744-2.22-1.19 1.096 2.267-1.818 1.744 2.496-.342 1.097 2.269.446-2.479 2.496-.342-2.221-1.192zm-24.059-10.787c-.146 0-.296-.022-.447-.067-.488-.147-.98-.534-1.461-1.151-.46-.589-.717-1.115-.764-1.562-.048-.457.114-.906.482-1.334l.069-.08 1.007.979-.057.071a.828.828 0 0 0-.2.578c.014.207.123.443.326.703.288.369.553.557.788.557.109 0 .213-.04.317-.121s.165-.169.188-.27a.81.81 0 0 0-.021-.385c-.04-.158-.167-.457-.375-.892-.255-.522-.421-.92-.493-1.181-.074-.271-.1-.504-.079-.713s.086-.41.195-.598c.11-.188.268-.361.469-.52.336-.262.693-.396 1.059-.396.155 0 .313.022.472.071.523.154 1.052.57 1.573 1.238.475.609.744 1.183.799 1.701.056.53-.104 1.027-.474 1.479l-.067.082-1.035-.954.056-.072c.182-.236.255-.472.226-.72-.031-.252-.17-.537-.414-.851-.338-.434-.648-.652-.921-.652a.565.565 0 0 0-.356.135.486.486 0 0 0-.198.311c-.022.129-.009.281.041.453.052.181.194.504.423.963.194.42.318.717.376.896.059.181.099.356.118.524.02.172.012.342-.025.505-.038.161-.107.319-.208.472s-.238.297-.411.432c-.31.247-.639.369-.978.369zm-7.564-9.875l.99-.596 1.753 2.92 1.1-.66-1.621-2.7.99-.596 1.622 2.701 1.16-.696-1.841-3.068.99-.593 2.581 4.297-5.232 3.14zm-2.811-5.883l4.695-4.483.578 1.314-1.17 1.087.848 1.929 1.591-.127.583 1.328-6.482.416-.643-1.464zm1.991-.19l-.426.373.117-.016c.128-.016.827-.076 2.094-.182l-.57-1.297-1.215 1.122zm-4.197-5.825l4.74-1.418-.908-3.034 1.107-.33 1.319 4.409-5.845 1.748zm.263-9.967c-.755 0-1.392-.205-1.892-.609-.599-.485-.95-1.215-1.045-2.17-.095-.954.109-1.739.606-2.336.496-.594 1.231-.944 2.186-1.039a4.08 4.08 0 0 1 .437-.021c.454 0 .877.077 1.259.23.505.201.914.527 1.214.968.299.438.481.972.543 1.586.094.946-.115 1.729-.623 2.324-.506.596-1.253.946-2.22 1.044-.16.016-.315.023-.465.023zm.372-4.721c-.119 0-.243.007-.373.021-.607.061-1.072.252-1.384.568-.311.316-.437.721-.386 1.237.052.522.254.899.62 1.147.293.201.673.304 1.126.304.111 0 .227-.007.347-.019.618-.062 1.094-.258 1.416-.582.321-.324.453-.729.403-1.232-.052-.523-.256-.898-.625-1.146-.294-.198-.679-.298-1.144-.298zm-3.576-4.07l.115-4.551 1.155.029-.079 3.116 1.626.041.076-3.019 1.155.029-.076 3.019 2.165.055-.036 1.436zm.866-11.206l1.074-5.141 1.131.237-.391 1.869 4.842 1.012-.293 1.406-4.842-1.013-.39 1.866zm1.781-7.714l.464-1.359 2.224.76.768-2.244-2.224-.76.464-1.359 5.774 1.973-.464 1.359-2.394-.818-.767 2.244 2.394.818-.465 1.359zm2.927-7.892l2.135-4.345 1.037.509-1.502 3.056 1.152.566 1.388-2.827 1.037.509-1.389 2.827 1.215.598 1.578-3.211 1.037.509-2.211 4.499zm10.322-7.864c-.667 0-1.353-.264-2.037-.783-.79-.6-1.248-1.277-1.363-2.012-.115-.737.125-1.504.714-2.279.429-.564.9-.944 1.4-1.129.248-.091.505-.138.766-.138.27 0 .55.05.832.148l.099.034-.498 1.234-.091-.033a1.16 1.16 0 0 0-.822.005 1.625 1.625 0 0 0-.739.567c-.318.418-.431.836-.337 1.244.095.415.402.821.912 1.208.495.375.958.565 1.379.565.495-.021.875-.243 1.194-.663.427-.563.44-1.153.041-1.804l-.052-.084 1.146-.718.052.088c.323.545.461 1.098.409 1.642-.051.541-.274 1.074-.663 1.586-.589.775-1.275 1.214-2.042 1.304a2.479 2.479 0 0 1-.3.018zm2.238-10.677l1.123-1.137 5.899 2.712-1.01 1.022-1.441-.688-1.481 1.499.705 1.433-1.019 1.031-2.776-5.872zm1.588.49c.062.114.375.741.941 1.88l.996-1.008-1.49-.717-.501-.257.054.102zm3.186-5.03l1.238-.965 4.493 1.854a8.89 8.89 0 0 1-.449-.529l-2.17-2.786 1.023-.797 3.75 4.813-1.268.988-4.438-1.844c.159.173.29.325.393.457l2.201 2.825-1.023.797-3.75-4.813zm8.354-5.947l1.377-.81 5.005 4.135-1.239.729-1.216-1.034-1.816 1.068.313 1.565-1.25.735-1.174-6.388zm1.41.881c.03.126.172.813.426 2.059l1.221-.718-1.256-1.076-.42-.379.029.114zm4.357-4.015l1.317-.571 1.967 4.54 2.907-1.26.458 1.059-4.222 1.831zm11.68 1.083l2.107-4.557-2.696.629-.266-1.138 4.332-1.01.217.934-2.103 4.574 3.174-.741.265 1.137-4.808 1.122zm9.47-.722c-.747 0-1.38-.215-1.881-.639-.597-.504-.951-1.25-1.05-2.216-.099-.965.096-1.758.579-2.358.483-.601 1.211-.955 2.166-1.053.158-.016.312-.024.46-.024.748 0 1.38.21 1.878.623.597.495.949 1.229 1.047 2.182.064.625-.004 1.196-.204 1.697-.2.505-.524.914-.964 1.216-.437.3-.969.485-1.583.548a4.361 4.361 0 0 1-.448.024zm.151-5.112c-.071 0-.144.004-.218.012-.524.054-.899.258-1.148.623-.249.366-.343.862-.279 1.474.063.618.261 1.094.587 1.415.28.276.617.41 1.028.41.066 0 .135-.003.205-.011.523-.053.898-.259 1.145-.628s.339-.88.273-1.518c-.063-.607-.255-1.072-.574-1.382-.267-.262-.61-.395-1.019-.395zm9.163 4.751l-2.24-4.253c.012.235.016.436.011.603l-.108 3.58-1.297-.039.183-6.1 1.569.047 2.277 4.293a8.146 8.146 0 0 1-.008-.693l.104-3.529 1.297.039-.184 6.1-1.604-.048zm4.004.285l.946-6.028 4.782.752-.18 1.141-3.364-.529-.198 1.267 3.111.49-.179 1.14-3.112-.489-.211 1.338 3.534.555-.179 1.142zm10.836 2.359l1.909-5.796 1.362.449-1.91 5.795zm7.376 2.669c-.446 0-.97-.13-1.554-.386-.708-.311-1.217-.688-1.512-1.119-.3-.441-.396-.954-.285-1.525l.021-.104 1.365.349-.016.09c-.048.294-.001.536.145.74.146.207.402.392.767.552.317.139.586.209.801.209.276 0 .463-.118.569-.36a.489.489 0 0 0 .027-.367 1.05 1.05 0 0 0-.252-.379c-.13-.133-.408-.351-.83-.647a9.485 9.485 0 0 1-.754-.607 2.623 2.623 0 0 1-.354-.407 1.482 1.482 0 0 1-.218-.456 1.44 1.44 0 0 1-.041-.515 1.88 1.88 0 0 1 .156-.574c.228-.518.603-.833 1.114-.938.123-.025.254-.038.39-.038.418 0 .902.12 1.442.358.687.3 1.161.641 1.415 1.012.259.379.329.851.208 1.403l-.022.104-1.352-.386.016-.089a.809.809 0 0 0-.1-.605c-.109-.176-.318-.332-.619-.464-.27-.117-.497-.177-.681-.177-.241 0-.405.104-.499.319a.48.48 0 0 0-.037.327.831.831 0 0 0 .201.329c.109.12.363.323.752.605.48.345.807.609.994.806.189.2.328.398.408.589.08.195.119.403.11.618a1.858 1.858 0 0 1-.166.679c-.245.558-.646.899-1.192 1.013-.127.027-.27.041-.417.041zm4.042 2.334l2.509-4.262-1.64-.968.586-.995 4.523 2.666-.586.995-1.646-.97-2.511 4.262zm7.487 5.087l1.54-2.008-1.882-1.444-1.54 2.007-1.141-.874 3.716-4.841 1.14.874-1.431 1.864 1.882 1.445 1.432-1.865 1.138.874-3.715 4.841zm6.395 5.921l2.793-2.753.115-.106c-.283.157-.502.275-.658.354l-3.156 1.588-.719-.729 1.629-3.134.383-.677c-.131.139-.23.243-.3.311l-2.618 2.583-.911-.924 4.345-4.286 1.282 1.301-1.642 3.134-.164.292-.229.381.53-.295 3.296-1.696L223.2 58.3l-4.345 4.286-.91-.925zm6.028 6.11a2.07 2.07 0 0 1-.414-.042c-.627-.128-1.207-.542-1.722-1.23-.5-.67-.722-1.316-.659-1.922.063-.607.402-1.148 1.016-1.606l3.037-2.268.858 1.15-2.96 2.21c-.352.263-.559.546-.613.841-.055.292.039.602.276.922.25.333.526.513.845.549.037.004.075.006.113.006.283 0 .586-.118.898-.352l2.928-2.186.857 1.151-2.986 2.23c-.485.363-.981.547-1.474.547zm3.995 6.582c-.229 0-.456-.053-.678-.156-.494-.23-.956-.721-1.374-1.458-.38-.673-.563-1.278-.539-1.801.021-.532.253-1 .686-1.392l.078-.071.883 1.095-.065.063c-.214.207-.321.429-.329.678-.006.254.09.558.284.901.296.522.595.787.89.787a.619.619 0 0 0 .299-.086.49.49 0 0 0 .24-.278c.041-.124.051-.276.026-.454-.024-.186-.117-.527-.276-1.014a9.132 9.132 0 0 1-.24-.939 2.734 2.734 0 0 1-.039-.538c.006-.172.039-.338.099-.494.062-.156.153-.303.274-.438a1.88 1.88 0 0 1 .471-.366 1.65 1.65 0 0 1 .814-.232c.215 0 .43.05.641.149.461.217.891.673 1.275 1.354.367.65.545 1.208.524 1.657-.021.459-.246.879-.673 1.249l-.08.07-.852-1.119.065-.062c.173-.162.267-.34.282-.544.018-.206-.057-.455-.219-.742-.252-.445-.508-.67-.763-.67a.552.552 0 0 0-.269.078.486.486 0 0 0-.225.239.829.829 0 0 0-.035.384c.017.164.098.479.239.935.179.565.281.971.313 1.241.031.275.023.516-.027.716a1.487 1.487 0 0 1-.279.563 1.865 1.865 0 0 1-.541.444c-.291.166-.59.251-.88.251zm5.365 11.046a3.14 3.14 0 0 1-.506-.041 2.616 2.616 0 0 1-1.394-.684c-.388-.362-.682-.844-.873-1.43-.297-.905-.262-1.714.105-2.405.365-.691 1.02-1.195 1.941-1.498a3.954 3.954 0 0 1 1.222-.212c.435 0 .839.093 1.206.276.689.345 1.189.98 1.488 1.892.3.912.271 1.723-.086 2.412-.356.688-1 1.188-1.91 1.488a3.874 3.874 0 0 1-1.193.202zm.597-4.841c-.264 0-.557.053-.871.156-.59.193-1.013.488-1.257.875-.243.387-.284.809-.128 1.29.165.5.445.822.858.984.187.073.395.11.618.11.276 0 .588-.056.924-.166.578-.19.992-.477 1.228-.854s.271-.799.11-1.292c-.165-.5-.444-.824-.854-.988a1.683 1.683 0 0 0-.628-.115zm.562 8.73l-2.127.408-.269-1.41 5.991-1.151.858 4.471-1.132.218-.588-3.061-1.598.307.568 2.966-1.132.218zm3.19 14.506c-.377 0-.724-.086-1.027-.257a1.882 1.882 0 0 1-.744-.771c-.176-.332-.268-.733-.273-1.19l-.023-1.366-2.077.034-.022-1.436 6.103-.099.044 2.751c.012.729-.151 1.302-.484 1.704-.338.409-.824.621-1.445.63h-.052zm-.9-2.393c.005.313.085.553.237.716.149.156.357.232.639.232.306-.004.508-.086.641-.248.137-.167.202-.422.197-.763l-.02-1.178-1.715.028.021 1.213zm-3.755 8.115l1.557-.356.229-2.095-1.441-.686.158-1.441 5.824 2.879-.174 1.588-6.309 1.539.156-1.428zm2.718-.578l1.614-.362.555-.111-.109-.045a140.75 140.75 0 0 1-1.904-.888l-.156 1.406zm-4.487 9.059l.383-1.562 4.627-1.308a8.092 8.092 0 0 1-.594-.114l-3.479-.851.308-1.261 5.929 1.449-.373 1.523-4.675 1.334c.241.039.47.085.681.137l3.431.838-.31 1.262-5.928-1.447zm-2.763 7.532l.521-1.34 1.596.06.765-1.963-1.216-1.035.525-1.353 4.879 4.287-.578 1.489-6.492-.145zm4.946-1.125l.565.037-.095-.073c-.104-.08-.639-.53-1.61-1.351l-.514 1.318 1.654.069zm-8.811 8.33l.634-1.133 3.422 1.914c.021.014.065.041.133.08a17.053 17.053 0 0 1-.521-.531l-2.404-2.588.5-.896 3.465.692.76.179c-.172-.089-.301-.155-.385-.203l-3.209-1.794.633-1.133 5.326 2.979-.893 1.596-3.468-.705-.326-.073-.43-.115.432.429 2.548 2.691-.89 1.589-5.327-2.978zm-4.741 6.483l.866-1.146 1.519.494 1.271-1.681-.886-1.327.876-1.156 3.521 5.459-.966 1.273-6.201-1.916zm5.065.269l.53.188a138.766 138.766 0 0 1-1.246-1.835l-.855 1.131 1.571.516z"/><path fill="#252F6B" d="M174.999 67h-31.833l4.802 4.5v46.833c0 6.5 8.002 7.668 13.338 8.334 5.335.666 11.381-.5 13.694 5 2.313-5.5 8.359-4.334 13.693-5 5.336-.666 13.339-1.834 13.339-8.334V71.5l4.802-4.5h-31.835z"/><path fill="#FFF" d="M149.167 76.167h51.666V86.5h-51.666z"/><path d="M169 76.167h3.333V86.5H169zm-8.334 0h3.333V86.5h-3.333zm-8.166 0h3.333V86.5H152.5zm25.166 0h3.333V86.5h-3.333zm8.334 0h3.332V86.5H186zm8.166 0h3.333V86.5h-3.333z" fill="#D31F26"/><path fill="#FAD704" d="M149.167 86.5v20.667h15.097l.235-4.5-.375-.917 2.709-.5c1.875-1.875 2.875-3.625 3-5.5h4.375v-2.5c-1.375.25-1.875.25-2.375.875 0 0-.125-.75-1.25-1.375 0 0 .458-1.375 1.667-1.625s1.583-1.625 3.083-1.625v6.25h4c.125 1.875 1.125 3.625 3 5.5l3.541.5-.375.917-1.265 4.5h16.598V86.5h-51.665z"/><path fill="#D31F26" d="M149.167 107.167c7.166-3.667 9.666-4 15.333-4.5 2.333 3.5 2.167 6 2.167 8.333l1.833.667-2 5.333h-1.333c-2.501-5.333-8.5-7.666-16-9.833zm51.665 0c-7.166-3.667-9.666-4-15.333-4.5-2.333 3.5-2.166 6-2.166 8.333l-1.834.667 2 5.333h1.334c2.5-5.333 8.498-7.666 15.999-9.833z"/><g fill="#FFF"><path d="M170.666 96.833c-.292 1.229-1.292 3.354-2.167 4.229h11.688c-1-1.563-1.438-2.521-1.5-4.229h-8.021zm-2.917 13.48c-.063-3.125-1.125-5.813-2-7.5h18.125c-1.188 2.063-1.313 5.938-1.438 7.5h-3.104L174.999 105l-4.875 5.313h-2.375z"/><path d="M174.562 106.875v4.438l-3.25-1zm.687 0v4.438l3.25-1z"/></g><path fill="none" stroke="#FFF" stroke-width=".7" stroke-linecap="round" stroke-miterlimit="10" d="M153.749 118.834c8.5 0 43.334.583 43.334 1 0 .75-42 .916-42 1.5 0 .833 35.083.416 35.083 1 0 .833-28.083 1.083-28.083 1.583s20.583.583 20.583.917c0 .583-8.854.916-8.854 2.166"/><path fill="#FAD704" stroke="#252F6B" stroke-width=".9" stroke-miterlimit="10" d="M215.779 109.5c-1.375-3 .75-5.375.75-5.375s3 1.75 4.125.125-1.375-2.25-3.375-3.188-2.375-1.395-4.5-1.729c-1.852-.291-3.375 2.916-3.625 6.041s0 7.25 3.625 7.625c.906.094 2.343.317 2.646.94 0 0-1.615 5.81-5.271 8.435-4.875 3.5-11.5 3.625-17.375 6.125S181.218 141 174.812 141c-6.406 0-12.094-10-17.969-12.5s-12.5-2.625-17.375-6.125c-3.656-2.625-5.271-8.436-5.271-8.436.305-.623 1.74-.847 2.646-.939 3.625-.375 3.875-4.5 3.625-7.625s-1.773-6.332-3.625-6.041c-2.125.334-2.5.791-4.5 1.729s-4.5 1.563-3.375 3.188 4.125-.125 4.125-.125 2.125 2.375.75 5.375c-5.75 1.5-5.75 2.5-5.75 5.25s.375 6.25 5.875 11.875 12.375 4.875 19.5 8.125S164.593 148 174.812 148s14.219-10 21.344-13.25 14-2.5 19.5-8.125 5.875-9.125 5.875-11.875-.002-3.75-5.752-5.25z"/><path fill="none" stroke="#252F6B" stroke-width=".9" stroke-miterlimit="10" d="M137.486 112.884c-1.893.116-.893-1.821-.518-2.259s.5-2.063-3.125-1.125m1.562-.287c-1.87.368-2.103 2.301-1.208 4.729m2.646-14.608c-1.438.104-1.5 1.729-.938 2.541.562.813 2.75.5 2.125-.688-.438-.688-1.438-.25-2.188-.125"/><path fill="#FAD704" stroke="#252F6B" stroke-width=".9" stroke-miterlimit="10" d="M136.99 102.328c-1.209.047-2.397.984-3.897 1.797"/><path fill="none" stroke="#252F6B" stroke-width=".9" stroke-miterlimit="10" d="M212.139 112.884c1.893.116.893-1.821.518-2.259s-.5-2.063 3.125-1.125m-1.564-.287c1.87.368 2.104 2.301 1.209 4.729m-2.648-14.608c1.438.104 1.5 1.729.938 2.541-.562.813-2.75.5-2.125-.688.438-.688 1.438-.25 2.188-.125"/><path fill="#FAD704" stroke="#252F6B" stroke-width=".9" stroke-miterlimit="10" d="M212.634 102.328c1.209.047 2.396.984 3.896 1.797"/><path d="M181.259 142.191l1.136 1.67-.418.283-1.135-1.67-.643.438-.221-.322 1.705-1.157.219.321-.643.437zm3.707-.444l-.692-.767-.777.705.693.766-.375.338-1.615-1.785.374-.338.644.71.777-.704-.643-.71.373-.339 1.615 1.785-.374.339zm1.151-1.121l-1.734-1.67 1.313-1.364.281.271-.963 1.001.436.42.892-.927.28.271-.893.927.457.439 1.014-1.053.279.271-1.362 1.414zm4.718-4.868l-.426.42-1.21-.763a6.08 6.08 0 0 1-.434-.296c.086.126.149.223.191.29.043.067.322.524.84 1.37l-.426.421-2.133-1.28.365-.357 1.34.862.318.212-.252-.388c-.08-.124-.345-.556-.794-1.292l.401-.396 1.115.699c.086.051.267.178.543.377l-.108-.171-.211-.344-.733-1.158.364-.358 1.25 2.152zm2.116-3.235c.148.201.238.408.271.621.032.211.004.412-.084.604-.09.189-.232.357-.432.504-.305.225-.609.311-.915.258-.306-.052-.571-.234-.802-.547-.229-.311-.32-.617-.276-.918.045-.302.222-.564.528-.791.308-.227.611-.314.915-.266.304.048.569.229.795.535zm-.415.305c-.153-.209-.323-.337-.511-.383-.187-.047-.369-.004-.549.129-.182.134-.277.296-.291.486-.013.19.06.392.215.604.156.213.33.343.521.391a.632.632 0 0 0 .551-.121c.182-.134.277-.295.289-.488.012-.192-.063-.398-.225-.618zm3.339-.351l-.877-.617-.542.234.362.84-.463.2-.957-2.21 1.104-.479c.265-.113.491-.146.685-.094.191.051.334.184.427.396a.69.69 0 0 1 .04.458.667.667 0 0 1-.26.376l1 .67-.519.226zm-.719-1.509c-.092-.212-.273-.26-.547-.142l-.592.257.282.651.604-.262c.13-.057.216-.129.257-.216.044-.086.042-.183-.004-.288zm1.985 1.036l-.724-2.297.481-.15.604 1.926 1.231-.389.117.372-1.709.538zm4.289-2.455c.062.24.065.463.016.666a.992.992 0 0 1-.299.512c-.148.14-.336.235-.559.291l-.945.235-.582-2.337.847-.21c.394-.099.723-.075.987.069.264.146.443.403.535.774zm-.492.122c-.063-.251-.176-.426-.338-.524-.164-.101-.367-.119-.608-.061l-.347.087.394 1.58.415-.104c.21-.051.357-.166.445-.342s.1-.387.039-.636zm4.126.304c-.32.082-.586.066-.797-.047-.211-.111-.354-.313-.43-.604l-.375-1.459.488-.125.365 1.42c.048.185.127.313.238.386.112.072.254.087.424.044.174-.045.297-.13.363-.254.068-.124.078-.278.03-.466l-.36-1.403.487-.125.369 1.433c.075.297.044.55-.097.76-.136.205-.373.354-.705.44zm3.51-1.116l-1.614-1.391c.08.162.14.295.177.397l.479 1.337-.421.15-.815-2.266.542-.195 1.635 1.398a3.686 3.686 0 0 1-.188-.432l-.475-1.316.422-.152.814 2.268-.556.202zm1.632-.709l-1.091-2.146.449-.229 1.09 2.147-.448.228zm1.232-3.093l1.176 1.643-.41.293-1.176-1.641-.631.451-.228-.316 1.677-1.199.227.316-.635.453zm2.599.439l-1.739-1.666 1.312-1.367.281.27-.961 1.004.437.418.889-.928.281.271-.89.928.459.438 1.01-1.055.281.271-1.36 1.416zm2.447-4.594c.192.156.33.332.41.524.082.192.104.39.066.589-.038.2-.13.389-.275.567l-.617.753-1.861-1.527.553-.675c.258-.313.536-.491.836-.532.299-.042.593.059.888.301zm-.32.393c-.2-.164-.396-.236-.586-.22s-.365.122-.523.315l-.227.274 1.259 1.033.271-.33a.644.644 0 0 0 .154-.541c-.033-.192-.151-.369-.348-.531zm-81.007.783l-1.525 1.322-.33-.381 1.525-1.322-.509-.588.294-.256 1.35 1.559-.294.255-.511-.589zm.722 3.693l.727-.733-.745-.739-.727.733-.358-.354 1.695-1.711.358.355-.675.681.746.739.675-.682.358.354-1.695 1.71-.359-.353zm1.434 1.177l1.254-2.056 1.616.985-.203.333-1.186-.725-.315.517 1.097.67-.203.332-1.097-.669-.331.541 1.246.762-.203.332-1.675-1.022zm4.222 2.1l.736-2.293.48.154-.617 1.922 1.23.396-.119.371-1.71-.55zm4.309 1.211l-.06-.647-.891-.221-.354.547-.49-.121 1.43-2.127.578.143.272 2.547-.485-.121zm-.165-2.139l-.019.032-.073.127c-.028.048-.192.304-.493.77l.672.166-.065-.729-.016-.243-.006-.123zm2.919 2.787l-.587-2.048a4.25 4.25 0 0 1-.071.43l-.332 1.381-.436-.104.562-2.342.56.135.599 2.065c.02-.172.047-.327.08-.464l.327-1.361.436.104-.562 2.342-.576-.138zm3.902-.195c-.07.238-.178.433-.324.583a1.019 1.019 0 0 1-.517.29 1.246 1.246 0 0 1-.629-.032l-.934-.275.681-2.31.836.246c.389.115.661.302.816.562.155.258.179.572.071.936zm-.487-.144c.073-.248.064-.457-.026-.625-.09-.168-.255-.289-.495-.358l-.343-.101-.46 1.562.41.121a.65.65 0 0 0 .559-.067c.164-.109.283-.286.355-.532zm4.763 2.011a1.367 1.367 0 0 1-.43.51 1.004 1.004 0 0 1-.563.185 1.234 1.234 0 0 1-.611-.151l-.864-.45 1.113-2.136.772.403c.36.188.591.422.693.707.102.283.066.594-.11.932zm-.45-.233c.12-.229.151-.437.095-.619-.057-.183-.195-.332-.417-.447l-.317-.164-.752 1.443.379.197c.192.1.379.113.561.04s.333-.224.451-.45zm.529 1.819l1.444-1.927.403.303-1.444 1.927-.403-.303zm2.02 1.69l-.376-.346.975-2.375.387.356-.682 1.474c-.045.096-.117.234-.215.42l.126-.084.272-.167 1.411-.804.383.354-2.281 1.172zm1.158 1.138l1.723-1.683.352.36-1.723 1.683-.352-.36zm3.393 1.79a1.385 1.385 0 0 1-.573.34.999.999 0 0 1-.593-.009 1.27 1.27 0 0 1-.528-.345l-.668-.709 1.751-1.652.599.634c.278.295.419.594.423.896s-.133.583-.411.845zm-.348-.369c.188-.178.286-.362.292-.553.007-.191-.075-.379-.247-.561l-.245-.26-1.185 1.118.293.312a.65.65 0 0 0 .517.221c.197-.007.389-.101.575-.277zm.106 1.888l1.695-1.711 1.345 1.333-.274.277-.987-.979-.426.43.913.904-.274.276-.913-.904-.446.45 1.037 1.027-.274.275-1.396-1.378zm4.617 2.505c-.156.193-.33.332-.522.414a.996.996 0 0 1-.588.071c-.2-.035-.39-.125-.569-.271l-.759-.61 1.511-1.875.679.547c.316.255.496.531.541.83.044.298-.053.596-.293.894zm-.395-.319c.162-.201.234-.397.214-.588-.019-.19-.126-.364-.32-.521l-.278-.224-1.022 1.27.333.269a.635.635 0 0 0 .542.148c.193-.035.37-.154.531-.354zm6.332 1.762h2.146v.75h-2.146z" fill="#252F6B"/></svg>