<svg id="Layer_1" data-name="Layer 1" xmlns="http://www.w3.org/2000/svg" xmlns:xlink="http://www.w3.org/1999/xlink" viewBox="0 0 288 288"><defs><style>.cls-1{fill:url(#linear-gradient);}</style><linearGradient id="linear-gradient" x1="93.22" y1="93.25" x2="199.15" y2="199.19" gradientUnits="userSpaceOnUse"><stop offset="0" stop-color="#00b3a5"/><stop offset="1" stop-color="#ff68f0"/></linearGradient></defs><path class="cls-1" d="M242.35,139.64l0,0-17.12,34.23L191,191l0,0-17.11,34.23-34.18,17.09-.05,0-17.11,34.23-23,11.48h.69l22.47-11.23,0,0,17.11-34.23L174,225.48l.05,0,17.11-34.23,34.18-17.09,0,0,17.12-34.23,34.18-17.09,0,0L288,100.26v-.69l-11.49,23Zm-4.28-4.28,0,0-17.11,34.23L186.74,186.7l-.05,0L169.58,221,135.4,238l-.05,0-17.11,34.23L86.7,288.05h.69l31-15.51,0,0,17.11-34.23,34.18-17.09.05,0L186.92,187l34.18-17.09.05,0,17.11-34.23,34.18-17.09,0,0L288,87.42v-.68l-15.77,31.53Zm17.07-85.54L238,84.05l-34.18,17.09,0,0-17.11,34.22-34.18,17.09,0,0-17.11,34.22-34.18,17.09,0,0L84,238.06,49.83,255.15l0,0L33.35,288.05h.34L50,255.4,84.2,238.31l0,0,17.12-34.22L135.54,187l0,0,17.11-34.22,34.18-17.09,0,0L204,101.39,238.21,84.3l0,0,17.11-34.23L288,33.72v-.34L255.19,49.8Zm4.28,4.28L242.31,88.32l-34.18,17.09,0,0L191,139.66l-34.18,17.09,0,0L139.63,191l-34.18,17.09,0,0L88.29,242.34,54.11,259.43l0,0-14.31,28.6h.35l14.18-28.37,34.19-17.09,0,0,17.11-34.23,34.18-17.09.05,0L157,157l34.18-17.09,0,0,17.11-34.22,34.18-17.09,0,0,17.11-34.22L288,40.14V39.8L259.47,54.08Zm21.39,124.07L263.7,212.39l-34.18,17.09-.05,0-17.11,34.22-34.18,17.09-.05,0-3.6,7.21h.34l3.49-7L212.54,264l.05,0,17.11-34.23,34.18-17.08.05,0L281,178.4l7-3.49v-.35l-7.16,3.58Zm4.28,4.28L268,216.67,233.8,233.76l-.05,0L216.64,268,182.46,285.1l-.05,0L181,288.05h.34l1.35-2.7,34.18-17.09.05,0L234,234l34.18-17.09,0,0,17.11-34.23,2.7-1.35V181l-2.89,1.44ZM250.91,148.2l0,0-17.11,34.23-34.18,17.08,0,0-17.11,34.22-34.18,17.09,0,0-17.12,34.22-5.86,2.93h.69l5.36-2.68,0,0,17.12-34.22L182.6,234l0,0,17.11-34.22,34.18-17.09,0,0,17.11-34.22,34.18-17.09.05,0,2.7-5.41v-.69l-2.93,5.87Zm-4.28-4.28,0,0-17.12,34.23-34.18,17.09,0,0-17.12,34.23L144,246.6l0,0L126.8,280.84l-14.43,7.21h.69L127,281.1l0,0,17.12-34.22,34.18-17.09,0,0,17.12-34.22,34.18-17.09,0,0,17.11-34.23L281,127.08l.05,0,7-14v-.69l-7.21,14.43Zm29.9-72.71-17.11,34.23-34.18,17.09-.05,0-17.11,34.23L173.9,173.87l0,0-17.12,34.22L122.56,225.2l0,0L105.4,259.45,71.22,276.54l0,0-5.75,11.48h.35l5.63-11.25,34.18-17.09,0,0,17.12-34.22,34.18-17.09,0,0,17.12-34.22L208.27,157l0,0,17.11-34.23,34.18-17.09,0,0,17.11-34.23L288,65.81v-.34l-11.44,5.72Zm8.56,8.56L268,114,233.8,131.08l-.05,0-17.11,34.22-34.18,17.09-.05,0L165.3,216.67l-34.18,17.09-.05,0L114,268,79.78,285.1l0,0-1.47,2.93h.34l1.35-2.7,34.18-17.09,0,0L131.3,234l34.18-17.09.05,0,17.11-34.23,34.18-17.09.05,0L234,131.34l34.18-17.09,0,0L285.32,80l2.7-1.35V78.3l-2.89,1.44Zm-4.28-4.28L263.7,109.72l-34.18,17.09-.05,0-17.11,34.22-34.18,17.09-.05,0L161,212.39l-34.18,17.09,0,0-17.12,34.22L75.5,280.82l0,0-3.61,7.21h.35l3.49-7L109.87,264l0,0L127,229.73l34.18-17.08.05,0,17.11-34.22,34.18-17.09.05,0,17.11-34.22L263.88,110l.05,0L281,75.72l7-3.49v-.35l-7.16,3.59ZM263.7,58.38,246.58,92.6l-34.17,17.09,0,0-17.11,34.22L161.07,161l0,0-17.11,34.23-34.18,17.09,0,0L92.57,246.62,58.39,263.71l0,0L46.18,288.05h.35l12-24.09,34.18-17.09,0,0,17.11-34.23,34.18-17.09,0,0,17.11-34.23,34.18-17.09,0,0,17.11-34.23,34.18-17.08,0,0,17.12-34.22,24.09-12v-.35L263.74,58.35ZM250.91,45.52l0,0L233.75,79.77,199.57,96.86l0,0-17.11,34.23L148.23,148.2l0,0-17.12,34.23L96.89,199.53l0,0L79.74,233.78,45.55,250.87l0,0L28.4,285.12l-5.87,2.93h.69l5.36-2.68.05,0,17.11-34.22L79.92,234l0,0,17.12-34.22,34.18-17.09,0,0,17.12-34.22,34.18-17.09,0,0,17.11-34.23L233.93,80l0,0,17.11-34.23,34.18-17.09.05,0,2.7-5.41v-.69l-2.93,5.87ZM268,62.66,250.86,96.88,216.68,114l0,0-17.12,34.23-34.18,17.09,0,0-17.11,34.23L114,216.65l-.05,0L96.85,250.9,62.67,268l-.05,0-10,20h.34l9.91-19.81L97,251.15l0,0,17.11-34.23,34.18-17.09,0,0,17.11-34.23,34.18-17.09,0,0,17.12-34.23,34.18-17.09,0,0,17.12-34.23L288,53v-.35l-20,10Zm8.55,111.23-17.11,34.22L225.24,225.2l-.05,0-17.11,34.22L173.9,276.54l0,0-5.75,11.48h.35l5.63-11.25,34.18-17.09,0,0,17.11-34.22,34.18-17.09,0,0,17.11-34.22L288,168.49v-.35l-11.44,5.73Zm4.28-149.74L246.63,41.24l0,0L229.47,75.49,195.29,92.58l0,0-17.12,34.23L144,143.92l0,0L126.8,178.17,92.62,195.26l-.05,0L75.46,229.51,41.28,246.6l-.05,0L24.12,280.84,9.7,288.05h.68L24.3,281.1l.05,0,17.11-34.22,34.18-17.09,0,0L92.8,195.51,127,178.42l0,0,17.12-34.23,34.18-17.09,0,0,17.12-34.23,34.18-17.09,0,0,17.11-34.23L281,24.4l.05,0,7-14V9.73Zm-8.56,42.78-17.11,34.23L221,118.25l0,0L203.8,152.5l-34.18,17.09,0,0-17.12,34.23-34.18,17.09,0,0-17.11,34.22L67,272.26l0,0L59,288.05h.34l7.77-15.53,34.18-17.09,0,0,17.11-34.22,34.18-17.09,0,0,17.12-34.23L204,152.75l0,0,17.12-34.23,34.18-17.09,0,0,17.11-34.23L288,59.39v-.34L272.3,66.91Zm-8.55,196.8-12.16,24.32h.34L263.93,264l24.09-12v-.34l-24.28,12.14ZM268,268l-10,20h.35l9.91-19.81L288,258.33V258l-20,10Zm-12.84-12.84L238.7,288.05h.35l16.32-32.65L288,239.08v-.35l-32.83,16.42Zm17.11,17.12-7.88,15.76h.35l7.76-15.53L288,264.75v-.35l-15.72,7.86Zm-21.34-21.42,0,0-17.11,34.22-5.87,2.93h.69l5.36-2.68,0,0,17.11-34.22L285.27,234l.05,0,2.7-5.4v-.69l-2.93,5.86Zm34.18,34.25-1.47,2.93H284l1.35-2.7L288,284v-.34l-2.89,1.44Zm-4.28-4.28-3.6,7.21h.34l3.49-7,7-3.49v-.34l-7.16,3.58Zm-8.56-111.23-17.11,34.23L221,220.93l0,0L203.8,255.17l-34.18,17.09,0,0-7.89,15.76H162l7.77-15.53L204,255.43l0,0,17.12-34.22,34.18-17.09,0,0,17.11-34.23L288,162.07v-.34l-15.72,7.86Zm4.28,107-5.74,11.48h.34l5.63-11.25L288,271.17v-.35l-11.44,5.72Zm-29.9-30,0,0-17.12,34.22-14.42,7.21h.69l13.92-6.95,0,0,17.11-34.22L281,229.76l.05,0,7-14v-.69l-7.21,14.43Zm12.79-89.82L242.31,191l-34.18,17.09,0,0L191,242.34l-34.18,17.09,0,0-14.3,28.6h.35L157,259.68l34.18-17.09,0,0,17.11-34.23,34.18-17.09,0,0L259.65,157,288,142.82v-.35l-28.55,14.28Zm8.56,8.55-17.12,34.23-34.18,17.09,0,0L199.52,250.9,165.34,268l0,0-10,20h.34l9.91-19.81,34.18-17.09,0,0,17.12-34.23,34.18-17.09,0,0,17.12-34.23L288,155.65v-.34l-20,10Zm-4.28-4.28-17.11,34.23-34.18,17.09,0,0-17.11,34.23-34.18,17.09,0,0-12.16,24.32h.34L161.25,264l34.18-17.09,0,0,17.11-34.23,34.18-17.09,0,0,17.12-34.23,24.09-12v-.35L263.74,161Zm-8.56-8.55L238,186.72l-34.18,17.09,0,0-17.11,34.22-34.18,17.09,0,0L136,288.05h.35l16.32-32.65,34.18-17.09,0,0L204,204.07,238.21,187l0,0,17.11-34.22L288,136.4v-.34l-32.83,16.41Zm-12.79,89.82,0,0-17.12,34.23-23,11.48h.68l22.48-11.23,0,0,17.12-34.23,34.18-17.09,0,0L288,202.94v-.69l-11.49,23ZM238.07,238l0,0-17.11,34.23-31.54,15.76h.69l31-15.51.05,0,17.11-34.23,34.18-17.09,0,0L288,190.1v-.69L272.25,221Zm21.35,21.41-14.3,28.6h.34l14.19-28.37L288,245.5v-.35l-28.55,14.28ZM20.07,122.78l34.18-17.09,0,0L71.41,71.44l34.18-17.09,0,0L122.75,20.1,156.93,3l0,0L158.44.05h-.34l-1.36,2.71L122.56,19.85l0,0L105.4,54.1,71.22,71.19l0,0L54.07,105.44,19.89,122.53l-.05,0L2.73,156.78,0,158.13v.34L3,157Zm-8.56,42.78,17.12-34.22,34.18-17.09,0,0L80,80l34.18-17.09,0,0L131.3,28.66l34.18-17.09.05,0L171.27.05h-.34L165.3,11.32,131.12,28.41l-.05,0L114,62.66,79.78,79.74l0,0L62.62,114,28.44,131.08l0,0L11.28,165.33,0,171v.35l11.45-5.73Zm29.9,30,.05,0,17.11-34.23,34.18-17.09,0,0,17.11-34.23,34.18-17.08,0,0,17.11-34.22,34.18-17.09,0,0L212.59,7.27,227,.05h-.68L212.41,7l0,0L195.25,41.26,161.07,58.35l0,0L143.91,92.6l-34.18,17.09,0,0L92.57,143.94,58.39,161l0,0L41.23,195.28,7.05,212.37l0,0-7,14v.69l7.21-14.43Zm-4.27-4.28,0,0L54.29,157l34.19-17.09,0,0,17.11-34.22,34.18-17.09.05,0L157,54.33l34.18-17.09,0,0L208.31,3,214.18.05h-.69l-5.36,2.69,0,0L191,37,156.79,54.08l0,0L139.63,88.32l-34.18,17.09,0,0L88.29,139.66,54.11,156.75l0,0L37,191,2.77,208.09l0,0L0,213.52v.69L3,208.34ZM8.83.05H8.14L2.77,2.74l0,0L0,8.17v.69L3,3ZM24.35,178.4l17.11-34.23,34.18-17.09,0,0L92.8,92.83,127,75.74l0,0,17.12-34.23L178.32,24.4l0,0L190.53.05h-.35l-12.05,24.1L144,41.24l0,0L126.79,75.49,92.62,92.58l-.05,0L75.46,126.83,41.28,143.92l-.05,0L24.12,178.17,0,190.21v.35L24.3,178.42Zm-4.28-4.28,17.11-34.23L71.36,122.8l0,0L88.52,88.55,122.7,71.46l0,0,17.11-34.22L174,20.13l.05,0,10-20h-.35l-9.9,19.82L139.68,37l-.05,0L122.52,71.21,88.34,88.3l0,0L71.18,122.55,37,139.64l0,0L19.84,173.89,0,183.8v.34l20-10Zm-4.28-4.28L32.9,135.61l34.18-17.09,0,0L84.24,84.28l34.18-17.09,0,0,17.11-34.22,34.18-17.09.05,0L177.69.05h-.34L169.58,15.6,135.4,32.68l-.05,0L118.24,66.93,84.06,84l0,0L66.9,118.27,32.72,135.36l0,0L15.56,169.61,0,177.38v.34l15.73-7.86Zm-4.28,98.4L28.63,234l34.18-17.09,0,0L80,182.67l34.18-17.09,0,0,17.11-34.22,34.18-17.09.05,0L182.64,80l34.18-17.09.05,0L234,28.66l34.18-17.09,0,0L274,.05h-.34L268,11.32,233.8,28.41l-.05,0L216.64,62.66,182.46,79.74l-.05,0L165.3,114l-34.18,17.09-.05,0L114,165.33,79.78,182.42l0,0L62.62,216.67,28.44,233.76l0,0L11.28,268,0,273.64V274l11.45-5.72ZM7.23,264l17.12-34.23,34.18-17.08,0,0L75.69,178.4l34.18-17.09,0,0L127,127.06,161.2,110l.05,0,17.11-34.22,34.18-17.09.05,0L229.7,24.38,263.88,7.29l.05,0,3.6-7.22h-.34L263.7,7,229.52,24.13l-.05,0L212.36,58.38,178.18,75.47l-.05,0L161,109.72l-34.18,17.09,0,0-17.12,34.22L75.5,178.14l0,0L58.34,212.39,24.16,229.48l0,0L7,263.73l-7,3.49v.35L7.19,264Zm12.84-38.5,34.18-17.09,0,0,17.12-34.22L105.59,157l0,0,17.12-34.23,34.18-17.09,0,0,17.12-34.23,34.18-17.09,0,0L225.42,20.1,259.6,3l0,0L261.12.05h-.35l-1.35,2.71L225.24,19.85l-.05,0L208.08,54.1,173.9,71.19l0,0-17.12,34.23-34.18,17.09,0,0L105.4,156.78,71.22,173.87l0,0L54.07,208.11,19.89,225.2l-.05,0L2.73,259.45,0,260.8v.35L3,259.68Zm25.62-25.65.05,0,17.11-34.23L97,148.47l0,0,17.11-34.23,34.18-17.09,0,0,17.11-34.23,34.18-17.09,0,0,17.12-34.22,23-11.5h-.69L216.68,11.29l0,0L199.52,45.54,165.34,62.63l0,0L148.19,96.88,114,114l-.05,0L96.85,148.22,62.67,165.31l-.05,0L45.51,199.56,11.33,216.65l-.05,0L0,239.19v.69l11.49-23Zm-25.62,77,17.11-34.23,34.18-17.09,0,0,17.11-34.23,34.18-17.09,0,0,17.11-34.23L174,122.8l.05,0L191.2,88.55l34.18-17.09,0,0,17.12-34.22,34.18-17.09,0,0,10-20h-.35l-9.91,19.82L242.35,37l0,0L225.19,71.21,191,88.3l0,0-17.11,34.23-34.18,17.09-.05,0-17.11,34.23L88.34,191l0,0L71.18,225.23,37,242.32l0,0L19.84,276.57,0,286.47v.35l20-10ZM50,204.09l.05,0,17.11-34.23,34.18-17.09,0,0,17.11-34.23,34.18-17.09,0,0,17.12-34.23L204,50.07l0,0,17.12-34.23L252.68.05H252L221,15.57l0,0L203.8,49.82,169.62,66.91l0,0-17.12,34.23-34.18,17.09,0,0L101.13,152.5,67,169.59l0,0L49.79,203.84,15.61,220.93l0,0L0,252v.69l15.77-31.54ZM28.63,182.67l17.11-34.22,34.18-17.09,0,0L97.08,97.11,131.26,80l0,0,17.12-34.23L182.6,28.68l0,0L196.94.05h-.34L182.41,28.43,148.23,45.52l0,0L131.07,79.77,96.89,96.86l0,0L79.74,131.11,45.55,148.2l0,0L28.4,182.45,0,196.63V197L28.58,182.7ZM15.79,272.52,32.9,238.29,67.08,221.2l0,0L84.24,187l34.18-17.09,0,0,17.11-34.23,34.18-17.09.05,0,17.11-34.22L221.1,67.19l.05,0,17.11-34.22,34.18-17.09,0,0L280.37.05H280L272.25,15.6,238.07,32.68l0,0L220.92,66.93,186.74,84l-.05,0-17.11,34.22L135.4,135.36l-.05,0-17.11,34.23L84.06,186.7l0,0L66.9,221,32.72,238l0,0L15.56,272.29,0,280.06v.34l15.73-7.86ZM7.23,161.28l17.12-34.22L58.53,110l0,0L75.69,75.72l34.18-17.09,0,0L127,24.38,161.2,7.29l.05,0L164.86.05h-.35L161,7,126.84,24.13l0,0L109.68,58.38,75.5,75.47l0,0L58.34,109.72,24.16,126.81l0,0L7,161.05l-7,3.5v.34l7.17-3.58Zm8.56-94.12L32.9,32.94,67.08,15.85l0,0L75,.05h-.34L66.9,15.6,32.72,32.68l0,0L15.56,66.93,0,74.7v.35l15.73-7.86Zm8.56,8.56L41.46,41.49,75.64,24.4l0,0L87.85.05H87.5l-12,24.1L41.28,41.24l-.05,0L24.12,75.49,0,87.54v.34L24.3,75.74ZM28.63,80,45.74,45.77,79.92,28.68l0,0L94.27.05h-.35L79.74,28.43,45.55,45.52l0,0L28.4,79.77,0,94v.35L28.58,80Zm-8.56-8.56L37.18,37.22,71.36,20.13l0,0,10-20h-.34L71.18,19.87,37,37l0,0L19.84,71.21,0,81.12v.34l20-10ZM32.9,84.28,50,50.05,84.2,33l0,0L100.68.05h-.34L84,32.71,49.83,49.8l0,0L32.67,84.05,0,100.37v.35L32.86,84.3ZM21.66.05H21L7.05,7,7,7,0,21v.69L7.23,7.27Zm25.67,0h-.69l-31,15.52,0,0L0,46.67v.69L15.79,15.82ZM34.5.05h-.69L11.33,11.29l-.05,0L0,33.84v.69l11.49-23Zm2.64,88.53,0,0L54.29,54.33,88.48,37.24l0,0L105.63,3,111.5.05h-.69l-5.36,2.69,0,0L88.29,37,54.11,54.08l0,0L37,88.32,2.77,105.41l0,0L0,110.85v.68L3,105.67ZM11.51,62.88,28.63,28.66,62.81,11.57l0,0L68.6.05h-.35L62.62,11.32,28.44,28.41l0,0L11.28,62.66,0,68.29v.34l11.45-5.72ZM50,101.41l.05,0L67.13,67.16l34.18-17.09,0,0,17.11-34.23L150,.05h-.69l-31,15.52,0,0L101.13,49.82,67,66.91l0,0L49.79,101.16,15.61,118.25l0,0L0,149.35V150L15.79,118.5Zm-8.56-8.55.05,0L58.57,58.61,92.75,41.52l0,0L109.91,7.27,124.34.05h-.69L109.73,7l0,0L92.57,41.26,58.39,58.35l0,0L41.23,92.6,7.05,109.69l0,0-7,14v.69l7.21-14.43Zm4.28,4.27.05,0L62.85,62.88,97,45.79l0,0,17.11-34.22,23-11.5h-.69L114,11.29l-.05,0L96.85,45.54,62.67,62.63l-.05,0L45.51,96.88,11.33,114l-.05,0L0,136.51v.69l11.49-23ZM7.23,58.61,24.35,24.38,58.53,7.29l0,0L62.18.05h-.34l-3.5,7L24.16,24.13l0,0L7,58.38,0,61.87v.34l7.17-3.58ZM20.07,20.1,54.25,3l0,0L55.76.05h-.34L54.07,2.76,19.89,19.85l-.05,0L2.73,54.1,0,55.45v.35L3,54.33ZM32.9,187,50,152.73,84.2,135.64l0,0,17.12-34.22L135.54,84.3l0,0,17.11-34.23L186.87,33l0,0L203.36.05H203L186.69,32.71,152.51,49.8l0,0L135.35,84.05l-34.18,17.09,0,0L84,135.38,49.83,152.47l0,0L32.67,186.72,0,203.05v.34L32.86,187Z" transform="translate(-0.02 -0.05)"/></svg>