<?xml version="1.0" encoding="utf-8"?>
<!-- Generator: Adobe Illustrator 24.2.3, SVG Export Plug-In . SVG Version: 6.00 Build 0)  -->
<svg version="1.1" id="Layer_1" xmlns="http://www.w3.org/2000/svg" xmlns:xlink="http://www.w3.org/1999/xlink" x="0px" y="0px"
   viewBox="0 0 288 288" style="enable-background:new 0 0 288 288;" xml:space="preserve">
<style type="text/css">
  .st0{fill:url(#SVGID_1_);}
</style>
<linearGradient id="SVGID_1_" gradientUnits="userSpaceOnUse" x1="93.4556" y1="196.5414" x2="199.3856" y2="90.6014" gradientTransform="matrix(1 0 0 -1 -2.000000e-02 289.95)">
  <stop  offset="0" style="stop-color:#7990A0;stop-opacity:0.92"/>
  <stop  offset="0.146" style="stop-color:#8E8191;stop-opacity:0.9317"/>
  <stop  offset="0.5385" style="stop-color:#C15D6C;stop-opacity:0.9631"/>
  <stop  offset="0.8354" style="stop-color:#E04655;stop-opacity:0.9868"/>
  <stop  offset="1" style="stop-color:#EC3E4C"/>
</linearGradient>
<path class="st0" d="M242.6,139.7L242.6,139.7L225.5,174l-34.2,17.1l0,0l-17.1,34.2L140,242.4h-0.1l-17.1,34.2l-23,11.5h0.7
  l22.5-11.2l0,0l17.1-34.2l34.2-17.1h0.1l17.1-34.2l34.2-17.1l0,0l17.1-34.2l34.2-17.1l0,0l11.4-22.6v-0.7l-11.5,23L242.6,139.7z
   M238.3,135.5L238.3,135.5l-17.1,34.2L187,186.8H187l-17.1,34.3l-34.2,17h-0.1l-17.1,34.2L87,288.2h0.7l31-15.5l0,0l17.1-34.2
  l34.2-17.1h0.1l17.2-34.2l34.2-17.1h0.1l17.1-34.2l34.2-17.1l0,0l15.6-31.2v-0.7l-15.8,31.5L238.3,135.5z M255.4,49.9l-17.1,34.2
  l-34.2,17.1l0,0L187,135.5l-34.2,17.1l0,0l-17.1,34.2l-34.2,17.1l0,0l-17.2,34.3l-34.2,17.1l0,0l-16.5,32.9H34l16.3-32.6l34.2-17.1
  l0,0l17.1-34.2l34.2-17.1l0,0l17.1-34.2l34.2-17.1l0,0l17.2-34.3l34.2-17.1l0,0l17.1-34.2l32.7-16.4v-0.3L255.4,49.9L255.4,49.9z
   M259.7,54.2l-17.1,34.2l-34.2,17.1l0,0l-17.1,34.3l-34.2,17.1l0,0l-17.2,34.2l-34.2,17.1l0,0l-17.2,34.2l-34.2,17.1l0,0l-14.3,28.6
  h0.3l14.2-28.4l34.2-17.1l0,0l17.1-34.2l34.2-17.1h0.1l17.1-34.3l34.2-17.1l0,0l17.1-34.2l34.2-17.1l0,0l17.1-34.2l28.4-14.2v-0.3
  L259.7,54.2L259.7,54.2z M281.1,178.3L264,212.5l-34.2,17.1h-0.1l-17.1,34.2l-34.2,17.1h-0.1l-3.6,7.2h0.3l3.5-7l34.2-17h0.1
  l17.1-34.2l34.2-17.1h0l17.1-34.3l7-3.5v-0.4L281.1,178.3L281.1,178.3z M285.4,182.6l-17.1,34.2l-34.2,17.1H234l-17.1,34.2
  l-34.2,17.1h-0.1l-1.4,2.9h0.3l1.4-2.7l34.2-17.1h0.1l17.1-34.3l34.2-17.1l0,0l17.1-34.2l2.7-1.4v-0.3L285.4,182.6L285.4,182.6z
   M251.2,148.3L251.2,148.3l-17.1,34.2l-34.2,17.1l0,0l-17.1,34.2l-34.2,17.1l0,0l-17.1,34.2l-5.9,2.9h0.7l5.4-2.7l0,0l17.1-34.2
  l34.1-17.1l0,0l17.1-34.2l34.2-17.1l0,0l17.1-34.2l34.2-17.1h0l2.7-5.4v-0.7l-2.9,5.9L251.2,148.3z M246.9,144L246.9,144l-17.1,34.2
  l-34.2,17.1l0,0l-17.1,34.2l-34.2,17.1l0,0l-17.2,34.2l-14.4,7.2h0.7l13.9-6.9l0,0l17.1-34.2l34.2-17.1l0,0l17.1-34.2l34.2-17.1l0,0
  l17.1-34.2l34.3-17.2h0l7-14v-0.7l-7.2,14.4L246.9,144z M276.8,71.3l-17.1,34.2l-34.2,17.1h-0.1l-17.1,34.2L174.2,174l0,0
  l-17.1,34.2l-34.2,17.1l0,0l-17.2,34.3l-34.2,17.1l0,0l-5.8,11.5h0.3l5.6-11.2l34.2-17.1l0,0l17.1-34.2l34.2-17.1l0,0l17.1-34.2
  l34.2-17.2l0,0l17.1-34.2l34.2-17.1l0,0l17.1-34.2l11.3-5.6v-0.3L276.8,71.3L276.8,71.3z M285.4,79.9l-17.1,34.2l-34.2,17.1H234
  l-17.1,34.2l-34.2,17.1h-0.1l-17.1,34.3l-34.2,17.1h-0.1l-17.1,34.2l-34.2,17.1l0,0l-1.5,2.9h0.3l1.3-2.7l34.2-17.1l0,0l17.1-34.2
  l34.2-17.1h0.1l17.1-34.2l34.2-17.1h0.1l17.1-34.3l34.2-17.1l0,0l17.1-34.2l2.7-1.3v-0.3L285.4,79.9L285.4,79.9z M281.1,75.6
  L264,109.8l-34.2,17.1h-0.1l-17.1,34.2l-34.2,17.1h-0.1l-17.1,34.3l-34.2,17.1l0,0L110,263.8l-34.2,17.1l0,0l-3.6,7.2h0.3l3.5-7
  l34.1-17l0,0l17.1-34.3l34.2-17.1h0.1l17.1-34.2l34.2-17.1h0.1l17.1-34.2l34.2-17.1h0l17.1-34.3l7-3.5V72L281.1,75.6L281.1,75.6z
   M264,58.5l-17.1,34.2l-34.2,17.1l0,0L195.6,144l-34.2,17.1l0,0l-17.1,34.2l-34.2,17.1l0,0l-17.2,34.3l-34.2,17.1l0,0l-12.2,24.3
  h0.3l12-24.1L93,247l0,0l17.1-34.2l34.2-17.1l0,0l17.1-34.2l34.2-17.1l0,0l17.1-34.2L246.9,93l0,0L264,58.8l24.1-12v-0.3L264,58.5
  L264,58.5z M251.2,45.6L251.2,45.6L234,79.9L199.8,97l0,0l-17.1,34.2l-34.2,17.1l0,0l-17.1,34.2l-34.2,17.1l0,0L80,233.9L45.8,251
  l0,0l-17.1,34.2l-5.9,2.9h0.7l5.4-2.7h0L46,251.3l34.2-17.1l0,0l17.1-34.2l34.2-17.1l0,0l17.1-34.2l34.2-17.1l0,0l17.1-34.2
  l34.3-17.2l0,0l17.1-34.2l34.2-17.1h0l2.7-5.4v-0.7l-2.9,5.9L251.2,45.6z M268.3,62.8L251.1,97L217,114.1l0,0l-17.1,34.2l-34.2,17.1
  l0,0l-17.1,34.2l-34.3,17.1h-0.1L97.1,251l-34.2,17.1h0l-10,20h0.3l9.9-19.8l34.1-17l0,0l17.1-34.2l34.2-17.1l0,0l17.1-34.2
  l34.2-17.1l0,0l17.1-34.2l34.2-17.1l0,0l17.1-34.2l20-10v-0.3L268.3,62.8L268.3,62.8z M276.8,174l-17.1,34.2l-34.2,17.1h-0.1
  l-17.1,34.2l-34.2,17.1l0,0l-5.8,11.5h0.4l5.6-11.2l34.2-17.1l0,0l17.1-34.2l34.2-17.1l0,0l17.1-34.2l11.3-5.7v-0.4L276.8,174
  L276.8,174z M281.1,24.3l-34.2,17.1l0,0l-17.2,34.2l-34.2,17.1l0,0l-17.1,34.2L144.3,144l0,0l-17.2,34.2l-34.2,17.1h-0.1l-17.1,34.2
  l-34.2,17.1h0l-17.1,34.2L10,288.2h0.7l13.9-6.9h0L41.7,247l34.2-17.1l0,0l17.2-34.3l34.2-17.1l0,0l17.1-34.2l34.2-17.1l0,0
  L195.7,93l34.2-17.1l0,0L247,41.7l34.3-17.2h0l7-14V9.8L281.1,24.3z M272.5,67l-17.1,34.2l-34.2,17.1l0,0l-17.2,34.3l-34.2,17.1l0,0
  l-17.1,34.2L118.6,221l0,0l-17.1,34.2l-34.2,17.1l0,0l-8,15.8h0.3l7.8-15.5l34.2-17.1l0,0l17.1-34.2l34.2-17.1l0,0L170,170
  l34.3-17.1l0,0l17.1-34.2l34.2-17.1l0,0l17.1-34.2l15.6-7.8v-0.3L272.5,67L272.5,67z M264,263.8l-12.2,24.3h0.3l12-24l24.1-12v-0.3
  L264,263.8L264,263.8z M268.3,268.1l-10,20h0.4l9.9-19.8l19.7-9.9v-0.3L268.3,268.1z M255.4,255.3L239,288.2h0.4l16.3-32.6
  l32.6-16.3v-0.4L255.4,255.3L255.4,255.3z M272.5,272.4l-7.9,15.8h0.4l7.8-15.5l15.5-7.8v-0.4L272.5,272.4L272.5,272.4z M251.2,251
  L251.2,251l-17.1,34.2l-5.9,2.9h0.7l5.4-2.7l0,0l17.1-34.2l34.2-17.1h0l2.7-5.4V228l-2.9,5.9L251.2,251z M285.4,285.2l-1.5,2.9h0.4
  l1.4-2.7l2.6-1.3v-0.3L285.4,285.2L285.4,285.2z M281.1,280.9l-3.6,7.2h0.3l3.5-7l7-3.5v-0.3L281.1,280.9L281.1,280.9z M272.5,169.7
  l-17.1,34.2L221.3,221l0,0l-17.2,34.2l-34.2,17.1l0,0l-7.9,15.8h0.3l7.8-15.5l34.2-17.1l0,0l17.1-34.2l34.2-17.1l0,0l17.1-34.2
  l15.6-7.8v-0.3L272.5,169.7L272.5,169.7z M276.8,276.7l-5.7,11.5h0.3l5.6-11.2l11.2-5.7v-0.4L276.8,276.7L276.8,276.7z M246.9,246.7
  L246.9,246.7l-17.1,34.2l-14.4,7.2h0.7l13.9-7l0,0l17.1-34.2l34.2-17.1h0l7-14v-0.7l-7.2,14.4L246.9,246.7z M259.7,156.9l-17.1,34.2
  l-34.2,17.1l0,0l-17.1,34.2l-34.2,17.1l0,0l-14.3,28.6h0.4l14.1-28.4l34.2-17.1l0,0l17.1-34.2l34.2-17.1l0,0l17.2-34.3l28.4-14.2
  v-0.4L259.7,156.9L259.7,156.9z M268.3,165.4l-17.1,34.2L217,216.8l0,0L199.8,251l-34.2,17.1l0,0l-10,20h0.3l9.9-19.8l34.2-17.1l0,0
  l17.1-34.2l34.2-17.1l0,0l17.1-34.2l19.8-9.9v-0.3L268.3,165.4L268.3,165.4z M264,161.2l-17.1,34.2l-34.2,17.1l0,0l-17.1,34.2
  l-34.2,17.1l0,0l-12.2,24.3h0.3l11.9-24l34.2-17.1l0,0l17.1-34.2l34.2-17.1l0,0l17.1-34.2l24.1-12v-0.4L264,161.2L264,161.2z
   M255.4,152.6l-17.2,34.2l-34.2,17.1l0,0L187,238.1l-34.2,17.1l0,0l-16.5,32.9h0.4l16.3-32.6l34.2-17.1l0,0l17.1-34.2l34.2-17.1l0,0
  l17.1-34.2l32.7-16.4v-0.3L255.4,152.6L255.4,152.6z M242.6,242.4L242.6,242.4l-17.1,34.2l-23,11.5h0.7l22.5-11.2l0,0l17.1-34.2
  l34.2-17.1l0,0l11.3-22.5v-0.7l-11.5,23L242.6,242.4z M238.3,238.1L238.3,238.1l-17.1,34.2l-31.5,15.8h0.7l31-15.5h0.1l17.1-34.2
  l34.2-17.1l0,0l15.5-31.1v-0.7l-15.8,31.6L238.3,238.1z M259.7,259.5l-14.3,28.6h0.3l14.2-28.4l28.4-14.1v-0.4L259.7,259.5
  L259.7,259.5z M20.3,122.9l34.2-17.1l0,0l17.2-34.2l34.2-17.1l0,0L123,20.2l34.2-17.1l0,0l1.5-3h-0.3L157,2.9L122.8,20l0,0
  l-17.2,34.2L71.5,71.3l0,0l-17.2,34.2l-34.2,17.1h0L3,156.9l-2.7,1.4v0.3l3-1.5L20.3,122.9z M11.8,165.7l17.1-34.2l34.2-17.1l0,0
  l17.2-34.2L114.5,63l0,0l17.1-34.2l34.2-17.1h0.1l5.7-11.5h-0.3l-5.6,11.3l-34.2,17.1h-0.1l-17.1,34.2L80.1,79.8l0,0l-17.2,34.3
  l-34.2,17.1l0,0l-17.2,34.2l-11.3,5.7v0.4L11.8,165.7L11.8,165.7z M41.7,195.7L41.7,195.7l17.2-34.2L93,144.3l0,0l17.1-34.2
  L144.3,93l0,0l17.1-34.2l34.2-17.1l0,0l17.3-34.4l14.4-7.2h-0.7l-13.9,7l0,0l-17.2,34.3l-34.2,17.1l0,0l-17.2,34.2L110,109.8l0,0
  L92.8,144l-34.2,17.1l0,0l-17.2,34.3L7.3,212.5l0,0l-7,14v0.7l7.2-14.4L41.7,195.7z M37.4,191.4L37.4,191.4l17.2-34.3L88.8,140l0,0
  l17.1-34.2L140,88.7h0.1l17.2-34.3l34.2-17.1l0,0l17.1-34.2l5.9-3h-0.7l-5.4,2.7l0,0l-17.1,34.3l-34.2,17.1l0,0l-17.2,34.2
  l-34.2,17.1l0,0l-17.2,34.3l-34.2,17.1l0,0l-17.1,34.2L3,208.2l0,0l-2.8,5.4v0.7l3-5.9L37.4,191.4z M9.1,0.2H8.4L3,2.8l0,0L0.3,8.3
  V9l3-5.9L9.1,0.2z M24.6,178.5l17.1-34.2l34.2-17.1l0,0l17.2-34.2l34.2-17.1l0,0l17.1-34.2l34.2-17.1l0,0l12.2-24.3h-0.4l-12.1,24.1
  l-34.1,17.1l0,0l-17.2,34.2L92.9,92.7h-0.1l-17.1,34.2L41.6,144h0l-17.1,34.2l-24.1,12v0.4L24.6,178.5L24.6,178.5z M20.3,174.2
  L37.5,140l34.2-17.1l0,0l17.2-34.2L123,71.6l0,0l17.1-34.2l34.2-17.1h0.1l10-20H184l-9.9,19.8L140,37.1h-0.1l-17.1,34.2L88.6,88.4
  l0,0l-17.2,34.2l-34.2,17.1l0,0L20.1,174l-19.8,9.9v0.3L20.3,174.2L20.3,174.2z M16.1,169.9l17.1-34.2l34.2-17.1l0,0l17.2-34.2
  l34.2-17.1l0,0l17.1-34.2L170,16h0.1L178,0.2h-0.3l-7.8,15.6l-34.2,17.1h-0.1L118.5,67L84.3,84.1l0,0l-17.2,34.3L33,135.5l0,0
  l-17.2,34.2l-15.6,7.8v0.3L16.1,169.9L16.1,169.9z M11.8,268.3l17.1-34.2L63.1,217l0,0l17.2-34.2l34.2-17.1l0,0l17.1-34.2l34.2-17.1
  h0.1l17.1-34.3L217.1,63h0.1l17.1-34.2l34.2-17.1l0,0l5.8-11.5h-0.3l-5.7,11.3l-34.2,17.1H234l-17.1,34.2l-34.2,17.1h-0.1
  l-17.1,34.3l-34.2,17.1h-0.1l-17.1,34.2l-34.2,17.1l0,0l-17.2,34.2l-34.2,17.1l0,0l-17.2,34.2l-11.3,5.6v0.4L11.8,268.3L11.8,268.3z
   M7.5,264.1l17.1-34.2l34.2-17.1l0,0L76,178.5l34.2-17.1l0,0l17.1-34.3l34.2-17.1h0.1l17.1-34.2l34.2-17.1h0.1L230,24.5l34.2-17.1h0
  l3.6-7.2h-0.3L264,7.1l-34.2,17.1h-0.1l-17.1,34.2l-34.2,17.1h-0.1l-17.1,34.2l-34.2,17.1l0,0L110,161.1l-34.2,17.1l0,0l-17.2,34.2
  l-34.2,17.1l0,0L7.3,263.8l-7,3.5v0.4L7.5,264.1L7.5,264.1z M20.3,225.6l34.2-17.1l0,0l17.1-34.2l34.2-17.2l0,0l17.1-34.2l34.2-17.1
  l0,0l17.1-34.2l34.2-17.1l0,0l17.2-34.3l34.2-17.1l0,0l1.5-3H261l-1.4,2.7L225.5,20h-0.1l-17.1,34.2l-34.2,17.1l0,0l-17.1,34.2
  l-34.2,17.1l0,0l-17.2,34.3L71.5,174l0,0l-17.2,34.2l-34.2,17.1h0L3,259.6l-2.7,1.3v0.4l3-1.5L20.3,225.6z M46,200L46,200l17.2-34.2
  l34.1-17.2l0,0l17.1-34.2l34.2-17.1l0,0L165.7,63l34.2-17.1l0,0L217,11.7l23-11.5h-0.7L217,11.4l0,0l-17.2,34.2l-34.2,17.1l0,0
  L148.5,97l-34.2,17.1h-0.1l-17.1,34.2l-34.2,17.1h0l-17.1,34.2l-34.2,17.1h-0.1L0.3,239.3v0.7l11.5-23L46,200z M20.3,277l17.1-34.2
  l34.2-17.1l0,0l17.1-34.2l34.2-17.1l0,0l17.1-34.2l34.2-17.2h0.1l17.1-34.2l34.2-17.1l0,0l17.1-34.2L277,20.3l0,0l10-20h-0.4
  l-9.9,19.8l-34.1,17l0,0l-17.2,34.2l-34.2,17.1l0,0l-17.1,34.2L140,139.7h-0.1L122.8,174l-34.2,17.2l0,0l-17.2,34.2l-34.2,17.1l0,0
  l-17.2,34.2l-19.8,9.9v0.4L20.3,277L20.3,277z M50.3,204.2L50.3,204.2L67.4,170l34.2-17.1l0,0l17.1-34.2l34.2-17.1l0,0L170,67.3
  l34.2-17.2l0,0l17.1-34.2L253,0.2h-0.7l-31,15.5l0,0l-17.2,34.2L169.9,67l0,0l-17.1,34.2l-34.2,17.1l0,0l-17.2,34.3l-34.1,17.1l0,0
  l-17.2,34.2L15.9,221l0,0L0.3,252.1v0.7L16,221.3L50.3,204.2z M28.9,182.8L46,148.6l34.2-17.1l0,0l17.2-34.3l34.2-17.1l0,0
  l17.1-34.2l34.2-17.1l0,0l14.3-28.6h-0.3l-14.2,28.4l-34.2,17.1l0,0l-17.2,34.2L97.2,97l0,0L80,131.2l-34.2,17.1l0,0l-17.1,34.2
  L0.3,196.7v0.4L28.9,182.8L28.9,182.8z M16.1,272.6l17.1-34.2l34.2-17.1l0,0l17.2-34.2l34.2-17.1l0,0l17.1-34.2l34.2-17.1h0.1
  l17.1-34.2l34.2-17.2h0.1l17.1-34.2L272.7,16l0,0l7.9-15.8h-0.4l-7.8,15.6l-34.2,17.1l0,0L221.2,67L187,84.1H187l-17.1,34.2
  l-34.2,17.1h-0.1l-17.1,34.2l-34.2,17.1l0,0l-17.2,34.3l-34.2,17l0,0l-17.2,34.3l-15.6,7.8v0.3L16.1,272.6L16.1,272.6z M7.5,161.4
  l17.1-34.2l34.2-17.1l0,0L76,75.8l34.2-17.1l0,0l17.1-34.2l34.2-17.1h0.1l3.6-7.2h-0.4l-3.5,7l-34.2,17.1l0,0L110,58.5L75.8,75.6
  l0,0l-17.2,34.2l-34.2,17.1l0,0L7.3,161.2l-7,3.5v0.3L7.5,161.4L7.5,161.4z M16.1,67.3L33.2,33L67.4,16l0,0l7.9-15.8h-0.3l-7.8,15.6
  L33,32.8l0,0L15.8,67L0.3,74.8v0.3L16.1,67.3L16.1,67.3z M24.6,75.8l17.1-34.2l34.2-17.1l0,0L88.1,0.2h-0.3l-12,24.1L41.6,41.3h0
  L24.4,75.6L0.3,87.6V88L24.6,75.8L24.6,75.8z M28.9,80.1L46,45.9l34.2-17.1l0,0L94.5,0.2h-0.3L80,28.5L45.8,45.6l0,0L28.7,79.9
  L0.3,94.1v0.3L28.9,80.1L28.9,80.1z M20.3,71.5l17.1-34.2l34.2-17.1l0,0l10-20h-0.3L71.5,20L37.3,37.1l0,0L20.1,71.3L0.3,81.2v0.3
  L20.3,71.5L20.3,71.5z M33.2,84.4l17.1-34.2l34.2-17l0,0l16.5-33h-0.3L84.3,32.8L50.1,49.9l0,0L32.9,84.2L0.3,100.5v0.3L33.2,84.4
  L33.2,84.4z M21.9,0.2h-0.7l-14,7H7.3l-7,14v0.7L7.5,7.4L21.9,0.2z M47.6,0.2h-0.7l-31,15.5l0,0L0.3,46.8v0.7l15.8-31.5L47.6,0.2z
   M34.8,0.2h-0.7L11.6,11.4h-0.1L0.3,33.9v0.7l11.5-23L34.8,0.2z M37.4,88.7L37.4,88.7l17.2-34.2l34.2-17.1l0,0l17.1-34.2l5.9-3h-0.7
  l-5.4,2.7l0,0L88.6,37.1L54.4,54.2l0,0L37.3,88.4L3,105.5l0,0L0.3,111v0.7l3-5.9L37.4,88.7z M11.8,63l17.1-34.2l34.2-17.1l0,0
  l5.8-11.5h-0.3l-5.6,11.3L28.7,28.5l0,0L11.6,62.8L0.3,68.4v0.3L11.8,63L11.8,63z M50.3,101.5L50.3,101.5l17.1-34.2l34.2-17.1l0,0
  l17.1-34.2l31.6-15.8h-0.7l-31,15.5l0,0l-17.2,34.2L67.3,67l0,0l-17.2,34.2l-34.2,17.1l0,0L0.3,149.5v0.6l15.8-31.5L50.3,101.5z
   M41.7,93L41.7,93l17.1-34.2L93,41.6l0,0l17.2-34.2l14.4-7.2h-0.7l-13.9,7l0,0L92.8,41.4L58.7,58.5l0,0L41.5,92.7L7.3,109.8l0,0
  l-7,14v0.7l7.2-14.4L41.7,93z M46,97.2L46,97.2L63.1,63l34.2-17.1l0,0l17.1-34.2l23-11.5h-0.7l-22.4,11.2h-0.1L97.1,45.6L62.9,62.7
  h0L45.8,97l-34.2,17.1h-0.1L0.3,136.6v0.7l11.5-23L46,97.2z M7.5,58.7l17.1-34.2L58.8,7.4l0,0l3.7-7.2h-0.3l-3.5,7L24.4,24.2l0,0
  L7.3,58.5l-7,3.5v0.3L7.5,58.7L7.5,58.7z M20.3,20.2L54.5,3.1l0,0l1.5-3h-0.3l-1.3,2.7L20.2,20h0L3,54.2l-2.7,1.4v0.3l3-1.5
  L20.3,20.2z M33.2,187.1l17.1-34.3l34.2-17.1l0,0l17.1-34.2l34.2-17.1l0,0l17.1-34.2l34.2-17.1l0,0l16.5-33h-0.4L187,32.8
  l-34.2,17.1l0,0l-17.2,34.3l-34.2,17.1l0,0l-17.2,34.2l-34.2,17.1l0,0l-17.2,34.2L0.3,203.2v0.3L33.2,187.1L33.2,187.1z"/>
</svg>
