<svg id="Layer_1" data-name="Layer 1" xmlns="http://www.w3.org/2000/svg" viewBox="0 0 42.35 90" style='fill: #2C4951;'><circle cx="8.35" cy="1.02" r="1.02"/><circle cx="8.35" cy="4.68" r="1.02"/><circle cx="12.01" cy="4.68" r="1.02"/><circle cx="15.68" cy="4.68" r="1.02"/><circle cx="19.34" cy="4.68" r="1.02"/><circle cx="4.68" cy="8.35" r="1.02"/><circle cx="8.35" cy="8.35" r="1.02"/><circle cx="12.01" cy="8.35" r="1.02"/><circle cx="15.68" cy="8.35" r="1.02"/><circle cx="19.34" cy="8.35" r="1.02"/><circle cx="1.02" cy="12.01" r="1.02"/><circle cx="4.68" cy="12.01" r="1.02"/><circle cx="8.35" cy="12.01" r="1.02"/><circle cx="12.01" cy="12.01" r="1.02"/><circle cx="15.68" cy="12.01" r="1.02"/><circle cx="19.34" cy="12.01" r="1.02"/><circle cx="23.01" cy="12.01" r="1.02"/><circle cx="26.67" cy="12.01" r="1.02"/><circle cx="4.68" cy="15.68" r="1.02"/><circle cx="8.35" cy="15.68" r="1.02"/><circle cx="12.01" cy="15.68" r="1.02"/><circle cx="15.68" cy="15.68" r="1.02"/><circle cx="19.34" cy="15.68" r="1.02"/><circle cx="23.01" cy="15.68" r="1.02"/><circle cx="26.67" cy="15.68" r="1.02"/><circle cx="4.68" cy="19.34" r="1.02"/><circle cx="8.35" cy="19.34" r="1.02"/><circle cx="12.01" cy="19.34" r="1.02"/><circle cx="15.68" cy="19.34" r="1.02"/><circle cx="19.34" cy="19.34" r="1.02"/><circle cx="23.01" cy="19.34" r="1.02"/><circle cx="26.67" cy="19.34" r="1.02"/><circle cx="30.34" cy="19.34" r="1.02"/><circle cx="4.68" cy="23.01" r="1.02"/><circle cx="8.35" cy="23.01" r="1.02"/><circle cx="12.01" cy="23.01" r="1.02"/><circle cx="15.68" cy="23.01" r="1.02"/><circle cx="19.34" cy="23.01" r="1.02"/><circle cx="23.01" cy="23.01" r="1.02"/><circle cx="26.67" cy="23.01" r="1.02"/><circle cx="30.34" cy="23.01" r="1.02"/><circle cx="8.35" cy="26.67" r="1.02"/><circle cx="12.01" cy="26.67" r="1.02"/><circle cx="15.68" cy="26.67" r="1.02"/><circle cx="19.34" cy="26.67" r="1.02"/><circle cx="23.01" cy="26.67" r="1.02"/><circle cx="26.67" cy="26.67" r="1.02"/><circle cx="8.35" cy="30.34" r="1.02"/><circle cx="12.01" cy="30.34" r="1.02"/><circle cx="15.68" cy="30.34" r="1.02"/><circle cx="19.34" cy="30.34" r="1.02"/><circle cx="23.01" cy="30.34" r="1.02"/><circle cx="26.67" cy="30.34" r="1.02"/><circle cx="8.35" cy="34.01" r="1.02"/><circle cx="12.01" cy="34.01" r="1.02"/><circle cx="15.68" cy="34.01" r="1.02"/><circle cx="19.34" cy="34.01" r="1.02"/><circle cx="23.01" cy="34.01" r="1.02"/><circle cx="26.67" cy="34.01" r="1.02"/><circle cx="4.68" cy="37.67" r="1.02"/><circle cx="8.35" cy="37.67" r="1.02"/><circle cx="12.01" cy="37.67" r="1.02"/><circle cx="15.68" cy="37.67" r="1.02"/><circle cx="19.34" cy="37.67" r="1.02"/><circle cx="23.01" cy="37.67" r="1.02"/><circle cx="26.67" cy="37.67" r="1.02"/><circle cx="8.35" cy="41.33" r="1.02"/><circle cx="12.01" cy="41.33" r="1.02"/><circle cx="15.68" cy="41.33" r="1.02"/><circle cx="19.34" cy="41.33" r="1.02"/><circle cx="23.01" cy="41.33" r="1.02"/><circle cx="26.67" cy="41.33" r="1.02"/><circle cx="4.68" cy="45" r="1.02"/><circle cx="8.35" cy="45" r="1.02"/><circle cx="12.01" cy="45" r="1.02"/><circle cx="15.68" cy="45" r="1.02"/><circle cx="19.34" cy="45" r="1.02"/><circle cx="23.01" cy="45" r="1.02"/><circle cx="26.67" cy="45" r="1.02"/><circle cx="30.34" cy="45" r="1.02"/><circle cx="4.68" cy="48.67" r="1.02"/><circle cx="8.35" cy="48.67" r="1.02"/><circle cx="12.01" cy="48.67" r="1.02"/><circle cx="15.68" cy="48.67" r="1.02"/><circle cx="19.34" cy="48.67" r="1.02"/><circle cx="23.01" cy="48.67" r="1.02"/><circle cx="26.67" cy="48.67" r="1.02"/><circle cx="30.34" cy="48.67" r="1.02"/><circle cx="4.68" cy="52.33" r="1.02"/><circle cx="8.35" cy="52.33" r="1.02"/><circle cx="12.01" cy="52.33" r="1.02"/><circle cx="15.68" cy="52.33" r="1.02"/><circle cx="19.34" cy="52.33" r="1.02"/><circle cx="23.01" cy="52.33" r="1.02"/><circle cx="26.67" cy="52.33" r="1.02"/><circle cx="30.34" cy="52.33" r="1.02"/><circle cx="34" cy="52.33" r="1.02"/><circle cx="37.67" cy="52.33" r="1.02"/><circle cx="4.68" cy="55.99" r="1.02"/><circle cx="8.35" cy="55.99" r="1.02"/><circle cx="12.01" cy="55.99" r="1.02"/><circle cx="15.68" cy="55.99" r="1.02"/><circle cx="19.34" cy="55.99" r="1.02"/><circle cx="23.01" cy="55.99" r="1.02"/><circle cx="26.67" cy="55.99" r="1.02"/><circle cx="30.34" cy="55.99" r="1.02"/><circle cx="34" cy="55.99" r="1.02"/><circle cx="37.67" cy="55.99" r="1.02"/><circle cx="4.68" cy="59.66" r="1.02"/><circle cx="8.35" cy="59.66" r="1.02"/><circle cx="12.01" cy="59.66" r="1.02"/><circle cx="15.68" cy="59.66" r="1.02"/><circle cx="19.34" cy="59.66" r="1.02"/><circle cx="23.01" cy="59.66" r="1.02"/><circle cx="26.67" cy="59.66" r="1.02"/><circle cx="30.34" cy="59.66" r="1.02"/><circle cx="34" cy="59.66" r="1.02"/><circle cx="37.67" cy="59.66" r="1.02"/><circle cx="41.33" cy="59.66" r="1.02"/><circle cx="4.68" cy="63.33" r="1.02"/><circle cx="8.35" cy="63.33" r="1.02"/><circle cx="12.01" cy="63.33" r="1.02"/><circle cx="15.68" cy="63.33" r="1.02"/><circle cx="19.34" cy="63.33" r="1.02"/><circle cx="23.01" cy="63.33" r="1.02"/><circle cx="26.67" cy="63.33" r="1.02"/><circle cx="30.34" cy="63.33" r="1.02"/><circle cx="34" cy="63.33" r="1.02"/><circle cx="37.67" cy="63.33" r="1.02"/><circle cx="41.33" cy="63.33" r="1.02"/><circle cx="4.68" cy="66.99" r="1.02"/><circle cx="8.35" cy="66.99" r="1.02"/><circle cx="12.01" cy="66.99" r="1.02"/><circle cx="15.68" cy="66.99" r="1.02"/><circle cx="19.34" cy="66.99" r="1.02"/><circle cx="23.01" cy="66.99" r="1.02"/><circle cx="26.67" cy="66.99" r="1.02"/><circle cx="30.34" cy="66.99" r="1.02"/><circle cx="34" cy="66.99" r="1.02"/><circle cx="4.68" cy="70.65" r="1.02"/><circle cx="8.35" cy="70.65" r="1.02"/><circle cx="12.01" cy="70.65" r="1.02"/><circle cx="15.68" cy="70.65" r="1.02"/><circle cx="19.34" cy="70.65" r="1.02"/><circle cx="23.01" cy="70.65" r="1.02"/><circle cx="26.67" cy="70.65" r="1.02"/><circle cx="30.34" cy="70.65" r="1.02"/><circle cx="34" cy="70.65" r="1.02"/><circle cx="4.68" cy="74.32" r="1.02"/><circle cx="8.35" cy="74.32" r="1.02"/><circle cx="12.01" cy="74.32" r="1.02"/><circle cx="15.68" cy="74.32" r="1.02"/><circle cx="19.34" cy="74.32" r="1.02"/><circle cx="23.01" cy="74.32" r="1.02"/><circle cx="26.67" cy="74.32" r="1.02"/><circle cx="30.34" cy="74.32" r="1.02"/><circle cx="12.01" cy="77.99" r="1.02"/><circle cx="15.68" cy="77.99" r="1.02"/><circle cx="19.34" cy="77.99" r="1.02"/><circle cx="23.01" cy="77.99" r="1.02"/><circle cx="26.67" cy="77.99" r="1.02"/><circle cx="30.34" cy="77.99" r="1.02"/><circle cx="15.68" cy="81.65" r="1.02"/><circle cx="19.34" cy="81.65" r="1.02"/><circle cx="23.01" cy="81.65" r="1.02"/><circle cx="19.34" cy="85.32" r="1.02"/><circle cx="23.01" cy="85.32" r="1.02"/><circle cx="19.34" cy="88.98" r="1.02"/><circle cx="23.01" cy="88.98" r="1.02"/></svg>