<svg xmlns="http://www.w3.org/2000/svg" viewBox="0 0 602.01 203.5"><line class="cls-subtitle-1" x1="1.5" x2="1.5" y2="203.5"/><path class="cls-subtitle-2" d="M28.47,47.15h-6.7V45h16v2.2h-6.7V65.29H28.47Z" transform="translate(-0.26 -0.1)"/><path class="cls-subtitle-2" d="M42.42,45h6.33c4.1,0,7.1,1.48,7.1,5.73,0,4.06-3,6-7.1,6H45v8.59H42.42Zm6,9.64c3.15,0,4.87-1.3,4.87-3.91s-1.72-3.63-4.87-3.63H45v7.54Zm1.88,0,6.17,10.67H53.5L48.22,56Z" transform="translate(-0.26 -0.1)"/><path class="cls-subtitle-2" d="M66,45h3l6.82,20.34H73L69.52,53.94c-.71-2.27-1.39-4.5-2-6.85h-.12c-.65,2.35-1.3,4.58-2,6.85L61.83,65.29H59.18ZM62.79,57h9.29v2.11H62.79Z" transform="translate(-0.26 -0.1)"/><path class="cls-subtitle-2" d="M79.61,45h2.84l6.48,12.77,1.94,4.22h.07c-.1-2-.34-4.31-.34-6.45V45h2.47V65.29H90.23L83.74,52.51,81.8,48.29h-.06c.09,2.08.34,4.25.34,6.36V65.29H79.61Z" transform="translate(-0.26 -0.1)"/><path class="cls-subtitle-2" d="M98,62.65l1.54-1.8a8.52,8.52,0,0,0,5.93,2.51c2.78,0,4.38-1.33,4.38-3.19,0-2.17-1.57-2.79-3.61-3.66l-2.93-1.3C101.3,54.4,99,53,99,50s2.78-5.4,6.63-5.4a8.82,8.82,0,0,1,6.24,2.52l-1.36,1.67a7.09,7.09,0,0,0-5-1.89c-2.35,0-3.92,1.11-3.92,2.94s1.88,2.67,3.61,3.35L108,54.43c2.5,1,4.48,2.42,4.48,5.43,0,3.22-2.72,5.8-7.16,5.8A10.26,10.26,0,0,1,98,62.65Z" transform="translate(-0.26 -0.1)"/><path class="cls-subtitle-2" d="M118.92,45h2.57V63.08h10v2.21H118.92Z" transform="translate(-0.26 -0.1)"/><path class="cls-subtitle-2" d="M141.42,45h3l6.82,20.34h-2.78l-3.49-11.35c-.71-2.27-1.39-4.5-2-6.85h-.12c-.65,2.35-1.3,4.58-2,6.85l-3.55,11.35H134.6ZM138.21,57h9.29v2.11h-9.29Z" transform="translate(-0.26 -0.1)"/><path class="cls-subtitle-2" d="M160.46,47.15h-6.7V45h16v2.2h-6.69V65.29h-2.6Z" transform="translate(-0.26 -0.1)"/><path class="cls-subtitle-2" d="M174.29,63.08h5V47.15h-5V45h12.65v2.2h-5V63.08h5v2.21H174.29Z" transform="translate(-0.26 -0.1)"/><path class="cls-subtitle-2" d="M192.74,45h2.84l6.49,12.77L204,61.94h.06c-.09-2-.34-4.31-.34-6.45V45h2.47V65.29h-2.84l-6.48-12.78-1.95-4.22h-.06c.1,2.08.34,4.25.34,6.36V65.29h-2.47Z" transform="translate(-0.26 -0.1)"/><path class="cls-subtitle-2" d="M210.7,55.12c0-6.58,3.74-10.55,9-10.55a7.46,7.46,0,0,1,5.58,2.48l-1.48,1.65a5.24,5.24,0,0,0-4.1-1.83c-3.8,0-6.27,3.13-6.27,8.18s2.25,8.31,6.2,8.31a5.06,5.06,0,0,0,3.49-1.17V56.88h-4V54.74h6.42V63.3a8.52,8.52,0,0,1-6.05,2.36C214.38,65.66,210.7,61.75,210.7,55.12Z" transform="translate(-0.26 -0.1)"/><path class="cls-subtitle-2" d="M248.42,55.12c0-6.58,3.73-10.55,9-10.55A7.5,7.5,0,0,1,263,47.05L261.5,48.7a5.22,5.22,0,0,0-4.1-1.83c-3.8,0-6.27,3.13-6.27,8.18s2.26,8.31,6.21,8.31a5,5,0,0,0,3.48-1.17V56.88h-4V54.74h6.42V63.3a8.48,8.48,0,0,1-6.05,2.36C252.09,65.66,248.42,61.75,248.42,55.12Z" transform="translate(-0.26 -0.1)"/><path class="cls-subtitle-2" d="M268.69,45H275c4.1,0,7.1,1.48,7.1,5.73,0,4.06-3,6-7.1,6h-3.7v8.59h-2.63Zm6,9.64c3.15,0,4.88-1.3,4.88-3.91s-1.73-3.63-4.88-3.63h-3.33v7.54Zm1.88,0,6.18,10.67h-2.94L274.49,56Z" transform="translate(-0.26 -0.1)"/><path class="cls-subtitle-2" d="M286,55c0-6.57,3.21-10.45,7.78-10.45s7.78,3.88,7.78,10.45-3.21,10.64-7.78,10.64S286,61.69,286,55Zm12.88,0c0-5.11-2-8.15-5.1-8.15s-5.09,3-5.09,8.15,2,8.34,5.09,8.34S298.85,60.23,298.85,55Z" transform="translate(-0.26 -0.1)"/><path class="cls-subtitle-2" d="M303.66,44.91h2.9L308,57.69c.18,1.7.31,2.7.4,4.71h.09c.37-2,.59-3,1-4.68l2-7.56H314l1.91,7.56c.43,1.67.62,2.67,1,4.68H317c.12-2,.19-3,.37-4.68l1.42-12.81h2.78l-3,20.38h-3.21l-2-8.19c-.31-1.24-.55-2.42-.74-3.66h-.09c-.22,1.24-.4,2.42-.71,3.66l-2,8.19h-3.15Z" transform="translate(-0.26 -0.1)"/><path class="cls-subtitle-2" d="M330.17,47.15h-6.7V45h16v2.2h-6.7V65.29h-2.59Z" transform="translate(-0.26 -0.1)"/><path class="cls-subtitle-2" d="M343.5,45h2.62v8.49h8.4V45h2.62V65.29h-2.62V55.74h-8.4v9.55H343.5Z" transform="translate(-0.26 -0.1)"/><path class="cls-subtitle-2" d="M382.91,45h2.56V63.08h10v2.21H382.91Z" transform="translate(-0.26 -0.1)"/><path class="cls-subtitle-2" d="M405.41,45h3l6.82,20.34h-2.78l-3.48-11.35c-.71-2.27-1.39-4.5-2-6.85h-.12c-.65,2.35-1.3,4.58-2,6.85l-3.55,11.35h-2.65ZM402.2,57h9.29v2.11H402.2Z" transform="translate(-0.26 -0.1)"/><path class="cls-subtitle-2" d="M419.54,45h5.74c4.14,0,7,1.39,7,5a4.42,4.42,0,0,1-3.55,4.43v.12c3,.47,4.69,2.08,4.69,4.87,0,4-3.09,6-7.63,6h-6.2Zm5.31,8.55c3.46,0,4.85-1.11,4.85-3.38s-1.61-3-4.73-3H422.1V53.5Zm.52,9.62c3.46,0,5.47-1.15,5.47-3.91,0-2.51-1.92-3.54-5.47-3.54H422.1v7.45Z" transform="translate(-0.26 -0.1)"/><path class="cls-subtitle-2" d="M457.25,45h6.33c4.11,0,7.1,1.48,7.1,5.73,0,4.06-3,6-7.1,6h-3.7v8.59h-2.63Zm6,9.64c3.15,0,4.88-1.3,4.88-3.91s-1.73-3.63-4.88-3.63h-3.33v7.54Zm1.88,0,6.18,10.67h-2.94L463.06,56Z" transform="translate(-0.26 -0.1)"/><path class="cls-subtitle-2" d="M476.57,45H489.1v2.2h-9.94V53.5h8.4v2.2h-8.4v7.38h10.25v2.21H476.57Z" transform="translate(-0.26 -0.1)"/><path class="cls-subtitle-2" d="M494,62.65l1.54-1.8a8.48,8.48,0,0,0,5.93,2.51c2.78,0,4.38-1.33,4.38-3.19,0-2.17-1.57-2.79-3.61-3.66l-2.93-1.3c-2-.81-4.36-2.23-4.36-5.24s2.78-5.4,6.64-5.4a8.84,8.84,0,0,1,6.24,2.52l-1.36,1.67a7.09,7.09,0,0,0-5-1.89c-2.35,0-3.92,1.11-3.92,2.94s1.88,2.67,3.61,3.35L504,54.43c2.5,1,4.48,2.42,4.48,5.43,0,3.22-2.72,5.8-7.17,5.8A10.26,10.26,0,0,1,494,62.65Z" transform="translate(-0.26 -0.1)"/><path class="cls-subtitle-2" d="M514.28,45h12.54v2.2h-9.94V53.5h8.39v2.2h-8.39v7.38h10.24v2.21H514.28Z" transform="translate(-0.26 -0.1)"/><path class="cls-subtitle-2" d="M537.4,45h3l6.83,20.34h-2.78l-3.49-11.35c-.71-2.27-1.39-4.5-2-6.85h-.12c-.65,2.35-1.3,4.58-2,6.85l-3.55,11.35h-2.65ZM534.19,57h9.29v2.11h-9.29Z" transform="translate(-0.26 -0.1)"/><path class="cls-subtitle-2" d="M551.53,45h6.33c4.11,0,7.1,1.48,7.1,5.73,0,4.06-3,6-7.1,6h-3.7v8.59h-2.63Zm6,9.64c3.15,0,4.88-1.3,4.88-3.91s-1.73-3.63-4.88-3.63h-3.33v7.54Zm1.88,0,6.18,10.67h-2.94L557.34,56Z" transform="translate(-0.26 -0.1)"/><path class="cls-subtitle-2" d="M569.34,55.12c0-6.55,3.8-10.55,9.07-10.55A7.58,7.58,0,0,1,584,47.05l-1.48,1.65a5.41,5.41,0,0,0-4.08-1.83c-3.85,0-6.38,3.13-6.38,8.18s2.53,8.31,6.38,8.31A5.8,5.8,0,0,0,583,61.13l1.48,1.58a7.81,7.81,0,0,1-6.26,2.95C573.17,65.66,569.34,61.75,569.34,55.12Z" transform="translate(-0.26 -0.1)"/><path class="cls-subtitle-2" d="M588.63,45h2.62v8.49h8.4V45h2.62V65.29h-2.62V55.74h-8.4v9.55h-2.62Z" transform="translate(-0.26 -0.1)"/><path class="cls-subtitle-2" d="M23.44,110.08h5V94.15h-5V92H36.1v2.2h-5v15.93h5v2.21H23.44Z" transform="translate(-0.26 -0.1)"/><path class="cls-subtitle-2" d="M41.89,92h2.84l6.49,12.77,1.94,4.22h.06c-.09-2-.34-4.31-.34-6.45V92h2.47v20.34H52.51L46,99.51l-1.94-4.22H44c.1,2.08.34,4.25.34,6.36v10.64H41.89Z" transform="translate(-0.26 -0.1)"/><path class="cls-subtitle-2" d="M66.18,94.15h-6.7V92h16v2.2H68.78v18.14h-2.6Z" transform="translate(-0.26 -0.1)"/><path class="cls-subtitle-2" d="M78.56,102c0-6.57,3.21-10.45,7.78-10.45s7.77,3.88,7.77,10.45-3.21,10.64-7.77,10.64S78.56,108.69,78.56,102Zm12.87,0c0-5.11-2-8.15-5.09-8.15s-5.1,3-5.1,8.15,2,8.34,5.1,8.34S91.43,107.23,91.43,102Z" transform="translate(-0.26 -0.1)"/><path class="cls-subtitle-2" d="M117.94,92h6.11c4.47,0,7.5,1.52,7.5,6,0,4.31-3.06,6.29-7.5,6.29h-3.52v8.07h-2.59Zm5.8,10.17c3.52,0,5.22-1.31,5.22-4.19s-1.73-3.88-5.22-3.88h-3.21v8.07Z" transform="translate(-0.26 -0.1)"/><path class="cls-subtitle-2" d="M135.12,102c0-6.57,3.22-10.45,7.78-10.45s7.78,3.88,7.78,10.45-3.21,10.64-7.78,10.64S135.12,108.69,135.12,102ZM148,102c0-5.11-2-8.15-5.1-8.15s-5.09,3-5.09,8.15,2,8.34,5.09,8.34S148,107.23,148,102Z" transform="translate(-0.26 -0.1)"/><path class="cls-subtitle-2" d="M152.81,91.91h2.9l1.48,12.78c.19,1.7.31,2.7.4,4.71h.09c.38-2,.59-3,1-4.68l2-7.56h2.47l1.91,7.56c.43,1.67.62,2.67,1,4.68h.12c.13-2,.19-3,.37-4.68l1.42-12.81h2.78l-3,20.38h-3.21l-2-8.19c-.31-1.24-.55-2.42-.74-3.66h-.09c-.22,1.24-.4,2.42-.71,3.66l-2,8.19h-3.15Z" transform="translate(-0.26 -0.1)"/><path class="cls-subtitle-2" d="M174.87,92h12.54v2.2h-9.94v6.35h8.39v2.2h-8.39v7.38h10.25v2.21H174.87Z" transform="translate(-0.26 -0.1)"/><path class="cls-subtitle-2" d="M193.27,92h6.33c4.1,0,7.1,1.48,7.1,5.73,0,4.06-3,6-7.1,6h-3.71v8.59h-2.62Zm6,9.64c3.14,0,4.87-1.3,4.87-3.91s-1.73-3.63-4.87-3.63h-3.34v7.54Zm1.88,0,6.17,10.67h-2.93L199.07,103Z" transform="translate(-0.26 -0.1)"/><path class="cls-subtitle-2" d="M213.17,92h12.44v2.2h-9.84V101h8.33v2.2h-8.33v9.09h-2.6Z" transform="translate(-0.26 -0.1)"/><path class="cls-subtitle-2" d="M230.36,104.6V92H233v12.71c0,4.18,1.82,5.7,4.22,5.7s4.3-1.52,4.3-5.7V92H244V104.6c0,5.83-2.84,8.06-6.8,8.06S230.36,110.43,230.36,104.6Z" transform="translate(-0.26 -0.1)"/><path class="cls-subtitle-2" d="M250.92,92h2.56v18.13h10v2.21H250.92Z" transform="translate(-0.26 -0.1)"/><path class="cls-subtitle-2" d="M286,102c0-6.57,3.21-10.45,7.78-10.45s7.78,3.88,7.78,10.45-3.21,10.64-7.78,10.64S286,108.69,286,102Zm12.88,0c0-5.11-2-8.15-5.1-8.15s-5.09,3-5.09,8.15,2,8.34,5.09,8.34S298.85,107.23,298.85,102Z" transform="translate(-0.26 -0.1)"/><path class="cls-subtitle-2" d="M305.88,92h2.84l6.48,12.77,1.95,4.22h.06c-.1-2-.34-4.31-.34-6.45V92h2.47v20.34H316.5L310,99.51l-1.95-4.22H308c.09,2.08.34,4.25.34,6.36v10.64h-2.47Z" transform="translate(-0.26 -0.1)"/><path class="cls-subtitle-2" d="M326.34,92h2.56v18.13h10v2.21H326.34Z" transform="translate(-0.26 -0.1)"/><path class="cls-subtitle-2" d="M344,110.08h5V94.15h-5V92h12.66v2.2h-5v15.93h5v2.21H344Z" transform="translate(-0.26 -0.1)"/><path class="cls-subtitle-2" d="M362.45,92h2.84l6.48,12.77,1.94,4.22h.07c-.1-2-.34-4.31-.34-6.45V92h2.47v20.34h-2.84l-6.49-12.78-1.94-4.22h-.06c.09,2.08.34,4.25.34,6.36v10.64h-2.47Z" transform="translate(-0.26 -0.1)"/><path class="cls-subtitle-2" d="M382.29,92h12.53v2.2h-9.94v6.35h8.4v2.2h-8.4v7.38h10.25v2.21H382.29Z" transform="translate(-0.26 -0.1)"/><path class="cls-subtitle-2" d="M424.45,94.15h-6.7V92h16v2.2H427v18.14h-2.59Z" transform="translate(-0.26 -0.1)"/><path class="cls-subtitle-2" d="M436.82,102c0-6.57,3.21-10.45,7.78-10.45s7.78,3.88,7.78,10.45-3.21,10.64-7.78,10.64S436.82,108.69,436.82,102Zm12.87,0c0-5.11-2-8.15-5.09-8.15s-5.09,3-5.09,8.15,2,8.34,5.09,8.34S449.69,107.23,449.69,102Z" transform="translate(-0.26 -0.1)"/><path class="cls-subtitle-2" d="M455.68,102c0-6.57,3.21-10.45,7.78-10.45s7.78,3.88,7.78,10.45-3.21,10.64-7.78,10.64S455.68,108.69,455.68,102Zm12.87,0c0-5.11-2-8.15-5.09-8.15s-5.1,3-5.1,8.15,2,8.34,5.1,8.34S468.55,107.23,468.55,102Z" transform="translate(-0.26 -0.1)"/><path class="cls-subtitle-2" d="M477.19,92h2.56v18.13h10v2.21H477.19Z" transform="translate(-0.26 -0.1)"/><path class="cls-subtitle-2" d="M494,109.65l1.54-1.8a8.48,8.48,0,0,0,5.93,2.51c2.78,0,4.38-1.33,4.38-3.19,0-2.17-1.57-2.79-3.61-3.66l-2.93-1.3c-2-.81-4.36-2.23-4.36-5.24s2.78-5.4,6.64-5.4a8.84,8.84,0,0,1,6.24,2.52l-1.36,1.67a7.09,7.09,0,0,0-5-1.89c-2.35,0-3.92,1.11-3.92,2.94s1.88,2.67,3.61,3.35l2.84,1.27c2.5,1,4.48,2.42,4.48,5.43,0,3.22-2.72,5.8-7.17,5.8A10.26,10.26,0,0,1,494,109.65Z" transform="translate(-0.26 -0.1)"/><path class="cls-subtitle-2" d="M537.4,92h3l6.83,20.34h-2.78l-3.49-11.35c-.71-2.27-1.39-4.5-2-6.85h-.12c-.65,2.35-1.3,4.58-2,6.85l-3.55,11.35h-2.65ZM534.19,104h9.29v2.11h-9.29Z" transform="translate(-0.26 -0.1)"/><path class="cls-subtitle-2" d="M551,92h2.84l6.48,12.77,1.95,4.22h.06c-.1-2-.34-4.31-.34-6.45V92h2.47v20.34h-2.84l-6.48-12.78-1.95-4.22h-.06c.09,2.08.34,4.25.34,6.36v10.64H551Z" transform="translate(-0.26 -0.1)"/><path class="cls-subtitle-2" d="M570,92h5c6.08,0,9.38,3.62,9.38,10.07s-3.3,10.27-9.26,10.27H570Zm4.81,18.2c4.6,0,6.89-3,6.89-8.13s-2.29-7.93-6.89-7.93h-2.22v16.06Z" transform="translate(-0.26 -0.1)"/><path class="cls-subtitle-2" d="M23.44,157.08h5V141.15h-5V139H36.1v2.2h-5v15.93h5v2.21H23.44Z" transform="translate(-0.26 -0.1)"/><path class="cls-subtitle-2" d="M41.89,139h2.84l6.49,12.77,1.94,4.22h.06c-.09-2-.34-4.31-.34-6.45V139h2.47v20.34H52.51L46,146.51l-1.94-4.22H44c.1,2.08.34,4.25.34,6.36v10.64H41.89Z" transform="translate(-0.26 -0.1)"/><path class="cls-subtitle-2" d="M66.18,141.15h-6.7V139h16v2.2H68.78v18.14h-2.6Z" transform="translate(-0.26 -0.1)"/><path class="cls-subtitle-2" d="M80.59,139H93.13v2.2H83.19v6.35h8.39v2.2H83.19v7.38H93.44v2.21H80.59Z" transform="translate(-0.26 -0.1)"/><path class="cls-subtitle-2" d="M99,139h6.33c4.1,0,7.09,1.48,7.09,5.73,0,4.06-3,6-7.09,6h-3.71v8.59H99Zm6,9.64c3.14,0,4.87-1.3,4.87-3.91s-1.73-3.63-4.87-3.63h-3.34v7.54Zm1.88,0L113,159.29h-2.93L104.79,150Z" transform="translate(-0.26 -0.1)"/><path class="cls-subtitle-2" d="M122.57,139h3l6.82,20.34h-2.78l-3.49-11.35c-.71-2.27-1.38-4.5-2-6.85H124c-.64,2.35-1.29,4.58-2,6.85l-3.55,11.35h-2.66ZM119.36,151h9.29v2.11h-9.29Z" transform="translate(-0.26 -0.1)"/><path class="cls-subtitle-2" d="M135.65,149.12c0-6.55,3.8-10.55,9.08-10.55a7.58,7.58,0,0,1,5.55,2.48l-1.48,1.65a5.41,5.41,0,0,0-4.07-1.83c-3.86,0-6.39,3.13-6.39,8.18s2.53,8.31,6.39,8.31a5.79,5.79,0,0,0,4.53-2.23l1.48,1.58a7.81,7.81,0,0,1-6.26,2.95C139.48,159.66,135.65,155.75,135.65,149.12Z" transform="translate(-0.26 -0.1)"/><path class="cls-subtitle-2" d="M160.46,141.15h-6.7V139h16v2.2h-6.69v18.14h-2.6Z" transform="translate(-0.26 -0.1)"/><path class="cls-subtitle-2" d="M174.29,157.08h5V141.15h-5V139h12.65v2.2h-5v15.93h5v2.21H174.29Z" transform="translate(-0.26 -0.1)"/><path class="cls-subtitle-2" d="M191.51,139h2.78l3.24,11c.71,2.39,1.2,4.34,1.94,6.7h.13c.74-2.36,1.26-4.31,1.94-6.7l3.24-11h2.66L201,159.29h-3Z" transform="translate(-0.26 -0.1)"/><path class="cls-subtitle-2" d="M212.59,139h12.53v2.2h-9.94v6.35h8.39v2.2h-8.39v7.38h10.25v2.21H212.59Z" transform="translate(-0.26 -0.1)"/><path class="cls-subtitle-2" d="M248.85,156.65l1.54-1.8a8.5,8.5,0,0,0,5.93,2.51c2.78,0,4.38-1.33,4.38-3.19,0-2.17-1.57-2.79-3.61-3.66l-2.93-1.3c-2-.81-4.35-2.23-4.35-5.24s2.77-5.4,6.63-5.4a8.82,8.82,0,0,1,6.24,2.52l-1.36,1.67a7.09,7.09,0,0,0-5-1.89c-2.35,0-3.92,1.11-3.92,2.94s1.88,2.67,3.61,3.35l2.84,1.27c2.5,1,4.48,2.42,4.48,5.43,0,3.22-2.72,5.8-7.16,5.8A10.26,10.26,0,0,1,248.85,156.65Z" transform="translate(-0.26 -0.1)"/><path class="cls-subtitle-2" d="M273.6,141.15h-6.7V139h16v2.2h-6.7v18.14H273.6Z" transform="translate(-0.26 -0.1)"/><path class="cls-subtitle-2" d="M286,149c0-6.57,3.21-10.45,7.78-10.45s7.78,3.88,7.78,10.45-3.21,10.64-7.78,10.64S286,155.69,286,149Zm12.88,0c0-5.11-2-8.15-5.1-8.15s-5.09,3-5.09,8.15,2,8.34,5.09,8.34S298.85,154.23,298.85,149Z" transform="translate(-0.26 -0.1)"/><path class="cls-subtitle-2" d="M306.4,139h6.33c4.11,0,7.1,1.48,7.1,5.73,0,4.06-3,6-7.1,6H309v8.59H306.4Zm6,9.64c3.15,0,4.88-1.3,4.88-3.91s-1.73-3.63-4.88-3.63H309v7.54Zm1.88,0,6.18,10.67h-2.93L312.21,150Z" transform="translate(-0.26 -0.1)"/><path class="cls-subtitle-2" d="M330.17,152,323.38,139h2.74l3,6c.77,1.58,1.48,3.13,2.31,4.74h.13c.8-1.61,1.6-3.16,2.37-4.74l2.94-6h2.65L332.76,152v7.26h-2.59Z" transform="translate(-0.26 -0.1)"/><path class="cls-subtitle-2" d="M349,141.15h-6.69V139h16v2.2h-6.7v18.14H349Z" transform="translate(-0.26 -0.1)"/><path class="cls-subtitle-2" d="M363.43,139H376v2.2H366v6.35h8.39v2.2H366v7.38h10.25v2.21H363.43Z" transform="translate(-0.26 -0.1)"/><path class="cls-subtitle-2" d="M382.91,139h2.56v18.13h10v2.21H382.91Z" transform="translate(-0.26 -0.1)"/><path class="cls-subtitle-2" d="M401.77,139h2.56v18.13h10v2.21H401.77Z" transform="translate(-0.26 -0.1)"/><path class="cls-subtitle-2" d="M419.42,157.08h5V141.15h-5V139h12.65v2.2h-5v15.93h5v2.21H419.42Z" transform="translate(-0.26 -0.1)"/><path class="cls-subtitle-2" d="M437.87,139h2.84l6.48,12.77,1.95,4.22h.06c-.09-2-.34-4.31-.34-6.45V139h2.47v20.34h-2.84L442,146.51l-1.95-4.22H440c.09,2.08.34,4.25.34,6.36v10.64h-2.47Z" transform="translate(-0.26 -0.1)"/><path class="cls-subtitle-2" d="M455.83,149.12c0-6.58,3.74-10.55,9-10.55a7.46,7.46,0,0,1,5.58,2.48l-1.48,1.65a5.24,5.24,0,0,0-4.1-1.83c-3.8,0-6.27,3.13-6.27,8.18s2.25,8.31,6.2,8.31a5.06,5.06,0,0,0,3.49-1.17v-5.31h-4v-2.14h6.42v8.56a8.52,8.52,0,0,1-6,2.36C459.51,159.66,455.83,155.75,455.83,149.12Z" transform="translate(-0.26 -0.1)"/></svg>