<svg xmlns="http://www.w3.org/2000/svg" viewBox="0 0 540.59 104.26"><path d="M444.31,472.53h-5.94l-1.43,4.6h-2.25l5.73-17.77h1.9L448,477.13h-2.25Zm-5.33-2h4.73l-2.35-7.71Z" transform="translate(-434.69 -459.11)"/><path d="M468.44,470v7.13h-2.26V459.36H472a7.65,7.65,0,0,1,2.26.38,5.64,5.64,0,0,1,1.87,1,4.78,4.78,0,0,1,1.28,1.66,5.72,5.72,0,0,1,0,4.54,4.83,4.83,0,0,1-1.28,1.65,5.66,5.66,0,0,1-1.87,1A7.33,7.33,0,0,1,472,470Zm0-1.85H472a4.44,4.44,0,0,0,1.44-.25,3.42,3.42,0,0,0,1.14-.68,3.09,3.09,0,0,0,.77-1.07,3.61,3.61,0,0,0,.27-1.43,3.8,3.8,0,0,0-.27-1.46,3.25,3.25,0,0,0-1.91-1.79,4.44,4.44,0,0,0-1.44-.26h-3.51Z" transform="translate(-434.69 -459.11)"/><path d="M492.61,469.27a12.43,12.43,0,0,1-.16,1.92,10.77,10.77,0,0,1-.47,1.88,8.14,8.14,0,0,1-.81,1.68,6,6,0,0,1-1.18,1.37,5.24,5.24,0,0,1-1.57.92,5.63,5.63,0,0,1-2,.34,5.69,5.69,0,0,1-2-.34,5.07,5.07,0,0,1-1.56-.92,6,6,0,0,1-1.19-1.37,8.34,8.34,0,0,1-.82-1.7,9.77,9.77,0,0,1-.48-1.86,12.59,12.59,0,0,1-.18-1.92v-2a14.11,14.11,0,0,1,.17-1.92,10.45,10.45,0,0,1,.47-1.87,8.81,8.81,0,0,1,.82-1.69,5.83,5.83,0,0,1,1.18-1.38,5.06,5.06,0,0,1,1.57-.93,6,6,0,0,1,4,0,5.17,5.17,0,0,1,1.58.92,6.07,6.07,0,0,1,1.18,1.38,8.5,8.5,0,0,1,.81,1.69,9.78,9.78,0,0,1,.48,1.88,12.64,12.64,0,0,1,.16,1.92Zm-2.23-2q0-.63-.09-1.32a8,8,0,0,0-.25-1.37,6.73,6.73,0,0,0-.47-1.3,3.88,3.88,0,0,0-.73-1.08,3.26,3.26,0,0,0-1-.75,3.31,3.31,0,0,0-1.39-.27,3.18,3.18,0,0,0-1.38.28,3.38,3.38,0,0,0-1,.75,4.19,4.19,0,0,0-.74,1.09,7.92,7.92,0,0,0-.47,1.29,10.64,10.64,0,0,0-.25,1.37,10.07,10.07,0,0,0-.09,1.31v2a10.34,10.34,0,0,0,.09,1.32,9.19,9.19,0,0,0,.26,1.37,7.22,7.22,0,0,0,.48,1.3,4,4,0,0,0,.73,1.09,3.15,3.15,0,0,0,2.43,1,3.43,3.43,0,0,0,1.4-.28,3.25,3.25,0,0,0,1-.76,4.07,4.07,0,0,0,.72-1.08,7.7,7.7,0,0,0,.47-1.3,8.92,8.92,0,0,0,.24-1.37c.05-.46.07-.91.08-1.33Z" transform="translate(-434.69 -459.11)"/><path d="M502,469.88h-3.56v7.25h-2.24V459.36h5.21a8.81,8.81,0,0,1,2.34.35,5.6,5.6,0,0,1,1.93,1,4.62,4.62,0,0,1,1.29,1.66,5.44,5.44,0,0,1,.47,2.33,4.74,4.74,0,0,1-.25,1.59,5,5,0,0,1-.69,1.31,4.89,4.89,0,0,1-1,1,6.77,6.77,0,0,1-1.34.77l3.77,7.6v.14h-2.38ZM498.46,468h3a4.82,4.82,0,0,0,1.43-.24,3.5,3.5,0,0,0,1.18-.66,3.18,3.18,0,0,0,.8-1,3.33,3.33,0,0,0,.29-1.42,3.68,3.68,0,0,0-.28-1.5,3.12,3.12,0,0,0-.78-1.07,3.27,3.27,0,0,0-1.19-.65,5.19,5.19,0,0,0-1.51-.24h-3Z" transform="translate(-434.69 -459.11)"/><path d="M523.2,461.29h-5.5v15.84h-2.19V461.29H510v-1.93H523.2Z" transform="translate(-434.69 -459.11)"/><path d="M536.17,469.28h-7.39v7.85h-2.29V459.36h10.92v1.93h-8.63v6.08h7.39Z" transform="translate(-434.69 -459.11)"/><path d="M552.92,469.27a12.43,12.43,0,0,1-.16,1.92,10.77,10.77,0,0,1-.47,1.88,8.14,8.14,0,0,1-.81,1.68,6.23,6.23,0,0,1-1.18,1.37,5.24,5.24,0,0,1-1.57.92,6,6,0,0,1-4,0,5.24,5.24,0,0,1-1.57-.92,6.23,6.23,0,0,1-1.18-1.37,8.34,8.34,0,0,1-.82-1.7,10.6,10.6,0,0,1-.49-1.86,14,14,0,0,1-.17-1.92v-2a14.11,14.11,0,0,1,.17-1.92,10.45,10.45,0,0,1,.47-1.87,8.81,8.81,0,0,1,.82-1.69,5.83,5.83,0,0,1,1.18-1.38,5.06,5.06,0,0,1,1.57-.93,6,6,0,0,1,4,0,5.17,5.17,0,0,1,1.58.92,6.07,6.07,0,0,1,1.18,1.38,8.5,8.5,0,0,1,.81,1.69,9.78,9.78,0,0,1,.48,1.88,12.64,12.64,0,0,1,.16,1.92Zm-2.23-2q0-.63-.09-1.32a8,8,0,0,0-.25-1.37,6.73,6.73,0,0,0-.47-1.3,4.1,4.1,0,0,0-.73-1.08,3.26,3.26,0,0,0-1-.75,3.31,3.31,0,0,0-1.39-.27,3.18,3.18,0,0,0-1.38.28,3.38,3.38,0,0,0-1,.75,4.19,4.19,0,0,0-.74,1.09,7.92,7.92,0,0,0-.47,1.29,10.64,10.64,0,0,0-.25,1.37,10.07,10.07,0,0,0-.09,1.31v2a10.34,10.34,0,0,0,.09,1.32,9.19,9.19,0,0,0,.26,1.37,7.22,7.22,0,0,0,.48,1.3,3.79,3.79,0,0,0,.73,1.09,3.15,3.15,0,0,0,2.43,1,3.43,3.43,0,0,0,1.4-.28,3.25,3.25,0,0,0,1-.76,4.07,4.07,0,0,0,.72-1.08,7.7,7.7,0,0,0,.47-1.3,8.92,8.92,0,0,0,.24-1.37c0-.46.07-.91.08-1.33Z" transform="translate(-434.69 -459.11)"/><path d="M559,475.22h8.69v1.91H556.73V459.36H559Z" transform="translate(-434.69 -459.11)"/><path d="M571.52,459.36h10.74v2H578v13.86h4.26v1.95H571.52v-1.95h4.16V461.32h-4.16Z" transform="translate(-434.69 -459.11)"/><path d="M598.16,469.27a13.83,13.83,0,0,1-.17,1.92,10.77,10.77,0,0,1-.47,1.88,8.14,8.14,0,0,1-.81,1.68,6,6,0,0,1-1.18,1.37A5.12,5.12,0,0,1,594,477a5.94,5.94,0,0,1-4,0,5.12,5.12,0,0,1-1.57-.92,6.27,6.27,0,0,1-1.19-1.37,8.34,8.34,0,0,1-.82-1.7,9.77,9.77,0,0,1-.48-1.86,11.41,11.41,0,0,1-.17-1.92v-2a12.64,12.64,0,0,1,.16-1.92,9.68,9.68,0,0,1,.48-1.87,8.26,8.26,0,0,1,.82-1.69,5.79,5.79,0,0,1,1.17-1.38,5.06,5.06,0,0,1,1.57-.93,6,6,0,0,1,4,0,5.17,5.17,0,0,1,1.58.92,5.83,5.83,0,0,1,1.18,1.38,8.53,8.53,0,0,1,.82,1.69,10.55,10.55,0,0,1,.47,1.88,14.11,14.11,0,0,1,.17,1.92Zm-2.24-2c0-.42,0-.86-.08-1.32a10.64,10.64,0,0,0-.25-1.37,8.39,8.39,0,0,0-.47-1.3,4.13,4.13,0,0,0-.74-1.08,3.22,3.22,0,0,0-1-.75,3.38,3.38,0,0,0-1.39-.27,3.12,3.12,0,0,0-1.38.28,3.42,3.42,0,0,0-1,.75,4.16,4.16,0,0,0-.73,1.09,6.41,6.41,0,0,0-.47,1.29,9.19,9.19,0,0,0-.26,1.37c-.05.46-.08.89-.09,1.31v2c0,.42,0,.85.09,1.32a9.19,9.19,0,0,0,.26,1.37,7.22,7.22,0,0,0,.48,1.3,4,4,0,0,0,.73,1.09,3.29,3.29,0,0,0,1,.76,3.35,3.35,0,0,0,1.39.28,3.43,3.43,0,0,0,1.4-.28,3.14,3.14,0,0,0,1-.76,4.36,4.36,0,0,0,.73-1.08,7.68,7.68,0,0,0,.46-1.3,7.86,7.86,0,0,0,.24-1.37c0-.46.07-.91.08-1.33Z" transform="translate(-434.69 -459.11)"/><path d="M628.31,469.27a13.81,13.81,0,0,1-.16,1.92,11.75,11.75,0,0,1-.47,1.88,8.72,8.72,0,0,1-.82,1.68,5.94,5.94,0,0,1-1.17,1.37,5.24,5.24,0,0,1-1.57.92,6,6,0,0,1-4,0,5.24,5.24,0,0,1-1.57-.92,6.23,6.23,0,0,1-1.18-1.37,8.37,8.37,0,0,1-.83-1.7,11.53,11.53,0,0,1-.48-1.86,14,14,0,0,1-.17-1.92v-2a12.67,12.67,0,0,1,.17-1.92,10.45,10.45,0,0,1,.47-1.87,8.81,8.81,0,0,1,.82-1.69,5.83,5.83,0,0,1,1.18-1.38,5,5,0,0,1,1.57-.93,5.63,5.63,0,0,1,2-.34,5.69,5.69,0,0,1,2,.34,5.12,5.12,0,0,1,1.57.92,5.83,5.83,0,0,1,1.18,1.38,8.53,8.53,0,0,1,.82,1.69,10.57,10.57,0,0,1,.48,1.88,14.07,14.07,0,0,1,.16,1.92Zm-2.23-2q0-.63-.09-1.32a9.16,9.16,0,0,0-.25-1.37,7.47,7.47,0,0,0-.47-1.3,4.1,4.1,0,0,0-.73-1.08,3.26,3.26,0,0,0-1-.75,3.35,3.35,0,0,0-1.39-.27,3.18,3.18,0,0,0-1.38.28,3.55,3.55,0,0,0-1,.75,4.42,4.42,0,0,0-.73,1.09,7.92,7.92,0,0,0-.47,1.29,10.67,10.67,0,0,0-.26,1.37c-.05.46-.08.89-.09,1.31v2c0,.42,0,.85.09,1.32a9.22,9.22,0,0,0,.27,1.37,8,8,0,0,0,.47,1.3,4,4,0,0,0,.74,1.09,3.25,3.25,0,0,0,1,.76,3.35,3.35,0,0,0,1.39.28,3.39,3.39,0,0,0,1.4-.28,3.29,3.29,0,0,0,1-.76,4.07,4.07,0,0,0,.72-1.08,6.9,6.9,0,0,0,.46-1.3,8.94,8.94,0,0,0,.25-1.37c0-.46.07-.91.08-1.33Z" transform="translate(-434.69 -459.11)"/><path d="M641.72,469.28h-7.4v7.85H632V459.36H643v1.93h-8.63v6.08h7.4Z" transform="translate(-434.69 -459.11)"/><path d="M673.54,469.27a12.43,12.43,0,0,1-.16,1.92,10.77,10.77,0,0,1-.47,1.88,8.14,8.14,0,0,1-.81,1.68,6.23,6.23,0,0,1-1.18,1.37,5.24,5.24,0,0,1-1.57.92,6,6,0,0,1-4,0,5.24,5.24,0,0,1-1.57-.92,6.23,6.23,0,0,1-1.18-1.37,8.34,8.34,0,0,1-.82-1.7,10.6,10.6,0,0,1-.49-1.86,14,14,0,0,1-.17-1.92v-2a14.11,14.11,0,0,1,.17-1.92,10.45,10.45,0,0,1,.47-1.87,8.81,8.81,0,0,1,.82-1.69,5.83,5.83,0,0,1,1.18-1.38,5.06,5.06,0,0,1,1.57-.93,5.63,5.63,0,0,1,2-.34,5.69,5.69,0,0,1,2,.34,5.17,5.17,0,0,1,1.58.92,6,6,0,0,1,1.17,1.38,8,8,0,0,1,.82,1.69,9.78,9.78,0,0,1,.48,1.88,12.64,12.64,0,0,1,.16,1.92Zm-2.23-2q0-.63-.09-1.32a8,8,0,0,0-.25-1.37,6.73,6.73,0,0,0-.47-1.3,4.1,4.1,0,0,0-.73-1.08,3.26,3.26,0,0,0-1-.75,3.35,3.35,0,0,0-1.39-.27,3.18,3.18,0,0,0-1.38.28,3.38,3.38,0,0,0-1,.75,4.19,4.19,0,0,0-.74,1.09,7.92,7.92,0,0,0-.47,1.29,9.16,9.16,0,0,0-.25,1.37,10.07,10.07,0,0,0-.09,1.31v2a10.34,10.34,0,0,0,.09,1.32,9.19,9.19,0,0,0,.26,1.37,7.22,7.22,0,0,0,.48,1.3,3.79,3.79,0,0,0,.73,1.09,3.15,3.15,0,0,0,2.43,1,3.35,3.35,0,0,0,1.39-.28,3.18,3.18,0,0,0,1-.76,4.07,4.07,0,0,0,.72-1.08A7.7,7.7,0,0,0,671,472a8.92,8.92,0,0,0,.24-1.37c0-.46.07-.91.08-1.33Z" transform="translate(-434.69 -459.11)"/><path d="M688.19,477.13H685.9L679,463.85l0,13.28h-2.29V459.36H679l6.89,13.26,0-13.26h2.28Z" transform="translate(-434.69 -459.11)"/><path d="M694.69,475.22h8.69v1.91h-11V459.36h2.26Z" transform="translate(-434.69 -459.11)"/><path d="M707.22,459.36H718v2H713.7v13.86H718v1.95H707.22v-1.95h4.16V461.32h-4.16Z" transform="translate(-434.69 -459.11)"/><path d="M733.43,477.13h-2.3l-6.9-13.28,0,13.28h-2.28V459.36h2.29l6.9,13.26,0-13.26h2.29Z" transform="translate(-434.69 -459.11)"/><path d="M747.15,468.92h-7.42v6.3h8.65v1.91H737.47V459.36h10.8v1.93h-8.54V467h7.42Z" transform="translate(-434.69 -459.11)"/><path d="M772.85,473.49l4.2-14.13h2.4l-5.6,17.77h-2l-5.61-17.77h2.41Z" transform="translate(-434.69 -459.11)"/><path d="M782.6,459.36h10.74v2h-4.26v13.86h4.26v1.95H782.6v-1.95h4.17V461.32H782.6Z" transform="translate(-434.69 -459.11)"/><path d="M807,472.64a2.41,2.41,0,0,0-.37-1.38,3.47,3.47,0,0,0-1-.95,6.46,6.46,0,0,0-1.29-.64c-.46-.17-.91-.32-1.34-.46-.63-.2-1.27-.45-1.92-.73a9.18,9.18,0,0,1-1.77-1.05A5.5,5.5,0,0,1,798,466a3.81,3.81,0,0,1-.51-2,4.1,4.1,0,0,1,.51-2,5.11,5.11,0,0,1,1.32-1.53,6,6,0,0,1,1.86-.94,6.86,6.86,0,0,1,2.09-.33,6.5,6.5,0,0,1,2.23.39,6,6,0,0,1,1.9,1.08,5.12,5.12,0,0,1,1.86,3.89H807a4.67,4.67,0,0,0-.38-1.39,3.46,3.46,0,0,0-.74-1.08,3.2,3.2,0,0,0-1.11-.71,4.06,4.06,0,0,0-1.44-.25,4.16,4.16,0,0,0-1.27.19,3.25,3.25,0,0,0-1.1.55,2.65,2.65,0,0,0-.76.9,2.5,2.5,0,0,0-.29,1.24,2.25,2.25,0,0,0,.39,1.3,3.18,3.18,0,0,0,1,.9,5.8,5.8,0,0,0,1.25.61c.46.16.88.31,1.28.43s.88.29,1.33.47a10.86,10.86,0,0,1,1.29.6,8.05,8.05,0,0,1,1.16.77,5.39,5.39,0,0,1,.94,1,4.3,4.3,0,0,1,.63,1.2,4.41,4.41,0,0,1,.23,1.45,4,4,0,0,1-.53,2.08,4.8,4.8,0,0,1-1.38,1.49,6.27,6.27,0,0,1-1.9.89,7.81,7.81,0,0,1-2.12.3,7.61,7.61,0,0,1-2.32-.37,6.6,6.6,0,0,1-2-1.06,5.58,5.58,0,0,1-1.45-1.68A4.7,4.7,0,0,1,797,472h2.3a4.43,4.43,0,0,0,.46,1.48,3.54,3.54,0,0,0,.87,1.08,3.72,3.72,0,0,0,1.24.67,5,5,0,0,0,1.54.23,5.21,5.21,0,0,0,1.3-.17,3.68,3.68,0,0,0,1.14-.51,2.88,2.88,0,0,0,.82-.88A2.4,2.4,0,0,0,807,472.64Z" transform="translate(-434.69 -459.11)"/><path d="M823.92,459.36l0,12a7,7,0,0,1-.45,2.34,6,6,0,0,1-1.2,1.89,5.57,5.57,0,0,1-1.83,1.29,5.74,5.74,0,0,1-2.33.47,5.85,5.85,0,0,1-2.36-.47,5.58,5.58,0,0,1-1.82-1.27,5.91,5.91,0,0,1-1.18-1.91,6.71,6.71,0,0,1-.44-2.34l0-12h2.15l0,12a5.21,5.21,0,0,0,.25,1.53,4,4,0,0,0,.69,1.29,3.2,3.2,0,0,0,1.11.91,3.61,3.61,0,0,0,3.06,0,3.3,3.3,0,0,0,1.1-.9,4.13,4.13,0,0,0,.68-1.3,5.57,5.57,0,0,0,.25-1.53l0-12Z" transform="translate(-434.69 -459.11)"/><path d="M836.32,472.53h-5.93l-1.43,4.6H826.7l5.74-17.77h1.89L840,477.13h-2.25Zm-5.32-2h4.72l-2.34-7.71Z" transform="translate(-434.69 -459.11)"/><path d="M845.46,475.22h8.7v1.91H843.21V459.36h2.25Z" transform="translate(-434.69 -459.11)"/><path d="M858,459.36h10.74v2h-4.26v13.86h4.26v1.95H858v-1.95h4.16V461.32H858Z" transform="translate(-434.69 -459.11)"/><path d="M874.91,475.22h9.21v1.91H872.36l0-1.76,8.86-14.08h-8.7v-1.93h11.27l0,1.72Z" transform="translate(-434.69 -459.11)"/><path d="M896.63,472.53H890.7l-1.43,4.6H887l5.74-17.77h1.89l5.64,17.77H898Zm-5.32-2H896l-2.34-7.71Z" transform="translate(-434.69 -459.11)"/><path d="M915.21,461.29h-5.49v15.84h-2.2V461.29H902v-1.93h13.18Z" transform="translate(-434.69 -459.11)"/><path d="M918.3,459.36H929v2h-4.26v13.86H929v1.95H918.3v-1.95h4.16V461.32H918.3Z" transform="translate(-434.69 -459.11)"/><path d="M944.94,469.27a13.83,13.83,0,0,1-.17,1.92,10.77,10.77,0,0,1-.47,1.88,8.14,8.14,0,0,1-.81,1.68,6,6,0,0,1-1.18,1.37,5.12,5.12,0,0,1-1.57.92,5.94,5.94,0,0,1-4,0,5.12,5.12,0,0,1-1.57-.92,6.27,6.27,0,0,1-1.19-1.37,8.9,8.9,0,0,1-.82-1.7,9.77,9.77,0,0,1-.48-1.86,11.41,11.41,0,0,1-.17-1.92v-2a12.64,12.64,0,0,1,.16-1.92,9.68,9.68,0,0,1,.48-1.87,8.26,8.26,0,0,1,.82-1.69,5.79,5.79,0,0,1,1.17-1.38,5.06,5.06,0,0,1,1.57-.93,5.65,5.65,0,0,1,2-.34,5.73,5.73,0,0,1,2,.34,5.24,5.24,0,0,1,1.57.92,5.83,5.83,0,0,1,1.18,1.38,8.53,8.53,0,0,1,.82,1.69,10.55,10.55,0,0,1,.47,1.88,14.11,14.11,0,0,1,.17,1.92Zm-2.24-2a12.28,12.28,0,0,0-.08-1.32,9.16,9.16,0,0,0-.25-1.37,8.39,8.39,0,0,0-.47-1.3,4.36,4.36,0,0,0-.73-1.08,3.14,3.14,0,0,0-2.43-1,3.12,3.12,0,0,0-1.38.28,3.42,3.42,0,0,0-1,.75,4.16,4.16,0,0,0-.73,1.09,6.41,6.41,0,0,0-.47,1.29,9.19,9.19,0,0,0-.26,1.37c-.05.46-.08.89-.09,1.31v2c0,.42,0,.85.09,1.32a9.19,9.19,0,0,0,.26,1.37,8.06,8.06,0,0,0,.48,1.3,4,4,0,0,0,.73,1.09,3.29,3.29,0,0,0,1,.76,3.35,3.35,0,0,0,1.39.28,3.43,3.43,0,0,0,1.4-.28,3.29,3.29,0,0,0,1-.76,4.62,4.62,0,0,0,.72-1.08,7.68,7.68,0,0,0,.46-1.3,7.86,7.86,0,0,0,.24-1.37,12.46,12.46,0,0,0,.08-1.33Z" transform="translate(-434.69 -459.11)"/><path d="M959.59,477.13h-2.3l-6.89-13.28,0,13.28h-2.28V459.36h2.29l6.9,13.26,0-13.26h2.28Z" transform="translate(-434.69 -459.11)"/><path d="M972.83,472.64a2.41,2.41,0,0,0-.37-1.38,3.47,3.47,0,0,0-1-.95,6.65,6.65,0,0,0-1.28-.64l-1.35-.46a19.6,19.6,0,0,1-1.91-.73,8.61,8.61,0,0,1-1.77-1.05,5.37,5.37,0,0,1-1.31-1.47,3.81,3.81,0,0,1-.51-2,4.1,4.1,0,0,1,.51-2,5,5,0,0,1,1.33-1.53,5.87,5.87,0,0,1,1.85-.94,6.86,6.86,0,0,1,2.09-.33,6.46,6.46,0,0,1,2.23.39,6.18,6.18,0,0,1,1.91,1.08,5.35,5.35,0,0,1,1.33,1.68,5.17,5.17,0,0,1,.52,2.21h-2.32a4.67,4.67,0,0,0-.38-1.39,3.3,3.3,0,0,0-.74-1.08,3.2,3.2,0,0,0-1.11-.71,4.06,4.06,0,0,0-1.44-.25,4.2,4.2,0,0,0-1.27.19,3.2,3.2,0,0,0-1.09.55,2.57,2.57,0,0,0-.77.9,2.61,2.61,0,0,0-.29,1.24,2.25,2.25,0,0,0,.39,1.3,3.18,3.18,0,0,0,1,.9,5.66,5.66,0,0,0,1.26.61c.45.16.87.31,1.27.43s.88.29,1.33.47a11.8,11.8,0,0,1,1.3.6,9.34,9.34,0,0,1,1.16.77,5.75,5.75,0,0,1,.94,1,4.55,4.55,0,0,1,.62,1.2,4.41,4.41,0,0,1,.23,1.45,4,4,0,0,1-.53,2.08,4.89,4.89,0,0,1-1.37,1.49,6.44,6.44,0,0,1-1.91.89,7.81,7.81,0,0,1-2.12.3,7.66,7.66,0,0,1-2.32-.37,6.44,6.44,0,0,1-2-1.06,5.47,5.47,0,0,1-1.46-1.68,4.7,4.7,0,0,1-.6-2.27h2.31a4.21,4.21,0,0,0,.45,1.48,3.43,3.43,0,0,0,.88,1.08,3.54,3.54,0,0,0,1.24.67,4.91,4.91,0,0,0,1.53.23,5.21,5.21,0,0,0,1.3-.17,3.58,3.58,0,0,0,1.14-.51,2.88,2.88,0,0,0,.82-.88A2.4,2.4,0,0,0,972.83,472.64Z" transform="translate(-434.69 -459.11)"/><path d="M444.31,515.53h-5.94l-1.43,4.6h-2.25l5.73-17.77h1.9L448,520.13h-2.25Zm-5.33-2h4.73l-2.35-7.72Z" transform="translate(-434.69 -459.11)"/><path d="M462,520.13h-2.29l-6.9-13.28,0,13.28h-2.28V502.36h2.3l6.89,13.26,0-13.26H462Z" transform="translate(-434.69 -459.11)"/><path d="M465.74,520.13V502.36h4.12a8.79,8.79,0,0,1,3.31.63,6.86,6.86,0,0,1,2.47,1.68,7.37,7.37,0,0,1,1.54,2.59,10.39,10.39,0,0,1,.54,3.34v1.31a10.29,10.29,0,0,1-.54,3.33,7.37,7.37,0,0,1-1.54,2.59,7,7,0,0,1-2.47,1.69,8.8,8.8,0,0,1-3.31.61Zm2.3-15.92v14.08h1.82a5.94,5.94,0,0,0,2.49-.51,4.86,4.86,0,0,0,1.74-1.35,5.62,5.62,0,0,0,1-2,9.11,9.11,0,0,0,.35-2.51v-1.34a9.37,9.37,0,0,0-.35-2.5,5.8,5.8,0,0,0-1-2,4.7,4.7,0,0,0-1.73-1.33,6.1,6.1,0,0,0-2.49-.52Z" transform="translate(-434.69 -459.11)"/><path d="M496.13,502.36h10.74v2h-4.26v13.86h4.26v2H496.13v-2h4.16V504.32h-4.16Z" transform="translate(-434.69 -459.11)"/><path d="M522.34,520.13h-2.29l-6.9-13.28,0,13.28h-2.28V502.36h2.3L520,515.62l0-13.26h2.28Z" transform="translate(-434.69 -459.11)"/><path d="M538.27,504.29h-5.49v15.84h-2.2V504.29h-5.49v-1.93h13.18Z" transform="translate(-434.69 -459.11)"/><path d="M551.14,511.92h-7.42v6.3h8.65v1.91H541.46V502.36h10.8v1.93h-8.54V510h7.42Z" transform="translate(-434.69 -459.11)"/><path d="M562.33,512.88h-3.56v7.25h-2.24V502.36h5.21a8.81,8.81,0,0,1,2.34.35,5.6,5.6,0,0,1,1.93,1,4.62,4.62,0,0,1,1.29,1.66,5.44,5.44,0,0,1,.47,2.33,4.74,4.74,0,0,1-.25,1.59,5,5,0,0,1-.69,1.31,4.89,4.89,0,0,1-1.05,1,6.31,6.31,0,0,1-1.34.77l3.77,7.6v.14h-2.38ZM558.77,511h3a4.82,4.82,0,0,0,1.43-.24,3.5,3.5,0,0,0,1.18-.66,3.18,3.18,0,0,0,.8-1,3.33,3.33,0,0,0,.29-1.42,3.68,3.68,0,0,0-.28-1.5,3.12,3.12,0,0,0-.78-1.07,3.27,3.27,0,0,0-1.19-.65,5.19,5.19,0,0,0-1.51-.24h-3Z" transform="translate(-434.69 -459.11)"/><path d="M580,515.53h-5.93l-1.43,4.6h-2.26l5.74-17.77H578l5.64,17.77h-2.24Zm-5.32-2h4.72l-2.34-7.72Z" transform="translate(-434.69 -459.11)"/><path d="M598.11,514.79a7.79,7.79,0,0,1-.64,2.26,5.64,5.64,0,0,1-1.24,1.77,5.34,5.34,0,0,1-1.8,1.15,6.4,6.4,0,0,1-2.33.41,6.2,6.2,0,0,1-2-.31,5.58,5.58,0,0,1-1.6-.86,5.76,5.76,0,0,1-1.21-1.3,7.53,7.53,0,0,1-.84-1.62,8.7,8.7,0,0,1-.5-1.85,12.62,12.62,0,0,1-.18-2V510a12.62,12.62,0,0,1,.18-1.95,8.61,8.61,0,0,1,.5-1.84,7.61,7.61,0,0,1,.84-1.63,5.55,5.55,0,0,1,1.21-1.3,5.19,5.19,0,0,1,1.59-.86,6,6,0,0,1,2-.31,6.56,6.56,0,0,1,2.38.4,5.41,5.41,0,0,1,1.81,1.16,5.7,5.7,0,0,1,1.21,1.8,8.08,8.08,0,0,1,.61,2.32h-2.26a6.6,6.6,0,0,0-.38-1.5,4.23,4.23,0,0,0-.72-1.22,3.21,3.21,0,0,0-1.1-.82,4.08,4.08,0,0,0-3,0,3.29,3.29,0,0,0-1.06.71,4.36,4.36,0,0,0-.75,1.05,6.92,6.92,0,0,0-.48,1.27,9.08,9.08,0,0,0-.26,1.38,12.85,12.85,0,0,0-.08,1.36v2.5a12.85,12.85,0,0,0,.08,1.36,9.08,9.08,0,0,0,.26,1.38,6.75,6.75,0,0,0,.48,1.28,3.76,3.76,0,0,0,.74,1,3.21,3.21,0,0,0,1.06.72,3.54,3.54,0,0,0,1.43.27,3.86,3.86,0,0,0,1.55-.29,3,3,0,0,0,1.1-.78,4,4,0,0,0,.72-1.2,6.38,6.38,0,0,0,.38-1.49Z" transform="translate(-434.69 -459.11)"/><path d="M613.66,504.29h-5.49v15.84H606V504.29h-5.49v-1.93h13.18Z" transform="translate(-434.69 -459.11)"/><path d="M616.75,502.36h10.74v2h-4.26v13.86h4.26v2H616.75v-2h4.16V504.32h-4.16Z" transform="translate(-434.69 -459.11)"/><path d="M637.15,516.5l4.2-14.14h2.4l-5.6,17.77h-2l-5.62-17.77H633Z" transform="translate(-434.69 -459.11)"/><path d="M656.68,511.92h-7.42v6.3h8.66v1.91H647V502.36h10.81v1.93h-8.55V510h7.42Z" transform="translate(-434.69 -459.11)"/><path d="M686.36,515.64a2.45,2.45,0,0,0-.37-1.38,3.31,3.31,0,0,0-1-.94,6,6,0,0,0-1.29-.65c-.46-.17-.91-.32-1.34-.46-.63-.2-1.27-.45-1.92-.73a8.81,8.81,0,0,1-1.76-1.05,5.37,5.37,0,0,1-1.31-1.47,3.81,3.81,0,0,1-.51-2,4.1,4.1,0,0,1,.51-2,5.11,5.11,0,0,1,1.32-1.53,6,6,0,0,1,1.86-.94,6.85,6.85,0,0,1,2.09-.32,6.49,6.49,0,0,1,2.23.38,6.22,6.22,0,0,1,1.9,1.08,5.35,5.35,0,0,1,1.34,1.68,5.17,5.17,0,0,1,.52,2.21h-2.32a4.67,4.67,0,0,0-.38-1.39,3.46,3.46,0,0,0-.74-1.08,3.35,3.35,0,0,0-1.11-.71,4.06,4.06,0,0,0-1.44-.25,4.16,4.16,0,0,0-1.27.19,3.34,3.34,0,0,0-1.1.55,2.65,2.65,0,0,0-.76.9,2.5,2.5,0,0,0-.29,1.24,2.25,2.25,0,0,0,.39,1.3,3.18,3.18,0,0,0,1,.9,5.8,5.8,0,0,0,1.25.61c.46.17.88.31,1.28.43s.88.29,1.33.47a10.86,10.86,0,0,1,1.29.6,8.05,8.05,0,0,1,1.16.77,5.07,5.07,0,0,1,.94,1,4.3,4.3,0,0,1,.63,1.2,4.41,4.41,0,0,1,.23,1.45,4,4,0,0,1-.53,2.08,4.8,4.8,0,0,1-1.38,1.49,6.27,6.27,0,0,1-1.9.89,7.81,7.81,0,0,1-2.12.3,7.61,7.61,0,0,1-2.32-.37,6.8,6.8,0,0,1-2-1,5.62,5.62,0,0,1-1.45-1.69,4.69,4.69,0,0,1-.6-2.26h2.3a4.45,4.45,0,0,0,.46,1.47,3.43,3.43,0,0,0,.88,1.08,3.58,3.58,0,0,0,1.23.67,5,5,0,0,0,1.54.23,5.2,5.2,0,0,0,1.3-.16,3.7,3.7,0,0,0,1.14-.52,2.88,2.88,0,0,0,.82-.88A2.4,2.4,0,0,0,686.36,515.64Z" transform="translate(-434.69 -459.11)"/><path d="M704.13,504.29h-5.5v15.84h-2.2V504.29h-5.49v-1.93h13.19Z" transform="translate(-434.69 -459.11)"/><path d="M718.78,512.27a13.83,13.83,0,0,1-.17,1.92,10.55,10.55,0,0,1-.47,1.88,8.14,8.14,0,0,1-.81,1.68,6,6,0,0,1-1.18,1.37,5.12,5.12,0,0,1-1.57.92,5.94,5.94,0,0,1-4,0,5.12,5.12,0,0,1-1.57-.92,6.27,6.27,0,0,1-1.19-1.37,8.52,8.52,0,0,1-.82-1.69,10.07,10.07,0,0,1-.48-1.87,11.41,11.41,0,0,1-.17-1.92v-2a12.67,12.67,0,0,1,.16-1.93,9.87,9.87,0,0,1,.48-1.87,8.23,8.23,0,0,1,.81-1.69,6.07,6.07,0,0,1,1.18-1.38,5.06,5.06,0,0,1,1.57-.93,6.14,6.14,0,0,1,4,0,5.17,5.17,0,0,1,1.58.92,6.07,6.07,0,0,1,1.18,1.38,8,8,0,0,1,.81,1.69,9.78,9.78,0,0,1,.48,1.88,14.11,14.11,0,0,1,.17,1.93Zm-2.24-2c0-.42,0-.86-.08-1.32a10.64,10.64,0,0,0-.25-1.37,7.92,7.92,0,0,0-.47-1.29,4,4,0,0,0-.74-1.09,3.22,3.22,0,0,0-1-.75,3.4,3.4,0,0,0-1.4-.27,3.1,3.1,0,0,0-1.37.28,3.42,3.42,0,0,0-1,.75,4.16,4.16,0,0,0-.73,1.09,6.41,6.41,0,0,0-.47,1.29,9.19,9.19,0,0,0-.26,1.37c-.05.46-.08.9-.09,1.31v2q0,.63.09,1.32A9.19,9.19,0,0,0,709,515a7,7,0,0,0,.48,1.3,4.22,4.22,0,0,0,.73,1.1,3.42,3.42,0,0,0,1,.75,3.35,3.35,0,0,0,1.39.28,3.43,3.43,0,0,0,1.4-.28,3.26,3.26,0,0,0,1-.75,4.3,4.3,0,0,0,.72-1.09,7.09,7.09,0,0,0,.47-1.29,8.14,8.14,0,0,0,.24-1.38c0-.46.07-.91.08-1.33Z" transform="translate(-434.69 -459.11)"/><path d="M728.18,512.88h-3.56v7.25h-2.24V502.36h5.21a8.81,8.81,0,0,1,2.34.35,5.6,5.6,0,0,1,1.93,1,4.52,4.52,0,0,1,1.29,1.66,5.44,5.44,0,0,1,.47,2.33,4.74,4.74,0,0,1-.25,1.59,5,5,0,0,1-.69,1.31,4.89,4.89,0,0,1-1,1,6.31,6.31,0,0,1-1.34.77l3.77,7.6v.14h-2.38ZM724.62,511h3a4.76,4.76,0,0,0,1.43-.24,3.5,3.5,0,0,0,1.18-.66,3.05,3.05,0,0,0,.8-1,3.33,3.33,0,0,0,.29-1.42,3.68,3.68,0,0,0-.28-1.5,3.12,3.12,0,0,0-.78-1.07,3.19,3.19,0,0,0-1.19-.65,5.14,5.14,0,0,0-1.51-.24h-3Z" transform="translate(-434.69 -459.11)"/><path d="M742.61,511.28l4-8.92h2.56l-5.53,11.14,0,6.63h-2.1l0-6.63L736,502.36h2.58Z" transform="translate(-434.69 -459.11)"/><path d="M764.44,504.29h-5.5v15.84h-2.19V504.29h-5.5v-1.93h13.19Z" transform="translate(-434.69 -459.11)"/><path d="M777.3,511.92h-7.42v6.3h8.66v1.91H767.62V502.36h10.81v1.93h-8.55V510h7.42Z" transform="translate(-434.69 -459.11)"/><path d="M785.15,518.22h8.7v1.91h-11V502.36h2.25Z" transform="translate(-434.69 -459.11)"/><path d="M800.23,518.22h8.69v1.91H798V502.36h2.26Z" transform="translate(-434.69 -459.11)"/><path d="M812.76,502.36H823.5v2h-4.26v13.86h4.26v2H812.76v-2h4.16V504.32h-4.16Z" transform="translate(-434.69 -459.11)"/><path d="M839,520.13h-2.3l-6.89-13.28,0,13.28h-2.28V502.36h2.29l6.9,13.26,0-13.26H839Z" transform="translate(-434.69 -459.11)"/><path d="M854.41,517.8a7.12,7.12,0,0,1-2.57,2,7.77,7.77,0,0,1-3.19.63,6.2,6.2,0,0,1-2-.34,5.58,5.58,0,0,1-1.65-.89,6.32,6.32,0,0,1-1.29-1.34,8.61,8.61,0,0,1-.92-1.66,10,10,0,0,1-.56-1.88,11.1,11.1,0,0,1-.2-2v-2.06a13,13,0,0,1,.18-2,10.72,10.72,0,0,1,.5-1.89,8.86,8.86,0,0,1,.86-1.68,6,6,0,0,1,1.22-1.34,5.81,5.81,0,0,1,1.62-.9,5.88,5.88,0,0,1,2-.32,6.51,6.51,0,0,1,2.29.38,5.45,5.45,0,0,1,1.83,1.1,5.32,5.32,0,0,1,1.26,1.72,6.66,6.66,0,0,1,.59,2.25h-2.24a6.18,6.18,0,0,0-.41-1.42A3.53,3.53,0,0,0,851,505a3.14,3.14,0,0,0-1.09-.72,3.79,3.79,0,0,0-1.48-.27,3.58,3.58,0,0,0-1.43.28,3.52,3.52,0,0,0-1.08.74,4,4,0,0,0-.77,1.08,7,7,0,0,0-.5,1.3,8.15,8.15,0,0,0-.28,1.39,10.86,10.86,0,0,0-.09,1.37v2.08a11.35,11.35,0,0,0,.12,1.39,7.47,7.47,0,0,0,.32,1.4,7.4,7.4,0,0,0,.56,1.29,4.2,4.2,0,0,0,.83,1.07,3.62,3.62,0,0,0,2.55,1,6.45,6.45,0,0,0,1,0,4.68,4.68,0,0,0,1-.19,4.18,4.18,0,0,0,.89-.4,2.14,2.14,0,0,0,.69-.65l0-4h-3.62v-1.91h5.77Z" transform="translate(-434.69 -459.11)"/><path d="M875.53,513v7.13h-2.25V502.36H879a7.65,7.65,0,0,1,2.26.38,5.64,5.64,0,0,1,1.87,1,4.78,4.78,0,0,1,1.28,1.66,5.72,5.72,0,0,1,0,4.54,4.74,4.74,0,0,1-1.28,1.65,5.66,5.66,0,0,1-1.87,1A7.33,7.33,0,0,1,879,513Zm0-1.85H879a4.44,4.44,0,0,0,1.44-.25,3.42,3.42,0,0,0,1.14-.68,3.09,3.09,0,0,0,.77-1.07,3.61,3.61,0,0,0,.27-1.43,3.71,3.71,0,0,0-.27-1.45,3.23,3.23,0,0,0-.76-1.1,3.26,3.26,0,0,0-1.15-.7,4.44,4.44,0,0,0-1.44-.26h-3.51Z" transform="translate(-434.69 -459.11)"/><path d="M899.7,512.27a12.43,12.43,0,0,1-.16,1.92,10.55,10.55,0,0,1-.47,1.88,8.14,8.14,0,0,1-.81,1.68,6,6,0,0,1-1.18,1.37,5.24,5.24,0,0,1-1.57.92,5.63,5.63,0,0,1-2,.34,5.69,5.69,0,0,1-2-.34,5.07,5.07,0,0,1-1.56-.92,6,6,0,0,1-1.19-1.37,8.52,8.52,0,0,1-.82-1.69,10.07,10.07,0,0,1-.48-1.87,12.59,12.59,0,0,1-.18-1.92v-2a14.11,14.11,0,0,1,.17-1.93,9.87,9.87,0,0,1,.48-1.87,8.23,8.23,0,0,1,.81-1.69,6.07,6.07,0,0,1,1.18-1.38,5.06,5.06,0,0,1,1.57-.93,6.14,6.14,0,0,1,4,0,5.17,5.17,0,0,1,1.58.92,6.07,6.07,0,0,1,1.18,1.38,8,8,0,0,1,.81,1.69,9.78,9.78,0,0,1,.48,1.88,12.67,12.67,0,0,1,.16,1.93Zm-2.23-2c0-.42,0-.86-.08-1.32a9.19,9.19,0,0,0-.26-1.37,7.06,7.06,0,0,0-.46-1.29,4,4,0,0,0-.74-1.09,3.33,3.33,0,0,0-1-.75,3.4,3.4,0,0,0-1.4-.27,3.18,3.18,0,0,0-1.38.28,3.5,3.5,0,0,0-1,.75,4.19,4.19,0,0,0-.74,1.09,7.92,7.92,0,0,0-.47,1.29,10.64,10.64,0,0,0-.25,1.37,10.19,10.19,0,0,0-.09,1.31v2a10.22,10.22,0,0,0,.09,1.32,9.19,9.19,0,0,0,.26,1.37,7,7,0,0,0,.48,1.3,4.22,4.22,0,0,0,.73,1.1,3.42,3.42,0,0,0,1,.75,3.35,3.35,0,0,0,1.39.28,3.43,3.43,0,0,0,1.4-.28,3.38,3.38,0,0,0,1-.75,4.3,4.3,0,0,0,.72-1.09,7.92,7.92,0,0,0,.47-1.29,9.27,9.27,0,0,0,.24-1.38c.05-.46.07-.91.08-1.33Z" transform="translate(-434.69 -459.11)"/><path d="M912,515.32l1.35-13h2.14l-2.16,17.77h-2.31l-2.28-13.39-2.31,13.39h-2.32L902,502.36h2.15l1.35,13,2.29-13h2Z" transform="translate(-434.69 -459.11)"/><path d="M928.08,511.92h-7.42v6.3h8.65v1.91H918.4V502.36h10.8v1.93h-8.54V510h7.42Z" transform="translate(-434.69 -459.11)"/><path d="M939.26,512.88h-3.55v7.25h-2.25V502.36h5.21a8.89,8.89,0,0,1,2.35.35,5.64,5.64,0,0,1,1.92,1,4.65,4.65,0,0,1,1.3,1.66,5.44,5.44,0,0,1,.47,2.33,5,5,0,0,1-.25,1.59,4.71,4.71,0,0,1-.7,1.31,5.08,5.08,0,0,1-1,1,6.39,6.39,0,0,1-1.35.77l3.77,7.6v.14h-2.38ZM935.71,511h3a4.7,4.7,0,0,0,1.42-.24,3.5,3.5,0,0,0,1.18-.66,2.93,2.93,0,0,0,.8-1,3.19,3.19,0,0,0,.29-1.42,3.68,3.68,0,0,0-.28-1.5,2.88,2.88,0,0,0-.78-1.07,3.19,3.19,0,0,0-1.19-.65,5.14,5.14,0,0,0-1.51-.24h-3Z" transform="translate(-434.69 -459.11)"/><path d="M958.23,511.92h-7.42v6.3h8.66v1.91H948.55V502.36h10.81v1.93h-8.55V510h7.42Z" transform="translate(-434.69 -459.11)"/><path d="M963.3,520.13V502.36h4.11a8.85,8.85,0,0,1,3.32.63,6.9,6.9,0,0,1,2.46,1.68,7.09,7.09,0,0,1,1.54,2.59,10.13,10.13,0,0,1,.55,3.34v1.31a10,10,0,0,1-.55,3.33,7,7,0,0,1-4,4.28,8.85,8.85,0,0,1-3.32.61Zm2.3-15.92v14.08h1.81a5.94,5.94,0,0,0,2.49-.51,4.86,4.86,0,0,0,1.74-1.35,5.63,5.63,0,0,0,1-2,9.51,9.51,0,0,0,.35-2.51v-1.34a9,9,0,0,0-.36-2.5,5.78,5.78,0,0,0-1-2,4.81,4.81,0,0,0-1.74-1.33,6.1,6.1,0,0,0-2.49-.52Z" transform="translate(-434.69 -459.11)"/><path d="M435.8,563.13V545.36h5.28a8.57,8.57,0,0,1,2.15.29,5.79,5.79,0,0,1,1.87.84,4.51,4.51,0,0,1,1.31,1.47,4.34,4.34,0,0,1,.47,2.14,4,4,0,0,1-.22,1.27,3.89,3.89,0,0,1-.59,1,4.43,4.43,0,0,1-.87.8,6.89,6.89,0,0,1-1.07.58,5.19,5.19,0,0,1,1.31.59,4.27,4.27,0,0,1,1,.93,4.07,4.07,0,0,1,.67,1.23,4.42,4.42,0,0,1,.24,1.48,4.53,4.53,0,0,1-.48,2.19,4.73,4.73,0,0,1-1.3,1.6,6.28,6.28,0,0,1-1.89,1,7.44,7.44,0,0,1-2.2.35Zm2.27-10.19h3.15a4.35,4.35,0,0,0,1.24-.2,3.61,3.61,0,0,0,1.09-.55,2.87,2.87,0,0,0,.77-.89,2.5,2.5,0,0,0,.29-1.22,2.48,2.48,0,0,0-1.05-2.13,3.44,3.44,0,0,0-1.12-.49,5.48,5.48,0,0,0-1.28-.17h-3.09Zm0,1.88v6.4h3.48a4.24,4.24,0,0,0,1.34-.24,3.61,3.61,0,0,0,1.12-.63,2.91,2.91,0,0,0,.78-1,3,3,0,0,0,.28-1.33,3,3,0,0,0-.25-1.34,2.88,2.88,0,0,0-.72-1,3.35,3.35,0,0,0-1.09-.63,4.76,4.76,0,0,0-1.34-.24Z" transform="translate(-434.69 -459.11)"/><path d="M456.14,554.28l4.05-8.92h2.56l-5.53,11.14,0,6.63h-2.1l0-6.63-5.53-11.14h2.58Z" transform="translate(-434.69 -459.11)"/><path d="M492.2,563.13h-2.14v-8.21h-7.28v8.21h-2.13V545.36h2.13V553h7.28v-7.64h2.14Z" transform="translate(-434.69 -459.11)"/><path d="M504.62,558.53h-5.94l-1.43,4.6H495l5.73-17.77h1.9l5.64,17.77H506Zm-5.33-2H504l-2.35-7.72Z" transform="translate(-434.69 -459.11)"/><path d="M517.09,555.88h-3.55v7.25h-2.25V545.36h5.22a8.81,8.81,0,0,1,2.34.35,5.64,5.64,0,0,1,1.92,1,4.65,4.65,0,0,1,1.3,1.66,5.44,5.44,0,0,1,.47,2.33,4.72,4.72,0,0,1-.94,2.9,5.4,5.4,0,0,1-1.05,1,6.39,6.39,0,0,1-1.35.77L523,563l0,.14h-2.38ZM513.54,554h3a4.82,4.82,0,0,0,1.43-.24,3.45,3.45,0,0,0,1.17-.66,2.93,2.93,0,0,0,.8-1,3.19,3.19,0,0,0,.3-1.42,3.86,3.86,0,0,0-.28-1.5,3,3,0,0,0-.79-1.07,3.19,3.19,0,0,0-1.19-.65,5.12,5.12,0,0,0-1.5-.24h-3Z" transform="translate(-434.69 -459.11)"/><path d="M531.61,559.5l4.2-14.14h2.4l-5.6,17.77h-2L525,545.36h2.42Z" transform="translate(-434.69 -459.11)"/><path d="M549.85,558.53h-5.93l-1.43,4.6h-2.26L546,545.36h1.89l5.64,17.77h-2.25Zm-5.32-2h4.72l-2.34-7.72Z" transform="translate(-434.69 -459.11)"/><path d="M562.33,555.88h-3.56v7.25h-2.24V545.36h5.21a8.81,8.81,0,0,1,2.34.35,5.6,5.6,0,0,1,1.93,1,4.62,4.62,0,0,1,1.29,1.66,5.44,5.44,0,0,1,.47,2.33,4.74,4.74,0,0,1-.25,1.59,5,5,0,0,1-.69,1.31,4.89,4.89,0,0,1-1.05,1,6.31,6.31,0,0,1-1.34.77l3.77,7.6v.14h-2.38ZM558.77,554h3a4.82,4.82,0,0,0,1.43-.24,3.5,3.5,0,0,0,1.18-.66,3.18,3.18,0,0,0,.8-1,3.33,3.33,0,0,0,.29-1.42,3.68,3.68,0,0,0-.28-1.5,3.12,3.12,0,0,0-.78-1.07,3.27,3.27,0,0,0-1.19-.65,5.19,5.19,0,0,0-1.51-.24h-3Z" transform="translate(-434.69 -459.11)"/><path d="M571.29,563.13V545.36h4.11a8.79,8.79,0,0,1,3.31.63,6.86,6.86,0,0,1,2.47,1.68,7.46,7.46,0,0,1,1.54,2.59,10.39,10.39,0,0,1,.54,3.34v1.31a10.29,10.29,0,0,1-.54,3.33,7.37,7.37,0,0,1-1.54,2.59,7,7,0,0,1-2.47,1.69,8.8,8.8,0,0,1-3.31.61Zm2.29-15.92v14.08h1.82a5.94,5.94,0,0,0,2.49-.51,4.86,4.86,0,0,0,1.74-1.35,5.8,5.8,0,0,0,1-2,9.12,9.12,0,0,0,.34-2.51v-1.34a8.63,8.63,0,0,0-.35-2.5,5.8,5.8,0,0,0-1-2,4.7,4.7,0,0,0-1.73-1.33,6.1,6.1,0,0,0-2.49-.52Z" transform="translate(-434.69 -459.11)"/><path d="M593.46,545.91a5.92,5.92,0,0,1-.14,1.21,7.35,7.35,0,0,1-.42,1.25,7.23,7.23,0,0,1-.66,1.18,5.75,5.75,0,0,1-.91,1l-1.23-.88a7.22,7.22,0,0,0,.86-1.77,6.43,6.43,0,0,0,.29-1.95v-1.84h2.21Z" transform="translate(-434.69 -459.11)"/><path d="M611,558.64a2.46,2.46,0,0,0-.38-1.38,3.27,3.27,0,0,0-1-.94,6.77,6.77,0,0,0-1.29-.65l-1.35-.46c-.63-.2-1.26-.45-1.91-.73a8.61,8.61,0,0,1-1.77-1.05A5.37,5.37,0,0,1,602,552a3.81,3.81,0,0,1-.5-2,4.1,4.1,0,0,1,.5-2.05,5,5,0,0,1,1.33-1.53,5.87,5.87,0,0,1,1.85-.94,6.85,6.85,0,0,1,2.09-.32,6.47,6.47,0,0,1,4.14,1.46,5.47,5.47,0,0,1,1.33,1.68,5,5,0,0,1,.52,2.21H611a4.67,4.67,0,0,0-.38-1.39,3.3,3.3,0,0,0-.74-1.08,3.41,3.41,0,0,0-1.1-.71,4.12,4.12,0,0,0-1.45-.25,4.47,4.47,0,0,0-1.26.19,3.16,3.16,0,0,0-1.1.55,2.68,2.68,0,0,0-.77.9,2.61,2.61,0,0,0-.29,1.24,2.25,2.25,0,0,0,.39,1.3,3.18,3.18,0,0,0,1,.9,6.12,6.12,0,0,0,1.26.61c.45.17.87.31,1.27.43s.89.3,1.33.47a11.8,11.8,0,0,1,1.3.6,9.34,9.34,0,0,1,1.16.77,5.39,5.39,0,0,1,.94,1,4.26,4.26,0,0,1,.85,2.65,4,4,0,0,1-.53,2.08,4.76,4.76,0,0,1-1.37,1.49,6.32,6.32,0,0,1-1.91.89,7.75,7.75,0,0,1-2.12.3,7.66,7.66,0,0,1-2.32-.37,6.52,6.52,0,0,1-2-1,5.51,5.51,0,0,1-1.46-1.69A4.69,4.69,0,0,1,601,558h2.31a4.22,4.22,0,0,0,.45,1.47,3.57,3.57,0,0,0,.88,1.08,3.63,3.63,0,0,0,1.24.67,4.68,4.68,0,0,0,1.53.23,5.2,5.2,0,0,0,1.3-.16,3.5,3.5,0,0,0,1.14-.52,2.77,2.77,0,0,0,.82-.88A2.41,2.41,0,0,0,611,558.64Z" transform="translate(-434.69 -459.11)"/><path d="M643.33,560.8a7.07,7.07,0,0,1-2.58,2,7.75,7.75,0,0,1-3.18.63,6.15,6.15,0,0,1-2-.34,5.64,5.64,0,0,1-1.66-.89,6.27,6.27,0,0,1-1.28-1.34,8.11,8.11,0,0,1-.92-1.66,9.26,9.26,0,0,1-.56-1.88,10.25,10.25,0,0,1-.2-2v-2.06a11.82,11.82,0,0,1,.17-2,9.94,9.94,0,0,1,.51-1.89,8.83,8.83,0,0,1,.85-1.68,6,6,0,0,1,1.23-1.34,5.75,5.75,0,0,1,3.64-1.22,6.57,6.57,0,0,1,2.3.38,5.41,5.41,0,0,1,3.09,2.82,6.65,6.65,0,0,1,.58,2.25h-2.23a6.18,6.18,0,0,0-.42-1.42,3.5,3.5,0,0,0-.73-1.12,3.18,3.18,0,0,0-1.1-.72,3.71,3.71,0,0,0-1.47-.27,3.54,3.54,0,0,0-1.43.28,3.45,3.45,0,0,0-1.09.74,4.23,4.23,0,0,0-.77,1.08,7.78,7.78,0,0,0-.5,1.3,9.25,9.25,0,0,0-.28,1.39,10.8,10.8,0,0,0-.08,1.37v2.08a9.62,9.62,0,0,0,.11,1.39,8.38,8.38,0,0,0,.33,1.4,6.71,6.71,0,0,0,.56,1.29,4.4,4.4,0,0,0,.82,1.08,3.74,3.74,0,0,0,1.12.73,3.62,3.62,0,0,0,1.44.29,6.45,6.45,0,0,0,1,0,4.59,4.59,0,0,0,1-.19,3.78,3.78,0,0,0,.89-.4,2.17,2.17,0,0,0,.7-.65l0-4h-3.61v-1.91h5.76Z" transform="translate(-434.69 -459.11)"/><path d="M652.79,555.88h-3.55v7.25H647V545.36h5.21a9,9,0,0,1,2.35.35,5.64,5.64,0,0,1,1.92,1,4.52,4.52,0,0,1,1.29,1.66,5.3,5.3,0,0,1,.47,2.33,4.74,4.74,0,0,1-.25,1.59,4.44,4.44,0,0,1-.69,1.31,4.89,4.89,0,0,1-1,1,6.08,6.08,0,0,1-1.34.77l3.77,7.6v.14h-2.38ZM649.24,554h3a4.71,4.71,0,0,0,1.43-.24,3.5,3.5,0,0,0,1.18-.66,2.93,2.93,0,0,0,.8-1,3.19,3.19,0,0,0,.29-1.42,3.68,3.68,0,0,0-.28-1.5,3,3,0,0,0-.78-1.07,3.19,3.19,0,0,0-1.19-.65,5.14,5.14,0,0,0-1.51-.24h-3Z" transform="translate(-434.69 -459.11)"/><path d="M673.54,555.27a12.43,12.43,0,0,1-.16,1.92,10.55,10.55,0,0,1-.47,1.88,8.14,8.14,0,0,1-.81,1.68,6.23,6.23,0,0,1-1.18,1.37,5.24,5.24,0,0,1-1.57.92,6,6,0,0,1-4,0,5.24,5.24,0,0,1-1.57-.92,6.23,6.23,0,0,1-1.18-1.37,8.52,8.52,0,0,1-.82-1.69,11,11,0,0,1-.49-1.87,14,14,0,0,1-.17-1.92v-2a14.11,14.11,0,0,1,.17-1.93,10.67,10.67,0,0,1,.47-1.87,8.81,8.81,0,0,1,.82-1.69,5.83,5.83,0,0,1,1.18-1.38,5.06,5.06,0,0,1,1.57-.93,5.63,5.63,0,0,1,2-.33,5.69,5.69,0,0,1,2,.33,5.17,5.17,0,0,1,1.58.92,6,6,0,0,1,1.17,1.38,8,8,0,0,1,.82,1.69,9.78,9.78,0,0,1,.48,1.88,12.67,12.67,0,0,1,.16,1.93Zm-2.23-2q0-.63-.09-1.32a8,8,0,0,0-.25-1.37,6.41,6.41,0,0,0-.47-1.29,4,4,0,0,0-.73-1.09,3.42,3.42,0,0,0-1-.75,3.35,3.35,0,0,0-1.39-.27,3.18,3.18,0,0,0-1.38.28,3.38,3.38,0,0,0-1,.75,4.19,4.19,0,0,0-.74,1.09,7.92,7.92,0,0,0-.47,1.29,9.16,9.16,0,0,0-.25,1.37,10.19,10.19,0,0,0-.09,1.31v2a10.22,10.22,0,0,0,.09,1.32,9.19,9.19,0,0,0,.26,1.37,7,7,0,0,0,.48,1.3,4,4,0,0,0,.73,1.1,3.42,3.42,0,0,0,1,.75,3.31,3.31,0,0,0,1.39.28,3.35,3.35,0,0,0,1.39-.28,3.3,3.3,0,0,0,1-.75,4.3,4.3,0,0,0,.72-1.09A7.92,7.92,0,0,0,671,558a9.27,9.27,0,0,0,.24-1.38c0-.46.07-.91.08-1.33Z" transform="translate(-434.69 -459.11)"/><path d="M685.87,558.32l1.36-13h2.14l-2.16,17.77H684.9l-2.28-13.39-2.31,13.39H678l-2.16-17.77H678l1.35,13,2.28-13h2Z" transform="translate(-434.69 -459.11)"/><path d="M704.13,547.29h-5.5v15.84h-2.2V547.29h-5.49v-1.93h13.19Z" transform="translate(-434.69 -459.11)"/><path d="M718.36,563.13h-2.14v-8.21h-7.28v8.21h-2.13V545.36h2.13V553h7.28v-7.64h2.14Z" transform="translate(-434.69 -459.11)"/><path d="M739.92,561.22h8.69v1.91h-11V545.36h2.26Z" transform="translate(-434.69 -459.11)"/><path d="M760.93,558.53H755l-1.43,4.6h-2.26l5.74-17.77h1.89l5.64,17.77h-2.24Zm-5.32-2h4.72L758,548.85Z" transform="translate(-434.69 -459.11)"/><path d="M767.5,563.13V545.36h5.29a8.49,8.49,0,0,1,2.14.29,5.69,5.69,0,0,1,1.87.84,4.4,4.4,0,0,1,1.31,1.47,4.34,4.34,0,0,1,.47,2.14,3.72,3.72,0,0,1-.22,1.27,3.63,3.63,0,0,1-.59,1,4.43,4.43,0,0,1-.87.8,6.79,6.79,0,0,1-1.06.58,5.29,5.29,0,0,1,1.3.59,4.52,4.52,0,0,1,1,.93,4.27,4.27,0,0,1,.66,1.23,4.42,4.42,0,0,1,.24,1.48,4.53,4.53,0,0,1-.48,2.19,4.73,4.73,0,0,1-1.3,1.6,6.28,6.28,0,0,1-1.89,1,7.39,7.39,0,0,1-2.2.35Zm2.27-10.19h3.15a4.47,4.47,0,0,0,1.25-.2,3.67,3.67,0,0,0,1.08-.55,2.74,2.74,0,0,0,.77-.89,2.4,2.4,0,0,0,.29-1.22,2.65,2.65,0,0,0-.28-1.27,2.54,2.54,0,0,0-.77-.86,3.29,3.29,0,0,0-1.11-.49,5.56,5.56,0,0,0-1.29-.17h-3.09Zm0,1.88v6.4h3.48a4.24,4.24,0,0,0,1.34-.24,3.66,3.66,0,0,0,1.13-.63,3,3,0,0,0,1.06-2.32,3.17,3.17,0,0,0-.25-1.34,3,3,0,0,0-.73-1,3.41,3.41,0,0,0-1.08-.63,4.89,4.89,0,0,0-1.35-.24Z" transform="translate(-434.69 -459.11)"/><path d="M803.56,555.88H800v7.25h-2.24V545.36H803a8.81,8.81,0,0,1,2.34.35,5.69,5.69,0,0,1,1.93,1,4.62,4.62,0,0,1,1.29,1.66,5.44,5.44,0,0,1,.47,2.33,4.72,4.72,0,0,1-.94,2.9,4.89,4.89,0,0,1-1.05,1,6.57,6.57,0,0,1-1.34.77l3.77,7.6v.14h-2.38ZM800,554h3a4.82,4.82,0,0,0,1.43-.24,3.5,3.5,0,0,0,1.18-.66,3.18,3.18,0,0,0,.8-1,3.33,3.33,0,0,0,.29-1.42,3.86,3.86,0,0,0-.28-1.5,3.12,3.12,0,0,0-.78-1.07,3.27,3.27,0,0,0-1.19-.65,5.19,5.19,0,0,0-1.51-.24h-3Z" transform="translate(-434.69 -459.11)"/><path d="M822.54,554.92h-7.43v6.3h8.66v1.91H812.86V545.36h10.8v1.93h-8.55V553h7.43Z" transform="translate(-434.69 -459.11)"/><path d="M837.14,558.64a2.46,2.46,0,0,0-.38-1.38,3.16,3.16,0,0,0-1-.94,6.49,6.49,0,0,0-1.29-.65l-1.35-.46c-.63-.2-1.26-.45-1.91-.73a8.61,8.61,0,0,1-1.77-1.05,5.54,5.54,0,0,1-1.31-1.47,3.81,3.81,0,0,1-.5-2,4.1,4.1,0,0,1,.5-2.05,5,5,0,0,1,1.33-1.53,5.87,5.87,0,0,1,1.85-.94,6.85,6.85,0,0,1,2.09-.32,6.45,6.45,0,0,1,2.23.38,6.27,6.27,0,0,1,1.91,1.08,5.47,5.47,0,0,1,1.33,1.68,5,5,0,0,1,.52,2.21h-2.32a5,5,0,0,0-.37-1.39A3.48,3.48,0,0,0,836,548a3.41,3.41,0,0,0-1.1-.71,4.12,4.12,0,0,0-1.45-.25,4.47,4.47,0,0,0-1.26.19,3.25,3.25,0,0,0-1.1.55,2.68,2.68,0,0,0-.77.9,2.61,2.61,0,0,0-.29,1.24,2.25,2.25,0,0,0,.39,1.3,3.18,3.18,0,0,0,1,.9,6.12,6.12,0,0,0,1.26.61c.45.17.88.31,1.27.43s.89.3,1.33.47a11.8,11.8,0,0,1,1.3.6,9.34,9.34,0,0,1,1.16.77,5.39,5.39,0,0,1,.94,1,4.26,4.26,0,0,1,.85,2.65,3.93,3.93,0,0,1-.53,2.08,4.76,4.76,0,0,1-1.37,1.49,6.32,6.32,0,0,1-1.91.89,7.54,7.54,0,0,1-4.44-.07,6.52,6.52,0,0,1-2-1,5.51,5.51,0,0,1-1.46-1.69,4.93,4.93,0,0,1-.6-2.26h2.31a4.22,4.22,0,0,0,.45,1.47,3.57,3.57,0,0,0,.88,1.08,3.63,3.63,0,0,0,1.24.67,4.72,4.72,0,0,0,1.53.23,5.2,5.2,0,0,0,1.3-.16,3.5,3.5,0,0,0,1.14-.52,2.77,2.77,0,0,0,.82-.88A2.41,2.41,0,0,0,837.14,558.64Z" transform="translate(-434.69 -459.11)"/><path d="M852.69,554.92h-7.42v6.3h8.65v1.91H843V545.36h10.8v1.93h-8.54V553h7.42Z" transform="translate(-434.69 -459.11)"/><path d="M866.47,558.53h-5.93l-1.43,4.6h-2.26l5.74-17.77h1.89l5.64,17.77h-2.24Zm-5.32-2h4.73l-2.35-7.72Z" transform="translate(-434.69 -459.11)"/><path d="M879,555.88H875.4v7.25h-2.25V545.36h5.22a8.81,8.81,0,0,1,2.34.35,5.64,5.64,0,0,1,1.92,1,4.65,4.65,0,0,1,1.3,1.66,5.44,5.44,0,0,1,.47,2.33,4.72,4.72,0,0,1-.94,2.9,5.4,5.4,0,0,1-1.05,1,6.39,6.39,0,0,1-1.35.77l3.77,7.6v.14h-2.38ZM875.4,554h3a4.7,4.7,0,0,0,1.42-.24,3.5,3.5,0,0,0,1.18-.66,2.93,2.93,0,0,0,.8-1,3.19,3.19,0,0,0,.29-1.42,3.68,3.68,0,0,0-.28-1.5,2.88,2.88,0,0,0-.78-1.07,3.19,3.19,0,0,0-1.19-.65,5.12,5.12,0,0,0-1.5-.24h-3Z" transform="translate(-434.69 -459.11)"/><path d="M899.66,557.79a7.79,7.79,0,0,1-.64,2.26,5.81,5.81,0,0,1-1.24,1.77A5.44,5.44,0,0,1,896,563a6.44,6.44,0,0,1-2.33.41,6.31,6.31,0,0,1-2-.31,5.86,5.86,0,0,1-1.6-.86,5.71,5.71,0,0,1-1.2-1.3,8,8,0,0,1-.85-1.62,10.07,10.07,0,0,1-.5-1.85,11.49,11.49,0,0,1-.17-2V553a11.49,11.49,0,0,1,.17-2,10,10,0,0,1,.5-1.84,8.12,8.12,0,0,1,.85-1.63,5.51,5.51,0,0,1,1.2-1.3,5.24,5.24,0,0,1,1.6-.86,6,6,0,0,1,2-.31,6.56,6.56,0,0,1,2.38.4,5.41,5.41,0,0,1,1.81,1.16,5.7,5.7,0,0,1,1.21,1.8,8.08,8.08,0,0,1,.61,2.32H897.4a7.17,7.17,0,0,0-.38-1.5,4.23,4.23,0,0,0-.72-1.22,3.15,3.15,0,0,0-1.11-.82,4.06,4.06,0,0,0-3,0,3.16,3.16,0,0,0-1.06.72,4.12,4.12,0,0,0-.75,1,6.92,6.92,0,0,0-.48,1.27,9.08,9.08,0,0,0-.26,1.38,10.65,10.65,0,0,0-.08,1.36v2.5a10.65,10.65,0,0,0,.08,1.36,9.08,9.08,0,0,0,.26,1.38,6.75,6.75,0,0,0,.48,1.28,3.76,3.76,0,0,0,.74,1,3.11,3.11,0,0,0,1.06.72,3.51,3.51,0,0,0,1.43.27,4,4,0,0,0,1.54-.28,3.08,3.08,0,0,0,1.11-.79,4,4,0,0,0,.72-1.2,6.92,6.92,0,0,0,.38-1.49Z" transform="translate(-434.69 -459.11)"/><path d="M914.37,563.13h-2.14v-8.21h-7.29v8.21h-2.12V545.36h2.12V553h7.29v-7.64h2.14Z" transform="translate(-434.69 -459.11)"/></svg>