<svg xmlns="http://www.w3.org/2000/svg" viewBox="0 0 582.78 113.04"><path d="M382,515.76h-6v-2h14.44v2H384.3v16.38H382Z" transform="translate(-375.63 -513.44)"/><path d="M394.25,513.78H400c3.71,0,6.41,1.34,6.41,5.18,0,3.66-2.7,5.43-6.41,5.43h-3.35v7.75h-2.37Zm5.38,8.7c2.85,0,4.41-1.17,4.41-3.52s-1.56-3.28-4.41-3.28h-3v6.8Zm1.7,0,5.58,9.63h-2.65l-4.77-8.4Z" transform="translate(-375.63 -513.44)"/><path d="M415.24,513.78h2.68l6.16,18.36h-2.51l-3.15-10.24c-.64-2-1.25-4.06-1.81-6.19h-.11c-.59,2.13-1.17,4.14-1.81,6.19l-3.21,10.24h-2.4Zm-2.9,10.89h8.4v1.9h-8.4Z" transform="translate(-375.63 -513.44)"/><path d="M427.23,513.78h2.56l5.86,11.53,1.75,3.81h.06c-.08-1.82-.31-3.89-.31-5.82v-9.52h2.23v18.36h-2.56L431,520.61l-1.76-3.81h-.06c.09,1.88.31,3.84.31,5.74v9.6h-2.23Z" transform="translate(-375.63 -513.44)"/><path d="M443.54,529.76l1.39-1.62a7.68,7.68,0,0,0,5.35,2.27c2.51,0,4-1.21,4-2.89,0-2-1.42-2.52-3.26-3.3L448.33,523c-1.81-.72-3.93-2-3.93-4.73s2.51-4.87,6-4.87a8,8,0,0,1,5.63,2.27l-1.23,1.51a6.43,6.43,0,0,0-4.49-1.71c-2.12,0-3.54,1-3.54,2.66s1.7,2.41,3.26,3l2.57,1.14c2.26.9,4,2.19,4,4.9,0,2.92-2.45,5.24-6.47,5.24A9.24,9.24,0,0,1,443.54,529.76Z" transform="translate(-375.63 -513.44)"/><path d="M462.13,513.78h2.31v16.38h9v2H462.13Z" transform="translate(-375.63 -513.44)"/><path d="M482.15,513.78h2.67L491,532.14h-2.51l-3.15-10.24c-.64-2-1.25-4.06-1.81-6.19h-.11c-.59,2.13-1.17,4.14-1.81,6.19l-3.21,10.24H476Zm-2.9,10.89h8.39v1.9h-8.39Z" transform="translate(-375.63 -513.44)"/><path d="M499,515.76H493v-2h14.44v2h-6.05v16.38H499Z" transform="translate(-375.63 -513.44)"/><path d="M511.22,530.16h4.54v-14.4h-4.54v-2h11.43v2h-4.54v14.4h4.54v2H511.22Z" transform="translate(-375.63 -513.44)"/><path d="M527.58,513.78h2.57L536,525.31l1.76,3.81h0c-.08-1.82-.3-3.89-.3-5.82v-9.52h2.23v18.36h-2.57l-5.85-11.53-1.76-3.81h0c.08,1.88.3,3.84.3,5.74v9.6h-2.23Z" transform="translate(-375.63 -513.44)"/><path d="M543.5,523c0-5.94,3.37-9.52,8.11-9.52a6.72,6.72,0,0,1,5,2.24l-1.34,1.48a4.75,4.75,0,0,0-3.71-1.65c-3.43,0-5.66,2.83-5.66,7.39s2,7.51,5.61,7.51a4.52,4.52,0,0,0,3.15-1.07v-4.78h-3.63v-1.94h5.8v7.73a7.64,7.64,0,0,1-5.46,2.13C546.82,532.48,543.5,529,543.5,523Z" transform="translate(-375.63 -513.44)"/><path d="M577,523c0-5.94,3.37-9.52,8.11-9.52a6.72,6.72,0,0,1,5.05,2.24l-1.34,1.48a4.75,4.75,0,0,0-3.71-1.65c-3.42,0-5.66,2.83-5.66,7.39s2,7.51,5.61,7.51a4.52,4.52,0,0,0,3.15-1.07v-4.78h-3.63v-1.94h5.8v7.73a7.64,7.64,0,0,1-5.46,2.13C580.27,532.48,577,529,577,523Z" transform="translate(-375.63 -513.44)"/><path d="M595,513.78h5.71c3.71,0,6.42,1.34,6.42,5.18,0,3.66-2.71,5.43-6.42,5.43h-3.34v7.75H595Zm5.38,8.7c2.84,0,4.4-1.17,4.4-3.52s-1.56-3.28-4.4-3.28h-3v6.8Zm1.7,0,5.58,9.63H605l-4.77-8.4Z" transform="translate(-375.63 -513.44)"/><path d="M610.26,522.88c0-5.94,2.9-9.44,7-9.44s7,3.5,7,9.44-2.9,9.6-7,9.6S610.26,528.9,610.26,522.88Zm11.63,0c0-4.62-1.84-7.37-4.6-7.37s-4.6,2.75-4.6,7.37,1.84,7.53,4.6,7.53S621.89,527.58,621.89,522.88Z" transform="translate(-375.63 -513.44)"/><path d="M625.93,513.75h2.62l1.34,11.53c.17,1.54.28,2.44.36,4.26h.08c.34-1.82.53-2.72.9-4.23l1.78-6.83h2.23l1.73,6.83c.39,1.51.56,2.41.89,4.23H638c.11-1.82.17-2.72.34-4.23l1.28-11.56h2.51l-2.68,18.39h-2.9l-1.78-7.39c-.28-1.12-.5-2.18-.67-3.3H634c-.2,1.12-.37,2.18-.64,3.3l-1.79,7.39h-2.84Z" transform="translate(-375.63 -513.44)"/><path d="M649.57,515.76h-6.05v-2H658v2h-6.05v16.38h-2.34Z" transform="translate(-375.63 -513.44)"/><path d="M661.3,513.78h2.37v7.67h7.59v-7.67h2.37v18.36h-2.37v-8.62h-7.59v8.62H661.3Z" transform="translate(-375.63 -513.44)"/><path d="M696.29,513.78h2.31v16.38h9v2H696.29Z" transform="translate(-375.63 -513.44)"/><path d="M716.3,513.78H719l6.16,18.36h-2.51l-3.15-10.24c-.64-2-1.25-4.06-1.81-6.19h-.11c-.59,2.13-1.17,4.14-1.81,6.19l-3.21,10.24h-2.4Zm-2.9,10.89h8.4v1.9h-8.4Z" transform="translate(-375.63 -513.44)"/><path d="M728.76,513.78H734c3.74,0,6.27,1.26,6.27,4.48a4,4,0,0,1-3.2,4v.11c2.67.42,4.23,1.88,4.23,4.4,0,3.61-2.79,5.37-6.88,5.37h-5.61Zm4.8,7.72c3.12,0,4.38-1,4.38-3s-1.45-2.71-4.27-2.71h-2.59v5.76Zm.47,8.68c3.13,0,4.94-1,4.94-3.52,0-2.27-1.73-3.2-4.94-3.2h-2.95v6.72Z" transform="translate(-375.63 -513.44)"/><path d="M762.21,513.78h5.72c3.71,0,6.41,1.34,6.41,5.18,0,3.66-2.7,5.43-6.41,5.43h-3.34v7.75h-2.38Zm5.39,8.7c2.84,0,4.4-1.17,4.4-3.52s-1.56-3.28-4.4-3.28h-3v6.8Zm1.7,0,5.57,9.63h-2.65l-4.76-8.4Z" transform="translate(-375.63 -513.44)"/><path d="M779.36,513.78h11.32v2h-9v5.74h7.58v2H781.7v6.67H791v2h-11.6Z" transform="translate(-375.63 -513.44)"/><path d="M794.78,529.76l1.39-1.62a7.68,7.68,0,0,0,5.35,2.27c2.51,0,4-1.21,4-2.89,0-2-1.42-2.52-3.26-3.3L799.57,523c-1.81-.72-3.93-2-3.93-4.73s2.51-4.87,6-4.87a7.91,7.91,0,0,1,5.63,2.27L806,517.22a6.43,6.43,0,0,0-4.49-1.71c-2.12,0-3.54,1-3.54,2.66s1.7,2.41,3.26,3l2.56,1.14c2.26.9,4,2.19,4,4.9,0,2.92-2.46,5.24-6.47,5.24A9.22,9.22,0,0,1,794.78,529.76Z" transform="translate(-375.63 -513.44)"/><path d="M812.81,513.78h11.32v2h-9v5.74h7.58v2h-7.58v6.67h9.26v2h-11.6Z" transform="translate(-375.63 -513.44)"/><path d="M833.38,513.78h2.68l6.16,18.36h-2.51l-3.15-10.24c-.64-2-1.25-4.06-1.81-6.19h-.11c-.59,2.13-1.17,4.14-1.81,6.19l-3.21,10.24h-2.4Zm-2.9,10.89h8.4v1.9h-8.4Z" transform="translate(-375.63 -513.44)"/><path d="M845.84,513.78h5.72c3.71,0,6.41,1.34,6.41,5.18,0,3.66-2.7,5.43-6.41,5.43h-3.35v7.75h-2.37Zm5.38,8.7c2.85,0,4.41-1.17,4.41-3.52s-1.56-3.28-4.41-3.28h-3v6.8Zm1.7,0,5.58,9.63h-2.65l-4.77-8.4Z" transform="translate(-375.63 -513.44)"/><path d="M861.62,523c0-5.91,3.43-9.52,8.2-9.52a6.84,6.84,0,0,1,5,2.24l-1.34,1.48a4.93,4.93,0,0,0-3.68-1.65c-3.49,0-5.77,2.83-5.77,7.39s2.28,7.51,5.77,7.51a5.28,5.28,0,0,0,4.1-2l1.33,1.43a7,7,0,0,1-5.66,2.66C865.08,532.48,861.62,529,861.62,523Z" transform="translate(-375.63 -513.44)"/><path d="M878.74,513.78h2.37v7.67h7.58v-7.67h2.37v18.36h-2.37v-8.62h-7.58v8.62h-2.37Z" transform="translate(-375.63 -513.44)"/><path d="M377.42,577.16H382v-14.4h-4.54v-2h11.43v2H384.3v14.4h4.55v2H377.42Z" transform="translate(-375.63 -513.44)"/><path d="M393.78,560.78h2.56l5.86,11.53,1.75,3.81H404c-.08-1.82-.31-3.89-.31-5.82v-9.52h2.23v18.36h-2.56l-5.86-11.53-1.75-3.81h-.06c.09,1.88.31,3.84.31,5.74v9.6h-2.23Z" transform="translate(-375.63 -513.44)"/><path d="M415.41,562.76h-6.05v-2H423.8v2h-6.05v16.38h-2.34Z" transform="translate(-375.63 -513.44)"/><path d="M426.28,569.88c0-5.94,2.9-9.44,7-9.44s7,3.5,7,9.44-2.9,9.6-7,9.6S426.28,575.9,426.28,569.88Zm11.63,0c0-4.62-1.84-7.37-4.6-7.37s-4.6,2.75-4.6,7.37,1.84,7.53,4.6,7.53S437.91,574.58,437.91,569.88Z" transform="translate(-375.63 -513.44)"/><path d="M461.24,560.78h5.52c4,0,6.77,1.37,6.77,5.4s-2.76,5.68-6.77,5.68h-3.18v7.28h-2.34Zm5.24,9.18c3.18,0,4.71-1.18,4.71-3.78s-1.56-3.5-4.71-3.5h-2.9V570Z" transform="translate(-375.63 -513.44)"/><path d="M476.46,569.88c0-5.94,2.9-9.44,7-9.44s7,3.5,7,9.44-2.9,9.6-7,9.6S476.46,575.9,476.46,569.88Zm11.62,0c0-4.62-1.84-7.37-4.6-7.37s-4.6,2.75-4.6,7.37,1.84,7.53,4.6,7.53S488.08,574.58,488.08,569.88Z" transform="translate(-375.63 -513.44)"/><path d="M492.12,560.75h2.63l1.33,11.53c.17,1.54.28,2.44.37,4.26h.08c.33-1.82.53-2.72.89-4.23l1.79-6.83h2.23l1.72,6.83c.4,1.51.56,2.41.9,4.23h.11c.11-1.82.17-2.72.33-4.23l1.28-11.56h2.51l-2.67,18.39h-2.9l-1.79-7.39c-.27-1.12-.5-2.18-.66-3.3h-.09c-.19,1.12-.36,2.18-.64,3.3l-1.78,7.39h-2.85Z" transform="translate(-375.63 -513.44)"/><path d="M511.75,560.78h11.32v2h-9v5.74h7.58v2h-7.58v6.67h9.26v2h-11.6Z" transform="translate(-375.63 -513.44)"/><path d="M528.06,560.78h5.71c3.71,0,6.41,1.34,6.41,5.18,0,3.66-2.7,5.43-6.41,5.43h-3.34v7.75h-2.37Zm5.38,8.7c2.84,0,4.4-1.17,4.4-3.52s-1.56-3.28-4.4-3.28h-3v6.8Zm1.7,0,5.57,9.63h-2.65l-4.76-8.4Z" transform="translate(-375.63 -513.44)"/><path d="M545.73,560.78H557v2h-8.9V569h7.53v2h-7.53v8.2h-2.34Z" transform="translate(-375.63 -513.44)"/><path d="M561,572.2V560.78h2.37v11.48c0,3.78,1.65,5.15,3.82,5.15S571,576,571,572.26V560.78h2.25V572.2c0,5.26-2.56,7.28-6.13,7.28S561,577.46,561,572.2Z" transform="translate(-375.63 -513.44)"/><path d="M579.21,560.78h2.31v16.38h9v2H579.21Z" transform="translate(-375.63 -513.44)"/><path d="M610.26,569.88c0-5.94,2.9-9.44,7-9.44s7,3.5,7,9.44-2.9,9.6-7,9.6S610.26,575.9,610.26,569.88Zm11.63,0c0-4.62-1.84-7.37-4.6-7.37s-4.6,2.75-4.6,7.37,1.84,7.53,4.6,7.53S621.89,574.58,621.89,569.88Z" transform="translate(-375.63 -513.44)"/><path d="M627.94,560.78h2.56l5.86,11.53,1.75,3.81h.06c-.09-1.82-.31-3.89-.31-5.82v-9.52h2.23v18.36h-2.56l-5.86-11.53-1.75-3.81h-.06c.08,1.88.31,3.84.31,5.74v9.6h-2.23Z" transform="translate(-375.63 -513.44)"/><path d="M646.11,560.78h2.32v16.38h9v2H646.11Z" transform="translate(-375.63 -513.44)"/><path d="M661.75,577.16h4.54v-14.4h-4.54v-2h11.43v2h-4.54v14.4h4.54v2H661.75Z" transform="translate(-375.63 -513.44)"/><path d="M678.11,560.78h2.57l5.85,11.53,1.76,3.81h.06c-.09-1.82-.31-3.89-.31-5.82v-9.52h2.23v18.36H687.7l-5.85-11.53-1.76-3.81H680c.08,1.88.3,3.84.3,5.74v9.6h-2.23Z" transform="translate(-375.63 -513.44)"/><path d="M695.73,560.78h11.32v2h-9v5.74h7.59v2h-7.59v6.67h9.26v2h-11.6Z" transform="translate(-375.63 -513.44)"/><path d="M727.18,560.78h2.5l2.93,9.91c.64,2.15,1.09,3.92,1.76,6h.11c.67-2.13,1.14-3.9,1.76-6l2.92-9.91h2.4l-5.8,18.36H733Z" transform="translate(-375.63 -513.44)"/><path d="M745.38,577.16h4.54v-14.4h-4.54v-2h11.43v2h-4.55v14.4h4.55v2H745.38Z" transform="translate(-375.63 -513.44)"/><path d="M761.32,576.76l1.4-1.62a7.68,7.68,0,0,0,5.35,2.27c2.51,0,4-1.21,4-2.89,0-2-1.42-2.52-3.26-3.3L766.12,570c-1.81-.72-3.93-2-3.93-4.73s2.51-4.87,6-4.87a7.93,7.93,0,0,1,5.63,2.27l-1.22,1.51a6.45,6.45,0,0,0-4.49-1.71c-2.12,0-3.54,1-3.54,2.66s1.7,2.41,3.26,3l2.56,1.14c2.26.9,4,2.19,4,4.9,0,2.92-2.46,5.24-6.47,5.24A9.26,9.26,0,0,1,761.32,576.76Z" transform="translate(-375.63 -513.44)"/><path d="M778.38,572.2V560.78h2.37v11.48c0,3.78,1.65,5.15,3.82,5.15s3.88-1.37,3.88-5.15V560.78h2.26V572.2c0,5.26-2.57,7.28-6.14,7.28S778.38,577.46,778.38,572.2Z" transform="translate(-375.63 -513.44)"/><path d="M799.93,560.78h2.68l6.16,18.36h-2.51l-3.15-10.24c-.64-2-1.25-4.06-1.81-6.19h-.11c-.59,2.13-1.17,4.14-1.81,6.19l-3.21,10.24h-2.4ZM797,571.67h8.39v1.9H797Z" transform="translate(-375.63 -513.44)"/><path d="M813.37,560.78h2.31v16.38h9v2H813.37Z" transform="translate(-375.63 -513.44)"/><path d="M829,577.16h4.54v-14.4H829v-2h11.43v2h-4.55v14.4h4.55v2H829Z" transform="translate(-375.63 -513.44)"/><path d="M844.9,577.72l10.17-15h-9.28v-2H858v1.43l-10.2,15h10.34v2H844.9Z" transform="translate(-375.63 -513.44)"/><path d="M866.83,560.78h2.68l6.16,18.36h-2.51L870,568.9c-.64-2-1.25-4.06-1.81-6.19h-.11c-.59,2.13-1.17,4.14-1.81,6.19l-3.21,10.24h-2.4Zm-2.89,10.89h8.39v1.9h-8.39Z" transform="translate(-375.63 -513.44)"/><path d="M883.73,562.76h-6.05v-2h14.44v2h-6v16.38h-2.34Z" transform="translate(-375.63 -513.44)"/><path d="M895.91,577.16h4.54v-14.4h-4.54v-2h11.43v2h-4.55v14.4h4.55v2H895.91Z" transform="translate(-375.63 -513.44)"/><path d="M911.32,569.88c0-5.94,2.9-9.44,7-9.44s7,3.5,7,9.44-2.91,9.6-7,9.6S911.32,575.9,911.32,569.88Zm11.63,0c0-4.62-1.84-7.37-4.6-7.37s-4.6,2.75-4.6,7.37,1.84,7.53,4.6,7.53S923,574.58,923,569.88Z" transform="translate(-375.63 -513.44)"/><path d="M929,560.78h2.56l5.86,11.53,1.75,3.81h.06c-.09-1.82-.31-3.89-.31-5.82v-9.52h2.23v18.36h-2.56l-5.86-11.53L931,563.8h-.06c.08,1.88.31,3.84.31,5.74v9.6H929Z" transform="translate(-375.63 -513.44)"/><path d="M945.3,576.76l1.4-1.62a7.68,7.68,0,0,0,5.35,2.27c2.51,0,4-1.21,4-2.89,0-2-1.42-2.52-3.26-3.3L950.1,570c-1.81-.72-3.93-2-3.93-4.73s2.51-4.87,6-4.87a7.91,7.91,0,0,1,5.63,2.27l-1.22,1.51a6.45,6.45,0,0,0-4.49-1.71c-2.12,0-3.54,1-3.54,2.66s1.7,2.41,3.26,3l2.57,1.14c2.25.9,4,2.19,4,4.9,0,2.92-2.45,5.24-6.47,5.24A9.26,9.26,0,0,1,945.3,576.76Z" transform="translate(-375.63 -513.44)"/><path d="M381.79,607.78h2.68l6.16,18.36h-2.51L385,615.9c-.64-2-1.25-4.06-1.81-6.19h-.11c-.59,2.13-1.17,4.14-1.82,6.19L378,626.14h-2.4Zm-2.9,10.89h8.39v1.9h-8.39Z" transform="translate(-375.63 -513.44)"/><path d="M393.78,607.78h2.56l5.86,11.53,1.75,3.81H404c-.08-1.82-.31-3.89-.31-5.82v-9.52h2.23v18.36h-2.56l-5.86-11.53-1.75-3.81h-.06c.09,1.88.31,3.84.31,5.74v9.6h-2.23Z" transform="translate(-375.63 -513.44)"/><path d="M410.64,607.78h4.52c5.49,0,8.47,3.27,8.47,9.1s-3,9.26-8.36,9.26h-4.63ZM415,624.21c4.16,0,6.22-2.69,6.22-7.33s-2.06-7.17-6.22-7.17h-2v14.5Z" transform="translate(-375.63 -513.44)"/><path d="M444.32,624.16h4.54v-14.4h-4.54v-2h11.43v2H451.2v14.4h4.55v2H444.32Z" transform="translate(-375.63 -513.44)"/><path d="M460.68,607.78h2.57l5.85,11.53,1.76,3.81h.05c-.08-1.82-.3-3.89-.3-5.82v-9.52h2.23v18.36h-2.57l-5.85-11.53-1.76-3.81h-.06c.09,1.88.31,3.84.31,5.74v9.6h-2.23Z" transform="translate(-375.63 -513.44)"/><path d="M482.31,609.76h-6.05v-2H490.7v2h-6.05v16.38h-2.34Z" transform="translate(-375.63 -513.44)"/><path d="M495,607.78h11.32v2h-9v5.74H505v2h-7.58v6.67h9.25v2H495Z" transform="translate(-375.63 -513.44)"/><path d="M511.33,607.78h5.72c3.7,0,6.41,1.34,6.41,5.18,0,3.66-2.71,5.43-6.41,5.43H513.7v7.75h-2.37Zm5.38,8.7c2.85,0,4.41-1.17,4.41-3.52s-1.56-3.28-4.41-3.28h-3v6.8Zm1.7,0,5.58,9.63h-2.65l-4.77-8.4Z" transform="translate(-375.63 -513.44)"/><path d="M532.32,607.78H535l6.16,18.36h-2.51L535.5,615.9c-.64-2-1.25-4.06-1.81-6.19h-.11c-.59,2.13-1.17,4.14-1.81,6.19l-3.21,10.24h-2.4Zm-2.9,10.89h8.39v1.9h-8.39Z" transform="translate(-375.63 -513.44)"/><path d="M543.84,617c0-5.91,3.42-9.52,8.19-9.52a6.84,6.84,0,0,1,5,2.24l-1.34,1.48a4.93,4.93,0,0,0-3.68-1.65c-3.48,0-5.77,2.83-5.77,7.39s2.29,7.51,5.77,7.51a5.26,5.26,0,0,0,4.1-2l1.34,1.43a7.06,7.06,0,0,1-5.66,2.66C547.29,626.48,543.84,623,543.84,617Z" transform="translate(-375.63 -513.44)"/><path d="M565.94,609.76h-6.05v-2h14.44v2h-6.05v16.38h-2.34Z" transform="translate(-375.63 -513.44)"/><path d="M578.12,624.16h4.55v-14.4h-4.55v-2h11.43v2H585v14.4h4.54v2H578.12Z" transform="translate(-375.63 -513.44)"/><path d="M593.37,607.78h2.51l2.93,9.91c.64,2.15,1.08,3.92,1.75,6h.11c.67-2.13,1.15-3.9,1.76-6l2.93-9.91h2.4L602,626.14h-2.73Z" transform="translate(-375.63 -513.44)"/><path d="M612.1,607.78h11.32v2h-9v5.74H622v2h-7.59v6.67h9.26v2H612.1Z" transform="translate(-375.63 -513.44)"/><path d="M644.24,623.76l1.4-1.62a7.68,7.68,0,0,0,5.35,2.27c2.51,0,4-1.21,4-2.89,0-2-1.42-2.52-3.26-3.3L649,617c-1.81-.72-3.93-2-3.93-4.73s2.51-4.87,6-4.87a7.91,7.91,0,0,1,5.63,2.27l-1.22,1.51a6.45,6.45,0,0,0-4.49-1.71c-2.12,0-3.54,1-3.54,2.66s1.7,2.41,3.26,3l2.56,1.14c2.26.9,4.05,2.19,4.05,4.9,0,2.92-2.46,5.24-6.47,5.24A9.26,9.26,0,0,1,644.24,623.76Z" transform="translate(-375.63 -513.44)"/><path d="M666.29,609.76h-6v-2h14.45v2h-6.05v16.38h-2.35Z" transform="translate(-375.63 -513.44)"/><path d="M677.17,616.88c0-5.94,2.89-9.44,7-9.44s7,3.5,7,9.44-2.9,9.6-7,9.6S677.17,622.9,677.17,616.88Zm11.62,0c0-4.62-1.84-7.37-4.6-7.37s-4.6,2.75-4.6,7.37,1.84,7.53,4.6,7.53S688.79,621.58,688.79,616.88Z" transform="translate(-375.63 -513.44)"/><path d="M695.31,607.78H701c3.71,0,6.41,1.34,6.41,5.18,0,3.66-2.7,5.43-6.41,5.43h-3.35v7.75h-2.37Zm5.38,8.7c2.85,0,4.41-1.17,4.41-3.52s-1.56-3.28-4.41-3.28h-3v6.8Zm1.7,0,5.58,9.63h-2.65l-4.77-8.4Z" transform="translate(-375.63 -513.44)"/><path d="M716.47,619.59l-6.13-11.81h2.48l2.73,5.43c.7,1.43,1.34,2.83,2.09,4.28h.11c.73-1.45,1.45-2.85,2.15-4.28l2.65-5.43H725l-6.14,11.81v6.55h-2.34Z" transform="translate(-375.63 -513.44)"/><path d="M733.2,609.76h-6.05v-2h14.44v2h-6.05v16.38H733.2Z" transform="translate(-375.63 -513.44)"/><path d="M745.91,607.78h11.32v2h-9v5.74h7.58v2h-7.58v6.67h9.26v2h-11.6Z" transform="translate(-375.63 -513.44)"/><path d="M763.19,607.78h2.32v16.38h9v2H763.19Z" transform="translate(-375.63 -513.44)"/><path d="M779.92,607.78h2.31v16.38h9v2H779.92Z" transform="translate(-375.63 -513.44)"/><path d="M795.55,624.16h4.55v-14.4h-4.55v-2H807v2h-4.54v14.4H807v2H795.55Z" transform="translate(-375.63 -513.44)"/><path d="M811.92,607.78h2.56l5.86,11.53,1.75,3.81h.06c-.08-1.82-.31-3.89-.31-5.82v-9.52h2.23v18.36h-2.56l-5.86-11.53-1.75-3.81h-.06c.09,1.88.31,3.84.31,5.74v9.6h-2.23Z" transform="translate(-375.63 -513.44)"/><path d="M827.84,617c0-5.94,3.37-9.52,8.11-9.52a6.71,6.71,0,0,1,5,2.24l-1.33,1.48a4.77,4.77,0,0,0-3.71-1.65c-3.43,0-5.66,2.83-5.66,7.39s2,7.51,5.6,7.51a4.52,4.52,0,0,0,3.15-1.07v-4.78h-3.62v-1.94h5.8v7.73a7.68,7.68,0,0,1-5.47,2.13C831.15,626.48,827.84,623,827.84,617Z" transform="translate(-375.63 -513.44)"/></svg>