<svg xmlns="http://www.w3.org/2000/svg" viewBox="0 0 649.18 112.85"><path class="cls-text-1" d="M32,.53V39H25.72V21.89H6.39V39H.11V.53H6.39V17.38H25.72V.53Z"/><path class="cls-text-1" d="M75.19,39H70.35A2,2,0,0,1,69,38.62a2.74,2.74,0,0,1-.78-1L65,29.09H48.45l-3.21,8.5a2.46,2.46,0,0,1-.75,1,2,2,0,0,1-1.33.45H38.32L53.59.53h6.33ZM63.35,24.6l-5.3-14.07a40,40,0,0,1-1.31-4.14c-.19.83-.41,1.6-.64,2.31s-.45,1.32-.64,1.86l-5.3,14Z"/><path class="cls-text-1" d="M110.81,39h-5.59a2.55,2.55,0,0,1-2.4-1.28l-9-13a3,3,0,0,0-1-1,3.38,3.38,0,0,0-1.6-.29H87.76V39H81.5V.53H92.84a24.55,24.55,0,0,1,6.54.77,12.46,12.46,0,0,1,4.5,2.21A8.65,8.65,0,0,1,106.49,7a11.4,11.4,0,0,1,.84,4.46,11.43,11.43,0,0,1-.6,3.75A10.32,10.32,0,0,1,105,18.31a10.73,10.73,0,0,1-2.79,2.46,14,14,0,0,1-3.77,1.63,6.27,6.27,0,0,1,2,2ZM92.68,19a12,12,0,0,0,3.74-.52A7.58,7.58,0,0,0,99.1,17a5.89,5.89,0,0,0,1.6-2.23,7.43,7.43,0,0,0,.54-2.88,5.79,5.79,0,0,0-2.09-4.81C97.76,6,95.66,5.42,92.84,5.42H87.76V19Z"/><path class="cls-text-1" d="M148.41.53,132.79,39h-5.64L111.53.53h5a2.1,2.1,0,0,1,1.34.41,2.62,2.62,0,0,1,.77,1l9.93,25.11A42.85,42.85,0,0,1,130,32c.19-.91.4-1.77.62-2.59s.47-1.58.74-2.28L141.29,2A2.83,2.83,0,0,1,142,1a2,2,0,0,1,1.34-.45Z"/><path class="cls-text-1" d="M183.94,39H179.1a2,2,0,0,1-1.33-.41,2.74,2.74,0,0,1-.78-1l-3.21-8.5H157.2L154,37.59a2.53,2.53,0,0,1-.74,1,2,2,0,0,1-1.34.45h-4.84L162.34.53h6.33ZM172.1,24.6l-5.3-14.07a42.56,42.56,0,0,1-1.31-4.14c-.19.83-.41,1.6-.64,2.31s-.45,1.32-.64,1.86l-5.3,14Z"/><path class="cls-text-1" d="M219.56,39H214a2.56,2.56,0,0,1-2.4-1.28l-9-13a3,3,0,0,0-1-1,3.36,3.36,0,0,0-1.6-.29h-3.48V39h-6.26V.53h11.34a24.55,24.55,0,0,1,6.54.77,12.59,12.59,0,0,1,4.51,2.21A8.72,8.72,0,0,1,215.24,7a11.22,11.22,0,0,1,.85,4.46,11.17,11.17,0,0,1-.61,3.75,10.51,10.51,0,0,1-1.73,3.15,10.94,10.94,0,0,1-2.8,2.46,13.86,13.86,0,0,1-3.77,1.63,6.27,6.27,0,0,1,2,2ZM201.43,19a12.09,12.09,0,0,0,3.75-.52A7.44,7.44,0,0,0,207.85,17a5.89,5.89,0,0,0,1.6-2.23,7.43,7.43,0,0,0,.54-2.88,5.79,5.79,0,0,0-2.09-4.81c-1.39-1.1-3.49-1.66-6.31-1.66h-5.08V19Z"/><path class="cls-text-1" d="M259.83,19.78a21.17,21.17,0,0,1-1.39,7.82,17.64,17.64,0,0,1-3.92,6.09,17.41,17.41,0,0,1-6.07,3.94,21.08,21.08,0,0,1-7.87,1.4H226V.53h14.55a21.29,21.29,0,0,1,7.87,1.4,17.31,17.31,0,0,1,10,10A21.17,21.17,0,0,1,259.83,19.78Zm-6.39,0a18.71,18.71,0,0,0-.89-6A12.49,12.49,0,0,0,250,9.35a11.3,11.3,0,0,0-4-2.79,14,14,0,0,0-5.35-1h-8.26V34h8.26a14.2,14.2,0,0,0,5.35-1,11,11,0,0,0,4-2.8,12.62,12.62,0,0,0,2.57-4.46A18.75,18.75,0,0,0,253.44,19.78Z"/><path class="cls-text-1" d="M315.18,20.08V35.32a22.28,22.28,0,0,1-13.37,4.14A23.39,23.39,0,0,1,293.35,38a19,19,0,0,1-6.46-4.07,17.78,17.78,0,0,1-4.11-6.22,21,21,0,0,1-1.45-7.94,22.07,22.07,0,0,1,1.39-8A17.5,17.5,0,0,1,293,1.53,22.57,22.57,0,0,1,301.2.1a24.35,24.35,0,0,1,4.32.36,21,21,0,0,1,3.7,1A16.87,16.87,0,0,1,312.38,3a17.12,17.12,0,0,1,2.64,2l-1.79,2.86a1.77,1.77,0,0,1-1.09.83,1.88,1.88,0,0,1-1.45-.32l-1.64-1a15.44,15.44,0,0,0-2-.94,14.45,14.45,0,0,0-2.6-.73A19.4,19.4,0,0,0,301,5.5a14.34,14.34,0,0,0-5.5,1,11.54,11.54,0,0,0-4.18,2.86,12.66,12.66,0,0,0-2.68,4.5,17.79,17.79,0,0,0-.93,5.91,18.2,18.2,0,0,0,1,6.17,12.81,12.81,0,0,0,2.81,4.59,11.94,11.94,0,0,0,4.4,2.88,17.51,17.51,0,0,0,10,.48,19,19,0,0,0,3.65-1.42V24.84h-5.37a1.34,1.34,0,0,1-1-.34,1.15,1.15,0,0,1-.34-.87V20.08Z"/><path class="cls-text-1" d="M353.72,39h-5.59a2.57,2.57,0,0,1-2.41-1.28l-9-13a3.19,3.19,0,0,0-1-1,3.4,3.4,0,0,0-1.61-.29h-3.47V39h-6.26V.53h11.34a24.42,24.42,0,0,1,6.53.77,12.59,12.59,0,0,1,4.51,2.21A8.65,8.65,0,0,1,349.4,7a11.4,11.4,0,0,1,.84,4.46,11.43,11.43,0,0,1-.6,3.75,10.32,10.32,0,0,1-1.74,3.15,11.06,11.06,0,0,1-2.79,2.46,14.14,14.14,0,0,1-3.77,1.63,6.34,6.34,0,0,1,2,2ZM335.59,19a12.07,12.07,0,0,0,3.74-.52A7.44,7.44,0,0,0,342,17a5.91,5.91,0,0,0,1.61-2.23,7.42,7.42,0,0,0,.53-2.88,5.79,5.79,0,0,0-2.08-4.81c-1.39-1.1-3.5-1.66-6.31-1.66h-5.08V19Z"/><path class="cls-text-1" d="M395.91,19.78a21.73,21.73,0,0,1-1.39,7.89,18.2,18.2,0,0,1-3.92,6.22A17.74,17.74,0,0,1,384.53,38a21.75,21.75,0,0,1-15.72,0,17.76,17.76,0,0,1-10-10.3,21.73,21.73,0,0,1-1.39-7.89,21.73,21.73,0,0,1,1.39-7.89,17.79,17.79,0,0,1,10-10.32,21.75,21.75,0,0,1,15.72,0,17.77,17.77,0,0,1,6.07,4.09,18.43,18.43,0,0,1,3.92,6.23A21.73,21.73,0,0,1,395.91,19.78Zm-6.39,0a18.71,18.71,0,0,0-.89-6,12.67,12.67,0,0,0-2.57-4.49A11.3,11.3,0,0,0,382,6.49a14.87,14.87,0,0,0-10.67,0,11.37,11.37,0,0,0-4.07,2.84,12.56,12.56,0,0,0-2.59,4.49,18.15,18.15,0,0,0-.91,6,18.25,18.25,0,0,0,.91,6,12.43,12.43,0,0,0,2.59,4.48,11.3,11.3,0,0,0,4.07,2.81,15.16,15.16,0,0,0,10.67,0,11.22,11.22,0,0,0,4.05-2.81,12.54,12.54,0,0,0,2.57-4.48A18.81,18.81,0,0,0,389.52,19.78Z"/><path class="cls-text-1" d="M454.53.53l-12,38.5H436.9l-9-27.64c-.11-.31-.21-.64-.31-1s-.19-.74-.28-1.15c-.09.41-.18.79-.28,1.15s-.2.68-.31,1L417.57,39h-5.64L400,.53h5.24a2.25,2.25,0,0,1,1.35.39,1.89,1.89,0,0,1,.74,1l7.22,24.68c.14.54.27,1.12.4,1.74s.25,1.28.37,1.95c.13-.67.26-1.33.42-2s.31-1.21.49-1.73L424.44,2a2.42,2.42,0,0,1,.75-1,2.09,2.09,0,0,1,1.34-.45h1.82a2.1,2.1,0,0,1,1.34.41,2.82,2.82,0,0,1,.77,1l8.24,24.68c.17.52.34,1.08.49,1.68s.29,1.22.42,1.88c.12-.66.24-1.29.36-1.88s.24-1.16.38-1.68L447.55,2a1.83,1.83,0,0,1,.73-1,2.2,2.2,0,0,1,1.35-.43Z"/><path class="cls-text-1" d="M488,5.74H476V39h-6.23V5.74h-12V.53H488Z"/><path class="cls-text-1" d="M527.07.53V39h-6.26V21.89H501.48V39H495.2V.53h6.28V17.38h19.33V.53Z"/><path class="cls-text-1" d="M575.44,33.79V39H553.2V.53h6.25V33.79Z"/><path class="cls-text-1" d="M614.86,39H610a2,2,0,0,1-1.34-.41,2.74,2.74,0,0,1-.78-1l-3.2-8.5H588.12l-3.21,8.5a2.46,2.46,0,0,1-.75,1,2,2,0,0,1-1.34.45H578L593.25.53h6.34ZM603,24.6l-5.29-14.07a37.67,37.67,0,0,1-1.31-4.14c-.2.83-.41,1.6-.64,2.31s-.45,1.32-.65,1.86l-5.29,14Z"/><path class="cls-text-1" d="M634,.53a24.55,24.55,0,0,1,6.31.71,11.93,11.93,0,0,1,4.3,2,7.83,7.83,0,0,1,2.48,3.19,11,11,0,0,1,.79,4.24,8.28,8.28,0,0,1-.42,2.63,7.75,7.75,0,0,1-1.28,2.38,9.57,9.57,0,0,1-2.18,2,12.74,12.74,0,0,1-3.1,1.47q8.18,1.74,8.18,8.69a10.87,10.87,0,0,1-.92,4.5,9.93,9.93,0,0,1-2.68,3.53,12.64,12.64,0,0,1-4.32,2.32,19.09,19.09,0,0,1-5.85.82H621.17V.53Zm-6.55,4.89v12h6.25c2.68,0,4.67-.52,6-1.55a5.36,5.36,0,0,0,2-4.47c0-2.12-.62-3.66-1.86-4.6S636.62,5.42,634,5.42Zm7.75,28.67a11.17,11.17,0,0,0,3.57-.5,6.51,6.51,0,0,0,2.38-1.35,5,5,0,0,0,1.34-2,7.49,7.49,0,0,0,.41-2.5A5.33,5.33,0,0,0,641,23.43c-1.24-1-3.19-1.56-5.87-1.56h-7.72V34.09Z"/><path class="cls-text-1" d="M109.58,84a21.37,21.37,0,0,1-1.39,7.82,17.31,17.31,0,0,1-10,10,21.32,21.32,0,0,1-7.87,1.4H75.78V64.71H90.33a21.12,21.12,0,0,1,7.87,1.4,17.24,17.24,0,0,1,10,10A21.37,21.37,0,0,1,109.58,84Zm-6.39,0a18.42,18.42,0,0,0-.9-6,12.25,12.25,0,0,0-2.56-4.47,11.25,11.25,0,0,0-4.06-2.79,13.77,13.77,0,0,0-5.34-1H82.06v28.4h8.27a14.15,14.15,0,0,0,5.34-1,11.15,11.15,0,0,0,4.06-2.8,12.46,12.46,0,0,0,2.56-4.46A18.46,18.46,0,0,0,103.19,84Z"/><path class="cls-text-1" d="M124.55,103.21h-6.28V64.71h6.28Z"/><path class="cls-text-1" d="M167,84.25V99.49a22.22,22.22,0,0,1-13.37,4.15,23.39,23.39,0,0,1-8.46-1.46,18.74,18.74,0,0,1-6.46-4.06,17.94,17.94,0,0,1-4.12-6.22A21.25,21.25,0,0,1,133.19,84a22,22,0,0,1,1.39-8,17.5,17.5,0,0,1,10.24-10.27,22.36,22.36,0,0,1,8.24-1.43,24.35,24.35,0,0,1,4.32.36,21.29,21.29,0,0,1,3.7,1,18.19,18.19,0,0,1,3.16,1.55,18.47,18.47,0,0,1,2.64,2l-1.79,2.87a1.74,1.74,0,0,1-1.1.82,1.87,1.87,0,0,1-1.44-.32l-1.64-1A14.24,14.24,0,0,0,156.32,70a18.56,18.56,0,0,0-3.48-.28,14.32,14.32,0,0,0-5.49,1,11.8,11.8,0,0,0-4.19,2.86,12.74,12.74,0,0,0-2.67,4.51,17.7,17.7,0,0,0-.94,5.91,17.89,17.89,0,0,0,1,6.16,12.94,12.94,0,0,0,2.81,4.6,11.94,11.94,0,0,0,4.4,2.88,17.51,17.51,0,0,0,10,.48,19,19,0,0,0,3.65-1.42V89H156a1.37,1.37,0,0,1-1-.33,1.15,1.15,0,0,1-.34-.87V84.25Z"/><path class="cls-text-1" d="M182.55,103.21h-6.28V64.71h6.28Z"/><path class="cls-text-1" d="M220,69.92H208v33.29h-6.23V69.92h-12V64.71H220Z"/><path class="cls-text-1" d="M255.63,103.21h-4.84a2.05,2.05,0,0,1-1.33-.41,2.74,2.74,0,0,1-.78-1l-3.21-8.51H228.89l-3.21,8.51a2.68,2.68,0,0,1-.74,1,2,2,0,0,1-1.34.45h-4.84L234,64.71h6.33ZM243.79,88.77l-5.3-14.06a42,42,0,0,1-1.31-4.15c-.19.84-.41,1.61-.64,2.31s-.45,1.33-.64,1.86l-5.3,14Z"/><path class="cls-text-1" d="M284.19,98v5.24H261.94V64.71h6.26V98Z"/><path class="cls-text-1" d="M336.79,64.71v38.5h-6.26V86.07H311.2v17.14h-6.29V64.71h6.29V81.55h19.33V64.71Z"/><path class="cls-text-1" d="M363,98.16a10,10,0,0,0,4-.75,8.54,8.54,0,0,0,3-2.09,8.89,8.89,0,0,0,1.85-3.22,12.86,12.86,0,0,0,.65-4.18V64.71h6.23V87.92a17.56,17.56,0,0,1-1.09,6.28,14.29,14.29,0,0,1-3.11,5,14.45,14.45,0,0,1-4.94,3.29,18.54,18.54,0,0,1-13.07,0,14.45,14.45,0,0,1-4.94-3.29,14.29,14.29,0,0,1-3.11-5,17.77,17.77,0,0,1-1.08-6.28V64.71h6.25V87.89a12.82,12.82,0,0,0,.65,4.18A9.2,9.2,0,0,0,356,95.31a8.23,8.23,0,0,0,3,2.1A10,10,0,0,0,363,98.16Z"/><path class="cls-text-1" d="M402,64.71a24.54,24.54,0,0,1,6.31.7,12.24,12.24,0,0,1,4.31,2,7.83,7.83,0,0,1,2.47,3.2,10.83,10.83,0,0,1,.79,4.24,8.61,8.61,0,0,1-.41,2.63,7.78,7.78,0,0,1-1.29,2.38,9.33,9.33,0,0,1-2.18,2,12.22,12.22,0,0,1-3.1,1.47Q417,85.08,417,92a10.76,10.76,0,0,1-.92,4.51,9.87,9.87,0,0,1-2.67,3.53,12.55,12.55,0,0,1-4.32,2.31,18.8,18.8,0,0,1-5.86.83H389.14V64.71ZM395.4,69.6v12h6.26c2.67,0,4.67-.51,6-1.55a5.32,5.32,0,0,0,2-4.46q0-3.2-1.86-4.6T402,69.6Zm7.76,28.66a11.28,11.28,0,0,0,3.57-.49,6.6,6.6,0,0,0,2.38-1.35,5,5,0,0,0,1.33-2,7.29,7.29,0,0,0,.42-2.5A5.3,5.3,0,0,0,409,87.61c-1.24-1-3.2-1.57-5.87-1.57H395.4V98.26Z"/></svg>
