<svg xmlns="http://www.w3.org/2000/svg" viewBox="0 0 649.18 112.85"><defs></defs><path d="M55.49,92.36a6.8,6.8,0,0,0-6.54,5H44.36V87.18h2.13a11.06,11.06,0,1,0,0-22.12,15.35,15.35,0,0,0-2.39.25A15.06,15.06,0,0,0,16,68.55a6.63,6.63,0,0,0-1.23-.13,9.38,9.38,0,0,0,0,18.76h3.82V97.4H14a6.73,6.73,0,1,0,0,3.37h6.27A1.72,1.72,0,0,0,22,99.09V87.18H29.8V99.34a6.73,6.73,0,1,0,3.37,0V87.18H41V99.09a1.71,1.71,0,0,0,1.68,1.68H49a6.74,6.74,0,1,0,6.54-8.41Zm-48,10.09a3.37,3.37,0,1,1,3.37-3.36A3.34,3.34,0,0,1,7.48,102.45Zm27.37,3.36a3.37,3.37,0,1,1-3.36-3.36A3.34,3.34,0,0,1,34.85,105.81Zm20.64-3.36a3.37,3.37,0,1,1,3.36-3.36A3.38,3.38,0,0,1,55.49,102.45Z"/></svg>

