<svg id="Layer_1" data-name="Layer 1" xmlns="http://www.w3.org/2000/svg" viewBox="0 0 648.95 103.56"><defs><style>.cls-1{fill:#fff;}</style></defs><path class="cls-1" d="M377,203v38.5h-6.26V224.38H351.39v17.14h-6.28V203h6.28v16.84h19.33V203Z" transform="translate(-345.11 -202.59)"/><path class="cls-1" d="M420.19,241.52h-4.84a2.07,2.07,0,0,1-1.33-.41,2.74,2.74,0,0,1-.78-1l-3.21-8.5H393.45l-3.2,8.5a2.66,2.66,0,0,1-.75,1,2,2,0,0,1-1.34.45h-4.84L398.59,203h6.33Zm-11.84-14.44L403.05,213a42,42,0,0,1-1.31-4.15c-.19.84-.41,1.61-.64,2.32s-.44,1.32-.64,1.85l-5.29,14Z" transform="translate(-345.11 -202.59)"/><path class="cls-1" d="M455.81,241.52h-5.59a2.58,2.58,0,0,1-2.4-1.28l-9-13a2.8,2.8,0,0,0-1-1,3.34,3.34,0,0,0-1.6-.3h-3.48v15.51H426.5V203h11.34a24.55,24.55,0,0,1,6.54.77,12.43,12.43,0,0,1,4.51,2.21,8.76,8.76,0,0,1,2.6,3.43,11.49,11.49,0,0,1,.84,4.47,11.37,11.37,0,0,1-.6,3.74A10.68,10.68,0,0,1,450,220.8a11.33,11.33,0,0,1-2.8,2.46,14.18,14.18,0,0,1-3.77,1.63,6.13,6.13,0,0,1,2,2Zm-18.13-20.05a12.28,12.28,0,0,0,3.74-.52,7.56,7.56,0,0,0,2.68-1.46,6,6,0,0,0,1.6-2.23,7.46,7.46,0,0,0,.54-2.88,5.78,5.78,0,0,0-2.09-4.81q-2.08-1.66-6.31-1.66h-5.08v13.56Z" transform="translate(-345.11 -202.59)"/><path class="cls-1" d="M493.41,203l-15.62,38.5h-5.64L456.53,203h5a2,2,0,0,1,1.34.41,2.74,2.74,0,0,1,.78,1l9.92,25.11a42.85,42.85,0,0,1,1.47,4.87c.19-.91.4-1.78.63-2.6a21.68,21.68,0,0,1,.73-2.27l9.89-25.11a2.66,2.66,0,0,1,.75-1,2,2,0,0,1,1.34-.45Z" transform="translate(-345.11 -202.59)"/><path class="cls-1" d="M529,241.52H524.1a2.07,2.07,0,0,1-1.33-.41,2.74,2.74,0,0,1-.78-1l-3.21-8.5H502.21l-3.21,8.5a2.66,2.66,0,0,1-.75,1,2,2,0,0,1-1.34.45h-4.84L507.34,203h6.34ZM517.1,227.08,511.8,213a42,42,0,0,1-1.31-4.15c-.19.84-.41,1.61-.64,2.32s-.44,1.32-.64,1.85l-5.29,14Z" transform="translate(-345.11 -202.59)"/><path class="cls-1" d="M564.56,241.52H559a2.58,2.58,0,0,1-2.4-1.28l-9-13a2.8,2.8,0,0,0-1-1,3.34,3.34,0,0,0-1.6-.3h-3.48v15.51h-6.25V203h11.33a24.55,24.55,0,0,1,6.54.77,12.43,12.43,0,0,1,4.51,2.21,8.88,8.88,0,0,1,2.61,3.43,11.49,11.49,0,0,1,.84,4.47,11.37,11.37,0,0,1-.6,3.74,10.94,10.94,0,0,1-1.74,3.16,11.33,11.33,0,0,1-2.8,2.46,14.18,14.18,0,0,1-3.77,1.63,6.13,6.13,0,0,1,2,2Zm-18.13-20.05a12.4,12.4,0,0,0,3.75-.52,7.6,7.6,0,0,0,2.67-1.46,6.11,6.11,0,0,0,1.61-2.23,7.65,7.65,0,0,0,.53-2.88,5.78,5.78,0,0,0-2.09-4.81q-2.08-1.66-6.31-1.66h-5.08v13.56Z" transform="translate(-345.11 -202.59)"/><path class="cls-1" d="M604.83,222.27a21.17,21.17,0,0,1-1.39,7.82,17.26,17.26,0,0,1-10,10,21.38,21.38,0,0,1-7.88,1.4H571V203h14.55a21.17,21.17,0,0,1,7.88,1.4,17.18,17.18,0,0,1,10,10A21.17,21.17,0,0,1,604.83,222.27Zm-6.39,0a18.71,18.71,0,0,0-.89-6,12.41,12.41,0,0,0-2.57-4.47,11.21,11.21,0,0,0-4.05-2.79,14,14,0,0,0-5.35-1h-8.26v28.4h8.26a14.2,14.2,0,0,0,5.35-1,11.11,11.11,0,0,0,4.05-2.8,12.62,12.62,0,0,0,2.57-4.46A18.75,18.75,0,0,0,598.44,222.27Z" transform="translate(-345.11 -202.59)"/><path class="cls-1" d="M660.19,222.56v15.25A22.3,22.3,0,0,1,646.82,242a23.44,23.44,0,0,1-8.47-1.46,18.84,18.84,0,0,1-6.46-4.06,17.78,17.78,0,0,1-4.11-6.22,21.05,21.05,0,0,1-1.45-7.94,22.21,22.21,0,0,1,1.39-8A17.5,17.5,0,0,1,638,204a22.61,22.61,0,0,1,8.24-1.43,24.35,24.35,0,0,1,4.32.36,21,21,0,0,1,3.7,1,17,17,0,0,1,5.8,3.59l-1.79,2.86a1.81,1.81,0,0,1-1.09.83,1.89,1.89,0,0,1-1.45-.33l-1.64-1a14,14,0,0,0-4.59-1.67A18.52,18.52,0,0,0,646,208a14.34,14.34,0,0,0-5.5,1,11.8,11.8,0,0,0-4.18,2.86,12.85,12.85,0,0,0-2.68,4.51,17.7,17.7,0,0,0-.93,5.91,17.89,17.89,0,0,0,1,6.16,12.7,12.7,0,0,0,2.8,4.6,12,12,0,0,0,4.4,2.88,17.51,17.51,0,0,0,10,.48,19,19,0,0,0,3.65-1.42v-7.65h-5.37a1.33,1.33,0,0,1-1-.33,1.12,1.12,0,0,1-.35-.87v-3.56Z" transform="translate(-345.11 -202.59)"/><path class="cls-1" d="M698.72,241.52h-5.59a2.59,2.59,0,0,1-2.41-1.28l-9-13a3,3,0,0,0-1-1,3.38,3.38,0,0,0-1.61-.3h-3.47v15.51h-6.26V203h11.34a24.55,24.55,0,0,1,6.54.77,12.38,12.38,0,0,1,4.5,2.21,8.69,8.69,0,0,1,2.61,3.43,11.49,11.49,0,0,1,.84,4.47,11.37,11.37,0,0,1-.6,3.74,10.49,10.49,0,0,1-1.74,3.16,11.46,11.46,0,0,1-2.79,2.46,14.32,14.32,0,0,1-3.77,1.63,6.33,6.33,0,0,1,2,2Zm-18.13-20.05a12.37,12.37,0,0,0,3.74-.52,7.74,7.74,0,0,0,2.68-1.46,6.08,6.08,0,0,0,1.6-2.23,7.46,7.46,0,0,0,.53-2.88,5.77,5.77,0,0,0-2.08-4.81c-1.39-1.11-3.5-1.66-6.31-1.66h-5.08v13.56Z" transform="translate(-345.11 -202.59)"/><path class="cls-1" d="M740.91,222.27a21.73,21.73,0,0,1-1.39,7.89,18.27,18.27,0,0,1-3.91,6.22,18.06,18.06,0,0,1-6.07,4.07,21.78,21.78,0,0,1-15.73,0,17.71,17.71,0,0,1-10-10.29,23.09,23.09,0,0,1,0-15.78,18.21,18.21,0,0,1,3.93-6.23,17.86,17.86,0,0,1,6.08-4.09,21.78,21.78,0,0,1,15.73,0,17.82,17.82,0,0,1,6.07,4.09,18.31,18.31,0,0,1,3.91,6.23A21.73,21.73,0,0,1,740.91,222.27Zm-6.39,0a18.71,18.71,0,0,0-.89-6,12.72,12.72,0,0,0-2.57-4.5,11.19,11.19,0,0,0-4-2.83,14.87,14.87,0,0,0-10.67,0,11.35,11.35,0,0,0-4.07,2.83,12.75,12.75,0,0,0-2.59,4.5,20.07,20.07,0,0,0,0,11.95,12.66,12.66,0,0,0,2.59,4.48,11.3,11.3,0,0,0,4.07,2.81,15.16,15.16,0,0,0,10.67,0,11.14,11.14,0,0,0,4-2.81,12.63,12.63,0,0,0,2.57-4.48A18.86,18.86,0,0,0,734.52,222.27Z" transform="translate(-345.11 -202.59)"/><path class="cls-1" d="M799.53,203l-12,38.5h-5.64l-9-27.65c-.11-.3-.21-.63-.31-1s-.19-.74-.28-1.15c-.09.41-.18.8-.28,1.15s-.2.69-.31,1l-9.12,27.65h-5.64L745,203h5.24a2.31,2.31,0,0,1,1.35.38,1.91,1.91,0,0,1,.74,1.06l7.22,24.68c.14.54.27,1.12.4,1.74s.25,1.27.37,2c.13-.68.27-1.33.42-2a17.48,17.48,0,0,1,.49-1.73l8.27-24.68a2.19,2.19,0,0,1,.74-1,2.09,2.09,0,0,1,1.34-.45h1.82a2,2,0,0,1,1.34.41,2.82,2.82,0,0,1,.77,1l8.24,24.68c.18.52.34,1.08.49,1.67s.29,1.23.42,1.89q.18-1,.36-1.89c.11-.59.24-1.15.39-1.67l7.19-24.68a1.94,1.94,0,0,1,.73-1,2.26,2.26,0,0,1,1.35-.42Z" transform="translate(-345.11 -202.59)"/><path class="cls-1" d="M833,208.23H821v33.29h-6.24V208.23h-12V203H833Z" transform="translate(-345.11 -202.59)"/><path class="cls-1" d="M872.07,203v38.5h-6.25V224.38H846.48v17.14H840.2V203h6.28v16.84h19.34V203Z" transform="translate(-345.11 -202.59)"/><path class="cls-1" d="M920.44,236.28v5.24H898.2V203h6.25v33.26Z" transform="translate(-345.11 -202.59)"/><path class="cls-1" d="M959.86,241.52H955a2.1,2.1,0,0,1-1.34-.41,2.62,2.62,0,0,1-.77-1l-3.21-8.5H933.12l-3.21,8.5a2.46,2.46,0,0,1-.75,1,2,2,0,0,1-1.34.45H923L938.25,203h6.34ZM948,227.08,942.72,213a37.24,37.24,0,0,1-1.31-4.15c-.2.84-.41,1.61-.64,2.32s-.45,1.32-.65,1.85l-5.29,14Z" transform="translate(-345.11 -202.59)"/><path class="cls-1" d="M979,203a24.12,24.12,0,0,1,6.31.71,12,12,0,0,1,4.3,2,7.86,7.86,0,0,1,2.48,3.2,11,11,0,0,1,.79,4.24,8.28,8.28,0,0,1-.42,2.63,7.55,7.55,0,0,1-1.28,2.38,9.31,9.31,0,0,1-2.18,2,12.38,12.38,0,0,1-3.1,1.47q8.18,1.74,8.18,8.7a10.87,10.87,0,0,1-.92,4.5,10,10,0,0,1-2.68,3.53,12.41,12.41,0,0,1-4.31,2.31,18.89,18.89,0,0,1-5.86.83H966.17V203Zm-6.55,4.89v12h6.25c2.68,0,4.68-.51,6-1.55a5.32,5.32,0,0,0,2-4.46c0-2.12-.62-3.66-1.86-4.6s-3.17-1.42-5.81-1.42Zm7.75,28.67a11.17,11.17,0,0,0,3.57-.5,6.51,6.51,0,0,0,2.38-1.35,5,5,0,0,0,1.34-2,7.29,7.29,0,0,0,.41-2.5,5.3,5.3,0,0,0-1.86-4.29c-1.23-1-3.19-1.56-5.86-1.56h-7.73v12.22Z" transform="translate(-345.11 -202.59)"/><path class="cls-1" d="M466.16,267.19,450.54,305.7H444.9l-15.62-38.51h5a2,2,0,0,1,1.34.42,2.66,2.66,0,0,1,.78,1l9.92,25.11a43.27,43.27,0,0,1,1.47,4.86c.19-.91.4-1.77.63-2.59a21.68,21.68,0,0,1,.73-2.27l9.9-25.11a2.53,2.53,0,0,1,.74-1,2,2,0,0,1,1.34-.46Z" transform="translate(-345.11 -202.59)"/><path class="cls-1" d="M478.75,305.7h-6.28V267.19h6.28Z" transform="translate(-345.11 -202.59)"/><path class="cls-1" d="M515.87,269.52a3.33,3.33,0,0,1-.17,1,5.1,5.1,0,0,1-.47,1l-20.67,29.12h20.91v5.05H486.38v-2.46a2.67,2.67,0,0,1,.16-.95,3.48,3.48,0,0,1,.42-.84l20.75-29.2H487.52v-5.06h28.35Z" transform="translate(-345.11 -202.59)"/><path class="cls-1" d="M570.85,267.19V305.7h-6.26V288.56H545.25V305.7H539V267.19h6.28V284h19.34V267.19Z" transform="translate(-345.11 -202.59)"/><path class="cls-1" d="M597,300.65a10.05,10.05,0,0,0,4-.75,8.51,8.51,0,0,0,3-2.09,9.06,9.06,0,0,0,1.86-3.22,12.88,12.88,0,0,0,.64-4.19V267.19h6.23V290.4a17.83,17.83,0,0,1-1.08,6.29,14,14,0,0,1-8.05,8.27,18.54,18.54,0,0,1-13.07,0,14,14,0,0,1-8-8.27,17.61,17.61,0,0,1-1.09-6.29V267.19h6.26v23.19a13.14,13.14,0,0,0,.64,4.18,9.37,9.37,0,0,0,1.85,3.24,8.19,8.19,0,0,0,2.95,2.1A10,10,0,0,0,597,300.65Z" transform="translate(-345.11 -202.59)"/><path class="cls-1" d="M636,267.19a24.55,24.55,0,0,1,6.31.71,12.15,12.15,0,0,1,4.31,2,7.85,7.85,0,0,1,2.47,3.2,11,11,0,0,1,.79,4.23,8.38,8.38,0,0,1-.42,2.64,7.66,7.66,0,0,1-1.28,2.38,9.53,9.53,0,0,1-2.18,2,12.38,12.38,0,0,1-3.1,1.47q8.18,1.74,8.18,8.69a11,11,0,0,1-.92,4.51,10.11,10.11,0,0,1-2.67,3.53,12.55,12.55,0,0,1-4.32,2.31,19.2,19.2,0,0,1-5.86.83H623.2V267.19Zm-6.55,4.9v12h6.26q4,0,6-1.55a5.35,5.35,0,0,0,2-4.47,5.45,5.45,0,0,0-1.85-4.6q-1.86-1.41-5.82-1.41Zm7.75,28.66a11.19,11.19,0,0,0,3.57-.49,6.51,6.51,0,0,0,2.38-1.35,5,5,0,0,0,1.34-2,7.33,7.33,0,0,0,.41-2.5,5.32,5.32,0,0,0-1.85-4.29q-1.86-1.58-5.87-1.57h-7.73v12.22Z" transform="translate(-345.11 -202.59)"/></svg>