<svg id="__gKLTCvl__Layer_1" data-name="Layer 1" xmlns="http://www.w3.org/2000/svg" viewBox="0 0 722.5 501.24"><path d="M33.05,500.31c.53-.52,21.83-22.32,47.35-48.44,49.12-50.3,79.23-81.09,124.11-126.88,15.15-15.47,30.84-31.64,34.84-35.93s7.9-7.81,8.66-7.8S274.39,306.31,305,336.9s56.06,55.47,56.66,55.27,25.83-25.1,56.08-55.33l55-55,19.51,20c47.8,49,162.43,166.51,177.18,181.65l16.77,17.2c.29.29-146.76.52-326.77.52s-326.86-.42-326.33-.93Zm679.53-28.75c-5-5.33-20.67-21.5-34.94-35.94s-58-59.16-97.26-99.38-73.08-74.78-75.23-76.79-3.9-4.27-3.9-5S551,203.33,611.88,142.49L722.5,31.87V256.56c0,123.57-.2,224.68-.45,224.68s-4.51-4.36-9.47-9.69ZM.05,255,0,31.87l110,110c60.5,60.5,109.86,110.37,109.69,110.82-.3.78-15.94,16.91-67.1,69.18-25.38,25.92-104.38,106.84-133,136.25l-19.48,20L0,255Zm191.83-86.26L23.13,0H699.38L530.63,168.74c-92.81,92.8-169,168.74-169.38,168.74S284.69,261.55,191.88,168.74Z"></path></svg>