<svg xmlns="http://www.w3.org/2000/svg" viewBox="0 0 25.34 24.72"><defs><style>.cls-1{fill:#676767;fill-rule:evenodd;}</style></defs><path class="cls-1" d="M305.74,383.36a12.67,12.67,0,0,0-4,24.69c.63.12.86-.27.86-.61s0-1.09,0-2.15c-3.53.76-4.27-1.7-4.27-1.7a3.37,3.37,0,0,0-1.41-1.85c-1.15-.79.09-.77.09-.77a2.66,2.66,0,0,1,1.94,1.3,2.69,2.69,0,0,0,3.69,1.05,2.71,2.71,0,0,1,.8-1.69c-2.81-.32-5.77-1.41-5.77-6.26A4.87,4.87,0,0,1,299,392a4.58,4.58,0,0,1,.13-3.36s1.06-.34,3.48,1.3a12.21,12.21,0,0,1,6.35,0c2.42-1.64,3.48-1.3,3.48-1.3a4.56,4.56,0,0,1,.12,3.36,4.84,4.84,0,0,1,1.31,3.4c0,4.87-3,5.94-5.79,6.25a3,3,0,0,1,.86,2.35c0,1.69,0,3.06,0,3.47s.22.74.87.61a12.67,12.67,0,0,0-4-24.69Z" transform="translate(-293.07 -383.36)"/></svg>