<?xml version="1.0" encoding="UTF-8"?>
<svg id="Layer_1" data-name="Layer 1" xmlns="http://www.w3.org/2000/svg" viewBox="0 0 315.06 36.9">
  <defs>
    <style>
      .cls-1, .cls-2, .cls-3 {
        fill-rule: evenodd;
      }

      .cls-1, .cls-4 {
        fill: #fff;
      }

      .cls-2 {
        fill: #b9073e;
      }

      .cls-3, .cls-5 {
        fill: #221e1f;
      }
    </style>
  </defs>
  <g id="Camada_2" data-name="Camada 2">
    <g id="_图层_2" data-name="图层 2">
      <polygon class="cls-4" points="49.58 25.05 49.58 17.68 44.83 17.68 44.83 25.05 41.53 25.05 41.53 8.54 44.83 8.54 44.83 14.95 49.58 14.95 49.58 8.54 52.95 8.54 52.95 25.05 49.58 25.05"/>
      <path class="cls-4" d="M66,25.05l-1.17-3.92h-4.83l-1.16,3.92h-3.47l5.42-16.56h3.59l5.2,16.56h-3.58ZM63.12,15.05c-.17-.76-.67-2.92-.67-2.92,0,0-.47,1.94-.78,3.18s-.52,2-.88,3.06h3.21s-.54-1.73-.9-3.32"/>
      <path class="cls-4" d="M80.05,25.05c-.64-1.09-.9-1.55-1.54-2.71-1.64-3-2.14-3.78-2.74-4-.16-.08-.34-.12-.52-.14v6.89h-3.25V8.54h6.15c2.52-.15,4.7,1.77,4.85,4.29.01.18.01.36,0,.55,0,2.48-1.64,4.52-3.69,4.57.27.19.5.42.69.68,1,1.19,4,6.42,4,6.42h-3.95ZM78.32,11.44c-.61-.18-1.24-.26-1.88-.24h-1.19v4.47h1.12c1.42,0,2-.15,2.49-.55.44-.44.67-1.04.64-1.66.1-.86-.38-1.67-1.18-2"/>
      <path class="cls-4" d="M93.3,25.17h-3l-5.62-16.63h3.63l2.74,8.6c.23.73.49,1.66.76,2.87.27-1.12.6-2.22,1-3.3l2.8-8.17h3.49l-5.8,16.63Z"/>
      <path class="cls-4" d="M108.91,25.05l-1.17-3.92h-4.84l-1.17,3.92h-3.47l5.42-16.56h3.59l5.2,16.56h-3.56ZM106.03,15.05l-.66-2.92-.79,3.18c-.31,1.19-.52,2-.88,3.06h3.23s-.54-1.73-.9-3.32"/>
      <path class="cls-4" d="M122.94,25.05c-.64-1.09-.9-1.55-1.54-2.71-1.64-3-2.14-3.78-2.74-4-.16-.08-.34-.12-.52-.14v6.89h-3.25V8.54h6.11c2.52-.15,4.7,1.77,4.85,4.29.01.18.01.36,0,.55,0,2.48-1.64,4.52-3.69,4.57.27.19.5.42.69.68,1,1.19,4,6.42,4,6.42h-3.91ZM121.21,11.44c-.61-.18-1.24-.26-1.88-.24h-1.19v4.47h1.12c1.42,0,2-.15,2.49-.55.44-.44.67-1.04.64-1.66.1-.86-.38-1.67-1.18-2"/>
      <path class="cls-4" d="M140.11,22.58c-.93,1.33-2.39,2.19-4,2.37-.62.05-1.4.1-2.38.1h-4V8.54h3.27c.95,0,2.21.05,2.88.09,1.36.09,2.64.68,3.61,1.64,1.52,1.5,2.26,3.61,2.26,6.58.08,2.04-.51,4.05-1.67,5.73M137.18,12.58c-.52-.93-1.54-1.47-2.61-1.38h-1.52v11.14h1.78c2.19,0,3.19-1.69,3.19-5.18.13-1.59-.16-3.19-.84-4.63"/>
      <path class="cls-4" d="M147.2,7.52h3v17.53h-3V7.52ZM156.09,25.05l-5.9-9.35,5.7-8.18h3.6l-6.08,8.13,6.48,9.4h-3.8Z"/>
      <path class="cls-4" d="M163.47,19.4v.2c0,1.78.66,3.65,3.16,3.65,1.19,0,2.33-.46,3.2-1.27l1.08,1.7c-1.28,1.11-2.92,1.72-4.61,1.7-3.62,0-5.9-2.61-5.9-6.72-.14-1.81.44-3.6,1.6-5,.97-1.15,2.42-1.79,3.92-1.72,1.3-.04,2.56.43,3.52,1.31,1.12,1,1.68,2.59,1.68,5.58v.58h-7.65ZM165.92,14c-1.57,0-2.43,1.24-2.43,3.32h4.74c0-2.08-.91-3.32-2.31-3.32"/>
      <path class="cls-4" d="M181.17,25.05v-8.51c0-1.75-.4-2.23-1.47-2.23-1.08.14-2.07.65-2.81,1.44v9.3h-2.73v-9.42c.04-1.02-.12-2.04-.49-3l2.54-.71c.3.56.46,1.19.45,1.82,1.05-1.06,2.45-1.69,3.93-1.77,2,0,3.34,1.19,3.34,3.54v9.58l-2.76-.04Z"/>
      <path class="cls-4" d="M195,25.05v-8.51c0-1.75-.4-2.23-1.47-2.23-1.08.14-2.07.65-2.81,1.44v9.3h-2.72v-9.42c.04-1.02-.12-2.04-.48-3l2.53-.71c.3.56.46,1.18.46,1.82,1.04-1.06,2.44-1.69,3.92-1.77,2,0,3.35,1.19,3.35,3.54v9.58l-2.78-.04Z"/>
      <path class="cls-4" d="M204.12,19.4v.2c0,1.78.66,3.65,3.17,3.65,1.18,0,2.32-.45,3.19-1.25l1.09,1.7c-1.28,1.11-2.92,1.72-4.61,1.7-3.62,0-5.9-2.61-5.9-6.72-.14-1.81.43-3.6,1.59-5,.98-1.15,2.43-1.78,3.93-1.72,1.3-.04,2.56.43,3.52,1.31,1.12,1,1.68,2.59,1.68,5.58v.58l-7.66-.03ZM206.58,14c-1.57,0-2.43,1.24-2.43,3.32h4.74c0-2.08-.92-3.32-2.31-3.32"/>
      <path class="cls-4" d="M222.67,25.05c-.13-.32-.21-.66-.23-1-.82.84-1.96,1.3-3.14,1.27-3.27,0-5.25-2.56-5.25-6.56s2.23-6.76,5.33-6.76c1.05-.02,2.05.4,2.76,1.17,0,0-.08-1-.08-2.1v-4.69l2.76.43v13.78c-.1,1.5.03,3,.41,4.46h-2.56ZM222.06,15.27c-.59-.66-1.44-1.03-2.33-1-1.77,0-2.58,1.42-2.58,4.51,0,2.84.55,4.26,2.66,4.26.91,0,1.76-.46,2.25-1.22v-6.55Z"/>
      <path class="cls-4" d="M234.42,25.33c-1.06,3.09-2,4.63-5,5.19l-.91-1.8c1.75-.48,2.74-1.21,3.47-3.67h-.89c-.35-1.44-.83-2.84-1.21-4l-2.88-8.62,2.83-.48,2.36,7.8c.2.76.66,2.69.71,2.89,0-.1.48-1.92,1-3.47l2.1-6.94h3l-4.58,13.1Z"/>
      <path class="cls-4" d="M248.38,25.38c-2.02,0-4.01-.54-5.75-1.57l1.11-2.23c1.42.91,3.06,1.4,4.74,1.42,2.15,0,3.45-1,3.45-2.78,0-1.3-.82-2.11-2.61-2.61l-1.88-.54c-1.35-.27-2.55-1.02-3.39-2.1-.5-.76-.76-1.65-.74-2.56,0-3.09,2.43-5.19,6-5.19,1.97-.02,3.91.56,5.54,1.67l-1.35,2.11c-1.22-.84-2.65-1.31-4.13-1.34-1.73,0-2.87.94-2.87,2.38,0,1.09.61,1.65,2.33,2.16l2.08.6c2.54.74,4.31,2.36,4.31,5,0,2.92-2.36,5.63-6.84,5.63"/>
      <path class="cls-4" d="M262.94,25.38c-3.49,0-5.44-2.46-5.44-6.59,0-4.66,2.79-6.89,5.65-6.89,1.33-.06,2.62.45,3.55,1.39l-1.4,1.85c-.56-.6-1.33-.96-2.15-1-.86,0-1.65.5-2,1.29-.43,1.14-.61,2.36-.53,3.57,0,1.75.28,2.86.86,3.5.44.47,1.06.74,1.7.73.98-.05,1.9-.49,2.55-1.23l1.32,1.7c-1.06,1.14-2.56,1.76-4.11,1.7"/>
      <path class="cls-4" d="M276.73,25.05v-8.72c0-1.59-.56-2-1.62-2-1.19.1-2.3.64-3.11,1.52v9.2h-2.81v-15.25c.04-.94-.03-1.88-.19-2.8l2.81-.61c.2.99.28,1.99.26,3v4.18c1.04-1.04,2.45-1.64,3.92-1.67,1.21-.03,2.36.58,3.01,1.6.36.78.51,1.65.43,2.51v9l-2.7.04Z"/>
      <path class="cls-4" d="M288.25,25.38c-3.46,0-5.64-2.61-5.64-6.72s2.2-6.73,5.6-6.73c3.64,0,5.72,2.71,5.72,6.76s-2.2,6.69-5.68,6.69M288.25,14.03c-1.77,0-2.53,1.34-2.53,4.46,0,3.72.93,4.81,2.61,4.81s2.55-1.34,2.55-4.56c0-3.62-1-4.71-2.63-4.71"/>
      <path class="cls-4" d="M301.86,25.38c-3.47,0-5.65-2.61-5.65-6.72s2.2-6.73,5.6-6.73c3.65,0,5.72,2.71,5.72,6.76s-2.2,6.69-5.67,6.69M301.86,14.03c-1.77,0-2.53,1.34-2.53,4.46,0,3.72.94,4.81,2.61,4.81s2.56-1.34,2.56-4.56c0-3.62-1-4.71-2.64-4.71"/>
      <path class="cls-4" d="M313.39,25.33c-2.81,0-2.81-2.54-2.81-3.62v-10.92c.03-1.27-.06-2.54-.26-3.79l2.86-.64c.21,1.16.29,2.35.23,3.53v10.9c0,1.73.08,2,.28,2.31.23.26.6.34.91.2l.46,1.72c-.53.21-1.1.32-1.67.31"/>
      <path class="cls-3" d="M16.13,36.9S3.5,30.29.84,16.13C-.32,9.91.06,0,.06,0h32s.38,9.91-.79,16.13c-2.62,14.16-15.14,20.77-15.14,20.77"/>
      <path class="cls-1" d="M16.11,36.52S3.88,29.65,1.31,15.94C.19,9.92.55.33.55.33h31s.37,9.59-.76,15.61c-2.56,13.71-14.68,20.58-14.68,20.58"/>
      <path class="cls-1" d="M16.12,36.42S3.9,29.55,1.33,15.84C.2,9.82.57.22.57.22h31s.36,9.6-.77,15.62c-2.56,13.71-14.68,20.58-14.68,20.58"/>
      <path class="cls-5" d="M16.12,36.66l-.12-.06c-.12-.07-12.34-7.08-14.9-20.72C0,9.9.36.31.36.22v-.22h31.42v.2c0,.09.36,9.68-.76,15.66-2.56,13.66-14.67,20.67-14.8,20.74l-.1.06ZM.77.43c0,1.41-.26,9.92.76,15.37,2.4,12.79,13.41,19.67,14.59,20.37,1.18-.7,12.09-7.59,14.49-20.37,1-5.45.81-14,.76-15.37H.77Z"/>
      <polygon class="cls-2" points="9.89 31.59 22.26 31.57 20.88 32.93 19.98 33.67 12.2 33.68 11.2 32.78 9.89 31.59"/>
      <polygon class="cls-2" points="6.55 27.67 25.62 27.67 24.79 28.84 24.12 29.57 8.11 29.59 7.35 28.73 6.55 27.67"/>
      <polygon class="cls-2" points="4.17 23.78 28.02 23.78 26.92 25.68 5.26 25.68 4.59 24.68 4.17 23.78"/>
      <polygon class="cls-2" points="1.35 15.88 1.54 16.92 1.78 17.78 30.45 17.77 30.64 16.82 30.83 15.86 1.35 15.88"/>
      <polygon class="cls-2" points=".52 .38 31.59 .38 31.48 5.04 31.46 9.65 .67 9.64 .57 7.81 .5 4.24 .52 .38"/>
      <polygon class="cls-2" points="2.4 19.77 3.05 21.75 29 21.74 29.78 19.77 2.4 19.77"/>
      <polygon class="cls-2" points=".84 11.79 31.35 11.79 31.28 12.82 31.14 13.87 1.06 13.85 .87 12.59 .84 11.79"/>
      <path class="cls-5" d="M16.11,36.76l-.11-.06c-.12-.06-12.33-7.07-14.89-20.7C0,10,.34.42.34.32V.12h31.42v.2c0,.1.35,9.69-.77,15.66-2.54,13.65-14.66,20.65-14.78,20.72l-.1.06ZM.75.54c-.04,1.46-.25,9.92.77,15.36,2.4,12.79,13.4,19.67,14.59,20.38,1.18-.71,12.09-7.59,14.48-20.38,1-5.44.81-13.95.77-15.36H.75Z"/>
      <path class="cls-5" d="M20.06,33.8h-8v-.3h8v.3ZM22.29,31.71h-12.41v-.31h12.41v.31ZM24.15,29.71H8.05v-.31h16.1v.31ZM25.6,27.8H6.5v-.3h19.1v.3ZM26.92,25.8H5.22v-.3h21.7v.3ZM28.06,23.89H4.06v-.3h24v.3ZM29.06,21.89H3v-.3h26l.06.3ZM29.84,19.89H2.36v-.3h27.44l.04.3ZM30.39,17.89H1.69v-.3h28.66l.04.3ZM30.85,15.99H1.22v-.31h29.59l.04.31ZM31.16,13.99H.93v-.31h30.19l.04.31ZM31.31,12H.81v-.3h30.5v.3ZM31.41,9.91H.65v-.36h30.76v.36ZM8.94,7.91l-.52-.6.23-.2.52.6-.23.2Z"/>
      <rect class="cls-4" x="2.76" y="7.35" width=".78" height=".31" transform="translate(-4.5 4.75) rotate(-47.42)"/>
      <path class="cls-1" d="M2.18,2.67s0-.43.16-.59c.19-.09.4-.12.6-.08h2.45c.2,0,.25.17.48.17s.26-.17.47-.17h2.95s.36,0,.46.12c.11.15.16.34.14.52v.57s.91,0,.93.38-.93.41-.93.41v2.34s.93-.12.9.4-.9.41-.9.41v.45c0,.19-.03.38-.12.55-.21.29-.91.21-.91.21H3s-.5.08-.69-.12-.14-.57-.14-.57v-.45s-1,.1-1-.45,1-.46,1-.46v-2.31s-.93.12-1-.43,1-.45,1-.45v-.45Z"/>
      <path class="cls-5" d="M2.79,8.57c-.22.02-.44-.05-.61-.19-.14-.21-.21-.47-.18-.72v-.24c-.28.02-.55-.07-.77-.23-.13-.1-.22-.25-.23-.42,0-.16.06-.31.18-.41.24-.17.53-.26.82-.24v-1.91c-.27.02-.54-.05-.76-.21-.14-.1-.22-.24-.24-.41,0-.15.05-.3.16-.41.24-.18.54-.27.84-.25v-.25c-.02-.27.06-.53.22-.74.23-.15.51-.22.78-.17h2.39c.12,0,.23.04.32.11.04.03.1.05.15.05.05,0,.1-.02.14-.05.09-.07.21-.11.33-.11h2.96c.06,0,.47,0,.62.21.13.2.19.43.17.67v.35c.27,0,.54.07.77.23.09.09.15.2.16.33.01.14-.04.28-.14.38-.22.18-.5.27-.79.27v1.92c.26-.02.53.05.74.21.11.11.18.26.17.41,0,.15-.08.29-.19.39-.21.14-.46.22-.72.21v.25c0,.23-.05.46-.16.66-.26.37-1,.3-1.08.29H3l-.21.02ZM2.37,7v.66c-.02.15.01.31.09.44.17.09.36.11.54.07h5.86c.26,0,.65,0,.75-.13.06-.14.09-.29.09-.44v-.67h.21c.22.03.44,0,.64-.1.01-.04.01-.08,0-.12.01-.04.01-.07,0-.11-.2-.1-.43-.13-.65-.09h-.21v-2.7h.19c.24.03.49-.03.7-.16.02-.03.02-.06,0-.09.01-.02.01-.04,0-.06-.21-.11-.45-.16-.69-.14h-.2v-.76c0-.15-.03-.3-.12-.42-.09-.02-.18-.02-.27,0h-3s-.09.02-.13.05c-.1.08-.22.12-.34.12h0c-.13,0-.25-.04-.35-.12-.06,0-.08-.05-.12-.05h-2.42c-.16-.02-.32,0-.47.07-.08.14-.11.29-.1.45v.66h-.21c-.24-.03-.49.02-.7.14-.02.03-.02.08,0,.11,0,.05.02.1.06.14.21.11.44.14.67.11h.22v2.66h-.25c-.24-.03-.48.02-.69.14-.04.03-.06.07-.05.12,0,.05.01.1.05.13.21.11.46.14.69.09h.21Z"/>
      <rect class="cls-5" x="5.73" y="2.16" width=".31" height="5.69"/>
      <path class="cls-1" d="M6,7.86c.26,0,.47.2.48.46,0,.26-.2.47-.46.48-.26,0-.47-.2-.48-.46,0,0,0-.01,0-.02,0-.25.21-.45.46-.46"/>
      <path class="cls-5" d="M6,9c-.36,0-.66-.3-.66-.66s.3-.66.66-.66.66.3.66.66h0c0,.36-.28.65-.64.66,0,0-.01,0-.02,0ZM6,8.07c-.15,0-.27.12-.27.27,0,.15.12.27.27.27h0c.15,0,.27-.12.27-.27,0-.15-.12-.27-.27-.27h0Z"/>
      <path class="cls-5" d="M6.47,8.4l-.11-.29c.06-.03.11-.07.16-.11.17-.11.36-.17.56-.19.44-.06.89-.06,1.33,0,.2.05.41.03.59-.06.07-.14.1-.3.08-.46V2.8c-.04-.18-.15-.33-.29-.44v4.25s.11.58-.14.82c-.23.16-.52.2-.79.12-.13,0-.85.08-1.29.16-.18.06-.34.16-.48.29l-.16-.2-.14.2c-.13-.12-.28-.22-.45-.27-.43-.09-1.14-.15-1.29-.17-.23.09-.48.09-.71,0l-.28.3c.14.03.27.03.41,0,.44-.05.9-.05,1.34,0,.19,0,.38.06.55.14l.16.08-.11.29c-.08-.03-.15-.07-.22-.11-.13-.09-.28-.13-.44-.14-.41-.06-.83-.06-1.24,0-.06,0-.6.06-.82-.2-.13-.2-.18-.44-.16-.68V2.77c0-.44.59-.85.66-.89l.09.12h.15v4.57c-.03.22,0,.44.07.64,0,.07.3.06.5,0h0s.85.07,1.35.17c.24.04.46.15.65.31.15-.13.33-.22.52-.28.5-.09,1.32-.16,1.35-.17h.52c.08,0,.09-.39.06-.57V2h.16l.08-.13c.07.05.66.46.66.89v4.52c.04.25-.01.51-.15.72-.23.26-.77.2-.83.19-.41-.05-.83-.05-1.24,0-.15.02-.3.06-.44.14-.07.03-.14.06-.22.07ZM3.12,2.32c-.14.11-.24.27-.28.45v4.47c-.01.1-.01.21,0,.31l.32-.34c-.03-.22-.03-.43,0-.65l-.04-4.24Z"/>
      <path class="cls-1" d="M12.15,2.67s0-.43.17-.59.59-.12.59-.12h2.46c.19,0,.24.17.47.17s.26-.13.48-.13h2.95s.35,0,.45.12c.11.15.16.34.14.52v.57s.91,0,.93.38-.93.46-.93.46v2.29s.93-.12.91.4-.91.41-.91.41v.45c0,.19-.03.38-.12.55-.21.29-.9.21-.9.21h-5.84s-.49.08-.69-.12c-.1-.17-.15-.37-.14-.57v-.45s-1,.1-1-.45,1-.46,1-.46v-2.31s-.92.12-1-.43,1-.45,1-.45l-.02-.45Z"/>
      <path class="cls-5" d="M12.76,8.57c-.22.02-.43-.05-.6-.19-.15-.21-.22-.46-.2-.72v-.24c-.28.01-.55-.07-.77-.23-.12-.11-.19-.26-.19-.42,0-.15.06-.3.17-.41.24-.17.53-.26.83-.24v-1.91c-.27.02-.53-.05-.75-.2-.12-.11-.19-.26-.2-.42,0-.15.05-.3.16-.41.23-.17.51-.26.79-.25v-.25c-.02-.27.06-.53.23-.74.22-.15.48-.21.74-.17h2.44c.12,0,.23.04.32.11.04.03.1.05.15.05.04,0,.09-.02.12-.05.1-.07.22-.11.34-.11h2.95c.06,0,.46,0,.61.21.14.19.2.43.17.67v.35c.27,0,.54.07.77.23.1.08.16.2.16.33.01.14-.04.28-.14.38-.22.18-.5.27-.78.27v1.92c.26-.01.52.06.74.21.22.2.24.54.04.76-.01.01-.02.03-.04.04-.21.14-.46.22-.71.21v.25c0,.23-.05.46-.16.66-.27.37-1,.3-1.08.29h-5.87l-.24.02ZM12.34,7v.66c0,.15.02.3.09.44.16.08.34.1.52.06h5.89c.26,0,.65,0,.75-.13.06-.14.09-.29.08-.44v-.66h.21c.22.03.44,0,.64-.1.04-.03.06-.07.06-.12.01-.03.01-.07,0-.1-.2-.11-.43-.14-.65-.1h-.22v-2.7h.2c.24.03.49-.03.7-.16,0-.03,0-.06,0-.09,0-.14-.43-.21-.73-.2h-.2v-.76c.02-.15-.02-.3-.11-.42-.09-.02-.18-.02-.27,0h-3s-.09.02-.13.05c-.1.08-.22.12-.35.12h0c-.13,0-.25-.05-.35-.12-.06,0-.08-.05-.11-.05h-2.45c-.16-.02-.32,0-.46.07-.08.14-.12.29-.11.45v.66h-.2c-.25-.03-.49.02-.71.14-.02.04-.02.07,0,.11,0,.05.03.11.07.14.21.11.44.15.67.11h.21v2.66h-.2c-.24-.03-.49.02-.7.14-.01.04-.01.08,0,.12,0,.05.02.1.06.13.21.11.45.16.68.13l.12-.04Z"/>
      <rect class="cls-5" x="15.7" y="2.16" width=".31" height="5.69"/>
      <path class="cls-1" d="M15.93,7.86c.26.04.43.28.4.53-.03.21-.19.37-.4.4-.26.04-.5-.14-.53-.4-.04-.26.14-.5.4-.53.05,0,.09,0,.14,0"/>
      <path class="cls-5" d="M15.93,9c-.36,0-.66-.3-.66-.66s.3-.66.66-.66.66.3.66.66h0c0,.36-.3.66-.66.66ZM15.93,8.07c-.15,0-.27.12-.27.27s.12.27.27.27.27-.12.27-.27c.01-.15-.1-.28-.25-.29,0,0-.01,0-.02,0v.02Z"/>
      <path class="cls-5" d="M16.45,8.4l-.11-.29c.08,0,.11-.06.16-.08.16-.11.35-.18.55-.19.44-.06.9-.06,1.34,0,.17,0,.46,0,.55-.09.07-.14.09-.3.06-.46V2.8c-.04-.18-.15-.33-.29-.44v4.25s.12.58-.14.82c-.23.16-.52.2-.78.12-.14,0-.85.08-1.29.16-.17.06-.32.15-.45.27l-.15-.18-.13.2c-.13-.12-.28-.21-.45-.27-.44-.09-1.15-.15-1.29-.17-.23.09-.48.09-.71,0l-.29.3c.14.03.28.03.42,0,.44-.05.89-.05,1.33,0,.2.03.39.09.56.19l.16.08-.11.29c-.08-.03-.15-.07-.22-.11-.14-.08-.29-.13-.45-.14-.41-.06-.83-.06-1.24,0-.06,0-.59.06-.82-.2-.13-.2-.18-.44-.15-.68V2.77c0-.44.6-.85.67-.89l.08.12h.15v4.57c-.02.22,0,.44.08.64,0,.07.3.06.49,0h.02s.84.07,1.34.17c.21.06.41.16.57.31.15-.13.33-.23.52-.28.5-.09,1.31-.16,1.35-.17h.53c.09-.18.1-.38.05-.57V2h.15l.09-.13c.06.05.66.46.66.89v4.52c.02.23-.03.47-.16.67-.23.26-.76.2-.82.19-.41-.05-.83-.05-1.24,0-.16.02-.31.07-.45.14-.04.04-.09.08-.14.12ZM13.1,2.32c-.15.11-.25.27-.29.45v4.47c-.01.1-.01.21,0,.31l.32-.34c-.05-.21-.07-.43-.05-.65l.02-4.24Z"/>
      <path class="cls-1" d="M22.13,2.67s0-.43.16-.59c.18-.1.39-.14.6-.12h2.45c.2,0,.25.17.48.17s.26-.17.47-.17h2.95s.36,0,.45.12c.11.15.17.33.15.52v.57s.9,0,.93.38-.93.46-.93.46v2.33s.93-.12.9.4-.9.41-.9.41v.45c0,.19-.03.38-.12.55-.21.29-.91.21-.91.21h-5.81s-.5.08-.69-.12-.14-.57-.14-.57v-.45s-1,.1-1-.45,1-.46,1-.46v-2.31s-.93.12-1-.43,1-.45,1-.45l-.04-.45Z"/>
      <path class="cls-5" d="M22.73,8.57c-.22.01-.43-.05-.6-.19-.14-.21-.21-.46-.2-.72v-.24c-.27.02-.54-.07-.76-.23-.11-.11-.17-.26-.17-.42,0-.16.06-.31.18-.41.22-.16.49-.25.77-.24v-1.91c-.26.02-.52-.05-.74-.2-.13-.1-.2-.26-.21-.42,0-.15.05-.3.16-.41.23-.17.51-.26.79-.25v-.25c-.01-.27.07-.53.23-.74.22-.15.49-.21.75-.17h2.43c.12,0,.23.04.32.11.04.03.1.05.15.05.06,0,.12-.01.17-.05.1-.07.22-.11.34-.11h2.95c.06,0,.47,0,.62.21.13.2.19.43.17.67v.35c.27,0,.54.07.77.23.09.09.15.2.16.33.01.14-.04.28-.14.38-.22.18-.5.27-.79.27v1.92c.26-.02.53.05.74.21.11.11.18.26.17.41,0,.15-.08.29-.19.39-.21.14-.46.22-.72.21v.25c0,.23-.04.46-.15.66-.27.37-1,.3-1.09.29h-5.84c-.09.02-.18.03-.27.02ZM22.32,7v.66c-.02.15.02.31.09.44.16.08.34.1.52.06h5.88c.26,0,.66,0,.75-.14.06-.13.09-.28.09-.43v-.66h.21c.22.03.44,0,.64-.1.03-.03.05-.07.05-.12.01-.04.01-.07,0-.11-.2-.1-.43-.13-.65-.09h-.21v-2.7h.19c.24.03.49-.03.7-.16.02-.03.02-.06,0-.09.01-.02.01-.04,0-.06-.21-.11-.45-.16-.69-.14h-.2v-.76c0-.15-.03-.3-.12-.42-.09-.02-.18-.02-.27,0h-3s-.09.02-.13.05c-.1.08-.22.12-.34.12h0c-.13,0-.25-.04-.36-.12-.05,0-.07-.05-.11-.05h-2.47c-.16-.02-.32,0-.47.07-.08.14-.11.29-.1.45v.66h-.21c-.24-.03-.49.02-.7.14-.02.03-.02.08,0,.11,0,.05.02.1.06.14.21.11.44.14.67.11h.22v2.66h-.21c-.24-.03-.48.02-.69.14-.04.03-.06.07-.05.12,0,.05.01.1.05.13.21.11.45.16.69.13l.17-.04Z"/>
      <rect class="cls-5" x="25.68" y="2.16" width=".31" height="5.69"/>
      <path class="cls-1" d="M25.9,7.86c.26,0,.47.2.48.46,0,.26-.2.47-.46.48-.26,0-.47-.2-.48-.46,0,0,0-.01,0-.02,0-.25.21-.45.46-.46"/>
      <path class="cls-5" d="M25.9,9c-.36,0-.66-.3-.66-.66s.3-.66.66-.66.66.3.66.66h0c0,.36-.28.65-.64.66,0,0-.01,0-.02,0ZM25.9,8.07c-.15,0-.27.12-.27.27,0,.15.12.27.27.27.15,0,.27-.12.27-.27,0-.15-.12-.27-.27-.27h0Z"/>
      <path class="cls-5" d="M26.42,8.4l-.11-.29c.06-.03.11-.07.16-.11.16-.09.34-.15.53-.16.44-.06.89-.06,1.33,0,.19.03.39,0,.56-.09.08-.14.12-.3.11-.46V2.8c-.04-.18-.15-.33-.29-.44v4.25s.11.58-.14.82c-.23.16-.52.2-.79.12-.13,0-.85.08-1.29.16-.18.06-.35.16-.49.29l-.16-.19-.1.19c-.13-.12-.28-.22-.45-.27-.43-.09-1.14-.15-1.29-.17-.23.09-.48.09-.71,0l-.28.3c.14.02.27.02.41,0,.44-.05.89-.05,1.33,0,.2.02.39.09.56.19l.16.08-.11.29c-.08-.03-.15-.07-.22-.11-.13-.09-.28-.13-.44-.14-.41-.06-.83-.06-1.24,0-.06,0-.6.06-.82-.2-.13-.2-.18-.44-.16-.68V2.77c0-.44.59-.85.66-.89l.09.12h.15v4.57c-.03.22,0,.44.07.64,0,.07.3.06.5,0h.05s.85.07,1.35.17c.21.06.4.16.56.31.15-.13.33-.22.52-.28.5-.09,1.32-.16,1.35-.17h.53c.09,0,.08-.39.05-.57V2h.16l.08-.13c.07.05.66.46.66.89v4.52c.03.23-.02.47-.15.67-.23.26-.77.2-.83.19-.41-.05-.83-.05-1.24,0-.15.02-.3.06-.44.14-.06.05-.12.09-.18.12ZM23.07,2.32c-.15.11-.25.27-.29.45v4.47c0,.1,0,.21,0,.31l.32-.34c-.04-.21-.06-.43-.05-.65l.02-4.24Z"/>
      <path class="cls-3" d="M5.62,3.42v.06c-.14.23-.21,0-.49,1s-.31,1.18-.42,1.18-.2-.59-.41-1.2c-.36-1-.49-.93-.49-1s0,0,0-.06h.79v.08s-.1.16-.1.35c0,0,.21.74.32.74s.33-.81.33-.84-.08-.15-.15-.25v-.06h.61"/>
      <path class="cls-3" d="M7.25,3.34h.28c0,.11.08.22.08.28v.21c-.1,0-.08,0-.08,0-.15,0-.22-.23-.36-.23h-.25c-.07.11-.11.24-.1.37v.17c0,.09.06.18.16.18.01,0,.03,0,.04,0,.24,0,.29-.23.41-.23s.1.21.1.35,0,.29-.12.29-.16-.24-.41-.24c-.08.02-.15.09-.16.18v.57c0,.13.1.25.23.25.01,0,.03,0,.04,0,.24,0,.46-.16.53-.39h.1c.03.07.05.15.06.23v.22c-.07.06-.16.1-.25.12h-1.24s-.06-.07-.08-.12.22-.19.22-.35v-1.2c0-.44-.2-.32-.2-.49v-.09h.81c.07-.01.13-.04.19-.08"/>
      <path class="cls-3" d="M16.51,3.36h1v.15c-.1,0-.28.15-.28.32v1.44c0,.32.28.2.28.35v.18h-1v-.19c0-.13.27,0,.27-.34v-1.44c-.01-.15-.12-.29-.27-.33v-.14"/>
      <path class="cls-3" d="M27.86,3.32s.16.11.16.4c0,.07-.07.06,0,.22h-.13c-.08-.11-.17-.22-.27-.31h-.27c-.1.17-.08.06-.08.22,0,.39.95.54.95,1.26,0,.31-.27.64-.45.65h-.66c-.04-.24-.04-.49,0-.73,0-.08,0-.14.07-.14s.12.67.53.67c.15,0,.28-.12.29-.27,0-.55-1-.55-1-1.37-.01-.24.14-.46.37-.53h.31c.08,0,.1-.07.2-.07"/>
      <path class="cls-3" d="M15.78,5.49h-.08s-.52-.54-.52-.74.56-.27.53-.85c0-.28-.19-.53-.46-.59h-1.39c-.01.06-.01.11,0,.17,0,0,.31.21.28.43v1.36c0,.08-.22.25-.22.35.01.07.01.13,0,.2h.82c0-.06,0-.12,0-.18,0-.07-.14-.17-.17-.33-.03-.1-.03-.22,0-.32h.11c.17.33.42.62.73.82h.32c0,.06,0-.32,0-.32"/>
      <path class="cls-3" d="M26.67,5.54c.08.07.17.13.26.19v.07h-.82s-.06-.08-.06-.11l.15-.27c-.1-.1-.19-.21-.27-.32-.1-.01-.2-.01-.3,0-.09.08-.06.1-.17.27s0,.09.18.27c-.01.05-.03.1-.06.15h-1.58v-.08c0-.17.26-.11.26-.48v-1.18c0-.14,0-.51-.13-.51-.17.07-.31.2-.4.36h-.09v-.16s0-.55.22-.55c.14.06.3.1.45.13h.57s.16-.09.29-.09.13.07.13.18-.1.53-.2.53-.08-.18-.26-.4h-.16c-.04.5-.04.99,0,1.49,0,.1,0,.21,0,.31,0,.09.06.26.16.26.33,0,.42-.81.58-1.19,0,0,.32-1.16.4-1.39l.85,2.52Z"/>
      <path class="cls-1" d="M14.68,3.57h.32c.16.13.25.32.26.52,0,.03,0,.07,0,.1,0,.18-.21.25-.24.31h-.28c0-.08-.09-.13-.09-.22v-.39c0-.1,0-.13.06-.32"/>
      <path class="cls-1" d="M25.78,4.23c.09.13.14.28.16.44,0,.04,0,.07,0,.11h-.31c0-.16,0-.13,0-.13,0-.14.02-.28.06-.42h.09Z"/>
    </g>
  </g>
</svg>