<svg id="Layer_1" data-name="Layer 1" xmlns="http://www.w3.org/2000/svg" viewBox="0 0 28.87 51.84"><path class="cls-1" d="M61.49,62a2.55,2.55,0,0,0-2.55,2.55V62h0a2.56,2.56,0,1,0-5.11,0h0V59.45a2.56,2.56,0,0,0-2.56-2.55,2.59,2.59,0,0,0-2.55,2.23V46.69a2.54,2.54,0,0,0-2.51-2.59,2.59,2.59,0,0,0-2.6,2.59V68.08L42.1,61.54A3.17,3.17,0,0,0,36,63.41L38.5,77.32C44,82.83,45.56,85.68,46,86.87a1,1,0,0,0,.94.67H60.6a1,1,0,0,0,1-.81L64,75a2.94,2.94,0,0,0,0-.51v-10A2.57,2.57,0,0,0,61.49,62Z" transform="translate(-35.57 -36.08)"/><path class="cls-1" d="M41.05,55.48V46.69a5.14,5.14,0,0,1,5.14-5.14,5.07,5.07,0,0,1,5.08,5.14v8.79a10.22,10.22,0,1,0-10.22,0Z" transform="translate(-35.57 -36.08)"/></svg>