<svg width="30" height="39" viewBox="0 0 30 39" fill="none" xmlns="http://www.w3.org/2000/svg">
<path d="M28.444 36.8881V0H21.702V7.03314L15.9106 11.8176V6.29954L9.15613 11.8176V6.29954L1.45097 12.6788V36.9997H0V38.2277H29.92V36.9997L28.444 36.8881ZM22.6652 1.25992H27.4809V16.618H22.6652V1.25992ZM21.702 8.53227V16.618H15.9106V13.2689L21.702 8.53227ZM14.9475 8.53227V16.618H9.15613V13.2689L14.9475 8.53227ZM2.43915 13.3167L8.218 8.53227V16.618H2.40162L2.43915 13.3167ZM10.1568 36.9679V28.3558H14.4847V36.9679H10.1568ZM15.4604 36.9679V28.3558H19.7882V36.9679H15.4604ZM27.5059 36.9679H20.7514V27.1278H9.15613V36.9679H2.40162V17.8301H27.4183L27.5059 36.9679Z" fill="#2F363F"/>
<path d="M4.3418 25.1815H8.19439V20.2695H4.3418V25.1815ZM5.30497 21.4975H7.23123V23.9536H5.30497V21.4975Z" fill="#2F363F"/>
<path d="M21.7012 25.1815H25.5538V20.2695H21.7012V25.1815ZM22.6643 21.4975H24.5906V23.9536H22.6643V21.4975Z" fill="#2F363F"/>
<path d="M13.0215 25.1815H16.8741V20.2695H13.0215V25.1815ZM13.9847 21.4975H15.9109V23.9536H13.9847V21.5135V21.4975Z" fill="#2F363F"/>
</svg>
