<svg version="1.1" id="Layer_1" xmlns="http://www.w3.org/2000/svg" x="0px" y="0px"
	 viewBox="0 0 233 225.6">
<g>
	<path d="M227.8,107.6c0,14.2,0.4,28.3-0.1,42.5c-0.5,12-1,24.2-5.6,35.6c-8.9,22.5-25.9,35.4-49.4,36.7
		c-31.7,1.7-63.5,1.4-95.3,1.1c-10.5-0.1-21.2-1.8-31.2-4.9C24.2,212,10.8,196.2,7.6,174c-2.5-17.5-1.9-35.4-2.3-53.2
		c-0.3-13-0.6-26,0.1-39C6.1,68,5.9,54,10.8,40.6c8-21.8,27.9-37.5,51.2-38.2c29.8-0.9,59.6-1.3,89.3-0.9
		c13.6,0.2,27.5,0.8,40.5,6.5c20.8,9.1,32.4,25.4,34.7,47.3c1.9,17.3,1.4,34.9,1.9,52.3C228.2,107.6,228,107.6,227.8,107.6z
		 M116.5,200.2c7.2,0,14.3,0.1,21.5,0c7.3-0.2,14.6-0.2,21.9-1c28.2-2.9,43.5-22.9,44.2-49.9c0.7-24.5,0.3-49,0-73.4
		c-0.1-10-2.5-19.7-7.9-28.4C186.1,31.2,170,25.3,152.1,25c-26.6-0.4-53.3,0-79.9,1C62,26.4,52.8,30.9,45,38.1
		C32.2,49.7,29.1,64.9,28.8,81c-0.4,21-0.2,42,0,63c0,4.8,0.4,9.7,1.3,14.4c5.4,28.7,25.2,40.8,50.9,41.8
		C92.8,200.6,104.7,200.2,116.5,200.2z"/>
	<path d="M186.7,112.9c0,13.6,0.4,27.3-0.1,40.9c-0.5,16.1-13.7,28.6-30,28.9c-21.5,0.4-42.9,0.9-64.4,0.9c-6.9,0-13.9-0.8-20.8-1.9
		c-16.4-2.7-24.5-14.9-25.1-30.7c-0.8-18.5-1-36.9-0.9-55.4c0-9.1,0.6-18.3,1.8-27.3c2.3-17,14.1-25.2,29.8-26
		c19.4-1,38.9-1.1,58.4-1.1c8.8,0,17.6,0.7,26.3,2c14.1,2,24.5,13.8,24.9,28.2C187,85.3,186.7,99.1,186.7,112.9z M164.3,112.7
		c0.3-25.3-20.1-47.9-47.7-47.8C90,65,69.1,85.4,69,112.4c-0.2,27.7,22.4,47.8,47.8,47.8C142.8,160.3,164.2,138.8,164.3,112.7z
		 M174.2,65.9c0-6-5.1-11.1-11-11.1c-5.9,0.1-10.9,5.4-10.8,11.4c0.1,5.6,5.4,10.9,10.9,11C169.1,77.3,174.2,71.9,174.2,65.9z"/>
	<path d="M144.9,112.6c0.8,17.2-15.4,28.5-28.2,28.5c-15.8,0-29.1-14.3-28.7-28.8c0.5-16.5,12.5-28.1,30.1-28.1
		C132.8,84.2,145,97.2,144.9,112.6z"/>
</g>
</svg>
