<svg id="__i6criYp__Layer_1" data-name="Layer 1" xmlns="http://www.w3.org/2000/svg" viewBox="0 0 56.05 56.05"><path d="M44.24,30.05A14.2,14.2,0,0,0,37,22.76L35,24.7l-1.34,1.35-1.4,1.4a5.88,5.88,0,0,0-.68.83,7.53,7.53,0,0,1,7.12,7.12,7.69,7.69,0,0,1-2.13,5.86l-.06.08-1.59,1.59-2.2,2.2-2.06,2.06-5.36,5.36A7.68,7.68,0,0,1,14.46,41.69l5.36-5.37a18,18,0,0,1-.66-2.91A16.32,16.32,0,0,1,19,31.2a17.28,17.28,0,0,1,.47-4L9.69,36.93A14.41,14.41,0,0,0,30.07,57.31l9.75-9.76,1.46-1.45a14.65,14.65,0,0,0,2.11-2.71,14.41,14.41,0,0,0,.85-13.34Z" transform="translate(-5.47 -5.47)"></path><path d="M57.31,9.69a14.4,14.4,0,0,0-20.38,0l-9.75,9.75L25.72,20.9a14.65,14.65,0,0,0-2.11,2.71,14.2,14.2,0,0,0-1.74,10.67A15.31,15.31,0,0,0,22.76,37a14.23,14.23,0,0,0,7.29,7.28L32,42.3,33.33,41l1.4-1.39a6,6,0,0,0,.68-.84,7.53,7.53,0,0,1-7.12-7.12,7.69,7.69,0,0,1,2.13-5.86l.06-.08,1.59-1.59,2.21-2.2,2-2.06,5.36-5.35A7.68,7.68,0,0,1,52.55,25.31l-5.37,5.37a17,17,0,0,1,.66,2.91A16.32,16.32,0,0,1,48,35.8a17.22,17.22,0,0,1-.47,4l9.77-9.77A14.42,14.42,0,0,0,57.31,9.69Z" transform="translate(-5.47 -5.47)"></path></svg>