<svg xmlns="http://www.w3.org/2000/svg" viewBox="0 0 24.83 24.53">
  <path fill="black" class="cls-5" d="M8.21,12.84a18.06,18.06,0,0,0,4.08-2.27,16.06,16.06,0,0,0,1.36-1.11,20.81,20.81,0,0,0,4.08-5.1c.09-.14.16-.29.25-.45l1.22.56-.34-4L15.53,2.8l1.23.56a17.47,17.47,0,0,1-14,9.46v1.36a21.24,21.24,0,0,0,4.08-.86A13.79,13.79,0,0,0,8.21,12.84Z"
    transform="translate(-0.06 -0.08)" />
  <rect class="cls-2" x="2.52" y="16.16" width="3.34" height="5.96" />
  <rect class="cls-2" x="7.58" y="14.46" width="3.39" height="7.66" />
  <rect class="cls-2" x="12.69" y="11.9" width="3.4" height="10.22" />
  <rect class="cls-2" x="17.8" y="6.94" width="3.4" height="15.18" /></svg>
