<svg width="14" height="21" viewBox="0 0 14 21" fill="none" xmlns="http://www.w3.org/2000/svg">
<path d="M5.85172 3.1006C6.03806 3.1006 6.19032 2.94452 6.19032 2.7535V0.3471C6.19032 0.156078 6.03806 0 5.85172 0C5.66538 0 5.51312 0.156078 5.51312 0.3471V2.7535C5.51312 2.94452 5.66538 3.1006 5.85172 3.1006Z" fill="black"/>
<path d="M3.35877 3.9277C3.42468 3.99526 3.51103 4.0302 3.59738 4.0302C3.68374 4.0302 3.77009 3.99526 3.83599 3.9277C3.96779 3.79259 3.96779 3.57128 3.83599 3.43617L2.1771 1.73561C2.04529 1.6005 1.82941 1.6005 1.69761 1.73561C1.5658 1.87072 1.5658 2.09203 1.69761 2.22714L3.3565 3.9277H3.35877Z" fill="black"/>
<path d="M8.10597 4.0302C8.19232 4.0302 8.27868 3.99526 8.34458 3.9277L10.0035 2.22714C10.1353 2.09203 10.1353 1.87072 10.0035 1.73561C9.87167 1.6005 9.65578 1.6005 9.52398 1.73561L7.86509 3.43617C7.73328 3.57128 7.73328 3.79259 7.86509 3.9277C7.93099 3.99526 8.01734 4.0302 8.1037 4.0302H8.10597Z" fill="black"/>
<path d="M12.2602 10.0729C11.9466 10.0729 11.6557 10.1801 11.4217 10.3595C11.2081 9.84231 10.7081 9.47658 10.1241 9.47658C9.83549 9.47658 9.56507 9.56743 9.3401 9.72118C9.17193 9.11783 8.62882 8.67289 7.98798 8.67289C7.72211 8.67289 7.47214 8.74976 7.25852 8.88255V5.8099C7.25852 5.01553 6.62678 4.36792 5.85187 4.36792C5.07696 4.36792 4.44522 5.01553 4.44522 5.8099V13.7233L2.45227 12.4467C2.10686 12.2254 1.69782 12.1625 1.30468 12.2674C0.911546 12.3722 0.584312 12.6331 0.38888 12.9988C0.0980055 13.5416 0.159362 14.2009 0.541135 14.6784C0.788833 14.9882 1.10925 15.3423 1.45012 15.7197C2.19321 16.542 3.1181 17.567 3.7453 18.6293C4.08163 19.1977 4.55657 19.6706 5.12014 19.9991C5.68371 20.3275 6.32454 20.4999 6.97447 20.4999H9.89912C10.9058 20.4999 11.8512 20.0992 12.5624 19.3678C13.2737 18.6363 13.6669 17.6672 13.6669 16.6376V11.5172C13.6669 10.7229 13.0351 10.0753 12.2602 10.0753V10.0729ZM12.9897 16.6376C12.9897 18.3847 11.6035 19.8057 9.89912 19.8057H6.97447C6.44271 19.8057 5.91777 19.6636 5.45419 19.3957C4.99288 19.1278 4.60202 18.7388 4.32478 18.2706C3.66122 17.1454 2.71133 16.0948 1.94779 15.2492C1.61601 14.8811 1.30014 14.5317 1.06607 14.2381C0.859279 13.9819 0.827465 13.6278 0.984264 13.3343C1.0888 13.1363 1.26378 12.9965 1.47739 12.9406C1.68873 12.8847 1.90916 12.9173 2.0955 13.0361L4.60656 14.6435C4.7111 14.711 4.8429 14.7134 4.94971 14.6528C5.05651 14.5922 5.12468 14.4757 5.12468 14.35V5.8099C5.12468 5.39757 5.45192 5.06212 5.85414 5.06212C6.25637 5.06212 6.5836 5.39757 6.5836 5.8099V12.4048C6.5836 12.5958 6.73586 12.7519 6.9222 12.7519C7.10854 12.7519 7.2608 12.5958 7.2608 12.4048V10.1172C7.2608 9.70487 7.58803 9.36942 7.99026 9.36942C8.39248 9.36942 8.71972 9.70487 8.71972 10.1172V12.8311C8.71972 13.0221 8.87197 13.1782 9.05831 13.1782C9.24465 13.1782 9.39691 13.0221 9.39691 12.8311V10.9209C9.39691 10.5086 9.72414 10.1731 10.1264 10.1731C10.5286 10.1731 10.8558 10.5086 10.8558 10.9209V13.2201C10.8558 13.4112 11.0081 13.5672 11.1944 13.5672C11.3808 13.5672 11.533 13.4112 11.533 13.2201V11.5172C11.533 11.1049 11.8603 10.7695 12.2625 10.7695C12.6647 10.7695 12.9919 11.1049 12.9919 11.5172V16.6376H12.9897Z" fill="black"/>
<path d="M2.68605 6.369C2.87239 6.369 3.02464 6.21293 3.02464 6.0219C3.02464 5.83088 2.87239 5.6748 2.68605 5.6748H0.338596C0.152255 5.6748 0 5.83088 0 6.0219C0 6.21293 0.152255 6.369 0.338596 6.369H2.68605Z" fill="black"/>
<path d="M8.67871 6.0219C8.67871 6.21293 8.83097 6.369 9.01731 6.369H11.3648C11.5511 6.369 11.7034 6.21293 11.7034 6.0219C11.7034 5.83088 11.5511 5.6748 11.3648 5.6748H9.01731C8.83097 5.6748 8.67871 5.83088 8.67871 6.0219Z" fill="black"/>
</svg>
