<svg xmlns="http://www.w3.org/2000/svg" viewBox="0 0 112 100" fill="#333"><path d="M56,0C33.63,0,9.59,6.26,9.59,21v62.5C9.59,96.32,38.74,100,56,100s46.35-3.68,46.35-17.5V20C102.3,6.26,78.27,0,56,0Zm0,10.08c24.32,0,34.42,6,34.42,9,0,.16-4.66,10.4-34.42,10.4-24.33,0-34.43-6.83-34.43-9.8S31.62,10.08,56,10.08ZM91,52.5c-1.46,2.4-11.77,7.66-35,7.66S21.44,54.9,20.9,52.5V33.62c8.12,5,21.34,7.14,35.05,7.14s26-2.14,35-7.14ZM56,89.82c-23.05,0-33.39-5.17-35.05-7.61V65.08c10,4.79,24,6.07,35.05,6.07s25-1.3,35-6.07V82.21C89.33,84.65,79,89.82,56,89.82Z"></path></svg>