<svg xmlns="http://www.w3.org/2000/svg" viewBox="0 0 112 100" fill="#333"><path d="M55.29,0h1a5.9,5.9,0,0,1,5.82,6V63.87a5.91,5.91,0,0,1-5.82,6h-1a5.91,5.91,0,0,1-5.82-6V6A5.91,5.91,0,0,1,55.29,0Z"></path><path d="M5.82,62.87h1a5.91,5.91,0,0,1,5.82,6v25a5.91,5.91,0,0,1-5.82,6h-1a5.91,5.91,0,0,1-5.82-6v-25A5.91,5.91,0,0,1,5.82,62.87Z"></path><path d="M105.21,62.87h1a5.91,5.91,0,0,1,5.82,6v25a5.91,5.91,0,0,1-5.82,6h-1a5.91,5.91,0,0,1-5.82-6v-25A5.91,5.91,0,0,1,105.21,62.87Z"></path><path d="M0,94V93c0-3.3,3-6,6.69-6h98.17c3.7,0,6.7,2.68,6.7,6v1c0,3.31-3,6-6.7,6H6.69C3,100,0,97.32,0,94Z"></path><path d="M26.17,39.9l-.66.73a6.14,6.14,0,0,0,.29,8.44l26,25.17A5.59,5.59,0,0,0,59.89,74l.65-.73a6.13,6.13,0,0,0-.28-8.43l-26-25.18A5.58,5.58,0,0,0,26.17,39.9Z"></path><path d="M77.38,39.62,51,64.88a6.11,6.11,0,0,0-.28,8.46l.66.73a5.71,5.71,0,0,0,8.23.3L86,49.1a6.11,6.11,0,0,0,.29-8.46l-.67-.73A5.69,5.69,0,0,0,77.38,39.62Z"></path></svg>