<svg id="Layer_1" data-name="Layer 1" xmlns="http://www.w3.org/2000/svg" viewBox="0 0 63 69.4"><defs><style>.cls-1{fill:#46899F;}</style></defs><path class="cls-1" d="M71,15.3a.8.8,0,0,0,0,1.6.86.86,0,0,0,.8-.8.79.79,0,0,0-.8-.8Zm3.2,0a.8.8,0,0,0,0,1.6.86.86,0,0,0,.8-.8.74.74,0,0,0-.8-.8Zm-9.6,3.2a.74.74,0,0,0-.8.8.8.8,0,1,0,.8-.8Zm3.2,0a.74.74,0,0,0-.8.8.8.8,0,1,0,.8-.8Zm3.2,0a.74.74,0,0,0-.8.8.8.8,0,1,0,.8-.8Zm3.2,0a.74.74,0,0,0-.8.8.8.8,0,0,0,1.6,0,.74.74,0,0,0-.8-.8ZM58.1,21.7a.79.79,0,0,0-.8.8.86.86,0,0,0,.8.8.8.8,0,0,0,0-1.6Zm3.2,0a.8.8,0,1,0,0,1.6.74.74,0,0,0,.8-.8.79.79,0,0,0-.8-.8Zm3.3,0a.79.79,0,0,0-.8.8.86.86,0,0,0,.8.8.8.8,0,0,0,0-1.6Zm3.2,0a.79.79,0,0,0-.8.8.86.86,0,0,0,.8.8.8.8,0,0,0,0-1.6Zm3.2,0a.79.79,0,0,0-.8.8.86.86,0,0,0,.8.8.8.8,0,0,0,0-1.6Zm3.2,0a.79.79,0,0,0-.8.8.86.86,0,0,0,.8.8.79.79,0,0,0,.8-.8.74.74,0,0,0-.8-.8ZM29,25a.8.8,0,1,0,.8.8A.86.86,0,0,0,29,25Zm3.2,0a.8.8,0,1,0,0,1.6.8.8,0,1,0,0-1.6Zm22.7,0a.8.8,0,1,0,.8.8.86.86,0,0,0-.8-.8Zm3.2,0a.79.79,0,0,0-.8.8.8.8,0,1,0,.8-.8Zm3.2,0a.8.8,0,1,0,0,1.6.79.79,0,0,0,.8-.8.86.86,0,0,0-.8-.8Zm3.3,0a.79.79,0,0,0-.8.8.8.8,0,0,0,1.6,0c-.1-.4-.4-.8-.8-.8Zm3.2,0a.79.79,0,0,0-.8.8.8.8,0,1,0,.8-.8ZM71,25a.79.79,0,0,0-.8.8A.8.8,0,1,0,71,25Zm3.2,0a.79.79,0,0,0-.8.8.8.8,0,0,0,1.6,0,.79.79,0,0,0-.8-.8ZM25.8,28.2a.79.79,0,0,0-.8.8.74.74,0,0,0,.8.8.79.79,0,0,0,.8-.8c-.1-.4-.4-.8-.8-.8Zm3.2,0a.79.79,0,0,0-.8.8.74.74,0,0,0,.8.8.79.79,0,0,0,.8-.8.86.86,0,0,0-.8-.8Zm3.2,0a.79.79,0,0,0-.8.8.74.74,0,0,0,.8.8.8.8,0,1,0,0-1.6Zm3.2,0a.86.86,0,0,0-.8.8.8.8,0,1,0,1.6,0c.1-.4-.3-.8-.8-.8Zm16.2,0a.8.8,0,1,0,.8.8.79.79,0,0,0-.8-.8Zm3.3,0a.79.79,0,0,0-.8.8.74.74,0,0,0,.8.8.79.79,0,0,0,.8-.8.86.86,0,0,0-.8-.8Zm3.2,0a.8.8,0,0,0,0,1.6.8.8,0,0,0,0-1.6Zm3.2,0a.86.86,0,0,0-.8.8.8.8,0,0,0,1.6,0,.86.86,0,0,0-.8-.8Zm3.3,0a.8.8,0,1,0,0,1.6.86.86,0,0,0,.8-.8c-.1-.4-.4-.8-.8-.8Zm3.2,0a.8.8,0,1,0,0,1.6.8.8,0,0,0,0-1.6Zm3.2,0a.8.8,0,1,0,0,1.6.8.8,0,0,0,0-1.6Zm3.2,0a.8.8,0,1,0,.8.8.79.79,0,0,0-.8-.8ZM38.7,31.4a.79.79,0,0,0-.8.8.8.8,0,0,0,1.6,0,.86.86,0,0,0-.8-.8Zm-12.9,0a.79.79,0,0,0-.8.8.8.8,0,0,0,1.6,0c-.1-.4-.4-.8-.8-.8Zm3.2,0a.79.79,0,0,0-.8.8.8.8,0,0,0,1.6,0,.86.86,0,0,0-.8-.8Zm3.2,0a.79.79,0,0,0-.8.8.74.74,0,0,0,.8.8.79.79,0,0,0,.8-.8.86.86,0,0,0-.8-.8Zm3.2,0a.86.86,0,0,0-.8.8.79.79,0,0,0,.8.8.74.74,0,0,0,.8-.8c.1-.4-.3-.8-.8-.8Zm42.1,0a.74.74,0,0,0-.8.8.8.8,0,0,0,1.6,0,.86.86,0,0,0-.8-.8Zm3.2,0a.74.74,0,0,0-.8.8.8.8,0,0,0,1.6,0,.86.86,0,0,0-.8-.8Zm-38.8.1a.8.8,0,1,0,.8.8.74.74,0,0,0-.8-.8Zm3.2,0a.74.74,0,0,0-.8.8.8.8,0,1,0,1.6,0c.1-.5-.3-.8-.8-.8Zm3.3,0a.8.8,0,0,0,0,1.6.74.74,0,0,0,.8-.8.79.79,0,0,0-.8-.8Zm3.2,0a.74.74,0,0,0-.8.8.79.79,0,0,0,.8.8.8.8,0,0,0,0-1.6Zm3.3,0a.8.8,0,1,0,.8.8.79.79,0,0,0-.8-.8Zm3.2,0a.74.74,0,0,0-.8.8.8.8,0,1,0,.8-.8Zm3.2,0a.8.8,0,0,0,0,1.6.74.74,0,0,0,.8-.8.79.79,0,0,0-.8-.8Zm3.3,0a.74.74,0,0,0-.8.8.8.8,0,1,0,1.6,0c-.1-.5-.4-.8-.8-.8Zm3.2,0a.74.74,0,0,0-.8.8.8.8,0,1,0,.8-.8Zm3.2,0a.74.74,0,0,0-.8.8.8.8,0,1,0,.8-.8Zm3.2,0a.74.74,0,0,0-.8.8.8.8,0,1,0,1.6,0,.74.74,0,0,0-.8-.8ZM38.7,34.6a.8.8,0,1,0,.8.8.79.79,0,0,0-.8-.8Zm38.8,0a.79.79,0,0,0-.8.8.86.86,0,0,0,.8.8.8.8,0,0,0,0-1.6Zm-51.7,0a.8.8,0,0,0,0,1.6.79.79,0,0,0,.8-.8.86.86,0,0,0-.8-.8Zm3.2,0a.8.8,0,0,0,0,1.6.79.79,0,0,0,.8-.8.86.86,0,0,0-.8-.8Zm3.2,0a.8.8,0,1,0,0,1.6.8.8,0,0,0,0-1.6Zm3.2,0a.8.8,0,1,0,.8.8.79.79,0,0,0-.8-.8Zm6.5,0a.8.8,0,0,0,0,1.6.8.8,0,0,0,0-1.6Zm3.2,0a.74.74,0,0,0-.8.8.79.79,0,0,0,.8.8.86.86,0,0,0,.8-.8.79.79,0,0,0-.8-.8Zm3.3,0a.8.8,0,1,0,.8.8.86.86,0,0,0-.8-.8Zm3.2,0a.74.74,0,0,0-.8.8.8.8,0,1,0,.8-.8Zm3.3,0a.8.8,0,0,0,0,1.6.79.79,0,0,0,.8-.8.86.86,0,0,0-.8-.8Zm3.2,0a.74.74,0,0,0-.8.8.79.79,0,0,0,.8.8.8.8,0,0,0,0-1.6Zm3.2,0a.8.8,0,1,0,.8.8.86.86,0,0,0-.8-.8Zm3.3,0a.74.74,0,0,0-.8.8.79.79,0,0,0,.8.8.8.8,0,1,0,0-1.6Zm3.2,0a.74.74,0,0,0-.8.8.79.79,0,0,0,.8.8.8.8,0,0,0,0-1.6Zm3.2,0a.74.74,0,0,0-.8.8.79.79,0,0,0,.8.8.8.8,0,0,0,0-1.6Zm3.2,0a.74.74,0,0,0-.8.8.79.79,0,0,0,.8.8.86.86,0,0,0,.8-.8.79.79,0,0,0-.8-.8ZM38.7,37.8a.8.8,0,1,0,.8.8.86.86,0,0,0-.8-.8Zm-12.9.1a.8.8,0,1,0,.8.8c-.1-.5-.4-.8-.8-.8Zm3.2,0a.8.8,0,1,0,.8.8.79.79,0,0,0-.8-.8Zm3.2,0a.8.8,0,1,0,0,1.6.86.86,0,0,0,.8-.8.79.79,0,0,0-.8-.8Zm3.2,0a.8.8,0,0,0,0,1.6.79.79,0,0,0,.8-.8c.1-.5-.3-.8-.8-.8Zm6.5,0a.79.79,0,0,0-.8.8.74.74,0,0,0,.8.8.8.8,0,0,0,0-1.6Zm3.2,0a.8.8,0,1,0,0,1.6.86.86,0,0,0,.8-.8c.1-.4-.3-.8-.8-.8Zm3.3,0a.86.86,0,0,0-.8.8.8.8,0,0,0,1.6,0,.86.86,0,0,0-.8-.8Zm3.2,0a.8.8,0,1,0,.8.8.79.79,0,0,0-.8-.8Zm3.3,0a.79.79,0,0,0-.8.8.74.74,0,0,0,.8.8.79.79,0,0,0,.8-.8.86.86,0,0,0-.8-.8Zm3.2,0a.8.8,0,1,0,0,1.6.8.8,0,1,0,0-1.6Zm3.2,0a.86.86,0,0,0-.8.8.8.8,0,0,0,1.6,0,.86.86,0,0,0-.8-.8Zm3.3,0a.8.8,0,1,0,0,1.6.86.86,0,0,0,.8-.8c-.1-.4-.4-.8-.8-.8Zm3.2,0a.8.8,0,1,0,0,1.6.8.8,0,1,0,0-1.6Zm3.2,0a.8.8,0,1,0,0,1.6.8.8,0,1,0,0-1.6Zm3.2,0a.8.8,0,1,0,0,1.6.86.86,0,0,0,.8-.8.79.79,0,0,0-.8-.8ZM38.7,41.1a.79.79,0,0,0-.8.8.74.74,0,0,0,.8.8.8.8,0,0,0,0-1.6Zm-12.9,0a.79.79,0,0,0-.8.8.74.74,0,0,0,.8.8.79.79,0,0,0,.8-.8c-.1-.4-.4-.8-.8-.8Zm3.2,0a.79.79,0,0,0-.8.8.74.74,0,0,0,.8.8.79.79,0,0,0,.8-.8.86.86,0,0,0-.8-.8Zm3.2,0a.79.79,0,0,0-.8.8.74.74,0,0,0,.8.8.8.8,0,0,0,0-1.6Zm3.2,0a.86.86,0,0,0-.8.8.8.8,0,1,0,1.6,0c.1-.4-.3-.8-.8-.8Zm6.5,0a.79.79,0,0,0-.8.8.8.8,0,1,0,1.6,0,.79.79,0,0,0-.8-.8Zm3.2,0a.8.8,0,1,0,.8.8c.1-.4-.3-.8-.8-.8Zm3.3,0a.86.86,0,0,0-.8.8.79.79,0,0,0,.8.8.74.74,0,0,0,.8-.8.86.86,0,0,0-.8-.8Zm3.2,0a.8.8,0,0,0,0,1.6.74.74,0,0,0,.8-.8.79.79,0,0,0-.8-.8Zm3.3,0a.79.79,0,0,0-.8.8.8.8,0,1,0,1.6,0,.86.86,0,0,0-.8-.8Zm3.2,0a.8.8,0,1,0,.8.8.86.86,0,0,0-.8-.8Zm3.2,0a.86.86,0,0,0-.8.8.79.79,0,0,0,.8.8.74.74,0,0,0,.8-.8.86.86,0,0,0-.8-.8Zm3.3,0a.8.8,0,1,0,.8.8c-.1-.4-.4-.8-.8-.8Zm3.2,0a.8.8,0,1,0,.8.8.86.86,0,0,0-.8-.8ZM38.7,44.3a.8.8,0,1,0,0,1.6.79.79,0,0,0,.8-.8.86.86,0,0,0-.8-.8Zm-12.9.1a.8.8,0,0,0,0,1.6.74.74,0,0,0,.8-.8.79.79,0,0,0-.8-.8Zm3.2,0A.8.8,0,0,0,29,46a.74.74,0,0,0,.8-.8.79.79,0,0,0-.8-.8Zm3.2,0a.8.8,0,1,0,.8.8.79.79,0,0,0-.8-.8Zm3.2,0a.8.8,0,0,0,0,1.6.8.8,0,0,0,0-1.6Zm6.5,0a.8.8,0,0,0,0,1.6.8.8,0,0,0,0-1.6Zm3.2,0a.79.79,0,0,0-.8.8.86.86,0,0,0,.8.8.79.79,0,0,0,.8-.8.74.74,0,0,0-.8-.8Zm3.3,0a.8.8,0,0,0,0,1.6.74.74,0,0,0,.8-.8.79.79,0,0,0-.8-.8Zm3.2,0a.79.79,0,0,0-.8.8.86.86,0,0,0,.8.8.8.8,0,1,0,0-1.6ZM38.7,47.5a.8.8,0,0,0,0,1.6.74.74,0,0,0,.8-.8.79.79,0,0,0-.8-.8Zm-12.9.1a.8.8,0,1,0,0,1.6.74.74,0,0,0,.8-.8.79.79,0,0,0-.8-.8Zm3.2,0a.8.8,0,1,0,0,1.6.74.74,0,0,0,.8-.8.79.79,0,0,0-.8-.8Zm3.2,0a.8.8,0,1,0,.8.8.79.79,0,0,0-.8-.8Zm3.2,0a.8.8,0,0,0,0,1.6.8.8,0,0,0,0-1.6Zm6.5,0a.8.8,0,1,0,.8.8.74.74,0,0,0-.8-.8Zm3.2,0a.74.74,0,0,0-.8.8.8.8,0,1,0,1.6,0,.74.74,0,0,0-.8-.8Zm3.3,0a.8.8,0,0,0,0,1.6.74.74,0,0,0,.8-.8.79.79,0,0,0-.8-.8Zm-9.7,3.2a.8.8,0,1,0,.8.8.86.86,0,0,0-.8-.8Zm-12.9,0a.79.79,0,0,0-.8.8.74.74,0,0,0,.8.8.79.79,0,0,0,.8-.8c-.1-.4-.4-.8-.8-.8Zm3.2,0a.79.79,0,0,0-.8.8.74.74,0,0,0,.8.8.79.79,0,0,0,.8-.8.86.86,0,0,0-.8-.8Zm3.2,0a.79.79,0,0,0-.8.8.74.74,0,0,0,.8.8.8.8,0,1,0,0-1.6Zm3.2,0a.86.86,0,0,0-.8.8.8.8,0,0,0,1.6,0c.1-.4-.3-.8-.8-.8Zm6.5,0a.79.79,0,0,0-.8.8.74.74,0,0,0,.8.8.8.8,0,1,0,0-1.6Zm3.2,0a.8.8,0,1,0,0,1.6.86.86,0,0,0,.8-.8c.1-.4-.3-.8-.8-.8Zm3.3,0a.86.86,0,0,0-.8.8.8.8,0,0,0,1.6,0,.86.86,0,0,0-.8-.8Zm3.2,0a.8.8,0,1,0,.8.8.79.79,0,0,0-.8-.8ZM38.7,54a.79.79,0,0,0-.8.8.74.74,0,0,0,.8.8.79.79,0,0,0,.8-.8.86.86,0,0,0-.8-.8Zm-12.9.1a.8.8,0,1,0,.8.8c-.1-.5-.4-.8-.8-.8Zm3.2,0a.8.8,0,1,0,.8.8.79.79,0,0,0-.8-.8Zm3.2,0a.8.8,0,1,0,0,1.6.8.8,0,0,0,0-1.6Zm3.2,0a.8.8,0,0,0,0,1.6.74.74,0,0,0,.8-.8c.1-.5-.3-.8-.8-.8Zm6.5,0a.8.8,0,0,0,0,1.6.79.79,0,0,0,.8-.8.74.74,0,0,0-.8-.8Zm3.2,0a.74.74,0,0,0-.8.8.79.79,0,0,0,.8.8.86.86,0,0,0,.8-.8c.1-.5-.3-.8-.8-.8Zm3.3,0a.8.8,0,1,0,.8.8.79.79,0,0,0-.8-.8Zm3.2,0a.74.74,0,0,0-.8.8.8.8,0,0,0,1.6,0,.74.74,0,0,0-.8-.8Zm3.3,0a.8.8,0,0,0,0,1.6.8.8,0,0,0,0-1.6ZM38.7,57.3a.8.8,0,1,0,.8.8.79.79,0,0,0-.8-.8Zm-12.9,0a.8.8,0,1,0,.8.8c-.1-.5-.4-.8-.8-.8Zm3.2,0a.8.8,0,1,0,.8.8.79.79,0,0,0-.8-.8Zm3.2,0a.8.8,0,1,0,0,1.6.8.8,0,1,0,0-1.6Zm3.2,0a.8.8,0,1,0,0,1.6.74.74,0,0,0,.8-.8c.1-.5-.3-.8-.8-.8Zm6.5,0a.8.8,0,1,0,0,1.6.79.79,0,0,0,.8-.8.74.74,0,0,0-.8-.8Zm3.2,0a.74.74,0,0,0-.8.8.79.79,0,0,0,.8.8.86.86,0,0,0,.8-.8c.1-.5-.3-.8-.8-.8Zm3.3,0a.8.8,0,1,0,.8.8.79.79,0,0,0-.8-.8Zm3.2,0a.74.74,0,0,0-.8.8.8.8,0,0,0,1.6,0,.74.74,0,0,0-.8-.8Zm3.3,0a.8.8,0,0,0,0,1.6.8.8,0,1,0,0-1.6Zm3.2,0a.74.74,0,0,0-.8.8.79.79,0,0,0,.8.8.86.86,0,0,0,.8-.8.79.79,0,0,0-.8-.8ZM38.7,60.5a.8.8,0,1,0,.8.8.79.79,0,0,0-.8-.8Zm-16.2,0a.79.79,0,0,0-.8.8.86.86,0,0,0,.8.8.79.79,0,0,0,.8-.8.74.74,0,0,0-.8-.8Zm3.3,0a.74.74,0,0,0-.8.8.8.8,0,0,0,1.6,0c-.1-.5-.4-.8-.8-.8Zm3.2,0a.74.74,0,0,0-.8.8.8.8,0,1,0,.8-.8Zm3.2,0a.74.74,0,0,0-.8.8.79.79,0,0,0,.8.8.86.86,0,0,0,.8-.8.79.79,0,0,0-.8-.8Zm3.2,0a.79.79,0,0,0-.8.8.86.86,0,0,0,.8.8.79.79,0,0,0,.8-.8c.1-.5-.3-.8-.8-.8Zm6.5,0a.74.74,0,0,0-.8.8.8.8,0,1,0,1.6,0,.74.74,0,0,0-.8-.8Zm3.2,0a.74.74,0,0,0-.8.8.8.8,0,1,0,1.6,0c.1-.5-.3-.8-.8-.8Zm3.3,0a.79.79,0,0,0-.8.8.86.86,0,0,0,.8.8.8.8,0,0,0,0-1.6Zm3.2,0a.74.74,0,0,0-.8.8.86.86,0,0,0,.8.8.79.79,0,0,0,.8-.8.74.74,0,0,0-.8-.8Zm3.3,0a.74.74,0,0,0-.8.8.8.8,0,1,0,.8-.8Zm3.2,0a.74.74,0,0,0-.8.8.8.8,0,0,0,1.6,0,.79.79,0,0,0-.8-.8Zm3.2,0a.79.79,0,0,0-.8.8.86.86,0,0,0,.8.8.8.8,0,0,0,0-1.6ZM38.7,63.7a.8.8,0,1,0,.8.8.86.86,0,0,0-.8-.8Zm-16.2,0a.86.86,0,0,0-.8.8.8.8,0,1,0,.8-.8Zm3.3,0a.79.79,0,0,0-.8.8.74.74,0,0,0,.8.8.79.79,0,0,0,.8-.8c-.1-.4-.4-.8-.8-.8Zm3.2,0a.79.79,0,0,0-.8.8.74.74,0,0,0,.8.8.79.79,0,0,0,.8-.8.86.86,0,0,0-.8-.8Zm3.2,0a.79.79,0,0,0-.8.8.74.74,0,0,0,.8.8.8.8,0,0,0,0-1.6Zm3.2,0a.86.86,0,0,0-.8.8.8.8,0,0,0,1.6,0c.1-.4-.3-.8-.8-.8Zm6.5,0a.79.79,0,0,0-.8.8.74.74,0,0,0,.8.8.8.8,0,0,0,0-1.6Zm3.2,0a.8.8,0,1,0,0,1.6.86.86,0,0,0,.8-.8c.1-.4-.3-.8-.8-.8Zm3.3,0a.86.86,0,0,0-.8.8.8.8,0,0,0,1.6,0,.86.86,0,0,0-.8-.8Zm3.2,0a.8.8,0,1,0,.8.8.79.79,0,0,0-.8-.8Zm3.3,0a.79.79,0,0,0-.8.8.74.74,0,0,0,.8.8.79.79,0,0,0,.8-.8.86.86,0,0,0-.8-.8Zm3.2,0a.8.8,0,1,0,0,1.6.8.8,0,0,0,0-1.6ZM38.7,66.9a.79.79,0,0,0-.8.8.74.74,0,0,0,.8.8.79.79,0,0,0,.8-.8.86.86,0,0,0-.8-.8ZM22.5,67a.8.8,0,1,0,.8.8.79.79,0,0,0-.8-.8Zm3.3,0a.8.8,0,0,0,0,1.6.79.79,0,0,0,.8-.8.86.86,0,0,0-.8-.8ZM29,67a.8.8,0,0,0,0,1.6.79.79,0,0,0,.8-.8A.86.86,0,0,0,29,67Zm3.2,0a.8.8,0,1,0,0,1.6.8.8,0,0,0,0-1.6Zm3.2,0a.8.8,0,1,0,.8.8.79.79,0,0,0-.8-.8Zm6.5,0a.79.79,0,0,0-.8.8.8.8,0,1,0,.8-.8Zm3.2,0a.8.8,0,1,0,.8.8c.1-.5-.3-.8-.8-.8Zm3.3,0a.86.86,0,0,0-.8.8.79.79,0,0,0,.8.8.74.74,0,0,0,.8-.8.79.79,0,0,0-.8-.8Zm3.2,0a.8.8,0,1,0,0,1.6.8.8,0,1,0,0-1.6Zm3.3,0a.79.79,0,0,0-.8.8.8.8,0,0,0,1.6,0,.79.79,0,0,0-.8-.8ZM38.7,70.2a.8.8,0,1,0,0,1.6.79.79,0,0,0,.8-.8.86.86,0,0,0-.8-.8Zm-19.4,0a.74.74,0,0,0-.8.8.79.79,0,0,0,.8.8.8.8,0,1,0,0-1.6Zm3.2,0a.8.8,0,1,0,.8.8.79.79,0,0,0-.8-.8Zm3.3,0a.8.8,0,0,0,0,1.6.79.79,0,0,0,.8-.8.86.86,0,0,0-.8-.8Zm3.2,0a.8.8,0,0,0,0,1.6.79.79,0,0,0,.8-.8.86.86,0,0,0-.8-.8Zm3.2,0a.8.8,0,1,0,0,1.6.8.8,0,0,0,0-1.6Zm3.2,0a.8.8,0,1,0,.8.8.79.79,0,0,0-.8-.8Zm6.5,0a.8.8,0,1,0,.8.8.79.79,0,0,0-.8-.8Zm3.2,0a.79.79,0,0,0-.8.8.8.8,0,0,0,1.6,0c.1-.4-.3-.8-.8-.8Zm3.3,0a.8.8,0,0,0,0,1.6.79.79,0,0,0,.8-.8.86.86,0,0,0-.8-.8Zm3.2,0a.79.79,0,0,0-.8.8.86.86,0,0,0,.8.8.8.8,0,0,0,0-1.6Zm3.3,0a.8.8,0,1,0,.8.8.86.86,0,0,0-.8-.8ZM38.7,73.4a.8.8,0,1,0,0,1.6.74.74,0,0,0,.8-.8.79.79,0,0,0-.8-.8Zm-19.4,0a.79.79,0,0,0-.8.8.8.8,0,1,0,.8-.8Zm3.2,0a.8.8,0,0,0,0,1.6.8.8,0,1,0,0-1.6Zm3.3,0a.8.8,0,1,0,.8.8c-.1-.4-.4-.8-.8-.8Zm3.2,0a.8.8,0,1,0,.8.8.86.86,0,0,0-.8-.8Zm3.2,0a.8.8,0,1,0,0,1.6.8.8,0,0,0,0-1.6Zm3.2,0a.8.8,0,1,0,0,1.6.79.79,0,0,0,.8-.8c.1-.4-.3-.8-.8-.8Zm6.5,0a.8.8,0,1,0,.8.8.79.79,0,0,0-.8-.8Zm-3.2,3.2a.79.79,0,0,0-.8.8.74.74,0,0,0,.8.8.79.79,0,0,0,.8-.8.86.86,0,0,0-.8-.8Zm-19.4.1a.8.8,0,0,0,0,1.6.86.86,0,0,0,.8-.8.79.79,0,0,0-.8-.8Zm3.2,0a.86.86,0,0,0-.8.8.8.8,0,1,0,1.6,0,.74.74,0,0,0-.8-.8Zm3.3,0a.79.79,0,0,0-.8.8.74.74,0,0,0,.8.8.79.79,0,0,0,.8-.8c-.1-.5-.4-.8-.8-.8Zm3.2,0a.79.79,0,0,0-.8.8.74.74,0,0,0,.8.8.8.8,0,1,0,0-1.6Zm3.2,0a.79.79,0,0,0-.8.8.74.74,0,0,0,.8.8.86.86,0,0,0,.8-.8.79.79,0,0,0-.8-.8Zm3.2,0a.86.86,0,0,0-.8.8.8.8,0,0,0,1.6,0c.1-.5-.3-.8-.8-.8Zm3.3,3.2a.79.79,0,0,0-.8.8.8.8,0,0,0,1.6,0,.79.79,0,0,0-.8-.8Zm-19.4,0a.74.74,0,0,0-.8.8.8.8,0,1,0,.8-.8Zm3.2,0a.8.8,0,0,0,0,1.6.8.8,0,1,0,0-1.6Zm3.3,0a.8.8,0,1,0,.8.8c-.1-.5-.4-.8-.8-.8Zm3.2,0a.8.8,0,1,0,.8.8.79.79,0,0,0-.8-.8Zm3.2,0a.8.8,0,1,0,0,1.6.8.8,0,0,0,0-1.6Zm3.2,0a.8.8,0,1,0,0,1.6.74.74,0,0,0,.8-.8c.1-.5-.3-.8-.8-.8Zm-3.2,3.2a.8.8,0,1,0,0,1.6.8.8,0,0,0,0-1.6Z" transform="translate(-18.5 -15.3)"/></svg>