<svg width="16" height="30" viewBox="0 0 16 30" fill="none" xmlns="http://www.w3.org/2000/svg">
<g clip-path="url(#clip0_705_280)">
<path d="M15.9885 21.6116C15.9885 23.0423 16.0234 24.3462 15.9885 25.65C15.9068 28.2693 14.2392 29.9308 11.6153 29.9654C9.14297 30 6.67067 30 4.19836 29.9654C1.74938 29.9308 0.0350976 28.2116 0.0350976 25.7423C0.000112189 19.5923 0.0467594 13.4308 0.000112188 7.26926C-0.0115496 5.42311 0.88641 4.23464 2.48408 3.56541C3.25376 3.24234 3.55696 2.89618 3.55696 2.06541C3.55696 0.346182 3.9418 0.0115665 5.67941 2.79974e-05C7.32373 2.79974e-05 8.9797 -0.0230489 10.624 0.0115665C11.9535 0.0461818 12.3266 0.403874 12.2917 1.71926C12.2683 2.6308 12.4666 3.16157 13.4462 3.5308C15.417 4.26926 15.9651 5.96541 15.9651 7.89234C15.9651 12.4154 15.9651 16.95 15.9651 21.6M13.8777 27.4962C14.1692 27.0923 14.3791 26.6423 14.3791 26.1346C14.3791 21.0346 14.3908 15.9346 14.4024 10.8346C14.4024 10.2231 14.1575 9.93464 13.5278 9.94618C9.81935 9.95772 6.09924 9.95772 2.39078 9.94618C1.7144 9.94618 1.42285 10.2346 1.42285 10.9039C1.42285 15.8423 1.39953 20.7808 1.44618 25.7193C1.4695 27.3808 2.659 28.4193 4.32664 28.4308C6.71731 28.4539 9.10798 28.4308 11.4987 28.4423C12.3616 28.4423 13.143 28.2923 13.866 27.4846M14.4141 7.52311C14.2975 5.71157 13.4812 4.77695 11.8252 4.74234C9.2246 4.69618 6.63568 4.69618 4.0351 4.74234C2.46075 4.77695 1.41119 6.00003 1.42285 7.55772C1.42285 8.20387 1.6211 8.53849 2.33247 8.53849C6.04093 8.52695 9.74938 8.53849 13.4578 8.53849C14.0409 8.53849 14.4258 8.37695 14.4024 7.51157M10.729 3.0231C10.9389 2.37695 11.1721 1.65003 10.1342 1.60387C8.74647 1.53464 7.34705 1.5808 5.94763 1.60387C5.39953 1.60387 5.13131 1.90387 5.13131 2.45772C5.13131 3.0808 5.51615 3.19618 6.0176 3.18464C7.53364 3.16157 9.04967 3.15003 10.729 3.03464V3.0231Z" fill="black"/>
<path d="M9.98212 26.6077C8.60603 26.5731 7.34655 26.8962 6.07542 26.6654C5.57396 26.5731 4.83927 26.6539 4.87425 25.9269C4.90924 25.1769 5.64393 25.2231 6.21536 25.2115C7.4865 25.2 8.75763 25.2115 10.0288 25.2115C10.5769 25.2115 11.2183 25.2115 11.2183 25.9269C11.2183 26.5731 10.5885 26.5615 9.99378 26.5962L9.98212 26.6077Z" fill="black"/>
</g>
<defs>
<clipPath id="clip0_705_280">
<rect width="16" height="30" fill="white"/>
</clipPath>
</defs>
</svg>
