<svg width="32" height="40" viewBox="0 0 32 40" fill="none" xmlns="http://www.w3.org/2000/svg">
<g clip-path="url(#clip0_705_311)">
<path d="M15.9998 30.999C14.3908 30.999 12.9178 30.187 12.0598 28.825L2.1958 13.186C1.3648 11.87 1.2468 10.234 1.8788 8.809L3.8638 4.343C4.7668 2.313 6.7858 1 9.0078 1H22.9918C25.2138 1 27.2318 2.312 28.1358 4.343L30.1208 8.809C30.7528 10.234 30.6348 11.87 29.8038 13.186L19.9408 28.826C19.0828 30.187 17.6098 31 16.0008 31L15.9998 30.999ZM9.0078 3C7.5748 3 6.2748 3.846 5.6928 5.155L3.7078 9.621C3.3468 10.433 3.4148 11.367 3.8888 12.119L13.7518 27.759C14.2418 28.535 15.0828 28.999 16.0008 28.999C16.9188 28.999 17.7598 28.535 18.2498 27.759L28.1128 12.119C28.5868 11.367 28.6548 10.433 28.2938 9.621L26.3088 5.155C25.7268 3.845 24.4258 3 22.9938 3H9.0078Z" fill="black"/>
<path d="M30 10H2V12H30V10Z" fill="black"/>
<path d="M14.0211 30.213L9.82812 10.938L13.0551 1.67102L14.9431 2.32902L11.9021 11.062L15.9771 29.787L14.0211 30.213Z" fill="black"/>
<path d="M17.9775 30.213L16.0215 29.787L20.0965 11.062L17.0555 2.32902L18.9435 1.67102L22.1705 10.938L17.9775 30.213Z" fill="black"/>
</g>
<defs>
<clipPath id="clip0_705_311">
<rect width="32" height="40" fill="white"/>
</clipPath>
</defs>
</svg>
