<svg width="44" height="29" viewBox="0 0 44 29" fill="none" xmlns="http://www.w3.org/2000/svg">
<g clip-path="url(#clip0_705_277)">
<path d="M40.6434 25.0393C39.3897 25.281 38.6483 25.8986 37.9743 26.9324C36.1409 29.8056 31.7868 29.6444 30.0883 26.6639C29.5221 25.6569 28.875 25.3616 27.7831 25.375C23.6985 25.4287 19.614 25.4153 15.516 25.3884C14.5993 25.3884 14.0331 25.6301 13.5209 26.4759C11.4718 29.8861 7.13115 29.8324 5.06865 26.4356C4.826 26.0329 4.69119 25.5227 4.11154 25.4421C1.42894 25.0394 0.296587 23.2537 0.202224 20.7833C0.0674201 17.1718 -0.363952 13.4931 0.74144 9.96204C2.54781 4.14861 6.78065 0.926388 12.6716 0.335647C16.7022 -0.0671306 20.8542 -0.214816 24.8983 0.510184C29.4412 1.32917 32.7978 3.85324 34.5637 8.23009C34.8334 8.90139 35.1164 9.57268 35.4265 10.2306C36.0196 11.5329 36.8689 12.3653 38.4326 12.6204C41.4253 13.1037 43.353 15.3995 43.9191 18.8097C44.3101 21.1458 43.0159 23.6699 40.6299 25.0393M20.0993 2.16157C18.2525 2.16157 16.4057 2.16157 14.5454 2.16157C11.2292 2.16157 8.35786 3.28935 5.90443 5.47778C2.33213 8.65972 0.40443 17.5477 2.2782 22.0319C2.29168 22.0722 2.31865 22.1259 2.34561 22.1662C2.64218 22.8375 3.16791 23.2537 3.88237 23.3745C4.74512 23.5222 4.71816 22.7167 4.97428 22.2602C5.97183 20.5282 7.40075 19.4139 9.43629 19.481C11.4449 19.5481 12.9951 20.5417 13.7096 22.4616C14.0601 23.4014 14.6397 23.5491 15.489 23.5491C19.4792 23.5356 23.4694 23.5088 27.4596 23.5491C28.6593 23.5625 29.3873 23.3343 29.8995 22.0856C30.614 20.3269 32.1777 19.4407 34.0919 19.4676C36.0466 19.4944 37.5294 20.394 38.3787 22.2199C39.0527 23.6699 39.7133 23.7505 40.886 22.5421C43.2856 20.0583 41.8971 15.1847 38.3922 14.5269C35.5478 13.9898 34.0785 12.3653 33.1887 9.86805C32.6091 8.25694 31.7733 6.79352 30.5466 5.55833C27.7292 2.69861 24.2243 1.94676 20.0858 2.16157M37.0981 24.5023C37.0037 22.7032 36.1814 21.6292 34.6985 21.3472C33.337 21.0921 32.0025 21.75 31.4363 22.9583C30.6949 24.556 31.3959 26.2611 33.1079 27.013C34.7255 27.7111 36.2758 26.825 37.0981 24.5157M7.83213 21.7768C6.43017 22.8912 6.01227 23.9921 6.51105 25.2542C7.11767 26.7981 8.80272 27.5903 10.2856 27.013C11.9436 26.3685 12.7525 24.7037 12.1459 23.1463C11.5258 21.5755 9.88115 20.9847 7.83213 21.7768Z" fill="black"/>
<path d="M18.3737 4.36343C19.7756 4.36343 21.0428 4.33658 22.2965 4.53797C26.2867 5.18242 28.6322 7.66621 29.9803 11.2644C30.506 12.6875 29.8185 13.4528 28.0795 13.4528C22.8357 13.4796 17.5783 13.4528 12.3344 13.4528C10.919 13.4528 9.51704 13.4796 8.1016 13.4528C6.5244 13.4125 5.99866 12.8755 5.98518 11.3449C5.93126 7.53195 8.5869 4.84677 12.6984 4.57825C14.5452 4.45742 16.3786 4.43056 18.3737 4.36343ZM19.8835 6.39075C18.805 6.21621 18.3602 6.64584 18.468 7.74677C18.5489 8.61945 18.5219 9.49214 18.468 10.3648C18.4276 11.2509 18.7916 11.5732 19.6678 11.5597C21.5685 11.5329 23.4692 11.5732 25.37 11.5597C26.1653 11.5597 27.0011 11.7343 27.7695 11.3315C26.718 8.10927 24.1702 6.48473 19.8835 6.39075ZM12.3884 11.5597C13.305 11.5597 14.2352 11.5195 15.1518 11.5597C16.1224 11.6134 16.5673 11.3046 16.5538 10.2574C16.5268 5.08843 16.9447 6.22964 12.4962 6.53843C10.4337 6.68612 8.84302 7.82732 8.14204 9.88149C7.68371 11.2375 7.8994 11.5329 9.31484 11.5597C10.2315 11.5732 11.1617 11.5597 12.3749 11.5597H12.3884Z" fill="black"/>
</g>
<defs>
<clipPath id="clip0_705_277">
<rect width="44" height="29" fill="white"/>
</clipPath>
</defs>
</svg>
