<svg width="28" height="30" viewBox="0 0 28 30" fill="none" xmlns="http://www.w3.org/2000/svg">
<g clip-path="url(#clip0_705_309)">
<path d="M27.3937 19.609C24.8921 20.0184 22.4466 19.609 20.0011 19.9299C19.9001 20.7598 20.2928 21.3795 20.5171 22.0214C21.2126 24.0243 21.9642 26.0051 22.6485 27.997C23.086 29.2586 22.6822 29.6901 21.3473 29.8561C19.6309 30.0664 18.5203 29.5352 17.679 27.9749C16.6357 26.0605 15.3232 24.2788 14.0668 22.3644C13.0011 23.3604 12.5075 24.5666 11.8008 25.6178C11.038 26.7576 10.3537 27.9528 9.6245 29.1147C9.02995 30.0553 6.18059 30.343 5.40655 29.5352C4.92418 29.0372 5.07001 28.4618 5.27193 27.8974C5.98988 25.9055 6.71905 23.9247 7.44822 21.9328C7.68379 21.2799 7.89693 20.616 8.15495 19.8746C6.64052 19.5204 5.22706 19.6311 3.8136 19.6754C3.062 19.6975 2.29918 19.7196 1.54757 19.6754C0.953022 19.6311 0.20142 19.7307 0.0668044 18.8676C-0.056593 18.0708 0.0892403 17.3736 0.863279 16.931C2.24309 16.1453 3.63411 15.3707 5.02514 14.5961C5.60847 14.2641 6.23668 13.9985 6.77514 13.6112C7.22386 13.2903 8.23347 13.3013 7.91937 12.4271C7.60527 11.5418 7.32482 10.4906 5.92257 10.5902C4.49789 10.6787 3.062 10.6012 1.63732 10.6012C0.997894 10.6012 0.268728 10.6676 0.100458 9.85981C-0.067811 9.04092 -0.101465 8.1999 0.840843 7.6798C2.01873 7.03797 3.14052 6.28548 4.35206 5.71005C6.562 4.65877 8.40174 3.20913 9.78155 1.21724C10.3985 0.29876 11.2174 -0.066419 12.3392 -2.28235e-05C13.5171 0.0774394 14.695 0.0663733 15.8729 -2.28235e-05C16.804 -0.055353 17.5332 0.210232 18.0492 0.962721C19.687 3.33085 22.0428 4.8137 24.5444 6.13056C25.4755 6.61746 26.3505 7.19289 27.2367 7.7462C28.0444 8.25523 28.1005 9.05199 27.8873 9.84874C27.6854 10.6123 26.9674 10.5791 26.328 10.5791C24.8136 10.5791 23.2992 10.557 21.7848 10.5791C20.9771 10.5902 19.9338 11.6857 19.945 12.4493C19.945 12.9804 20.4386 13.0911 20.7751 13.2792C22.8056 14.4522 24.8585 15.5809 26.8889 16.765C28.1117 17.4843 28.2799 18.3696 27.3937 19.5868M19.4963 27.9528C19.9226 28.4618 20.4498 28.5725 21.2126 28.2294C19.7543 24.6772 18.7671 20.959 17.0396 17.2187C16.344 18.3032 15.8729 19.1331 15.3008 19.8856C14.8408 20.4943 14.9194 20.9369 15.3232 21.5455C16.7142 23.6149 18.038 25.7174 19.4963 27.9528ZM9.34405 21.2578C8.46905 23.5706 7.47065 25.8391 6.76392 28.2405C7.67257 28.6278 8.26713 28.3843 8.70463 27.6982C10.0396 25.5846 11.3521 23.46 12.6758 21.3463C12.9114 20.9701 12.9787 20.5717 12.7094 20.1733C12.1485 19.3655 11.5764 18.5688 10.9482 17.6724C10.0508 18.7569 9.78155 19.941 9.34405 21.2467M13.562 11.2984C12.9899 12.5931 12.4178 13.8768 11.8457 15.1715C11.711 15.4703 11.5091 15.7801 11.7671 16.101C12.5299 17.0638 12.9899 18.2589 14.0219 19.1221C14.7623 18.0819 15.4578 17.1081 16.1421 16.1232C16.2767 15.924 16.4338 15.6252 16.3777 15.4482C15.7719 13.755 15.1662 12.073 14.3024 10.5348C13.7976 10.6676 13.7751 10.9553 13.562 11.2984ZM8.57001 5.73218C8.83924 6.73919 8.27834 7.96752 8.9402 8.74214C9.64693 9.56102 10.937 8.9192 11.9354 9.16265C12.0139 9.18478 12.1037 9.18478 12.1822 9.17371C12.945 9.15158 13.3264 8.66468 13.1357 8.03391C12.5636 6.11949 11.812 4.27146 10.6229 2.4345C9.89373 3.6075 8.78315 4.27146 8.57001 5.73218ZM19.4514 5.32274C19.1822 4.17187 18.2287 3.56324 17.3985 2.52303C16.6133 4.28253 15.9178 5.78751 15.2896 7.30355C14.7511 8.60935 15.054 8.99666 16.5123 9.08519C17.0171 9.11838 17.5219 9.15158 18.0155 9.20691C18.8232 9.28437 19.2944 9.01879 19.2944 8.13351C19.2944 7.27036 19.3953 6.39614 19.4514 5.3338M18.5989 15.0055C18.0155 16.2117 18.5989 18.104 19.6533 18.1593C21.7511 18.2589 23.8601 18.1925 25.969 18.1925C23.9835 16.8314 21.9755 15.7137 19.9787 14.5629C19.4065 14.2309 18.969 14.1756 18.5989 15.0166M6.84245 15.3486C5.23828 16.2228 3.64533 17.097 2.04116 17.9712C3.90334 18.2147 5.687 18.2257 7.48187 18.2147C8.98507 18.2147 9.43379 17.7941 9.66937 16.3002C9.77033 15.6363 9.6245 15.0387 9.11969 14.5961C8.55879 14.0981 8.12129 14.6957 7.66136 14.8838C7.42578 14.9723 7.22386 15.1383 6.85366 15.3486M14.9082 4.60344C15.3008 3.61857 15.7046 2.63369 16.1533 1.50496C14.7399 1.40536 13.5059 1.3611 12.0812 1.54922C12.7543 3.1206 13.3713 4.55918 14.0892 6.24122C14.4258 5.56619 14.6277 5.16781 14.8969 4.60344M21.6501 6.19695C21.3809 6.09736 20.9995 5.89817 20.9546 6.34081C20.8761 7.11543 20.9098 7.90112 20.9322 8.68681C20.9322 8.95239 21.1565 9.16265 21.4258 9.17371C22.9402 9.21798 24.4658 9.35077 26.07 8.77534C24.6453 7.94538 23.2319 7.1265 21.6614 6.20802M4.84565 7.1597C3.85847 7.77939 2.74789 8.21097 1.63732 9.20691C3.27514 9.20691 4.61007 9.21798 5.94501 9.20691C6.50591 9.20691 7.07802 9.12945 7.10046 8.37696C7.12289 7.62447 7.10046 6.86091 7.10046 5.89817C6.21424 6.39614 5.60847 6.73919 4.83443 7.17076M11.3969 10.6123C10.6117 10.6344 9.8152 10.5016 8.9402 10.7119C9.38892 11.8849 9.88251 12.9362 10.5668 13.9653C11.2399 13.1243 11.554 12.2279 11.913 11.3427C12.0476 10.9996 12.1037 10.6787 11.3969 10.6012M16.344 11.2431C16.703 11.9734 16.7815 12.8255 17.4658 13.5116C18.0267 12.571 18.7896 11.8185 19.0924 10.5902C18.094 10.8557 17.0732 10.0037 16.3553 11.2431H16.344Z" fill="black"/>
</g>
<defs>
<clipPath id="clip0_705_309">
<rect width="28" height="30" fill="white"/>
</clipPath>
</defs>
</svg>
