<svg width="26" height="36" viewBox="0 0 26 36" fill="none" xmlns="http://www.w3.org/2000/svg">
<path d="M8.15334 34.343C7.31907 33.1833 7.07197 31.9512 7.20585 30.6911C7.59018 27.0732 6.30892 24.2857 3.6941 21.7578C-0.334859 17.8628 -1.03955 12.328 1.43978 7.26848C3.84235 2.36562 9.02787 -0.505829 14.4324 0.0739011C19.7418 0.643435 24.2936 4.58718 25.5255 9.79142C26.5402 14.0784 26.0559 18.2025 22.8129 21.3347C19.9024 24.1457 18.5956 27.3073 18.6667 31.307C18.7251 34.5924 17.1433 35.985 13.8525 35.9678C11.8498 35.9574 9.7097 36.3942 8.15334 34.343ZM19.7636 21.8957C23.187 18.8837 24.9092 15.278 23.7655 10.6045C22.666 6.11107 18.7744 2.5086 14.4525 2.07413C9.44172 1.57041 5.26984 3.81276 3.17443 8.13596C0.997324 12.6277 1.73523 17.1605 5.27879 20.7832C6.64868 22.1836 7.90822 23.6482 8.5381 25.5452C8.78368 26.2848 9.25353 26.5533 9.98724 26.5457C11.9697 26.5251 13.9526 26.5043 15.9347 26.5334C16.7467 26.5453 17.2131 26.2208 17.5074 25.4673C18.0007 24.2042 18.7195 23.0681 19.7636 21.8957ZM9.37908 32.7923C9.67307 33.3325 10.0421 33.863 10.6672 33.9451C12.24 34.1517 13.8396 34.2498 15.3933 33.8987C16.2473 33.7058 16.814 33.0787 16.6011 31.9108C14.3251 31.9108 12.1047 31.9199 9.88453 31.9041C9.36031 31.9004 9.124 32.0595 9.37908 32.7923ZM15.0946 30.0806C15.2923 30.0781 15.4902 30.0802 15.6877 30.0722C16.2798 30.0484 16.9713 30.1233 16.9685 29.2352C16.9656 28.3024 16.225 28.4693 15.6648 28.4638C13.8854 28.4462 12.1056 28.4536 10.3261 28.4645C9.78569 28.4678 9.15959 28.4123 9.12729 29.215C9.09068 30.125 9.77322 30.067 10.3672 30.0718C11.8502 30.0836 13.3332 30.0791 15.0946 30.0806Z" fill="black"/>
<path d="M15.1784 11.63C15.1912 10.9292 15.1767 10.3388 15.2211 9.75193C15.2529 9.33238 15.5303 9.02341 16.019 9.00146C16.5634 8.97702 16.9703 9.26086 16.9763 9.74095C17.0074 12.223 17.0065 14.7056 16.9816 17.1877C16.977 17.6453 16.6569 18.0058 16.093 17.9999C15.5286 17.9941 15.2846 17.6295 15.2187 17.1683C15.1889 16.9606 15.2248 16.744 15.1834 16.5391C15.0399 15.8293 15.6516 14.8129 14.7508 14.461C13.7447 14.068 12.5246 14.2602 11.406 14.3937C10.8866 14.4557 10.8428 14.9025 10.8345 15.2923C10.8221 15.8813 10.8314 16.4707 10.8185 17.0597C10.8084 17.5161 10.6504 17.9375 10.0758 17.9851C9.44257 18.0377 9.14844 17.6325 9.06139 17.1338C8.99659 16.7624 9.00372 16.3791 9.00279 16.0011C8.99806 14.1072 9.00038 12.2133 9.0022 10.3195C9.0028 9.70354 9.05077 9.03068 9.93593 9.01012C10.8963 8.98782 10.8194 9.70974 10.8258 10.2986C10.8532 12.7932 10.2542 12.6801 13.599 12.6556C14.324 12.6502 15.218 12.8268 15.1784 11.63Z" fill="black"/>
</svg>
