<svg width="51" height="44" viewBox="0 0 51 44" fill="none" xmlns="http://www.w3.org/2000/svg">
<path d="M0.782654 19.268C0.391327 19.268 0 18.955 0 18.4854C0 18.0158 0.313062 17.7027 0.782654 17.7027C7.04389 17.4679 13.3051 16.5288 19.4098 14.9634C29.8974 12.3024 39.8371 7.68476 48.9159 1.34526C49.3072 1.11046 49.7768 1.18873 50.0116 1.50179C50.2464 1.89312 50.1681 2.36271 49.8551 2.59751C40.6198 9.01527 30.5235 13.7112 19.8794 16.4505C13.6182 18.0941 7.20042 19.0332 0.782654 19.268Z" fill="black"/>
<path d="M48.1388 8.4675C48.0605 8.4675 48.0605 8.4675 47.9823 8.4675C47.591 8.38923 47.2779 7.9979 47.3562 7.52831L48.3736 2.59759L43.4429 1.58014C43.0516 1.50187 42.7385 1.11055 42.8168 0.640955C42.895 0.171362 43.2864 -0.0634341 43.7559 0.0148313L49.4693 1.18881C49.8606 1.26708 50.1737 1.65841 50.0954 2.128L48.9215 7.84137C48.8432 8.2327 48.5301 8.4675 48.1388 8.4675Z" fill="black"/>
<path d="M7.20655 44.0003H1.72797C1.25837 44.0003 0.945312 43.6872 0.945312 43.2176V25.2166C0.945312 24.8253 1.25837 24.4339 1.6497 24.4339C3.52807 24.3557 5.32818 24.1992 7.12828 23.9644C7.36308 23.9644 7.59787 24.0426 7.7544 24.1209C7.91094 24.1992 7.9892 24.5122 7.9892 24.6687V43.0611C7.9892 43.609 7.59787 44.0003 7.20655 44.0003ZM2.51062 42.435H6.42389V25.6862C5.17165 25.8427 3.84113 25.921 2.51062 25.9993V42.435Z" fill="black"/>
<path d="M20.0347 44.0001H14.5561C14.0865 44.0001 13.7734 43.687 13.7734 43.2174V23.6511C13.7734 23.2597 14.0082 22.9467 14.3996 22.8684C16.0431 22.5553 17.765 22.164 19.4085 21.7727L19.8781 21.6162C20.1129 21.5379 20.3477 21.6162 20.5825 21.7727C20.7391 21.9292 20.8956 22.164 20.8956 22.3988V43.2174C20.8173 43.6087 20.426 44.0001 20.0347 44.0001ZM15.2605 42.4348H19.1738V23.4163C17.8432 23.7293 16.591 24.0424 15.2605 24.2772V42.4348Z" fill="black"/>
<path d="M31.9331 44.0002H26.4545C25.9849 44.0002 25.6719 43.6871 25.6719 43.2175V20.4423C25.6719 20.1292 25.9067 19.8162 26.2197 19.7379C28.0198 19.1118 29.8199 18.4074 31.6983 17.703C31.9331 17.6248 32.2462 17.6248 32.4027 17.7813C32.6375 17.9378 32.7158 18.1726 32.7158 18.4074V43.2175C32.7158 43.6089 32.3244 44.0002 31.9331 44.0002ZM27.2372 42.4349H31.1505V19.5031C29.8199 20.051 28.4894 20.5206 27.2372 20.9902V42.4349Z" fill="black"/>
<path d="M43.8315 44.0001H38.353C37.8834 44.0001 37.5703 43.687 37.5703 43.2174V15.4332C37.5703 15.1202 37.7268 14.8854 37.9616 14.7288C39.84 13.7896 41.6401 12.7722 43.4402 11.6765C43.675 11.5199 43.9881 11.5199 44.2229 11.6765C44.4577 11.833 44.6142 12.0678 44.6142 12.3809V43.2174C44.6142 43.6088 44.2229 44.0001 43.8315 44.0001ZM39.1356 42.4348H43.0489V13.7114C41.7966 14.4158 40.4661 15.1984 39.1356 15.9028V42.4348Z" fill="black"/>
</svg>
