<svg width="28" height="28" viewBox="0 0 28 28" fill="none" xmlns="http://www.w3.org/2000/svg">
<g clip-path="url(#clip0_705_299)">
<path d="M0.212702 11.8317C1.43778 5.90405 4.83029 2.00338 10.6023 0.506749C15.5968 -0.777762 20.0966 0.353551 23.8543 4.01853C24.031 4.18352 24.1959 4.3485 24.3726 4.51348C24.3961 4.53705 24.4432 4.53705 24.5375 4.56062C24.5964 4.01853 24.6317 3.48823 24.7024 2.95793C24.7613 2.56904 24.9733 2.25086 25.3974 2.26264C25.8215 2.26264 26.0453 2.60439 26.057 2.9815C26.0806 4.26601 26.0924 5.53873 26.0335 6.82325C26.0099 7.44783 25.4798 7.57746 24.9733 7.49496C23.866 7.3182 22.747 7.29463 21.6279 7.29463C21.0507 7.29463 20.5324 7.07072 20.5324 6.44614C20.5324 5.70372 21.145 5.73907 21.675 5.76264C22.1462 5.78621 22.6174 5.82156 23.2299 5.85692C22.959 5.19698 22.4878 4.83166 22.052 4.46634C17.1046 0.424258 10.0133 0.695301 5.41926 5.14985C2.85132 7.63638 1.56735 10.6886 1.54379 14.2711C1.54379 14.9663 1.86184 16.0977 0.778121 16.0741C-0.223141 16.0505 0.0360087 14.9192 0.0360087 14.2121C0.0360087 13.4579 0.153804 12.7037 0.224482 11.8434L0.212702 11.8317Z" fill="black"/>
<path d="M21.8624 25.7256C15.9138 29.4024 9.95332 28.6364 3.35677 23.3687C3.32143 23.9815 3.28609 24.5707 3.23897 25.1599C3.21541 25.5135 3.06228 25.7845 2.66177 25.7963C2.22593 25.8199 1.955 25.5724 1.94322 25.1599C1.91966 23.8754 1.8961 22.6027 1.94322 21.3182C1.97856 20.6818 2.50864 20.4933 3.08584 20.5168C4.16955 20.5404 5.24149 20.5875 6.32521 20.6347C6.89063 20.6582 7.43249 20.835 7.37359 21.4949C7.3147 22.0724 6.78462 22.1902 6.26632 22.1784C5.79513 22.1784 5.33573 21.9428 4.82921 22.1431C4.73497 22.5791 5.07658 22.7912 5.32395 23.0034C9.28188 26.4798 13.8523 27.4226 18.7055 25.5252C23.5469 23.6397 26.0324 19.8098 26.4094 14.6246C26.4565 13.9175 26.2916 12.7744 27.2575 12.8098C28.2587 12.8569 27.976 13.9882 27.9289 14.6835C27.6109 19.2441 25.679 22.9562 21.8624 25.702V25.7256Z" fill="black"/>
<path d="M15.7484 21.1296C13.5338 21.8721 11.6962 21.2357 10.1649 19.7509C8.51573 18.1364 8.03277 16.1212 8.72776 13.9175C9.63479 11.0775 11.4724 8.79126 13.3453 6.5522C13.7105 6.11618 14.2288 6.08082 14.594 6.51685C16.4669 8.80305 18.4577 11.0421 19.3058 13.9529C20.2128 17.0758 18.9642 19.4916 15.7484 21.1296ZM15.2065 9.74581C14.8296 9.298 14.594 8.70877 13.9108 8.42594C12.403 10.2408 10.9541 12.1027 10.1649 14.3536C9.49343 16.2862 10.3887 18.3485 12.1909 19.3855C13.8047 20.3165 15.5128 20.0101 16.9499 18.4663C18.2339 17.0876 18.3399 15.4495 17.6802 13.7643C17.1266 12.3384 16.2313 11.101 15.2065 9.74581Z" fill="black"/>
</g>
<defs>
<clipPath id="clip0_705_299">
<rect width="28" height="28" fill="white"/>
</clipPath>
</defs>
</svg>
