<svg width="27" height="39" viewBox="0 0 27 39" fill="none" xmlns="http://www.w3.org/2000/svg">
<g clip-path="url(#clip0_705_327)">
<path d="M1.69081 22.22C-0.119193 21.97 -0.399193 21.45 0.500807 20.09C4.62081 13.78 8.77081 7.48999 12.9208 1.18999C13.3208 0.579991 13.7008 -0.150009 14.6108 0.0299914C15.5208 0.209991 15.4308 1.07999 15.5208 1.69999C16.1408 5.64999 16.7908 9.58999 17.2208 13.56C17.3808 15.03 17.9108 15.46 19.2908 15.39C20.9208 15.3 22.5608 15.35 24.1908 15.37C26.3108 15.4 26.7908 16.22 25.6308 18C22.8108 22.33 19.9508 26.63 17.1008 30.94C15.6208 33.18 14.1108 35.41 12.6308 37.65C12.2008 38.31 11.7508 38.88 10.8608 38.63C10.0508 38.41 10.1708 37.7 10.0908 37.08C9.51081 32.65 8.88081 28.22 8.35081 23.78C8.21081 22.59 7.82081 22.17 6.55081 22.28C4.99081 22.42 3.39081 22.25 1.67081 22.22M20.9908 21.63C21.8208 20.31 22.6508 18.99 23.6608 17.39C21.4708 17.39 19.5908 17.36 17.7108 17.4C16.3408 17.43 15.6808 16.77 15.5108 15.46C15.3008 13.74 15.1008 12.01 14.8308 10.3C14.4808 8.11999 14.5408 5.84999 13.6708 3.61999C10.0908 9.01999 6.59081 14.29 3.11081 19.55C3.00081 19.71 2.97081 19.92 2.87081 20.22C4.51081 20.56 6.08081 20.36 7.63081 20.38C9.87081 20.41 10.0308 20.51 10.2608 22.69C10.5108 24.99 10.6508 27.3 10.9908 29.58C11.2608 31.35 11.3008 33.18 11.9708 35.16C15.0308 30.55 17.9508 26.18 20.9808 21.62L20.9908 21.63Z" fill="black"/>
<path d="M15.9205 21.06C15.3605 22.84 14.8505 24.5 14.3305 26.16C14.1405 26.76 13.9705 27.48 13.1005 27.26C12.1505 27.03 12.2605 26.29 12.4705 25.61C12.9805 23.91 13.5405 22.23 14.0805 20.53C13.0805 20.02 12.1705 20.3 11.3005 20.25C9.73047 20.15 9.29047 19.59 9.76047 18.14C10.2905 16.49 10.8605 14.85 11.4305 13.21C11.6105 12.7 11.9105 12.17 12.5505 12.31C13.3305 12.48 13.2105 13.17 13.1305 13.73C12.9305 15.17 12.1105 16.47 12.0305 17.93C12.6705 18.39 13.3305 18.2 13.9405 18.22C16.3805 18.29 16.5805 18.54 15.9305 21.08L15.9205 21.06Z" fill="black"/>
</g>
<defs>
<clipPath id="clip0_705_327">
<rect width="26.26" height="38.69" fill="white"/>
</clipPath>
</defs>
</svg>
