<svg width="31" height="31" viewBox="0 0 31 31" fill="none" xmlns="http://www.w3.org/2000/svg">
<g clip-path="url(#clip0_705_283)">
<path d="M17.3148 30.9505C13.1108 31.2127 9.30593 30.4261 5.96267 27.8792C1.25965 24.296 -1.0482 17.5542 0.461258 11.6488C2.02061 5.50625 6.78601 1.13653 12.9611 0.18768C21.8307 -1.16069 29.7023 4.69473 30.8625 13.4966C31.9478 21.7741 26.4963 29.2525 18.2878 30.7632C18.0009 30.8131 17.7264 30.8756 17.3273 30.938M12.749 1.73581C5.82544 3.34636 0.161862 9.85099 2.04556 18.8276C3.1683 24.1837 8.23309 30.1389 16.8906 29.3524C24.9244 28.6283 30.6878 20.6754 29.116 12.76C27.9184 6.69231 21.7434 0.275074 12.749 1.73581Z" fill="black"/>
<path d="M17.3283 19.1768C18.4884 19.876 18.8377 21.0745 19.4989 22.0608C19.9979 22.8224 20.422 23.6339 20.9086 24.3955C21.4699 25.2944 21.2079 25.9436 20.3971 26.5055C18.1142 28.0661 12.7999 28.091 10.5045 26.5679C9.78099 26.081 9.46911 25.5067 9.96811 24.6951C10.9661 23.0721 11.9766 21.4616 12.9621 19.8385C13.2365 19.3891 13.6232 19.1643 14.1098 19.3641C15.1951 19.8135 16.218 19.5014 17.3407 19.1768H17.3283Z" fill="black"/>
<path d="M19.5848 15.4438C19.4726 14.3701 19.1357 13.4962 18.4621 12.7845C17.9257 12.2227 17.8508 11.6734 18.2875 10.9992C19.2231 9.53847 20.1462 8.06525 21.0444 6.59203C21.6307 5.61821 22.3293 5.55579 23.2025 6.19252C26.0593 8.30246 27.3816 11.2114 27.6311 14.6822C27.6685 15.2441 27.5563 15.8184 26.8078 15.8184C24.5374 15.8309 22.2669 15.8184 19.9965 15.8059C19.8718 15.8059 19.7345 15.6311 19.5848 15.4438Z" fill="black"/>
<path d="M3.4934 13.3588C3.99239 10.5372 5.25235 8.27746 7.37308 6.51709C8.77026 5.36848 9.31915 5.48084 10.2672 7.02897C11.0532 8.28994 11.8141 9.57589 12.6125 10.8244C13.0367 11.4736 13.0367 12.0354 12.5002 12.6097C11.864 13.2964 11.4399 14.1079 11.2902 15.0193C11.153 15.7934 10.7163 15.8808 10.0552 15.8683C8.40849 15.8183 6.74933 15.8308 5.10265 15.8308C3.4435 15.8308 3.35618 15.7434 3.40607 14.0829C3.40607 13.8832 3.4435 13.6709 3.4934 13.3588Z" fill="black"/>
<path d="M18.4374 15.8933C18.1256 18.1406 15.406 19.3766 13.5223 17.7535C12.5743 16.9295 12.2749 15.5812 12.7614 14.3576C13.2105 13.1965 14.3457 12.4225 15.5433 12.435C16.7533 12.4599 17.7638 13.234 18.2254 14.47C18.3875 14.907 18.4873 15.3315 18.425 15.9058L18.4374 15.8933Z" fill="black"/>
<g clip-path="url(#clip1_705_283)">
</g>
</g>
<defs>
<clipPath id="clip0_705_283">
<rect width="31" height="31" fill="white"/>
</clipPath>
<clipPath id="clip1_705_283">
<rect width="220.917" height="48.8159" fill="white" transform="translate(-94.8086 -8.73944)"/>
</clipPath>
</defs>
</svg>
