<svg width="45" height="27" viewBox="0 0 45 27" fill="none" xmlns="http://www.w3.org/2000/svg">
<g clip-path="url(#clip0_705_294)">
<path d="M20.2485 27C14.2691 26.959 8.43752 26.9181 2.60593 26.8498C0.3351 26.8225 -0.484548 25.7709 0.281352 23.5448C1.77284 19.1608 3.3987 14.8042 4.95738 10.4476C5.91139 7.78452 6.86541 5.13505 7.76568 2.45827C8.33002 0.778452 9.40497 0 11.1786 0C21.5922 0.0273141 32.0057 0 42.4193 0.0273141C44.6632 0.0273141 45.4963 1.18816 44.7036 3.35964C42.1103 10.475 39.4632 17.563 36.8296 24.651C36.2518 26.2079 35.2843 26.959 33.4838 26.9317C29.1168 26.8498 24.7498 26.7405 20.2485 27.0137M40.6725 8.79514C41.3981 6.55539 42.473 4.42489 42.9702 1.8437C40.0141 1.8437 37.2999 1.88467 34.5856 1.83005C33.4972 1.80273 32.9866 2.26707 32.6641 3.26404C32.1401 4.87557 31.428 6.43247 30.9308 8.05766C30.4605 9.60091 29.614 11.0349 29.4527 12.8513C31.4145 12.8513 33.2419 12.8786 35.0693 12.8513C39.9335 12.7693 38.8317 13.5615 40.6591 8.8088M18.1255 6.09105C18.5286 4.80728 19.2407 3.60546 19.3348 2.04856C16.4996 1.6525 13.7316 1.8437 10.9771 1.88467C10.4799 1.88467 10.0634 2.25341 9.8887 2.7041C8.66594 5.96813 7.4835 9.23217 6.18013 12.7967C9.36466 12.7967 12.2133 12.8103 15.0753 12.783C15.7875 12.783 15.9353 12.1138 16.1368 11.5539C16.7684 9.80577 17.4133 8.05766 18.1255 6.07739M30.7292 2.78604C31.1055 1.67982 30.1783 1.92564 29.7484 1.92564C27.4372 1.85736 25.1261 1.87102 22.8149 1.85736C21.955 1.85736 21.4847 2.3217 21.2025 3.11381C20.6785 4.61609 20.1141 6.11836 19.5767 7.62064C18.9989 9.24583 18.448 10.8847 17.7761 12.7967C20.8935 12.7967 23.7018 12.8103 26.5235 12.783C27.1416 12.783 27.37 12.2231 27.5581 11.7041C28.5928 8.79514 29.6409 5.88619 30.7292 2.77238M27.706 17.0577C26.8057 19.6388 25.6232 22.1244 24.8708 25.0061C28.0419 25.0061 30.9577 25.0061 33.8869 25.0061C34.29 25.0061 34.6125 24.8149 34.7737 24.4461C36.0234 21.4143 37.2058 18.3687 38.2673 14.8725C35.5531 14.8725 33.1076 14.9681 30.6755 14.8316C29.0899 14.7496 28.1897 15.2959 27.7328 17.0577M24.6155 19.7481C25.1126 18.2185 25.9323 16.7845 26.1204 14.8452C23.1777 14.8452 20.4635 14.8452 17.7493 14.8452C17.3327 14.8452 17.064 15.0364 16.9027 15.4325C15.6934 18.5326 14.4841 21.6464 13.221 24.8558C14.7394 25.1836 16.0428 25.047 17.3327 25.0197C19.0526 24.9788 21.0547 25.6753 22.4118 24.7056C23.769 23.736 23.8361 21.5918 24.6155 19.7618M4.47365 17.481C3.77493 19.4886 3.08965 21.5099 2.36406 23.5175C2.01471 24.4871 2.09533 25.047 3.30464 25.0334C5.56203 24.9924 7.81942 25.0197 10.0903 25.0334C10.6546 25.0334 11.1652 24.9105 11.3802 24.3232C12.5223 21.305 13.8123 18.3278 14.8066 14.8589C12.4014 14.8589 10.2112 14.8589 8.03441 14.8589C6.32345 14.8589 5.14101 15.7375 4.48709 17.4947L4.47365 17.481Z" fill="black"/>
</g>
<defs>
<clipPath id="clip0_705_294">
<rect width="45" height="27" fill="white"/>
</clipPath>
</defs>
</svg>
