<svg width="35" height="40" viewBox="0 0 35 40" fill="none" xmlns="http://www.w3.org/2000/svg">
<g clip-path="url(#clip0_705_325)">
<path d="M22.629 19.97C26.209 22.69 29.699 25.34 33.169 28C33.779 28.47 34.659 28.96 34.069 29.89C33.549 30.71 32.739 30.21 32.079 29.93C28.619 28.5 25.169 27.05 21.709 25.61C21.239 25.42 20.799 25.03 20.039 25.34C19.769 26.8 19.909 28.36 19.999 29.92C20.149 32.5 20.269 35.08 20.389 37.66C20.429 38.63 19.969 39.13 18.959 39.1C17.849 39.07 16.739 39.05 15.639 39.1C14.389 39.16 13.949 38.59 13.999 37.38C14.159 33.8 14.279 30.22 14.419 26.63C14.439 26.22 14.419 25.8 14.419 25.37C13.679 25.12 13.149 25.58 12.599 25.8C9.11902 27.18 5.64902 28.59 2.16902 29.98C1.48902 30.25 0.669024 30.68 0.189024 29.84C-0.340976 28.92 0.469024 28.41 1.10902 27.94C4.85902 25.21 8.55902 22.38 12.409 19.79C14.569 18.34 14.299 16.15 14.579 14.15C15.159 10.09 15.539 6 15.999 1.93C16.029 1.67 16.119 1.42 16.159 1.16C16.239 0.55 16.459 0 17.189 0C17.969 0.01 18.229 0.58 18.299 1.28C18.609 4.11 18.929 6.93 19.259 9.76C19.559 12.32 19.869 14.88 20.229 17.43C20.419 18.75 21.709 19.13 22.619 19.97M16.389 27.17C16.249 30.17 16.119 33.16 15.969 36.16C15.929 36.85 16.069 37.31 16.879 37.28C17.559 37.26 18.409 37.4 18.389 36.38C18.319 32.96 18.189 29.54 18.059 26.12C18.039 25.59 17.759 25.2 17.159 25.23C16.629 25.26 16.469 25.65 16.439 26.1C16.419 26.36 16.409 26.63 16.399 27.17M16.219 23.07C17.609 23.71 18.619 23.15 19.179 21.9C19.689 20.75 19.309 19.72 18.169 19.09C17.119 18.51 16.149 18.84 15.519 19.73C14.729 20.87 14.889 22.01 16.209 23.07M18.069 15.12C17.819 13.23 17.569 11.34 17.259 8.98C16.679 11.87 16.389 14.31 16.219 16.81C17.629 17.25 18.309 16.9 18.079 15.12M24.269 24.52C24.509 24.56 24.969 24.57 24.649 24.24C23.709 23.25 22.649 22.37 21.449 21.7C20.729 22.7 20.909 23.27 21.909 23.61C22.649 23.86 23.369 24.16 24.269 24.52ZM12.789 23.39C13.469 22.95 13.199 22.48 12.879 21.87C11.639 22.95 10.149 23.52 9.00902 24.94C10.489 24.67 11.509 23.97 12.789 23.39Z" fill="black"/>
</g>
<defs>
<clipPath id="clip0_705_325">
<rect width="34.27" height="39.1" fill="white"/>
</clipPath>
</defs>
</svg>
